<svg width="20" height="22" viewBox="0 0 20 22" fill="none" xmlns="http://www.w3.org/2000/svg">
<path fill-rule="evenodd" clip-rule="evenodd" d="M13.5 0.5C13.5 0.223858 13.7239 0 14 0C14.2761 0 14.5 0.223858 14.5 0.5V4.5C14.5 4.77614 14.2761 5 14 5C13.7239 5 13.5 4.77614 13.5 4.5V0.5ZM8 2H12V3H8V2ZM18 3H16V2H18C19.1046 2 20 2.89543 20 4V7V8V20C20 21.1046 19.1046 22 18 22H2C0.895431 22 0 21.1046 0 20V8V7V4C0 2.89543 0.895431 2 2 2H4V3H2C1.44772 3 1 3.44772 1 4V7H19V4C19 3.44772 18.5523 3 18 3ZM19 8H1V20C1 20.5523 1.44772 21 2 21H18C18.5523 21 19 20.5523 19 20V8ZM6 0C5.72386 0 5.5 0.223858 5.5 0.5V4.5C5.5 4.77614 5.72386 5 6 5C6.27614 5 6.5 4.77614 6.5 4.5V0.5C6.5 0.223858 6.27614 0 6 0ZM9.5 11.5C9.5 11.2239 9.72386 11 10 11C10.2761 11 10.5 11.2239 10.5 11.5V14H13C13.2761 14 13.5 14.2239 13.5 14.5C13.5 14.7761 13.2761 15 13 15H10.5V17.5C10.5 17.7761 10.2761 18 10 18C9.72386 18 9.5 17.7761 9.5 17.5V15H7C6.72386 15 6.5 14.7761 6.5 14.5C6.5 14.2239 6.72386 14 7 14H9.5V11.5Z" fill="black"/>
</svg>
