<svg width="20" height="20" viewBox="0 0 20 20" fill="none" xmlns="http://www.w3.org/2000/svg">
<path fill-rule="evenodd" clip-rule="evenodd" d="M2 1C2 1.55228 1.55228 2 1 2C0.447715 2 0 1.55228 0 1C0 0.447715 0.447715 0 1 0C1.55228 0 2 0.447715 2 1ZM4.5 0.5C4.22386 0.5 4 0.723858 4 1C4 1.27614 4.22386 1.5 4.5 1.5H19.5C19.7761 1.5 20 1.27614 20 1C20 0.723858 19.7761 0.5 19.5 0.5H4.5ZM2 5.5C2 6.05228 1.55228 6.5 1 6.5C0.447715 6.5 0 6.05228 0 5.5C0 4.94772 0.447715 4.5 1 4.5C1.55228 4.5 2 4.94772 2 5.5ZM4.5 5C4.22386 5 4 5.22386 4 5.5C4 5.77614 4.22386 6 4.5 6H19.5C19.7761 6 20 5.77614 20 5.5C20 5.22386 19.7761 5 19.5 5H4.5ZM1 11C1.55228 11 2 10.5523 2 10C2 9.44772 1.55228 9 1 9C0.447715 9 0 9.44772 0 10C0 10.5523 0.447715 11 1 11ZM4 10C4 9.72386 4.22386 9.5 4.5 9.5H19.5C19.7761 9.5 20 9.72386 20 10C20 10.2761 19.7761 10.5 19.5 10.5H4.5C4.22386 10.5 4 10.2761 4 10ZM2 14.5C2 15.0523 1.55228 15.5 1 15.5C0.447715 15.5 0 15.0523 0 14.5C0 13.9477 0.447715 13.5 1 13.5C1.55228 13.5 2 13.9477 2 14.5ZM4.5 14C4.22386 14 4 14.2239 4 14.5C4 14.7761 4.22386 15 4.5 15H19.5C19.7761 15 20 14.7761 20 14.5C20 14.2239 19.7761 14 19.5 14H4.5ZM1 20C1.55228 20 2 19.5523 2 19C2 18.4477 1.55228 18 1 18C0.447715 18 0 18.4477 0 19C0 19.5523 0.447715 20 1 20ZM4 19C4 18.7239 4.22386 18.5 4.5 18.5H19.5C19.7761 18.5 20 18.7239 20 19C20 19.2761 19.7761 19.5 19.5 19.5H4.5C4.22386 19.5 4 19.2761 4 19Z" fill="black"/>
</svg>
