<svg width="24" height="11" viewBox="0 0 24 11" fill="none" xmlns="http://www.w3.org/2000/svg">
<path fill-rule="evenodd" clip-rule="evenodd" d="M18.5 1H5.5C3.01472 1 1 3.01472 1 5.5C1 7.98528 3.01472 10 5.5 10H18.5C20.9853 10 23 7.98528 23 5.5C23 3.01472 20.9853 1 18.5 1ZM5.5 0C2.46243 0 0 2.46243 0 5.5C0 8.53757 2.46243 11 5.5 11H18.5C21.5376 11 24 8.53757 24 5.5C24 2.46243 21.5376 0 18.5 0H5.5ZM7.5 5.5C7.5 6.32843 6.82843 7 6 7C5.17157 7 4.5 6.32843 4.5 5.5C4.5 4.67157 5.17157 4 6 4C6.82843 4 7.5 4.67157 7.5 5.5ZM8.5 5.5C8.5 6.88071 7.38071 8 6 8C4.61929 8 3.5 6.88071 3.5 5.5C3.5 4.11929 4.61929 3 6 3C7.38071 3 8.5 4.11929 8.5 5.5ZM6 4.5L6.03835 4.61803L6.06205 4.69098L6.13876 4.92705L6.22451 5.19098H6.50203H6.75025H6.82695H6.95106L6.85065 5.26393L6.7886 5.30902L6.58779 5.45492L6.36327 5.61803L6.44903 5.88197L6.52573 6.11803L6.54943 6.19098L6.58779 6.30902L6.48738 6.23607L6.42533 6.19098L6.22451 6.04508L6 5.88197L5.77549 6.04508L5.57467 6.19098L5.51262 6.23607L5.41221 6.30902L5.45057 6.19098L5.47427 6.11803L5.55097 5.88197L5.63673 5.61803L5.41221 5.45492L5.2114 5.30902L5.14935 5.26393L5.04894 5.19098H5.17305H5.24975H5.49797H5.77549L5.86124 4.92705L5.93795 4.69098L5.96165 4.61803L6 4.5ZM10 4H20V3H10V4ZM10 6H18V5H10V6ZM17 8H10V7H17V8Z" fill="black"/>
</svg>
