<svg width="17" height="11" viewBox="0 0 17 11" fill="none" xmlns="http://www.w3.org/2000/svg">
<path d="M2.8087 2.27423L4.93283 7.77533C4.96682 7.86344 4.96115 7.95154 4.91584 8.03965C4.88185 8.12775 4.81954 8.18833 4.72892 8.22137C4.6836 8.24339 4.64395 8.25441 4.60996 8.25441C4.46269 8.25441 4.3494 8.17731 4.2701 8.02313L3.5564 6.17291C3.5564 6.18392 3.55073 6.18943 3.5394 6.18943H1.41528V6.17291C1.41528 6.17291 1.40961 6.17291 1.39828 6.17291L0.684576 8.02313C0.65059 8.11123 0.588282 8.17731 0.497653 8.22137C0.418352 8.2544 0.333387 8.2544 0.242757 8.22137C0.152128 8.18833 0.0841559 8.12775 0.0388412 8.03965C-0.00647353 7.95154 -0.0121379 7.86344 0.0218482 7.77533L2.14598 2.27423C2.17996 2.18612 2.24227 2.13106 2.3329 2.10903C2.43486 2.07599 2.53115 2.07599 2.62178 2.10903C2.71241 2.13106 2.77472 2.18612 2.8087 2.27423ZM1.67017 5.49559H3.3015L2.48584 3.38106L1.67017 5.49559ZM11.6961 4.12445C11.4015 4.12445 11.1466 4.22357 10.9314 4.42181C10.7275 4.62004 10.6255 4.86233 10.6255 5.14868V6.51982C10.6255 6.80617 10.7275 7.05396 10.9314 7.26322C11.1466 7.46145 11.4015 7.56057 11.6961 7.56057C11.9906 7.56057 12.2398 7.46145 12.4437 7.26322C12.6477 7.05396 12.7496 6.80617 12.7496 6.51982C12.7496 6.43172 12.7836 6.35463 12.8516 6.28855C12.9309 6.22247 13.0158 6.18943 13.1065 6.18943C13.1971 6.18943 13.2764 6.22247 13.3444 6.28855C13.4237 6.35463 13.4633 6.43172 13.4633 6.51982C13.4633 6.83921 13.384 7.13106 13.2254 7.39537C13.0668 7.65969 12.8516 7.86894 12.5797 8.02313C12.3191 8.17731 12.0246 8.25441 11.6961 8.25441C11.3675 8.25441 11.0673 8.17731 10.7954 8.02313C10.5235 7.86894 10.3083 7.65969 10.1497 7.39537C9.99109 7.13106 9.91179 6.83921 9.91179 6.51982V5.14868C9.91179 4.84031 9.99109 4.55396 10.1497 4.28965C10.3196 4.02533 10.5405 3.81608 10.8124 3.66189C11.0843 3.50771 11.3789 3.43062 11.6961 3.43062C12.0133 3.43062 12.3078 3.50771 12.5797 3.66189C12.8516 3.81608 13.0668 4.02533 13.2254 4.28965C13.384 4.55396 13.4633 4.84031 13.4633 5.14868C13.4633 5.2478 13.4293 5.3304 13.3614 5.39648C13.2934 5.46255 13.2084 5.49559 13.1065 5.49559C13.0045 5.49559 12.9196 5.46255 12.8516 5.39648C12.7836 5.3304 12.7496 5.2478 12.7496 5.14868C12.7496 4.86233 12.6477 4.62004 12.4437 4.42181C12.2398 4.22357 11.9906 4.12445 11.6961 4.12445ZM7.4478 3.43062C7.765 3.43062 8.05955 3.50771 8.33143 3.66189C8.60332 3.81608 8.81857 4.02533 8.97717 4.28965C9.13577 4.55396 9.21507 4.84031 9.21507 5.14868V6.51982C9.21507 6.82819 9.13577 7.12004 8.97717 7.39537C8.81857 7.65969 8.60332 7.86894 8.33143 8.02313C8.05955 8.17731 7.765 8.25441 7.4478 8.25441C7.07395 8.25441 6.7171 8.13326 6.37724 7.89097V7.90749C6.37724 7.99559 6.33759 8.07819 6.25829 8.15529C6.19031 8.22137 6.11101 8.25441 6.02038 8.25441C5.92976 8.25441 5.84479 8.22137 5.76549 8.15529C5.69752 8.07819 5.66353 7.99559 5.66353 7.90749V2.38987C5.66353 2.30176 5.69752 2.22467 5.76549 2.15859C5.83346 2.09251 5.91843 2.05947 6.02038 2.05947C6.12234 2.05947 6.20731 2.09251 6.27528 2.15859C6.34325 2.22467 6.37724 2.30176 6.37724 2.38987V3.77753C6.70577 3.54626 7.06262 3.43062 7.4478 3.43062ZM8.50137 6.51982V5.14868C8.50137 4.86233 8.39941 4.62004 8.19549 4.42181C7.99157 4.22357 7.74234 4.12445 7.4478 4.12445C7.15325 4.12445 6.89836 4.22357 6.68311 4.42181C6.4792 4.62004 6.37724 4.86233 6.37724 5.14868V6.51982C6.37724 6.80617 6.4792 7.05396 6.68311 7.26322C6.89836 7.46145 7.15325 7.56057 7.4478 7.56057C7.74234 7.56057 7.99157 7.46145 8.19549 7.26322C8.39941 7.05396 8.50137 6.80617 8.50137 6.51982ZM16.9469 10.4681C17.0035 10.5562 17.0149 10.6498 16.9809 10.7489C16.9582 10.837 16.9072 10.9031 16.8279 10.9471C16.7826 10.9802 16.7203 10.9967 16.641 10.9967C16.5164 10.9967 16.4201 10.9416 16.3521 10.8315V10.815C16.2615 10.7159 16.1539 10.6278 16.0293 10.5507C15.7914 10.3965 15.5251 10.3194 15.2306 10.3194C15.004 10.3194 14.8001 10.3634 14.6189 10.4515C14.4716 10.5176 14.347 10.6002 14.245 10.6993C14.177 10.7654 14.1317 10.815 14.1091 10.848C14.0524 10.9251 13.9731 10.9747 13.8712 10.9967C13.7805 11.0077 13.6956 10.9912 13.6163 10.9471C13.537 10.8921 13.486 10.8205 13.4633 10.7324C13.452 10.6333 13.469 10.5452 13.5143 10.4681L13.5313 10.4515C13.6333 10.3084 13.7579 10.1817 13.9051 10.0716C14.1884 9.85132 14.5112 9.71366 14.8737 9.65859V6.18943H14.5169C14.4263 6.18943 14.3413 6.15639 14.262 6.09031C14.194 6.02423 14.16 5.94163 14.16 5.84251C14.16 5.74339 14.194 5.66079 14.262 5.59471C14.3413 5.52863 14.4263 5.49559 14.5169 5.49559H14.8737V1.3326C14.6019 1.28855 14.347 1.19493 14.1091 1.05176C13.9505 0.952643 13.8032 0.837004 13.6672 0.704845C13.5879 0.61674 13.537 0.550661 13.5143 0.506608C13.4577 0.429515 13.4407 0.346916 13.4633 0.25881C13.4973 0.159691 13.554 0.0881055 13.6333 0.0440532C13.7126 2.20522e-07 13.7975 -0.0110132 13.8882 0.011013C13.9788 0.022026 14.0524 0.066079 14.1091 0.143172C14.1317 0.176212 14.177 0.225771 14.245 0.29185C14.347 0.390969 14.4716 0.473568 14.6189 0.539647C14.8001 0.627753 15.004 0.671806 15.2306 0.671806C15.4572 0.671806 15.6611 0.627753 15.8424 0.539647C15.9896 0.473568 16.1142 0.390969 16.2162 0.29185C16.2842 0.225771 16.3295 0.176212 16.3521 0.143172C16.4088 0.066079 16.4824 0.022026 16.5731 0.011013C16.6637 -0.0110132 16.7486 2.20522e-07 16.8279 0.0440532C16.9072 0.0881055 16.9582 0.159691 16.9809 0.25881C17.0149 0.346916 17.0035 0.435022 16.9469 0.523128L16.9299 0.539647C16.8279 0.671806 16.7033 0.798458 16.5561 0.919603C16.2615 1.13987 15.9386 1.27753 15.5875 1.3326V5.49559H15.9443C16.0349 5.49559 16.1142 5.53414 16.1822 5.61123C16.2502 5.67731 16.2842 5.7544 16.2842 5.84251C16.2842 5.93062 16.2502 6.01322 16.1822 6.09031C16.1142 6.15639 16.0349 6.18943 15.9443 6.18943H15.5875V9.65859C15.8593 9.70264 16.1086 9.79075 16.3351 9.92291C16.5051 10.022 16.658 10.1377 16.794 10.2698C16.8733 10.3579 16.9242 10.424 16.9469 10.4681Z" fill="black"/>
</svg>
