<svg width="23" height="22" viewBox="0 0 23 22" fill="none" xmlns="http://www.w3.org/2000/svg">
<path fill-rule="evenodd" clip-rule="evenodd" d="M10.5 19.9863V20.9877C9.13024 20.9203 7.83296 20.5772 6.66243 20.0129L7.16409 19.144C6.86129 19.0011 6.56774 18.8418 6.28458 18.6673L5.78433 19.5338C4.57566 18.7935 3.53642 17.8036 2.73829 16.6359L3.60717 16.1342C3.41706 15.861 3.24171 15.5768 3.08227 15.2826L2.2158 15.7829C1.5156 14.4996 1.08841 13.0459 1.01228 11.5H2.01365C2.00459 11.3345 2 11.1678 2 11C2 10.8322 2.00459 10.6655 2.01365 10.5H1.01228C1.08841 8.95403 1.51561 7.50038 2.21583 6.2171L3.0823 6.71735C3.24174 6.4232 3.41709 6.13894 3.6072 5.86571L2.73832 5.36406C3.53645 4.19634 4.57569 3.20649 5.78435 2.46621L6.28461 3.33268C6.56776 3.15817 6.86131 2.99891 7.16412 2.85603L6.66246 1.98713C7.83298 1.42278 9.13025 1.07973 10.5 1.01228V2.01365C10.6655 2.00459 10.8322 2 11 2C11.1678 2 11.3345 2.00459 11.5 2.01365V1.01228C13.046 1.08841 14.4996 1.5156 15.7829 2.2158L15.2826 3.08227C15.5768 3.24171 15.861 3.41707 16.1343 3.60718L16.6359 2.73829C17.8036 3.53642 18.7935 4.57566 19.5338 5.78432L18.6673 6.28458C18.8418 6.56773 19.0011 6.86128 19.144 7.16408L20.0128 6.66243C20.5772 7.83295 20.9203 9.13024 20.9877 10.5H19.9863C19.9954 10.6655 20 10.8322 20 11C20 11.1678 19.9954 11.3345 19.9863 11.5H20.9877C20.9203 12.8697 20.5772 14.167 20.0129 15.3375L19.7496 15.1855C19.9308 14.7985 20.032 14.3665 20.032 13.9109C20.032 12.2481 18.6835 10.9 17.02 10.9C15.3565 10.9 14.008 12.2481 14.008 13.9109C14.008 15.5738 15.3565 16.9218 17.02 16.9218C17.8666 16.9218 18.6315 16.5727 19.1787 16.0106L19.5338 16.2156C19.3129 16.5763 19.0698 16.9218 18.8064 17.2504C18.2412 17.0352 17.6365 16.9219 17.02 16.9219C15.6886 16.9219 14.4118 17.4506 13.4703 18.3916C12.7683 19.0935 12.2956 19.9817 12.1007 20.94C12.041 21.2333 12.0073 21.5332 12.0011 21.8363C12.0073 21.5332 12.0409 21.2334 12.1005 20.9401C11.902 20.9619 11.7018 20.9778 11.5 20.9877V19.9863C11.3345 19.9954 11.1678 20 11 20C10.8322 20 10.6655 19.9954 10.5 19.9863ZM12.1556 21.94C11.9388 21.9627 11.7203 21.979 11.5 21.9888V22H11H10.5V21.9888C8.94838 21.9194 7.4804 21.5286 6.16106 20.8813L6.14952 20.9012L5.68426 20.6326C5.56599 20.5672 5.44906 20.4997 5.33351 20.4301L5.28349 20.4012L5.2841 20.4002C3.92401 19.5714 2.75793 18.4557 1.8699 17.1373L1.84872 17.1495L1.56941 16.6657C1.50015 16.5507 1.43293 16.4343 1.3678 16.3165L1.34872 16.2835L1.34938 16.2831C0.564466 14.8523 0.0884664 13.228 0.0111613 11.5H0V11V10.5H0.0111613C0.0884673 8.77195 0.564476 7.14765 1.34941 5.71687L1.34872 5.71647L1.36861 5.68202C1.43321 5.56527 1.49988 5.44981 1.56856 5.3357L1.84872 4.85045L1.86993 4.86269C2.75796 3.54423 3.92404 2.42857 5.28413 1.59979L5.28349 1.59869L5.33596 1.5684C5.4499 1.49983 5.56518 1.43327 5.68176 1.36876L6.14952 1.09869L6.16109 1.11873C7.48042 0.471429 8.94839 0.0805741 10.5 0.0111613V0H11H11.5V0.0111613C13.228 0.0884665 14.8523 0.564467 16.2831 1.34939L16.2835 1.34869L16.3185 1.36888C16.4349 1.43331 16.55 1.49979 16.6638 1.56827L17.1495 1.84869L17.1373 1.8699C18.4557 2.75793 19.5714 3.92401 20.4002 5.2841L20.4013 5.28347L20.4313 5.33543C20.5001 5.44972 20.5668 5.56536 20.6315 5.68231L20.9013 6.14949L20.8813 6.16106C21.5286 7.4804 21.9194 8.94838 21.9888 10.5H22V11V11.5H21.9888C21.9194 13.0516 21.5286 14.5196 20.8813 15.8389L20.9013 15.8504L20.6324 16.3162C20.5671 16.4342 20.4998 16.5508 20.4304 16.666L20.4013 16.7165L20.4002 16.7159C20.1908 17.0595 19.963 17.3909 19.7183 17.7084C20.0238 17.903 20.3095 18.1316 20.5697 18.3916C21.2717 19.0935 21.7444 19.9817 21.9393 20.94C22.0058 21.2668 22.04 21.6016 22.04 21.94H21.04H17.02L13 21.94H12.1556ZM11 12C11.5523 12 12 11.5523 12 11C12 10.534 11.6813 10.1425 11.25 10.0315V7.5H12.4434L11 5L9.55662 7.5H10.75V10.0315C10.3986 10.1219 10.1219 10.3986 10.0315 10.75H6.5V9.55662L4 11L6.5 12.4434V11.25H10.0315C10.1425 11.6813 10.534 12 11 12ZM17.02 15.9218C18.1315 15.9218 19.032 15.0212 19.032 13.9109C19.032 12.8007 18.1315 11.9 17.02 11.9C15.9085 11.9 15.008 12.8007 15.008 13.9109C15.008 15.0212 15.9085 15.9218 17.02 15.9218ZM20.9135 20.94C20.7359 20.2492 20.3759 19.6119 19.8627 19.0989C19.1088 18.3453 18.0863 17.9219 17.02 17.9219C15.9537 17.9219 14.9312 18.3453 14.1773 19.0989C13.6641 19.6119 13.3041 20.2492 13.1265 20.94L17.02 20.94H20.9135Z" fill="black"/>
</svg>
