<svg width="24" height="24" viewBox="0 0 24 24" fill="none" xmlns="http://www.w3.org/2000/svg">
<path fill-rule="evenodd" clip-rule="evenodd" d="M3 3.5C2.17157 3.5 1.5 4.17157 1.5 5V19C1.5 19.8284 2.17157 20.5 3 20.5H21C21.8284 20.5 22.5 19.8284 22.5 19V5C22.5 4.17157 21.8284 3.5 21 3.5H3ZM2.5 5C2.5 4.72386 2.72386 4.5 3 4.5H4.79292L2.5 6.79292V5ZM2.5 8.20713V19C2.5 19.2761 2.72386 19.5 3 19.5H21C21.2761 19.5 21.5 19.2761 21.5 19V5C21.5 4.72386 21.2761 4.5 21 4.5H6.20713L2.5 8.20713ZM5 7.5C4.72386 7.5 4.5 7.72386 4.5 8C4.5 8.27614 4.72386 8.5 5 8.5H20C20.2761 8.5 20.5 8.27614 20.5 8C20.5 7.72386 20.2761 7.5 20 7.5H5ZM8 11.5C8 11.2239 8.22386 11 8.5 11H16.5C16.7761 11 17 11.2239 17 11.5C17 11.7761 16.7761 12 16.5 12H8.5C8.22386 12 8 11.7761 8 11.5ZM7 9.5C6.72386 9.5 6.5 9.72386 6.5 10C6.5 10.2761 6.72386 10.5 7 10.5H18C18.2761 10.5 18.5 10.2761 18.5 10C18.5 9.72386 18.2761 9.5 18 9.5H7ZM3.5 15.2C3.5 14.8134 3.8134 14.5 4.2 14.5H10.8C11.1866 14.5 11.5 14.8134 11.5 15.2V17.8C11.5 18.1866 11.1866 18.5 10.8 18.5H4.2C3.8134 18.5 3.5 18.1866 3.5 17.8V15.2ZM4.5 15.5V17.5H10.5V15.5H4.5ZM13.2 14.5C12.8134 14.5 12.5 14.8134 12.5 15.2V17.8C12.5 18.1866 12.8134 18.5 13.2 18.5H19.8C20.1866 18.5 20.5 18.1866 20.5 17.8V15.2C20.5 14.8134 20.1866 14.5 19.8 14.5H13.2ZM13.5 17.5V15.5H19.5V17.5H13.5ZM18.2988 17.1154L18 16L19.1154 16.2989L18.7778 16.6364L19.1314 16.99L18.9899 17.1314L18.6364 16.7778L18.2988 17.1154Z" fill="black"/>
</svg>
