<svg width="24" height="24" viewBox="0 0 24 24" fill="none" xmlns="http://www.w3.org/2000/svg">
<path fill-rule="evenodd" clip-rule="evenodd" d="M0.5 12C0.5 5.64873 5.64873 0.5 12 0.5V1.5C6.20101 1.5 1.5 6.20101 1.5 12C1.5 17.799 6.20101 22.5 12 22.5C17.799 22.5 22.5 17.799 22.5 12C22.5 10.9575 22.3481 9.95056 22.0652 9H23.1048C23.3625 9.95641 23.5 10.9621 23.5 12C23.5 18.3513 18.3513 23.5 12 23.5C5.64873 23.5 0.5 18.3513 0.5 12ZM10.3654 10.0064C10.4971 9.78382 10.6549 9.60082 10.8388 9.45739C11.1418 9.22064 11.5054 9.10227 11.9297 9.10227C12.3539 9.10227 12.7166 9.22064 13.0178 9.45739C13.0423 9.47644 13.0664 9.49618 13.0901 9.51663L13.0924 9.51864C13.359 9.7501 13.5652 10.0706 13.7109 10.4801C13.726 10.5217 13.7403 10.5641 13.754 10.6073L13.755 10.6104C13.8866 11.0288 13.9524 11.5223 13.9524 12.0909C13.9524 12.7235 13.8729 13.2633 13.7138 13.7102C13.6529 13.8805 13.5817 14.0354 13.5 14.1749C13.3682 14.4 13.2094 14.5851 13.0234 14.7301C12.7223 14.9631 12.3577 15.0795 11.9297 15.0795C11.5017 15.0795 11.1371 14.9631 10.8359 14.7301C10.8098 14.7097 10.7842 14.6885 10.7591 14.6665L10.7567 14.6645C10.4942 14.4335 10.2904 14.1154 10.1456 13.7102C10.1293 13.6645 10.1139 13.6179 10.0993 13.5703C9.97108 13.1519 9.90696 12.6588 9.90696 12.0909C9.90696 11.4621 9.98651 10.9252 10.1456 10.4801C10.2081 10.3066 10.2811 10.1491 10.3648 10.0075L10.3654 10.0064ZM4.98864 13.4264L4.98878 13.4142C4.9922 13.1834 5.04045 12.9696 5.13352 12.7727C5.15778 12.7209 5.18422 12.6713 5.21284 12.6238C5.24153 12.5761 5.2724 12.5306 5.30547 12.4873L5.30854 12.4833C5.3757 12.3958 5.45183 12.3171 5.53693 12.2472C5.5504 12.2361 5.56399 12.2253 5.57769 12.2148C5.72832 12.0999 5.89359 12.0233 6.07352 11.9851L6.07552 11.9847C6.0851 11.9827 6.09472 11.9808 6.10439 11.979L6.11364 11.9773V11.9432L6.10725 11.9415C6.08624 11.936 6.06555 11.9299 6.04519 11.9234L6.0422 11.9225C5.88242 11.8709 5.74275 11.7895 5.62321 11.6783C5.57887 11.637 5.5373 11.5916 5.49849 11.5421L5.495 11.5377C5.47915 11.5173 5.46378 11.4962 5.44886 11.4744C5.39105 11.3894 5.34349 11.3002 5.3062 11.207C5.24321 11.0496 5.20948 10.8805 5.20502 10.6997L5.20475 10.6868C5.20453 10.6738 5.20447 10.6608 5.20455 10.6477C5.20265 10.3523 5.27746 10.0881 5.42898 9.85511L5.44341 9.83333L5.44556 9.83015C5.59556 9.609 5.79837 9.43361 6.05398 9.30398C6.07363 9.29408 6.09349 9.28455 6.11354 9.27538L6.11889 9.27294C6.36998 9.15916 6.65232 9.10227 6.96591 9.10227C7.27695 9.10227 7.55736 9.15951 7.80714 9.27398L7.81252 9.27645C7.83163 9.28529 7.85056 9.29447 7.86932 9.30398C8.12291 9.43259 8.32454 9.60624 8.47419 9.82494L8.47637 9.82814C8.48244 9.83705 8.48842 9.84605 8.49432 9.85511C8.64773 10.0881 8.72538 10.3523 8.72727 10.6477C8.72719 10.6608 8.72697 10.6737 8.72659 10.6866L8.72617 10.6996C8.71955 10.8801 8.68409 11.0489 8.61979 11.2062C8.58154 11.2997 8.53309 11.3891 8.47443 11.4744C8.45842 11.4978 8.44189 11.5204 8.42486 11.5422C8.38608 11.5918 8.34466 11.6372 8.30059 11.6786C8.18084 11.7909 8.04156 11.8728 7.88277 11.9242L7.87972 11.9252C7.86161 11.931 7.84325 11.9364 7.82463 11.9415L7.81818 11.9432V11.9773L7.82764 11.979L7.85055 11.9836L7.8526 11.984C8.0327 12.0217 8.19718 12.0986 8.34602 12.2145C8.3596 12.225 8.37305 12.2359 8.38636 12.2472C8.47072 12.3173 8.54653 12.3962 8.61381 12.4839C8.64825 12.5288 8.68046 12.576 8.71043 12.6255C8.73889 12.6725 8.76534 12.7216 8.78977 12.7727C8.88468 12.9697 8.93557 13.1836 8.94243 13.4145L8.94276 13.4268L8.94318 13.4545C8.94129 13.7689 8.85606 14.0492 8.6875 14.2955C8.67647 14.3116 8.66515 14.3276 8.65355 14.3433C8.48983 14.565 8.26914 14.7413 7.99148 14.8722C7.96381 14.8851 7.93573 14.8974 7.90725 14.9092C7.63159 15.0228 7.31781 15.0795 6.96591 15.0795C6.61385 15.0795 6.29881 15.0233 6.02077 14.9107C5.99069 14.8985 5.96104 14.8857 5.93182 14.8722C5.65415 14.7413 5.43346 14.565 5.26975 14.3433L5.26635 14.3387C5.25593 14.3244 5.24575 14.31 5.2358 14.2955C5.06913 14.0492 4.98674 13.7689 4.98864 13.4545L4.98864 13.4264ZM5.73767 13.0558C5.75652 13.0005 5.78013 12.9474 5.80851 12.8964C5.81954 12.8767 5.83128 12.8572 5.84375 12.8381C5.86251 12.8098 5.88241 12.7825 5.90346 12.7562C5.912 12.7456 5.92072 12.7351 5.92964 12.7248L5.93012 12.7242C5.98914 12.656 6.05642 12.5951 6.13197 12.5414C6.15573 12.5246 6.18032 12.5084 6.20573 12.493C6.23634 12.4744 6.26815 12.4568 6.30114 12.4403C6.45664 12.3633 6.62899 12.317 6.81818 12.3014C6.86633 12.2974 6.91558 12.2955 6.96591 12.2955C7.0163 12.2955 7.06554 12.2975 7.11364 12.3015C7.30052 12.3172 7.47002 12.3635 7.62216 12.4403C7.65765 12.4581 7.69176 12.477 7.7245 12.4972C7.7476 12.5114 7.77002 12.5263 7.79175 12.5417C7.86522 12.5939 7.93086 12.653 7.98869 12.7191L7.99141 12.7222C8.00804 12.7413 8.02402 12.761 8.03936 12.7813C8.05329 12.7998 8.06669 12.8187 8.07955 12.8381C8.09261 12.8578 8.10492 12.8778 8.11648 12.8982C8.14564 12.9497 8.17003 13.0034 8.18964 13.0593L8.19042 13.0615C8.22903 13.1724 8.24889 13.2921 8.25 13.4205C8.24991 13.4305 8.2497 13.4405 8.24937 13.4504L8.24902 13.4599C8.24213 13.6279 8.20088 13.7781 8.12525 13.9105L8.12468 13.9115C8.11409 13.93 8.10284 13.9481 8.09091 13.9659C8.00024 14.1011 7.87657 14.2097 7.7199 14.2918L7.71832 14.2926C7.69549 14.3046 7.67196 14.3159 7.64773 14.3267C7.45644 14.4119 7.22917 14.4545 6.96591 14.4545C6.70076 14.4545 6.47159 14.4119 6.27841 14.3267C6.25332 14.3156 6.22898 14.304 6.2054 14.2917L6.20104 14.2895C6.04508 14.2076 5.92219 14.0998 5.83239 13.9659C5.82106 13.9487 5.81037 13.9312 5.80031 13.9133L5.79911 13.9112C5.72481 13.7783 5.68579 13.6275 5.68206 13.4587L5.68189 13.4492C5.68175 13.4397 5.68173 13.4301 5.68182 13.4205C5.6807 13.2907 5.69907 13.1699 5.73692 13.058L5.73767 13.0558ZM6.96591 11.6932C6.91526 11.6932 6.86602 11.6908 6.81818 11.6861C6.66566 11.6709 6.5274 11.6316 6.40341 11.5682C6.34347 11.5375 6.28828 11.5024 6.23784 11.4627C6.2179 11.4471 6.19871 11.4307 6.18026 11.4136C6.1185 11.3565 6.06505 11.2916 6.01989 11.2188C6.00079 11.1873 5.98374 11.1548 5.96874 11.1211L5.96779 11.1189C5.9633 11.1088 5.95898 11.0985 5.95486 11.0881C5.94292 11.0581 5.93254 11.0272 5.92371 10.9954C5.89779 10.9021 5.88534 10.8013 5.88636 10.6932C5.88623 10.6793 5.88632 10.6655 5.88664 10.6519L5.88687 10.6434C5.89167 10.4857 5.92692 10.3451 5.99264 10.2217C6.00036 10.2072 6.00849 10.193 6.01705 10.179C6.09541 10.0489 6.20241 9.94528 6.33803 9.86807L6.3396 9.86718C6.35753 9.85702 6.37596 9.84731 6.39489 9.83807C6.55777 9.75663 6.74811 9.71591 6.96591 9.71591C7.17992 9.71591 7.36742 9.75663 7.52841 9.83807C7.54728 9.84739 7.56566 9.85718 7.58356 9.86744C7.71843 9.94472 7.82599 10.0486 7.90625 10.179C7.91493 10.1929 7.92321 10.2071 7.93107 10.2215L7.93291 10.2248C7.9993 10.3475 8.03633 10.4871 8.04401 10.6435L8.0444 10.6521C8.04497 10.6657 8.04532 10.6794 8.04545 10.6932C8.04444 10.801 8.03031 10.9014 8.00308 10.9945C7.99774 11.0127 7.9919 11.0307 7.98555 11.0484C7.97695 11.0723 7.96742 11.0958 7.95697 11.1187L7.95653 11.1196C7.94089 11.1538 7.92318 11.1869 7.90341 11.2188C7.85845 11.2912 7.80527 11.3559 7.74386 11.4129C7.72668 11.4288 7.70884 11.4441 7.69037 11.4588C7.6386 11.5001 7.58177 11.5365 7.51989 11.5682C7.39803 11.6313 7.26262 11.6705 7.11364 11.6858C7.06579 11.6907 7.01655 11.6932 6.96591 11.6932ZM18.3157 11.5791L18.0863 11.9126L18.0849 11.9148L17.5306 12.7209L17.529 12.7233L17.0003 13.4924L15.9638 15H15.3161L15.5239 14.6976L15.9638 14.0579L16.9345 12.6459L17.2393 12.2025L17.2406 12.2006L17.771 11.4291L17.7726 11.4269L18.3551 10.5795L18.3615 10.5702L19.3161 9.18182H19.9638L19.7559 9.48421L19.3161 10.124L18.3157 11.5791ZM17.9979 13.9091V13.8065V13.6023C17.9979 13.3902 18.0414 13.196 18.1286 13.0199C18.1603 12.9564 18.1971 12.8975 18.2389 12.8432L18.2402 12.8416C18.3155 12.7442 18.407 12.6616 18.5149 12.5938C18.6363 12.5169 18.7759 12.4674 18.9337 12.4453C18.9976 12.4363 19.0644 12.4318 19.1342 12.4318C19.3804 12.4318 19.5869 12.4858 19.7536 12.5938C19.866 12.6653 19.9599 12.7532 20.0352 12.8575L20.0371 12.8601C20.0727 12.9097 20.1041 12.9629 20.1314 13.0199C20.2166 13.196 20.2592 13.3902 20.2592 13.6023V13.9091C20.2592 14.1212 20.2157 14.3163 20.1286 14.4943C20.0996 14.5541 20.0659 14.61 20.0273 14.6619L20.026 14.6638C19.9512 14.764 19.8585 14.8496 19.7479 14.9205C19.5812 15.0265 19.3767 15.0795 19.1342 15.0795C18.888 15.0795 18.6806 15.0265 18.5121 14.9205C18.4021 14.85 18.3095 14.7651 18.2342 14.6657L18.2322 14.6631C18.1929 14.6108 18.1583 14.5546 18.1286 14.4943C18.0414 14.3163 17.9979 14.1212 17.9979 13.9091ZM18.5774 13.6023C18.5774 13.484 18.5966 13.3743 18.635 13.2731L18.6359 13.2708C18.6546 13.2221 18.6777 13.1754 18.7053 13.1307C18.7292 13.0921 18.7575 13.0588 18.7899 13.0308L18.7911 13.0298C18.8764 12.9569 18.9908 12.9205 19.1342 12.9205C19.2787 12.9205 19.3919 12.9554 19.474 13.0253L19.4772 13.028C19.51 13.0565 19.5377 13.0908 19.5604 13.1307C19.5848 13.1732 19.6055 13.2175 19.6224 13.2635L19.6233 13.2658C19.6609 13.369 19.6797 13.4811 19.6797 13.6023V13.9091C19.6797 14.0298 19.6601 14.1421 19.621 14.2459L19.6201 14.2483C19.6023 14.2951 19.5805 14.3402 19.5547 14.3835C19.5315 14.4229 19.5035 14.4567 19.4707 14.4849L19.4696 14.4859C19.3875 14.5559 19.2757 14.5909 19.1342 14.5909C18.989 14.5909 18.8743 14.556 18.7901 14.4863L18.7869 14.4836C18.754 14.4557 18.7258 14.4223 18.7024 14.3835C18.6762 14.3394 18.6541 14.2936 18.6361 14.2459L18.6353 14.2437C18.5967 14.1405 18.5774 14.0289 18.5774 13.9091V13.6023ZM17.2308 11.1648C17.2019 11.2246 17.1681 11.2804 17.1296 11.3324L17.1283 11.3342C17.0535 11.4345 16.9608 11.52 16.8501 11.5909C16.7075 11.6817 16.5372 11.7336 16.3392 11.7467C16.3057 11.7489 16.2715 11.75 16.2365 11.75C15.9903 11.75 15.7829 11.697 15.6143 11.5909C15.5044 11.5205 15.4118 11.4356 15.3365 11.3362L15.3345 11.3335C15.2952 11.2813 15.2606 11.225 15.2308 11.1648C15.1437 10.9867 15.1001 10.7917 15.1001 10.5795V10.2727C15.1001 10.0606 15.1437 9.86648 15.2308 9.69034C15.2626 9.62687 15.2993 9.56798 15.3412 9.51366L15.3424 9.51203C15.4177 9.41469 15.5093 9.33208 15.6172 9.2642C15.7876 9.15625 15.9941 9.10227 16.2365 9.10227C16.4827 9.10227 16.6892 9.15625 16.8558 9.2642C16.9682 9.33574 17.0621 9.42365 17.1375 9.52793L17.1394 9.53055C17.175 9.58013 17.2064 9.6334 17.2337 9.69034C17.3172 9.86287 17.3597 10.0527 17.3615 10.2597L17.3615 10.2727V10.5795C17.3615 10.7917 17.3179 10.9867 17.2308 11.1648ZM16.657 11.054C16.6337 11.0934 16.6057 11.1272 16.573 11.1554L16.5718 11.1564C16.4898 11.2264 16.378 11.2614 16.2365 11.2614C16.0912 11.2614 15.9765 11.2265 15.8924 11.1568L15.8892 11.1541C15.8563 11.1262 15.8281 11.0928 15.8047 11.054C15.7785 11.0099 15.7564 10.964 15.7384 10.9164L15.7376 10.9141C15.699 10.8109 15.6797 10.6994 15.6797 10.5795V10.2727C15.6797 10.1545 15.6989 10.0448 15.7373 9.94358L15.7382 9.94129C15.7568 9.89259 15.78 9.84587 15.8075 9.80114C15.8315 9.76254 15.8597 9.72926 15.8922 9.7013L15.8934 9.70029C15.9787 9.62737 16.0931 9.59091 16.2365 9.59091C16.3809 9.59091 16.4942 9.62585 16.5763 9.69573L16.5795 9.69845C16.6123 9.727 16.64 9.76123 16.6626 9.80114C16.6871 9.84363 16.7078 9.88791 16.7247 9.93399L16.7255 9.93621C16.7631 10.0394 16.782 10.1516 16.782 10.2727V10.5795C16.782 10.7003 16.7624 10.8126 16.7232 10.9164L16.7223 10.9187C16.7045 10.9655 16.6827 11.0106 16.657 11.054ZM13.0773 10.7057C12.9731 10.3995 12.8302 10.1624 12.6484 9.99432C12.6393 9.98583 12.6302 9.97754 12.6209 9.96945L12.6175 9.96649C12.4249 9.79944 12.1956 9.71591 11.9297 9.71591C11.6618 9.71591 11.4313 9.80007 11.238 9.96838L11.2376 9.96875C11.1276 10.0646 11.0297 10.1877 10.9439 10.3381C10.8805 10.4486 10.8256 10.5715 10.7792 10.7066L10.7787 10.7081C10.6521 11.0774 10.5888 11.5383 10.5888 12.0909C10.5888 12.5947 10.6418 13.0227 10.7479 13.375C10.7589 13.4118 10.7705 13.4476 10.7826 13.4825L10.7829 13.4834C10.8865 13.7827 11.0273 14.0146 11.2053 14.179C11.2164 14.1892 11.2278 14.1992 11.2392 14.2088L11.2412 14.2105C11.4346 14.3732 11.6641 14.4545 11.9297 14.4545C12.1969 14.4545 12.4266 14.3734 12.6187 14.2111L12.6206 14.2094C12.7327 14.1143 12.8319 13.9914 12.9183 13.8409C12.9798 13.7339 13.0332 13.615 13.0785 13.4841L13.0788 13.4833C13.2067 13.114 13.2706 12.6499 13.2706 12.0909C13.2706 11.5871 13.2166 11.1581 13.1087 10.804C13.099 10.7716 13.0889 10.7399 13.0784 10.7089L13.0773 10.7057Z" fill="black"/>
</svg>
