<svg width="24" height="24" viewBox="0 0 24 24" fill="none" xmlns="http://www.w3.org/2000/svg">
<path fill-rule="evenodd" clip-rule="evenodd" d="M1 0.5H0.5V1V23V23.5H1H23H23.5V23V1V0.5H23H1ZM1.5 6V1.5H22.5V6H16H15H8H7H1.5ZM15 7H8V22.5H15V7ZM16 22.5H22.5V7H16V22.5ZM1.5 7H7V22.5H1.5V7ZM13 9H9.5V8.25H13V9ZM9.5 11H13V10.25H9.5V11ZM13 13H9.5V12.25H13V13ZM9.5 15H13V14.25H9.5V15ZM13 17H9.5V16.25H13V17ZM9.5 19H13V18.25H9.5V19ZM13 21H9.5V20.25H13V21ZM17.5 13H21V12.25H17.5V13ZM21 15H17.5V14.25H21V15ZM17.5 9H21V8.25H17.5V9ZM21 11H17.5V10.25H21V11ZM17.5 17H21V16.25H17.5V17ZM21 19H17.5V18.25H21V19ZM17.5 21H21V20.25H17.5V21Z" fill="black"/>
</svg>
