<svg width="24" height="10" viewBox="0 0 24 10" fill="none" xmlns="http://www.w3.org/2000/svg">
<path fill-rule="evenodd" clip-rule="evenodd" d="M23 1H1V9H23V1ZM1 0C0.447715 0 0 0.447716 0 1V9C0 9.55229 0.447716 10 1 10H23C23.5523 10 24 9.55228 24 9V1C24 0.447715 23.5523 0 23 0H1ZM17.6514 4.99797L17.99 4.60703V4.64002L18.49 4.06267V4.02968V3.26592L17.99 3.84327L16.99 4.99797L17.99 6.15267L18.49 6.73002V5.96626V5.93329L17.99 5.35594V5.38891L17.6514 4.99797ZM20.8286 4.99797L20.49 4.60703V4.64002L19.99 4.06267V4.02968V3.26592L20.49 3.84327L21.49 4.99797L20.49 6.15267L19.99 6.73002V5.96626V5.93329L20.49 5.35594V5.38891L20.8286 4.99797ZM14 3.98823H3V2.98823H14V3.98823ZM10 6.99998H3V5.99998H10V6.99998Z" fill="black"/>
</svg>
