<svg width="24" height="11" viewBox="0 0 24 11" fill="none" xmlns="http://www.w3.org/2000/svg">
<path fill-rule="evenodd" clip-rule="evenodd" d="M5.5 1H18.5C20.9853 1 23 3.01472 23 5.5C23 7.98528 20.9853 10 18.5 10H5.5C3.01472 10 1 7.98528 1 5.5C1 3.01472 3.01472 1 5.5 1ZM0 5.5C0 2.46243 2.46243 0 5.5 0H18.5C21.5376 0 24 2.46243 24 5.5C24 8.53757 21.5376 11 18.5 11H5.5C2.46243 11 0 8.53757 0 5.5ZM8 5.5C8 6.60457 7.10457 7.5 6 7.5C4.89543 7.5 4 6.60457 4 5.5C4 4.39543 4.89543 3.5 6 3.5C7.10457 3.5 8 4.39543 8 5.5ZM9 5.5C9 7.15685 7.65685 8.5 6 8.5C4.34315 8.5 3 7.15685 3 5.5C3 3.84315 4.34315 2.5 6 2.5C7.65685 2.5 9 3.84315 9 5.5Z" fill="black"/>
</svg>
