<svg width="24" height="24" viewBox="0 0 24 24" fill="none" xmlns="http://www.w3.org/2000/svg">
<path fill-rule="evenodd" clip-rule="evenodd" d="M0.5 6.99852C0.5 6.16914 1.17254 5.5 2 5.5H22C22.8284 5.5 23.5 6.17157 23.5 7V8.53513V8.82352L23.2504 8.96793C22.2029 9.57385 21.5 10.7051 21.5 12C21.5 13.2949 22.2029 14.4261 23.2504 15.0321L23.5 15.1765V15.4649V18C23.5 18.8284 22.8284 19.5 22 19.5H2C1.17272 19.5 0.5 18.8313 0.5 18.0018V15.4649V15.1765L0.749637 15.0321C1.79709 14.4261 2.5 13.2949 2.5 12C2.5 10.7051 1.79709 9.57385 0.749637 8.96793L0.5 8.82352V8.53513V6.99852ZM2 6.5C1.7229 6.5 1.5 6.72334 1.5 6.99852V8.25785C2.7051 9.06446 3.5 10.4391 3.5 12C3.5 13.5609 2.7051 14.9355 1.5 15.7422V18.0018C1.5 18.2768 1.72271 18.5 2 18.5H22C22.2761 18.5 22.5 18.2761 22.5 18V15.7422C21.2949 14.9355 20.5 13.5609 20.5 12C20.5 10.4391 21.2949 9.06446 22.5 8.25785V7C22.5 6.72386 22.2761 6.5 22 6.5H2ZM17 7H18V8H17V7ZM17 10.2V8.2H18V10.2H17ZM17 12.4V10.4H18V12.4H17ZM17 14.6V12.6H18V14.6H17ZM17 16.8V14.8H18V16.8H17ZM17 18V17H18V18H17ZM7.24335 16.1947L12.7566 8.80531L11.9552 8.20731L6.44186 15.5967L7.24335 16.1947ZM8.2 8.5C7.92386 8.5 7.7 8.72386 7.7 9C7.7 9.27614 7.92386 9.5 8.2 9.5C8.47614 9.5 8.7 9.27614 8.7 9C8.7 8.72386 8.47614 8.5 8.2 8.5ZM6.7 9C6.7 8.17157 7.37157 7.5 8.2 7.5C9.02843 7.5 9.7 8.17157 9.7 9C9.7 9.82843 9.02843 10.5 8.2 10.5C7.37157 10.5 6.7 9.82843 6.7 9ZM10.5 15C10.5 14.7239 10.7239 14.5 11 14.5C11.2761 14.5 11.5 14.7239 11.5 15C11.5 15.2761 11.2761 15.5 11 15.5C10.7239 15.5 10.5 15.2761 10.5 15ZM11 13.5C10.1716 13.5 9.5 14.1716 9.5 15C9.5 15.8284 10.1716 16.5 11 16.5C11.8284 16.5 12.5 15.8284 12.5 15C12.5 14.1716 11.8284 13.5 11 13.5Z" fill="black"/>
</svg>
