<svg width="22" height="22" viewBox="0 0 22 22" fill="none" xmlns="http://www.w3.org/2000/svg">
<path fill-rule="evenodd" clip-rule="evenodd" d="M15.8889 6.77693e-08H6.11113H6.11112C5.16018 -3.77792e-06 4.41105 -6.80611e-06 3.80819 0.0492491C3.19314 0.0995004 2.67952 0.20389 2.21278 0.441711C1.45022 0.83025 0.83025 1.45022 0.441711 2.21278C0.20389 2.67952 0.0995004 3.19314 0.0492491 3.80819C-6.80983e-06 4.41105 -3.77792e-06 5.16018 6.77693e-08 6.11112V6.11113V15.8889V15.8889C-3.77792e-06 16.8398 -6.80611e-06 17.5889 0.0492491 18.1918C0.0995004 18.8069 0.20389 19.3205 0.441711 19.7872C0.83025 20.5498 1.45022 21.1697 2.21278 21.5583C2.67952 21.7961 3.19314 21.9005 3.80819 21.9508C4.41105 22 5.16017 22 6.11111 22H15.8889C16.8398 22 17.5889 22 18.1918 21.9508C18.8069 21.9005 19.3205 21.7961 19.7872 21.5583C20.5498 21.1697 21.1697 20.5498 21.5583 19.7872C21.7961 19.3205 21.9005 18.8069 21.9508 18.1918C22 17.589 22 16.8398 22 15.8889V6.11112C22 5.16017 22 4.41105 21.9508 3.80819C21.9005 3.19314 21.7961 2.67952 21.5583 2.21278C21.1697 1.45022 20.5498 0.83025 19.7872 0.441711C19.3205 0.20389 18.8069 0.0995004 18.1918 0.0492491C17.5889 -6.80983e-06 16.8398 -3.77792e-06 15.8889 6.77693e-08H15.8889ZM1.15789 15.8632V8.10526L6.94737 8.10526L6.94737 20.8421H6.13684C5.15457 20.8421 4.45268 20.8417 3.90248 20.7967C3.35904 20.7523 3.01476 20.6674 2.73845 20.5266C2.19377 20.2491 1.75093 19.8062 1.4734 19.2616C1.33261 18.9852 1.2477 18.641 1.2033 18.0975C1.15835 17.5473 1.15789 16.8454 1.15789 15.8632ZM1.15789 6.94737L6.94737 6.94737L6.94737 1.15789H6.13684C5.15457 1.15789 4.45268 1.15835 3.90248 1.2033C3.35904 1.2477 3.01476 1.33261 2.73845 1.4734C2.19377 1.75093 1.75093 2.19377 1.4734 2.73845C1.33261 3.01476 1.2477 3.35904 1.2033 3.90248C1.15835 4.45268 1.15789 5.15457 1.15789 6.13684V6.94737ZM8.10526 20.8421V8.10526H14V20.8421H8.10526ZM15 20.8421H15.8632C16.8454 20.8421 17.5473 20.8417 18.0975 20.7967C18.641 20.7523 18.9852 20.6674 19.2616 20.5266C19.8062 20.2491 20.2491 19.8062 20.5266 19.2616C20.6674 18.9852 20.7523 18.641 20.7967 18.0975C20.8417 17.5473 20.8421 16.8454 20.8421 15.8632V8.10526H15V20.8421ZM15 6.94737L20.8421 6.94737V6.13684C20.8421 5.15457 20.8417 4.45268 20.7967 3.90248C20.7523 3.35904 20.6674 3.01476 20.5266 2.73845C20.2491 2.19377 19.8062 1.75093 19.2616 1.4734C18.9852 1.33261 18.641 1.2477 18.0975 1.2033C17.5473 1.15835 16.8454 1.15789 15.8632 1.15789H15V6.94737ZM14 1.15789H8.10526L8.10526 6.94737L14 6.94737V1.15789Z" fill="black"/>
</svg>
