<svg width="24" height="24" viewBox="0 0 24 24" fill="none" xmlns="http://www.w3.org/2000/svg">
<path fill-rule="evenodd" clip-rule="evenodd" d="M1.5 3H21.5V4H1.5V3ZM1.5 5V12H12.5V13H1.5V15H12.5V16H10.0357L10.0357 16L8.88393 19H12.5V20H8.5H7.8C7.52386 20 7.3 19.7761 7.3 19.5C7.3 19.2239 7.52386 19 7.8 19H7.81276L8.96455 16H1.5C0.947716 16 0.5 15.5523 0.5 15V3C0.5 2.44772 0.947715 2 1.5 2H21.5C22.0523 2 22.5 2.44772 22.5 3V7.6H21.5V5H1.5ZM22.5 8.70001H13.6V21.2H22.5L22.5 8.70001ZM13.6 7.70001C13.0477 7.70001 12.6 8.14773 12.6 8.70001V21.2C12.6 21.7523 13.0477 22.2 13.6 22.2H22.5C23.0523 22.2 23.5 21.7523 23.5 21.2V8.70001C23.5 8.14773 23.0523 7.70001 22.5 7.70001H13.6ZM18.16 8.25999C18.16 8.34283 18.0928 8.40999 18.01 8.40999C17.9272 8.40999 17.86 8.34283 17.86 8.25999C17.86 8.17714 17.9272 8.10999 18.01 8.10999C18.0928 8.10999 18.16 8.17714 18.16 8.25999Z" fill="black"/>
</svg>
