<svg width="24" height="12" viewBox="0 0 24 12" fill="none" xmlns="http://www.w3.org/2000/svg">
<path fill-rule="evenodd" clip-rule="evenodd" d="M12.5 1.5H18.5C19.8327 1.5 21.0302 2.07937 21.8541 2.99998H12.5V1.5ZM14.2361 3.99998C14.6273 4.43705 14.8922 4.98949 14.9736 5.59998H22.9825C22.9322 5.02941 22.7755 4.48941 22.5322 3.99998H14.2361ZM23.625 3.99998C23.821 4.50167 23.9454 5.03918 23.9857 5.59998C23.986 5.60391 23.9862 5.60784 23.9865 5.61177C23.9955 5.74002 24 5.86948 24 6C24 6.20274 23.989 6.40292 23.9677 6.59998C23.9065 7.16319 23.7604 7.70089 23.5424 8.19998C23.5331 8.2212 23.5237 8.24236 23.5141 8.26345C23.3645 8.59438 23.1831 8.90785 22.9738 9.19998C21.9759 10.5926 20.3439 11.5 18.5 11.5H5.5C2.46243 11.5 0 9.03757 0 6C0 2.96243 2.46243 0.5 5.5 0.5H18.5C20.4308 0.5 22.1292 1.49488 23.1105 2.99998C23.1182 3.0118 23.1259 3.02366 23.1335 3.03556C23.3275 3.33807 23.4926 3.66085 23.625 3.99998ZM22.4265 8.19998C22.6987 7.71511 22.8838 7.17469 22.9604 6.59998H14.94C14.8129 7.2262 14.4907 7.78159 14.0397 8.19998H22.4265ZM12.5 9.19998V10.5H18.5C19.7335 10.5 20.851 10.0037 21.6639 9.19998H12.5ZM12 8C11.8274 8 11.6598 7.97812 11.5 7.93699C10.6374 7.71497 10 6.93192 10 6C10 5.06808 10.6374 4.28503 11.5 4.06301C11.6598 4.02188 11.8274 4 12 4C12.1726 4 12.3402 4.02188 12.5 4.06301C13.3626 4.28503 14 5.06808 14 6C14 6.93192 13.3626 7.71497 12.5 7.93699C12.3402 7.97812 12.1726 8 12 8ZM9 6C9 4.5135 10.0811 3.27952 11.5 3.04148V1.5H5.5C3.01472 1.5 1 3.51472 1 6C1 8.48528 3.01472 10.5 5.5 10.5H11.5V8.95852C10.0811 8.72048 9 7.4865 9 6Z" fill="black"/>
</svg>
