<svg width="24" height="24" viewBox="0 0 24 24" fill="none" xmlns="http://www.w3.org/2000/svg">
<path fill-rule="evenodd" clip-rule="evenodd" d="M4 1H0V0H4V1ZM1 4H5.66V10H1V4ZM0 3H1H5.66H6.66V4V10V11H5.66H1H0V10V4V3ZM1 14H5.66V19H1V14ZM0 13H1H5.66H6.66V14V19V20H5.66H1H0V19V14V13ZM14.32 4H9.66V13H14.32V4ZM9.66 3H8.66V4V13V14H9.66H14.32H15.32V13V4V3H14.32H9.66ZM9.66 17H14.32V23H9.66V17ZM8.66 16H9.66H14.32H15.32V17V23V24H14.32H9.66H8.66V23V17V16ZM22.98 13H18.32V17H22.98V13ZM18.32 12H17.32V13V17V18H18.32H22.98H23.98V17V13V12H22.98H18.32ZM18 4H23V9H18V4ZM17 3H18H23H24V4V9V10H23H18H17V9V4V3ZM6 1H11V0H6V1ZM16 1H13V0H16V1ZM18 1H23V0H18V1Z" fill="black"/>
</svg>
