<svg width="20" height="14" viewBox="0 0 20 14" fill="none" xmlns="http://www.w3.org/2000/svg">
<path fill-rule="evenodd" clip-rule="evenodd" d="M5 1H15V13H5L5 1ZM4 1C4 0.447716 4.44771 0 5 0H15C15.5523 0 16 0.447715 16 1V13C16 13.5523 15.5523 14 15 14H5C4.44771 14 4 13.5523 4 13V1ZM19.8724 11.2905L17.2998 12.6L17.452 9.71726L18.4305 10.3532C18.9887 9.22919 19.1592 8.26336 18.9776 7.27711C18.7807 6.2087 18.1652 5.08369 17.1008 3.6847L17.4987 3.38195C18.5774 4.79978 19.2509 6.00093 19.4693 7.18653C19.6782 8.32086 19.4658 9.41149 18.8523 10.6275L19.8724 11.2905ZM7.62939e-06 4.84284L2.57265 3.53331L2.42041 6.41604L1.44193 5.78005C0.88367 6.90411 0.713169 7.86994 0.894853 8.85619C1.09167 9.9246 1.70724 11.0496 2.77161 12.4486L2.37368 12.7513C1.29498 11.3335 0.621532 10.1324 0.403127 8.94677C0.194165 7.81244 0.406607 6.72181 1.02006 5.50585L7.62939e-06 4.84284ZM12 4H8V3H12V4ZM7.5 6.33331H12.5V5.33331H7.5V6.33331ZM12 8.66669H8V7.66669H12V8.66669ZM7 11H13V10H7V11Z" fill="black"/>
</svg>
