<svg width="20" height="19" viewBox="0 0 20 19" fill="none" xmlns="http://www.w3.org/2000/svg">
<path d="M0.5 10.1429C1.07 10.4643 1.64 10.7857 2.875 10.7857C5.25 10.7857 5.25 9.5 7.625 9.5C8.86 9.5 9.43 9.82143 10 10.1429" fill="#D9D9D9"/>
<path d="M0.5 17.8571C1.07 18.1786 1.64 18.5 2.875 18.5C5.25 18.5 5.25 17.2143 7.625 17.2143C8.86 17.2143 9.43 17.5357 10 17.8571" fill="#D9D9D9"/>
<path d="M0.5 14C1.07 14.3214 1.64 14.6429 2.875 14.6429C5.25 14.6429 5.25 13.3571 7.625 13.3571C8.86 13.3571 9.43 13.6786 10 14" fill="#D9D9D9"/>
<path d="M10 10.1429C10.57 10.4643 11.14 10.7857 12.375 10.7857C14.75 10.7857 14.75 9.5 17.125 9.5C18.36 9.5 18.93 9.82143 19.5 10.1429" fill="#D9D9D9"/>
<path d="M10 17.8571C10.57 18.1786 11.14 18.5 12.375 18.5C14.75 18.5 14.75 17.2143 17.125 17.2143C18.36 17.2143 18.93 17.5357 19.5 17.8571" fill="#D9D9D9"/>
<path d="M10 14C10.57 14.3214 11.14 14.6429 12.375 14.6429C14.75 14.6429 14.75 13.3571 17.125 13.3571C18.36 13.3571 18.93 13.6786 19.5 14" fill="#D9D9D9"/>
<path fill-rule="evenodd" clip-rule="evenodd" d="M5.48803 10.5826C4.86625 10.9192 4.18505 11.2857 2.875 11.2857C2.21186 11.2857 1.70731 11.1991 1.28253 11.06C0.867287 10.924 0.546051 10.7429 0.265485 10.5846L0.2544 10.5784C0.0138659 10.4427 -0.071168 10.1378 0.0644715 9.89726C0.200111 9.65673 0.50506 9.57169 0.745593 9.70733C1.0324 9.86907 1.27819 10.0063 1.59371 10.1096C1.90519 10.2116 2.30314 10.2857 2.875 10.2857C3.93587 10.2857 4.44237 10.0115 5.00548 9.70666L5.01196 9.70315C5.63375 9.36655 6.31494 9 7.625 9C8.28814 9 8.79269 9.08663 9.21746 9.22572C9.63271 9.36168 9.95394 9.54285 10.2345 9.70108L10.2456 9.70733C10.5324 9.86907 10.7782 10.0063 11.0937 10.1096C11.4052 10.2116 11.8031 10.2857 12.375 10.2857C13.4359 10.2857 13.9424 10.0115 14.5055 9.70666L14.512 9.70315C15.1337 9.36655 15.8149 9 17.125 9C17.7881 9 18.2927 9.08663 18.7175 9.22572C19.1327 9.36168 19.4539 9.54285 19.7345 9.70108L19.7456 9.70733C19.9861 9.84297 20.0712 10.1479 19.9355 10.3885C19.7999 10.629 19.4949 10.714 19.2544 10.5784C18.9676 10.4166 18.7218 10.2794 18.4063 10.1761C18.0948 10.0741 17.6969 10 17.125 10C16.0641 10 15.5576 10.2742 14.9945 10.5791L14.988 10.5826C14.3662 10.9192 13.6851 11.2857 12.375 11.2857C11.7119 11.2857 11.2073 11.1991 10.7825 11.06C10.3673 10.924 10.0461 10.7429 9.76549 10.5846L9.7544 10.5784C9.46759 10.4166 9.22181 10.2794 8.90628 10.1761C8.5948 10.0741 8.19686 10 7.625 10C6.56412 10 6.05762 10.2742 5.49452 10.5791L5.48803 10.5826ZM5.48803 14.4397C4.86625 14.7763 4.18505 15.1429 2.875 15.1429C2.21186 15.1429 1.70731 15.0562 1.28253 14.9171C0.867288 14.7812 0.546053 14.6 0.265488 14.4418L0.2544 14.4355C0.0138659 14.2999 -0.071168 13.9949 0.0644715 13.7544C0.200111 13.5139 0.50506 13.4288 0.745593 13.5645C1.0324 13.7262 1.27819 13.8635 1.59371 13.9668C1.90519 14.0688 2.30314 14.1429 2.875 14.1429C3.93587 14.1429 4.44237 13.8687 5.00548 13.5638L5.01196 13.5603C5.63375 13.2237 6.31494 12.8571 7.625 12.8571C8.28814 12.8571 8.79269 12.9438 9.21746 13.0829C9.63271 13.2188 9.95394 13.4 10.2345 13.5582L10.2456 13.5645C10.5324 13.7262 10.7782 13.8635 11.0937 13.9668C11.4052 14.0688 11.8031 14.1429 12.375 14.1429C13.4359 14.1429 13.9424 13.8687 14.5055 13.5638L14.512 13.5603C15.1337 13.2237 15.8149 12.8571 17.125 12.8571C17.7881 12.8571 18.2927 12.9438 18.7175 13.0829C19.1327 13.2188 19.4539 13.4 19.7345 13.5582L19.7456 13.5645C19.9861 13.7001 20.0712 14.0051 19.9355 14.2456C19.7999 14.4861 19.4949 14.5712 19.2544 14.4355C18.9676 14.2738 18.7218 14.1365 18.4063 14.0332C18.0948 13.9312 17.6969 13.8571 17.125 13.8571C16.0641 13.8571 15.5576 14.1313 14.9945 14.4362L14.988 14.4397C14.3662 14.7763 13.6851 15.1429 12.375 15.1429C11.7119 15.1429 11.2073 15.0562 10.7825 14.9171C10.3673 14.7812 10.0461 14.6 9.76549 14.4418L9.7544 14.4355C9.46759 14.2738 9.22181 14.1365 8.90628 14.0332C8.5948 13.9312 8.19686 13.8571 7.625 13.8571C6.56412 13.8571 6.05763 14.1313 5.49452 14.4362L5.48803 14.4397ZM5.48803 18.2968C4.86625 18.6335 4.18505 19 2.875 19C2.21186 19 1.70731 18.9134 1.28253 18.7743C0.867287 18.6383 0.546052 18.4572 0.265487 18.2989L0.2544 18.2927C0.0138659 18.157 -0.071168 17.8521 0.0644715 17.6115C0.200111 17.371 0.50506 17.286 0.745593 17.4216C1.0324 17.5834 1.27819 17.7206 1.59371 17.8239C1.90519 17.9259 2.30314 18 2.875 18C3.93587 18 4.44237 17.7258 5.00548 17.4209L5.01196 17.4174C5.63375 17.0808 6.31494 16.7143 7.625 16.7143C8.28814 16.7143 8.79269 16.8009 9.21746 16.94C9.63271 17.076 9.95394 17.2571 10.2345 17.4154L10.2456 17.4216C10.5324 17.5834 10.7782 17.7206 11.0937 17.8239C11.4052 17.9259 11.8031 18 12.375 18C13.4359 18 13.9424 17.7258 14.5055 17.4209L14.512 17.4174C15.1337 17.0808 15.8149 16.7143 17.125 16.7143C17.7881 16.7143 18.2927 16.8009 18.7175 16.94C19.1327 17.076 19.4539 17.2571 19.7345 17.4154L19.7456 17.4216C19.9861 17.5573 20.0712 17.8622 19.9355 18.1027C19.7999 18.3433 19.4949 18.4283 19.2544 18.2927C18.9676 18.1309 18.7218 17.9937 18.4063 17.8904C18.0948 17.7884 17.6969 17.7143 17.125 17.7143C16.0641 17.7143 15.5576 17.9885 14.9945 18.2933L14.988 18.2968C14.3662 18.6335 13.6851 19 12.375 19C11.7119 19 11.2073 18.9134 10.7825 18.7743C10.3673 18.6383 10.0461 18.4572 9.76549 18.2989L9.7544 18.2927C9.46759 18.1309 9.22181 17.9937 8.90628 17.8904C8.5948 17.7884 8.19686 17.7143 7.625 17.7143C6.56412 17.7143 6.05762 17.9885 5.49451 18.2933L5.48803 18.2968Z" fill="black"/>
<path fill-rule="evenodd" clip-rule="evenodd" d="M6.84007 2.7472C6.31354 3.42454 6 4.27566 6 5.20001C6 6.12437 6.31354 6.9755 6.84008 7.65284L7.73414 6.75878C7.42878 6.31576 7.25 5.77876 7.25 5.20001C7.25 4.62127 7.42878 4.08428 7.73413 3.64126L6.84007 2.7472ZM7.54717 2.04009L8.44123 2.93415C8.88425 2.6288 9.42125 2.45001 10 2.45001C10.5787 2.45001 11.1157 2.62879 11.5588 2.93414L12.4528 2.04008C11.7755 1.51355 10.9244 1.20001 10 1.20001C9.07564 1.20001 8.22451 1.51355 7.54717 2.04009ZM13.5335 1.66245C12.6288 0.758821 11.3797 0.200012 10 0.200012C7.23858 0.200012 5 2.43859 5 5.20001C5 6.57956 5.5587 7.82862 6.46218 8.73326C6.46294 8.73403 6.4637 8.73479 6.46447 8.73556C6.46516 8.73625 6.46585 8.73693 6.46654 8.73762C7.3712 9.64122 8.62034 10.2 10 10.2C12.7614 10.2 15 7.96144 15 5.20001C15 3.82046 14.4413 2.5714 13.5378 1.66676C13.5371 1.666 13.5363 1.66523 13.5355 1.66447C13.5349 1.66379 13.5342 1.66312 13.5335 1.66245ZM13.1599 2.74718L12.2659 3.64124C12.5712 4.08427 12.75 4.62126 12.75 5.20001C12.75 5.77876 12.5712 6.31575 12.2659 6.75877L13.1599 7.65283C13.6865 6.97549 14 6.12437 14 5.20001C14 4.27565 13.6865 3.42453 13.1599 2.74718ZM12.4528 8.35994L11.5588 7.46588C11.1157 7.77123 10.5788 7.95001 10 7.95001C9.42125 7.95001 8.88426 7.77123 8.44124 7.46589L7.54718 8.35995C8.22452 8.88647 9.07565 9.20001 10 9.20001C10.9244 9.20001 11.7755 8.88647 12.4528 8.35994ZM8.76257 6.43745C9.07926 6.75414 9.51675 6.95001 10 6.95001C10.9665 6.95001 11.75 6.16651 11.75 5.20001C11.75 4.23351 10.9665 3.45001 10 3.45001C9.0335 3.45001 8.25 4.23351 8.25 5.20001C8.25 5.68326 8.44588 6.12077 8.76257 6.43745Z" fill="black"/>
</svg>
