<svg width="24" height="24" viewBox="0 0 24 24" fill="none" xmlns="http://www.w3.org/2000/svg">
<path fill-rule="evenodd" clip-rule="evenodd" d="M14.157 4.43594C14.3393 4.70109 14.4822 5.00145 14.5858 5.33704H16.9349C16.8396 4.71144 16.6387 4.13971 16.3321 3.62184C16.0255 3.10396 15.634 2.65652 15.1575 2.27951C14.6852 1.9025 14.1446 1.61249 13.5356 1.40948C12.9265 1.20233 12.2699 1.09875 11.5656 1.09875C10.7328 1.09875 9.96224 1.2479 9.25378 1.5462C8.54533 1.84035 7.92803 2.27122 7.40187 2.83881C6.87571 3.40226 6.46555 4.08792 6.1714 4.89581C5.88139 5.70369 5.73638 6.62136 5.73638 7.64882C5.73638 8.99115 5.98289 10.1512 6.47591 11.1289C6.97307 12.1025 7.66287 12.8545 8.54533 13.3848C9.43193 13.911 10.4615 14.174 11.6339 14.174C12.6863 14.174 13.6184 13.9607 14.4305 13.5339C15.2425 13.1031 15.8805 12.4899 16.3445 11.6945C16.8085 10.899 17.0405 9.95647 17.0405 8.86686V7.3381H11.8763V9.1403H14.8088C14.798 9.72392 14.6698 10.2356 14.4242 10.6753C14.1674 11.131 13.8007 11.4832 13.3243 11.7317C12.852 11.9803 12.2927 12.1046 11.6464 12.1046C10.9338 12.1046 10.3082 11.9327 9.76959 11.5888C9.231 11.2408 8.81048 10.7333 8.50805 10.0663C8.20561 9.39924 8.05439 8.58514 8.05439 7.62397C8.05439 6.67108 8.20561 5.8632 8.50805 5.20032C8.81463 4.53329 9.23514 4.02785 9.76959 3.68398C10.304 3.34011 10.9131 3.16818 11.5966 3.16818C11.9778 3.16818 12.33 3.2179 12.6531 3.31733C12.9763 3.41262 13.2621 3.55555 13.5107 3.74613C13.7634 3.9367 13.9789 4.16664 14.157 4.43594ZM5.80422 14L6.70228 16.764H9.60845L7.25731 18.4722L8.15536 21.2361L5.80422 19.5279L3.45308 21.2361L4.35114 18.4722L2 16.764H4.90617L5.80422 14ZM18.7023 16.764L17.8042 14L16.9062 16.764H14L16.3511 18.4722L15.4531 21.2361L17.8042 19.5279L20.1554 21.2361L19.2573 18.4722L21.6084 16.764H18.7023ZM12.7023 19.064L11.8042 16.3L10.9062 19.064H7.99999L10.3511 20.7722L9.45308 23.5361L11.8042 21.8279L14.1554 23.5361L13.2573 20.7722L15.6084 19.064H12.7023Z" fill="black"/>
</svg>
