<svg width="20" height="20" viewBox="0 0 20 20" fill="none" xmlns="http://www.w3.org/2000/svg">
<path fill-rule="evenodd" clip-rule="evenodd" d="M5.55556 0H6.10271H14.6667C16.5335 0 17.4669 0 18.18 0.363312C18.8072 0.68289 19.3171 1.19282 19.6367 1.82003C20 2.53307 20 3.46649 20 5.33333V14.6667C20 16.5335 20 17.4669 19.6367 18.18C19.3171 18.8072 18.8072 19.3171 18.18 19.6367C17.5032 19.9815 16.628 19.9991 14.9446 20L14.6667 20H14.4444H13.8973H5.33333C3.46649 20 2.53307 20 1.82003 19.6367C1.19282 19.3171 0.68289 18.8072 0.363312 18.18C0.103867 17.6708 0.0296943 17.0492 0.00848927 16.0556C0.00515955 15.8996 0.00313584 15.7344 0.00190588 15.559C0.000638929 15.3783 0.000214195 15.1869 7.18071e-05 14.9835L0 14.6667V5.33333C0 3.46649 0 2.53307 0.363312 1.82003C0.68289 1.19282 1.19282 0.68289 1.82003 0.363312C2.49678 0.0184924 3.37204 0.000941251 5.05543 4.79092e-05L5.33333 0H5.55556ZM14.6667 19H14.5472L10.4594 9.80258L10.4549 9.79233L6.54716 1H14.6667C15.6166 1 16.2689 1.00078 16.7746 1.04209C17.2686 1.08245 17.5339 1.15646 17.726 1.25432C18.165 1.47802 18.522 1.83498 18.7457 2.27402C18.8435 2.46607 18.9175 2.73144 18.9579 3.22544C18.9992 3.73111 19 4.38341 19 5.33333V14.6667C19 15.6166 18.9992 16.2689 18.9579 16.7746C18.9175 17.2686 18.8435 17.5339 18.7457 17.726C18.522 18.165 18.165 18.522 17.726 18.7457C17.5339 18.8435 17.2686 18.9175 16.7746 18.9579C16.2689 18.9992 15.6166 19 14.6667 19ZM5.45284 1L9.35732 9.78507L1 14.428V5.33333C1 4.38341 1.00078 3.73111 1.04209 3.22544C1.08245 2.73144 1.15646 2.46607 1.25432 2.27402C1.47802 1.83498 1.83498 1.47802 2.27402 1.25432C2.46607 1.15646 2.73144 1.08245 3.22544 1.04209C3.73111 1.00078 4.38341 1 5.33333 1H5.45284ZM9.76506 10.7025L1.00206 15.5708C1.00564 16.0603 1.01541 16.448 1.04209 16.7746C1.08245 17.2686 1.15646 17.5339 1.25432 17.726C1.47802 18.165 1.83498 18.522 2.27402 18.7457C2.46607 18.8435 2.73144 18.9175 3.22544 18.9579C3.73111 18.9992 4.38341 19 5.33333 19H13.4528L9.76506 10.7025ZM11.5 6.2C11.5 4.67794 12.6492 3.5 14 3.5C15.3508 3.5 16.5 4.67794 16.5 6.2C16.5 6.93499 16.1898 7.63227 15.6571 8.37005C15.2059 8.99504 14.6285 9.606 14.0024 10.2685L14.0024 10.2685L14 10.271L13.9976 10.2685C13.3715 9.606 12.7941 8.99504 12.3429 8.37005C11.8102 7.63227 11.5 6.93499 11.5 6.2ZM14 2.5C12.0371 2.5 10.5 4.18743 10.5 6.2C10.5 7.23232 10.9398 8.13504 11.5321 8.95543C12.0257 9.63906 12.6576 10.3072 13.2829 10.9684L13.2832 10.9686L13.2844 10.9699C13.4019 11.0942 13.5192 11.2182 13.6352 11.342C13.7298 11.4428 13.8618 11.5 14 11.5C14.1382 11.5 14.2702 11.4428 14.3648 11.342C14.4813 11.2176 14.5991 11.0931 14.7171 10.9684L14.7171 10.9683L14.7171 10.9683C15.3424 10.3072 15.9743 9.63905 16.4679 8.95543C17.0602 8.13504 17.5 7.23232 17.5 6.2C17.5 4.18743 15.9629 2.5 14 2.5ZM13.375 6.2C13.375 5.78251 13.6847 5.5 14 5.5C14.3153 5.5 14.625 5.78251 14.625 6.2C14.625 6.61749 14.3153 6.9 14 6.9C13.6847 6.9 13.375 6.61749 13.375 6.2ZM14 4.5C13.0726 4.5 12.375 5.292 12.375 6.2C12.375 7.108 13.0726 7.9 14 7.9C14.9274 7.9 15.625 7.108 15.625 6.2C15.625 5.292 14.9274 4.5 14 4.5ZM5.31263 4.52913C5.31263 4.42122 5.30369 4.34247 5.28436 4.2608H4.02692V4.74788H4.76501C4.75013 4.86893 4.66977 5.05122 4.4912 5.17371L4.49119 5.1738L4.49111 5.17375C4.37802 5.25104 4.22623 5.305 4.02683 5.305C3.67268 5.305 3.3721 5.07606 3.26494 4.75961L3.265 4.75956C3.23673 4.67789 3.22037 4.59039 3.22037 4.49998C3.22037 4.40955 3.23673 4.32206 3.26352 4.24039L3.26351 4.24022C3.37221 3.92386 3.67275 3.695 4.02684 3.695C4.27832 3.695 4.44796 3.80145 4.54469 3.89042L4.92267 3.52875C4.69053 3.31729 4.38844 3.1875 4.02684 3.1875C3.50303 3.1875 3.05064 3.48208 2.83041 3.91083L2.83045 3.91086C2.7397 4.08877 2.68763 4.28854 2.68763 4.49998C2.68763 4.7114 2.7397 4.91116 2.83044 5.08906L2.83041 5.08916C3.05064 5.51791 3.50302 5.81251 4.02683 5.81251C4.38843 5.81251 4.692 5.69584 4.91373 5.49459L4.91366 5.49454L4.91382 5.49455C5.16679 5.26559 5.31263 4.92872 5.31263 4.52913Z" fill="black"/>
</svg>
