<svg width="23" height="22" viewBox="0 0 23 22" fill="none" xmlns="http://www.w3.org/2000/svg">
<path fill-rule="evenodd" clip-rule="evenodd" d="M10 0H14V1H12.5V3H22H23V4V18V19H22H12.5V21H14V22H10V21H11.5V19.25H1.43072H0.705406L0.963425 18.5721L1 18.4761V18V4V3H2H11.5V1H10V0ZM11.5 18H2.2512L4.23112 12.7983L7.7 15.4L8.04692 15.6602L8.35355 15.3536L11.5 12.2071L11.5 18ZM11.5 10.7929L7.95308 14.3398L4.3 11.6L3.76888 11.2017L3.53271 11.8221L2 15.8489V4H11.5V10.7929ZM12.5 18H22V4H12.5V18ZM5 8C5.55228 8 6 7.55228 6 7C6 6.44772 5.55228 6 5 6C4.44771 6 4 6.44772 4 7C4 7.55228 4.44771 8 5 8ZM5 9C6.10457 9 7 8.10457 7 7C7 5.89543 6.10457 5 5 5C3.89543 5 3 5.89543 3 7C3 8.10457 3.89543 9 5 9Z" fill="black"/>
</svg>
