<svg width="20" height="20" viewBox="0 0 20 20" fill="none" xmlns="http://www.w3.org/2000/svg">
<path fill-rule="evenodd" clip-rule="evenodd" d="M1 18V15.1964L3.81646 12.1632L6.24411 13.9062L6.60217 14.1632L6.90211 13.8402L10.7143 9.73481L13 12.1963V18C13 18.5523 12.5523 19 12 19H2C1.44772 19 1 18.5523 1 18ZM3.3836 11.1598L1 13.7267V2C1 1.44772 1.44772 1 2 1H12C12.5523 1 13 1.44772 13 2V10.7267L11.0807 8.65977L10.7143 8.26519L10.3479 8.65977L6.46925 12.8368L4.0416 11.0938L3.68354 10.8368L3.3836 11.1598ZM2 20C0.89543 20 0 19.1046 0 18V2C0 0.895432 0.895431 0 2 0H12H15H18C19.1046 0 20 0.89543 20 2V18C20 19.1046 19.1046 20 18 20H15H12H2ZM13.7324 19H15C15.5523 19 16 18.5523 16 18V2C16 1.44772 15.5523 1 15 1H13.7324C13.9026 1.29417 14 1.63571 14 2V18C14 18.3643 13.9026 18.7058 13.7324 19ZM16.7324 1C16.9026 1.29417 17 1.63571 17 2V18C17 18.3643 16.9026 18.7058 16.7324 19H18C18.5523 19 19 18.5523 19 18V2C19 1.44772 18.5523 1 18 1H16.7324ZM6 7C6 7.55228 5.55228 8 5 8C4.44772 8 4 7.55228 4 7C4 6.44772 4.44772 6 5 6C5.55228 6 6 6.44772 6 7ZM7 7C7 8.10457 6.10457 9 5 9C3.89543 9 3 8.10457 3 7C3 5.89543 3.89543 5 5 5C6.10457 5 7 5.89543 7 7Z" fill="black"/>
</svg>
