<svg width="24" height="12" viewBox="0 0 24 12" fill="none" xmlns="http://www.w3.org/2000/svg">
<path fill-rule="evenodd" clip-rule="evenodd" d="M8.55006 10.407C7.86859 10.7848 7.08442 11 6.25 11C3.62665 11 1.5 8.87335 1.5 6.25C1.5 3.62665 3.62665 1.5 6.25 1.5C7.08442 1.5 7.86859 1.71516 8.55006 2.09302C7.45488 3.13993 6.77273 4.6153 6.77273 6.25C6.77273 7.8847 7.45488 9.36007 8.55006 10.407ZM9.38636 11.0701C8.48437 11.6582 7.4071 12 6.25 12C3.07436 12 0.5 9.42564 0.5 6.25C0.5 3.07436 3.07436 0.5 6.25 0.5C7.4071 0.5 8.48437 0.841781 9.38636 1.4299C10.2884 0.841782 11.3656 0.5 12.5227 0.5C13.4639 0.5 14.3522 0.72611 15.1364 1.12697C15.9205 0.726109 16.8089 0.5 17.75 0.5C20.9256 0.5 23.5 3.07436 23.5 6.25C23.5 9.42564 20.9256 12 17.75 12C16.8089 12 15.9205 11.7739 15.1364 11.373C14.3522 11.7739 13.4639 12 12.5227 12C11.3656 12 10.2884 11.6582 9.38636 11.0701ZM12.5227 1.5C13.088 1.5 13.6302 1.59873 14.133 1.77989C12.8318 2.83407 12 4.4449 12 6.25C12 8.0551 12.8318 9.66593 14.133 10.7201C13.6302 10.9013 13.088 11 12.5227 11C9.89938 11 7.77273 8.87335 7.77273 6.25C7.77273 3.62665 9.89938 1.5 12.5227 1.5ZM19.7335 4.4642L20.161 4.82042L22.4742 6.74808C22.4913 6.58438 22.5 6.41821 22.5 6.25C22.5 3.62665 20.3734 1.5 17.75 1.5C15.1266 1.5 13 3.62665 13 6.25C13 6.83224 13.1048 7.39002 13.2965 7.90551L15.3055 5.89643L15.6591 5.54288L16.0126 5.89643L17.6723 7.55607L19.4249 4.92718L19.7335 4.4642ZM19.9483 5.94486L22.2262 7.84315C21.5714 9.68291 19.8145 11 17.75 11C16.0843 11 14.6189 10.1427 13.771 8.8452L15.6591 6.95709L17.3964 8.69445L17.8277 9.12571L18.166 8.61824L19.9483 5.94486ZM17.2727 4.15906C17.2727 4.47286 17.0183 4.72725 16.7045 4.72725C16.3908 4.72725 16.1364 4.47286 16.1364 4.15906C16.1364 3.84526 16.3908 3.59088 16.7045 3.59088C17.0183 3.59088 17.2727 3.84526 17.2727 4.15906ZM18.2727 4.15906C18.2727 5.02515 17.5706 5.72725 16.7045 5.72725C15.8385 5.72725 15.1364 5.02515 15.1364 4.15906C15.1364 3.29298 15.8385 2.59088 16.7045 2.59088C17.5706 2.59088 18.2727 3.29298 18.2727 4.15906Z" fill="black"/>
</svg>
