<svg width="22" height="16" viewBox="0 0 22 16" fill="none" xmlns="http://www.w3.org/2000/svg">
<path fill-rule="evenodd" clip-rule="evenodd" d="M1 1H21V15H1V1ZM0 0H1H21H22V1V15V16H21H1H0V15V1V0ZM12.5 5.5V7.5C12.5 8.32843 11.8284 9 11 9C10.1716 9 9.5 8.32843 9.5 7.5V5.5C9.5 4.67157 10.1716 4 11 4C11.8284 4 12.5 4.67157 12.5 5.5ZM8.5 5.5C8.5 4.11929 9.61929 3 11 3C12.3807 3 13.5 4.11929 13.5 5.5V7.5C13.5 8.88071 12.3807 10 11 10C9.61929 10 8.5 8.88071 8.5 7.5V5.5ZM10.8232 11.6768L11 11.8536L11.1768 11.6768L12.1768 10.6768L11.8232 10.3232L11 11.1464L10.1768 10.3232L9.82322 10.6768L10.8232 11.6768ZM10.8232 13.6768L11 13.8536L11.1768 13.6768L12.1768 12.6768L11.8232 12.3232L11 13.1464L10.1768 12.3232L9.82322 12.6768L10.8232 13.6768ZM10.5 5V6H11.5V5H10.5Z" fill="black"/>
</svg>
