<svg width="24" height="24" viewBox="0 0 24 24" fill="none" xmlns="http://www.w3.org/2000/svg">
<path fill-rule="evenodd" clip-rule="evenodd" d="M2 2H22V12H14.9142C14.3838 12 13.8751 12.2107 13.5 12.5858L11.5 14.5858L9.5 12.5858C9.12493 12.2107 8.61622 12 8.08579 12H2V2ZM1 2C1 1.44772 1.44772 1 2 1H22C22.5523 1 23 1.44772 23 2V12C23 12.5523 22.5523 13 22 13H14.9142C14.649 13 14.3946 13.1054 14.2071 13.2929L12.2071 15.2929C11.8166 15.6834 11.1834 15.6834 10.7929 15.2929L8.79289 13.2929C8.60536 13.1054 8.351 13 8.08579 13H2C1.44772 13 1 12.5523 1 12V2ZM19 17H5C3.89543 17 3 17.8954 3 19V20C3 21.1046 3.89543 22 5 22H19C20.1046 22 21 21.1046 21 20V19C21 17.8954 20.1046 17 19 17ZM5 16C3.34315 16 2 17.3431 2 19V20C2 21.6569 3.34315 23 5 23H19C20.6569 23 22 21.6569 22 20V19C22 17.3431 20.6569 16 19 16H5ZM5 19.5C5 19.2239 5.22386 19 5.5 19H18.5C18.7761 19 19 19.2239 19 19.5C19 19.7761 18.7761 20 18.5 20H5.5C5.22386 20 5 19.7761 5 19.5ZM10.5 5C10.5 4.72386 10.7239 4.5 11 4.5H20C20.2761 4.5 20.5 4.72386 20.5 5C20.5 5.27614 20.2761 5.5 20 5.5H11C10.7239 5.5 10.5 5.27614 10.5 5ZM11 6.5C10.7239 6.5 10.5 6.72386 10.5 7C10.5 7.27614 10.7239 7.5 11 7.5H18C18.2761 7.5 18.5 7.27614 18.5 7C18.5 6.72386 18.2761 6.5 18 6.5H11ZM10.5 9C10.5 8.72386 10.7239 8.5 11 8.5H17C17.2761 8.5 17.5 8.72386 17.5 9C17.5 9.27614 17.2761 9.5 17 9.5H11C10.7239 9.5 10.5 9.27614 10.5 9ZM4.5 4.5H8.5V9.5H4.5V4.5ZM3.5 4.5C3.5 3.94772 3.94772 3.5 4.5 3.5H8.5C9.05228 3.5 9.5 3.94772 9.5 4.5V9.5C9.5 10.0523 9.05228 10.5 8.5 10.5H4.5C3.94772 10.5 3.5 10.0523 3.5 9.5V4.5Z" fill="black"/>
</svg>
