<svg width="24" height="24" viewBox="0 0 24 24" fill="none" xmlns="http://www.w3.org/2000/svg">
<path d="M2.5 6.5C2.5 6.22386 2.72386 6 3 6H9C9.27614 6 9.5 6.22386 9.5 6.5C9.5 6.77614 9.27614 7 9 7H3C2.72386 7 2.5 6.77614 2.5 6.5Z" fill="black"/>
<path fill-rule="evenodd" clip-rule="evenodd" d="M2.5 9C2.5 8.44772 2.94772 8 3.5 8H7.5C8.05228 8 8.5 8.44772 8.5 9V10C8.5 10.5523 8.05228 11 7.5 11H3.5C2.94772 11 2.5 10.5523 2.5 10V9ZM3.5 9H7.5V10H3.5V9Z" fill="black"/>
<path d="M4.09511 2.79271C4.06517 2.70057 3.93483 2.70057 3.90489 2.79271L3.68568 3.46738C3.67229 3.50858 3.6339 3.53647 3.59057 3.53647H2.88118C2.78431 3.53647 2.74403 3.66044 2.82241 3.71738L3.39631 4.13435C3.43136 4.15981 3.44603 4.20495 3.43264 4.24615L3.21343 4.92082C3.18349 5.01295 3.28894 5.08956 3.36731 5.03262L3.94122 4.61565C3.97627 4.59019 4.02373 4.59019 4.05878 4.61565L4.63269 5.03262C4.71106 5.08956 4.81651 5.01295 4.78657 4.92082L4.56736 4.24615C4.55397 4.20495 4.56864 4.15981 4.60369 4.13435L5.1776 3.71738C5.25597 3.66044 5.21569 3.53647 5.11882 3.53647H4.40943C4.3661 3.53647 4.32771 3.50858 4.31432 3.46738L4.09511 2.79271Z" fill="black"/>
<path fill-rule="evenodd" clip-rule="evenodd" d="M2 1C1.44772 1 1 1.44772 1 2V12C1 12.5523 1.44772 13 2 13H10C10.5523 13 11 12.5523 11 12V2C11 1.44772 10.5523 1 10 1H2ZM10 2H2V12H10V2Z" fill="black"/>
<path d="M3 18.5C3 18.2239 3.22386 18 3.5 18H18.5C18.7761 18 19 18.2239 19 18.5C19 18.7761 18.7761 19 18.5 19H3.5C3.22386 19 3 18.7761 3 18.5Z" fill="black"/>
<path d="M3.5 20C3.22386 20 3 20.2239 3 20.5C3 20.7761 3.22386 21 3.5 21H16.5C16.7761 21 17 20.7761 17 20.5C17 20.2239 16.7761 20 16.5 20H3.5Z" fill="black"/>
<path fill-rule="evenodd" clip-rule="evenodd" d="M4.57559 15.0345C4.53572 14.9885 4.46428 14.9885 4.42441 15.0345L3.63397 15.9472H2C1.44772 15.9472 1 16.395 1 16.9472V21.9472C1 22.4995 1.44772 22.9472 2 22.9472H22C22.5523 22.9472 23 22.4995 23 21.9472V16.9472C23 16.395 22.5523 15.9472 22 15.9472H5.36603L4.57559 15.0345ZM2 16.9472H22V21.9472H2V16.9472Z" fill="black"/>
<path d="M14.5 6.5C14.5 6.22386 14.7239 6 15 6H21C21.2761 6 21.5 6.22386 21.5 6.5C21.5 6.77614 21.2761 7 21 7H15C14.7239 7 14.5 6.77614 14.5 6.5Z" fill="black"/>
<path fill-rule="evenodd" clip-rule="evenodd" d="M14.5 9C14.5 8.44772 14.9477 8 15.5 8H19.5C20.0523 8 20.5 8.44772 20.5 9V10C20.5 10.5523 20.0523 11 19.5 11H15.5C14.9477 11 14.5 10.5523 14.5 10V9ZM15.5 9H19.5V10H15.5V9Z" fill="black"/>
<path d="M15.9049 2.79271C15.9348 2.70057 16.0652 2.70057 16.0951 2.79271L16.3143 3.46738C16.3277 3.50858 16.3661 3.53647 16.4094 3.53647H17.1188C17.2157 3.53647 17.256 3.66044 17.1776 3.71738L16.6037 4.13435C16.5686 4.15981 16.554 4.20495 16.5674 4.24615L16.7866 4.92082C16.8165 5.01295 16.7111 5.08956 16.6327 5.03262L16.0588 4.61565C16.0237 4.59019 15.9763 4.59019 15.9412 4.61565L15.3673 5.03262C15.2889 5.08956 15.1835 5.01295 15.2134 4.92082L15.4326 4.24615C15.446 4.20495 15.4314 4.15981 15.3963 4.13435L14.8224 3.71738C14.744 3.66044 14.7843 3.53647 14.8812 3.53647H15.5906C15.6339 3.53647 15.6723 3.50858 15.6857 3.46738L15.9049 2.79271Z" fill="black"/>
<path fill-rule="evenodd" clip-rule="evenodd" d="M13 2C13 1.44772 13.4477 1 14 1H22C22.5523 1 23 1.44772 23 2V12C23 12.5523 22.5523 13 22 13H14C13.4477 13 13 12.5523 13 12V2ZM14 2H22V12H14V2Z" fill="black"/>
</svg>
