<svg width="20" height="21" viewBox="0 0 20 21" fill="none" xmlns="http://www.w3.org/2000/svg">
<path fill-rule="evenodd" clip-rule="evenodd" d="M12 3C12 4.10457 11.1046 5 10 5C8.89543 5 8 4.10457 8 3C8 1.89543 8.89543 1 10 1C11.1046 1 12 1.89543 12 3ZM13 3C13 4.65685 11.6569 6 10 6C8.34315 6 7 4.65685 7 3C7 1.34315 8.34315 0 10 0C11.6569 0 13 1.34315 13 3ZM13.9213 3.43997C13.9213 3.51992 13.9189 3.59931 13.9144 3.6781C16.4299 5.06856 18.1416 7.78187 18.1416 10.9094C18.1416 11.4632 18.0879 12.0041 17.9856 12.5269C18.3074 12.7112 18.6012 12.9391 18.8588 13.2023C19.0435 12.469 19.1416 11.7006 19.1416 10.9094C19.1416 7.1776 16.9587 3.95629 13.8136 2.5061C13.884 2.80571 13.9213 3.11841 13.9213 3.43997ZM13.7801 19.328C12.6484 19.8442 11.3931 20.1315 10.0708 20.1315C8.71561 20.1315 7.43078 19.8297 6.27717 19.289C6.57833 19.0801 6.84941 18.8309 7.08262 18.5492C8.00732 18.9249 9.0158 19.1315 10.0708 19.1315C11.0856 19.1315 12.0573 18.9404 12.9529 18.5914C13.1929 18.8734 13.4713 19.1216 13.7801 19.328ZM1 10.9094C1 11.6604 1.08842 12.3908 1.25531 13.0903C1.51963 12.8408 1.81794 12.627 2.14254 12.4565C2.04898 11.9556 2 11.4384 2 10.9094C2 7.84628 3.64192 5.18049 6.07284 3.76568C6.06433 3.65825 6.06 3.54963 6.06 3.43997C6.06 3.14875 6.09058 2.8648 6.14865 2.59126C3.10017 4.07971 1 7.24898 1 10.9094ZM17 19C18.1046 19 19 18.1046 19 17C19 15.8954 18.1046 15 17 15C15.8954 15 15 15.8954 15 17C15 18.1046 15.8954 19 17 19ZM17 20C18.6569 20 20 18.6569 20 17C20 15.3431 18.6569 14 17 14C15.3431 14 14 15.3431 14 17C14 18.6569 15.3431 20 17 20ZM5 17C5 18.1046 4.10457 19 3 19C1.89543 19 1 18.1046 1 17C1 15.8954 1.89543 15 3 15C4.10457 15 5 15.8954 5 17ZM6 17C6 18.6569 4.65685 20 3 20C1.34315 20 0 18.6569 0 17C0 15.3431 1.34315 14 3 14C4.65685 14 6 15.3431 6 17Z" fill="black"/>
</svg>
