<svg width="12" height="12" viewBox="0 0 12 12" fill="none" xmlns="http://www.w3.org/2000/svg">
<path fill-rule="evenodd" clip-rule="evenodd" d="M8.5 1.5H3.5C2.39543 1.5 1.5 2.39543 1.5 3.5V8.5C1.5 9.60457 2.39543 10.5 3.5 10.5H8.5C9.60457 10.5 10.5 9.60457 10.5 8.5V3.5C10.5 2.39543 9.60457 1.5 8.5 1.5ZM3.5 0.5C1.84315 0.5 0.5 1.84315 0.5 3.5V8.5C0.5 10.1569 1.84315 11.5 3.5 11.5H8.5C10.1569 11.5 11.5 10.1569 11.5 8.5V3.5C11.5 1.84315 10.1569 0.5 8.5 0.5H3.5ZM6 7.75C6.9665 7.75 7.75 6.9665 7.75 6C7.75 5.0335 6.9665 4.25 6 4.25C5.0335 4.25 4.25 5.0335 4.25 6C4.25 6.9665 5.0335 7.75 6 7.75ZM6 8.75C7.51878 8.75 8.75 7.51878 8.75 6C8.75 4.48122 7.51878 3.25 6 3.25C4.48122 3.25 3.25 4.48122 3.25 6C3.25 7.51878 4.48122 8.75 6 8.75ZM9 4C9.55228 4 10 3.55228 10 3C10 2.44772 9.55228 2 9 2C8.44772 2 8 2.44772 8 3C8 3.55228 8.44772 4 9 4Z" fill="black"/>
</svg>
