<svg width="20" height="20" viewBox="0 0 20 20" fill="none" xmlns="http://www.w3.org/2000/svg">
<path fill-rule="evenodd" clip-rule="evenodd" d="M13 0H6C4.89543 0 4 0.895431 4 2V14C4 15.1046 4.89543 16 6 16H18C19.1046 16 20 15.1046 20 14V7H19V14C19 14.5523 18.5523 15 18 15H6C5.44772 15 5 14.5523 5 14V2C5 1.44772 5.44772 1 6 1H13V0ZM15 0H19.5C19.7761 0 20 0.223858 20 0.500001V5C20 5.27614 19.7761 5.5 19.5 5.5C19.2239 5.5 19 5.27614 19 5V1.70711L13.8536 6.85355C13.6583 7.04882 13.3417 7.04882 13.1464 6.85355C12.9512 6.65829 12.9512 6.34171 13.1464 6.14645L18.2929 1L15 1C14.7239 1 14.5 0.776143 14.5 0.500001C14.5 0.223858 14.7239 0 15 0ZM2 4H3V5H2C1.44772 5 1 5.44772 1 6V18C1 18.5523 1.44772 19 2 19H14C14.5523 19 15 18.5523 15 18V17H16V18C16 19.1046 15.1046 20 14 20H2C0.895431 20 0 19.1046 0 18V6C0 4.89543 0.895431 4 2 4Z" fill="black"/>
</svg>
