<svg width="20" height="20" viewBox="0 0 20 20" fill="none" xmlns="http://www.w3.org/2000/svg">
<path fill-rule="evenodd" clip-rule="evenodd" d="M13 1H7V2V3V5H13V3V2V1ZM7 7V6H13V7V8V17V18V19H7V18V17V8V7ZM6 7V3H1V7H6ZM6 17V8H1V17H6ZM0 8V7V3V2H1H6V1V0H7H13H14V1V2H19H20V3V7V8V17V18H19H14V19V20H13H7H6V19V18H1H0V17V8ZM14 7V6V5V3H19V7H14ZM19 8V17H14V8H19ZM10 4C10.5523 4 11 3.55228 11 3C11 2.44772 10.5523 2 10 2C9.44771 2 9 2.44772 9 3C9 3.55228 9.44771 4 10 4ZM4.5 5C4.5 5.55228 4.05228 6 3.5 6C2.94772 6 2.5 5.55228 2.5 5C2.5 4.44772 2.94772 4 3.5 4C4.05228 4 4.5 4.44772 4.5 5ZM16.5 6C17.0523 6 17.5 5.55228 17.5 5C17.5 4.44772 17.0523 4 16.5 4C15.9477 4 15.5 4.44772 15.5 5C15.5 5.55228 15.9477 6 16.5 6ZM11 10V9H9V10H11ZM17.5 10V11H15.5V10H17.5ZM4.5 10H2.5V11H4.5V10ZM4.5 13V14H2.5V13H4.5ZM17.5 14V13H15.5V14H17.5ZM9 12H11V13H9V12ZM11 16V15H9V16H11Z" fill="black"/>
</svg>
