<svg width="22" height="22" viewBox="0 0 22 22" fill="none" xmlns="http://www.w3.org/2000/svg">
<path fill-rule="evenodd" clip-rule="evenodd" d="M13 1.0557C15.019 1.28137 16.9135 2.18561 18.364 3.63604C19.8144 5.08646 20.7186 6.98098 20.9443 9L13 9V1.0557ZM19.0711 2.92893C20.7092 4.5671 21.7203 6.7151 21.9499 9C21.9831 9.33084 22 9.66455 22 10H21L13 10H12V9V1V0C12.3354 0 12.6692 0.0168544 13 0.0500942C15.2849 0.279659 17.4329 1.29077 19.0711 2.92893ZM10 12H11H19H20C20 12.335 19.9832 12.6687 19.9499 13C19.7866 14.6245 19.2274 16.1898 18.3147 17.5557C17.2159 19.2002 15.6541 20.4819 13.8268 21.2388C11.9996 21.9957 9.9889 22.1937 8.04909 21.8079C6.10928 21.422 4.32745 20.4696 2.92893 19.0711C1.5304 17.6725 0.577996 15.8907 0.192144 13.9509C-0.193708 12.0111 0.00432521 10.0004 0.761202 8.17317C1.51808 6.3459 2.7998 4.78412 4.44429 3.6853C5.81024 2.77261 7.37551 2.21338 9 2.05012C9.33126 2.01683 9.66499 2 10 2V3V11V12ZM10 13H18.9443C18.7848 14.4262 18.2859 15.7988 17.4832 17.0001C16.4943 18.4802 15.0887 19.6337 13.4441 20.3149C11.7996 20.9961 9.99001 21.1743 8.24418 20.8271C6.49835 20.4798 4.89471 19.6226 3.63604 18.364C2.37736 17.1053 1.5202 15.5016 1.17293 13.7558C0.825662 12.01 1.00389 10.2004 1.68508 8.55585C2.36627 6.91131 3.51982 5.50571 4.99986 4.51677C6.20116 3.71409 7.57376 3.21518 9 3.05572V12V13H10Z" fill="black"/>
</svg>
