<svg width="18" height="16" viewBox="0 0 18 16" fill="none" xmlns="http://www.w3.org/2000/svg">
<path d="M9.83333 3.83333H3.33333C2.39991 3.83333 1.9332 3.83333 1.57668 4.01499C1.26308 4.17478 1.00811 4.42975 0.84832 4.74335C0.666664 5.09987 0.666664 5.56658 0.666664 6.5V9.5C0.666664 10.4334 0.666664 10.9001 0.84832 11.2567C1.00811 11.5703 1.26308 11.8252 1.57668 11.985C1.9332 12.1667 2.39991 12.1667 3.33333 12.1667H9.83333M13.1667 3.83333H14.6667C15.6001 3.83333 16.0668 3.83333 16.4233 4.01499C16.7369 4.17478 16.9919 4.42975 17.1517 4.74335C17.3333 5.09987 17.3333 5.56658 17.3333 6.5V9.5C17.3333 10.4334 17.3333 10.9001 17.1517 11.2567C16.9919 11.5703 16.7369 11.8252 16.4233 11.985C16.0668 12.1667 15.6001 12.1667 14.6667 12.1667H13.1667M13.1667 15.5L13.1667 0.5M15.25 0.500007L11.0833 0.5M15.25 15.5L11.0833 15.5" stroke="black" stroke-linecap="round" stroke-linejoin="round"/>
</svg>
