<svg width="24" height="24" viewBox="0 0 24 24" fill="none" xmlns="http://www.w3.org/2000/svg">
<path fill-rule="evenodd" clip-rule="evenodd" d="M3 2.5C3 2.77614 2.77614 3 2.5 3C2.22386 3 2 2.77614 2 2.5C2 2.22386 2.22386 2 2.5 2C2.77614 2 3 2.22386 3 2.5ZM4 2.5C4 3.32843 3.32843 4 2.5 4C1.67157 4 1 3.32843 1 2.5C1 1.67157 1.67157 1 2.5 1C3.32843 1 4 1.67157 4 2.5ZM5 1.5C5 1.22386 5.22386 1 5.5 1H21.5C21.7761 1 22 1.22386 22 1.5C22 1.77614 21.7761 2 21.5 2H5.5C5.22386 2 5 1.77614 5 1.5ZM5 3.5C5 3.22386 5.22386 3 5.5 3H17.5C17.7761 3 18 3.22386 18 3.5C18 3.77614 17.7761 4 17.5 4H5.5C5.22386 4 5 3.77614 5 3.5ZM9 6.5C9 6.22386 9.22386 6 9.5 6H21.5C21.7761 6 22 6.22386 22 6.5C22 6.77614 21.7761 7 21.5 7H9.5C9.22386 7 9 6.77614 9 6.5ZM9.5 8C9.22386 8 9 8.22386 9 8.5C9 8.77614 9.22386 9 9.5 9H19.5C19.7761 9 20 8.77614 20 8.5C20 8.22386 19.7761 8 19.5 8H9.5ZM6.5 8C6.77614 8 7 7.77614 7 7.5C7 7.22386 6.77614 7 6.5 7C6.22386 7 6 7.22386 6 7.5C6 7.77614 6.22386 8 6.5 8ZM6.5 9C7.32843 9 8 8.32843 8 7.5C8 6.67157 7.32843 6 6.5 6C5.67157 6 5 6.67157 5 7.5C5 8.32843 5.67157 9 6.5 9ZM9.5 10C9.22386 10 9 10.2239 9 10.5C9 10.7761 9.22386 11 9.5 11H21.5C21.7761 11 22 10.7761 22 10.5C22 10.2239 21.7761 10 21.5 10H9.5ZM9 12.5C9 12.2239 9.22386 12 9.5 12H19.5C19.7761 12 20 12.2239 20 12.5C20 12.7761 19.7761 13 19.5 13H9.5C9.22386 13 9 12.7761 9 12.5ZM7 11.5C7 11.7761 6.77614 12 6.5 12C6.22386 12 6 11.7761 6 11.5C6 11.2239 6.22386 11 6.5 11C6.77614 11 7 11.2239 7 11.5ZM8 11.5C8 12.3284 7.32843 13 6.5 13C5.67157 13 5 12.3284 5 11.5C5 10.6716 5.67157 10 6.5 10C7.32843 10 8 10.6716 8 11.5ZM5 15.5C5 15.2239 5.22386 15 5.5 15H21.5C21.7761 15 22 15.2239 22 15.5C22 15.7761 21.7761 16 21.5 16H5.5C5.22386 16 5 15.7761 5 15.5ZM5.5 17C5.22386 17 5 17.2239 5 17.5C5 17.7761 5.22386 18 5.5 18H17.5C17.7761 18 18 17.7761 18 17.5C18 17.2239 17.7761 17 17.5 17H5.5ZM2.5 17C2.77614 17 3 16.7761 3 16.5C3 16.2239 2.77614 16 2.5 16C2.22386 16 2 16.2239 2 16.5C2 16.7761 2.22386 17 2.5 17ZM2.5 18C3.32843 18 4 17.3284 4 16.5C4 15.6716 3.32843 15 2.5 15C1.67157 15 1 15.6716 1 16.5C1 17.3284 1.67157 18 2.5 18ZM5.5 19C5.22386 19 5 19.2239 5 19.5C5 19.7761 5.22386 20 5.5 20H21.5C21.7761 20 22 19.7761 22 19.5C22 19.2239 21.7761 19 21.5 19H5.5ZM5 21.5C5 21.2239 5.22386 21 5.5 21H17.5C17.7761 21 18 21.2239 18 21.5C18 21.7761 17.7761 22 17.5 22H5.5C5.22386 22 5 21.7761 5 21.5ZM3 20.5C3 20.7761 2.77614 21 2.5 21C2.22386 21 2 20.7761 2 20.5C2 20.2239 2.22386 20 2.5 20C2.77614 20 3 20.2239 3 20.5ZM4 20.5C4 21.3284 3.32843 22 2.5 22C1.67157 22 1 21.3284 1 20.5C1 19.6716 1.67157 19 2.5 19C3.32843 19 4 19.6716 4 20.5Z" fill="black"/>
</svg>
