<svg width="24" height="19" viewBox="0 0 24 19" fill="none" xmlns="http://www.w3.org/2000/svg">
<path fill-rule="evenodd" clip-rule="evenodd" d="M11.7857 8.9C13.9672 8.9 15.7357 7.13153 15.7357 4.95C15.7357 2.76848 13.9672 1 11.7857 1C9.60419 1 7.83572 2.76848 7.83572 4.95C7.83572 7.13153 9.60419 8.9 11.7857 8.9ZM16.7355 4.901C16.7092 2.18976 14.5032 0 11.7857 0C9.10637 0 6.92423 2.12877 6.83834 4.78724C6.60207 4.73939 6.35754 4.71428 6.10715 4.71428C4.08342 4.71428 2.44286 6.35484 2.44286 8.37856C2.44286 10.4023 4.08342 12.0429 6.10715 12.0429C6.15221 12.0429 6.19709 12.042 6.24176 12.0404C7.10831 11.254 8.12584 10.6668 9.22277 10.3082C9.39555 10.0298 9.53206 9.7266 9.62569 9.4051C10.2784 9.72216 11.0113 9.9 11.7857 9.9C12.7125 9.9 13.5798 9.64528 14.3215 9.20204C14.4313 9.68026 14.6347 10.1228 14.9114 10.5092C13.9327 10.1107 12.8772 9.90003 11.8 9.90003C9.61196 9.90003 7.51354 10.7692 5.96637 12.3164C4.65678 13.626 3.83294 15.3305 3.6108 17.15C3.5705 17.4801 3.55 17.814 3.55 18.15H4.55H11.8H19.05H20.05C20.05 18.15 20.05 18.15 20.05 18.15H23H24C24 17.8128 23.9721 17.4784 23.9176 17.15C23.7103 15.9011 23.1181 14.7385 22.2113 13.8316C21.0659 12.6863 19.5126 12.0429 17.8929 12.0429C17.718 12.0429 17.544 12.0504 17.3711 12.0652C17.3449 12.0412 17.3186 12.0174 17.2922 11.9938C17.4876 12.0261 17.6883 12.0428 17.8929 12.0428C19.9166 12.0428 21.5571 10.4023 21.5571 8.37856C21.5571 6.35483 19.9166 4.71427 17.8929 4.71427C17.4884 4.71427 17.0993 4.77979 16.7355 4.90081L16.7355 4.901ZM18.2914 13.0584C19.2197 14.2418 19.8069 15.6572 19.9892 17.15H22.9012C22.7051 16.1679 22.2227 15.2573 21.5042 14.5387C20.6408 13.6753 19.5001 13.153 18.2914 13.0584ZM15.2315 8.50377C15.2969 9.91708 16.4634 11.0428 17.8929 11.0428C19.3643 11.0428 20.5571 9.85 20.5571 8.37856C20.5571 6.90711 19.3643 5.71427 17.8929 5.71427C17.43 5.71427 16.9946 5.83233 16.6153 6.03997C16.6222 6.00929 16.6288 5.9785 16.6351 5.9476C16.432 6.94021 15.9318 7.82458 15.2315 8.50377ZM8.73072 8.84508C7.7984 8.11281 7.1355 7.05304 6.91534 5.83907C6.66044 5.75801 6.3889 5.71428 6.10715 5.71428C4.6357 5.71428 3.44286 6.90712 3.44286 8.37856C3.44286 9.85001 4.6357 11.0429 6.10715 11.0429C7.41944 11.0429 8.51014 10.0941 8.73072 8.84508ZM18.9807 17.15C18.7644 15.5967 18.0482 14.1452 16.9265 13.0235C15.5669 11.6639 13.7228 10.9 11.8 10.9C9.87718 10.9 8.03311 11.6639 6.67348 13.0235C5.55176 14.1452 4.83557 15.5967 4.61927 17.15L11.8 17.15H18.9807ZM6.23753 12.0443C6.19412 12.0433 6.15066 12.0429 6.10714 12.0429C4.48743 12.0429 2.93405 12.6863 1.78874 13.8316C0.881892 14.7385 0.289691 15.9011 0.0824014 17.15C0.027893 17.4784 0 17.8128 0 18.15H1L3.53571 18.15C3.53571 17.814 3.55621 17.4801 3.59651 17.15H1.09884C1.29494 16.168 1.77727 15.2573 2.49585 14.5387C3.24917 13.7854 4.2136 13.2917 5.25009 13.1153C5.46551 12.8357 5.69978 12.5687 5.95209 12.3164C6.04527 12.2232 6.14045 12.1325 6.23753 12.0443Z" fill="black"/>
</svg>
