<svg width="24" height="24" viewBox="0 0 24 24" fill="none" xmlns="http://www.w3.org/2000/svg">
<path fill-rule="evenodd" clip-rule="evenodd" d="M4 6V16.8571H5.82961C6.21062 16.8571 6.57518 17.0124 6.83916 17.2872L9.44249 19.9968L11.6081 17.3672C11.874 17.0442 12.2704 16.8571 12.6888 16.8571H20V6H4ZM3.4 5C3.17909 5 3 5.17909 3 5.4V17.4571C3 17.6781 3.17909 17.8571 3.4 17.8571H5.82961C5.93847 17.8571 6.04263 17.9015 6.11805 17.98L9.18855 21.1758C9.35437 21.3484 9.63362 21.3377 9.78577 21.153L12.38 18.0029C12.456 17.9106 12.5692 17.8571 12.6888 17.8571H20.6C20.8209 17.8571 21 17.6781 21 17.4571V5.4C21 5.17909 20.8209 5 20.6 5H3.4ZM2.15725 10.1543C2.24249 10.0123 2.19642 9.828 2.05435 9.74275C1.91227 9.65751 1.728 9.70358 1.64275 9.84565L0.804492 11.2428C0.709487 11.4011 0.709487 11.5989 0.804492 11.7572L1.64275 13.1543C1.728 13.2964 1.91227 13.3425 2.05435 13.2572C2.19642 13.172 2.24249 12.9877 2.15725 12.8457L1.34986 11.5L2.15725 10.1543ZM21.7428 10.1543C21.6575 10.0123 21.7036 9.828 21.8457 9.74275C21.9877 9.65751 22.172 9.70358 22.2572 9.84565L23.0955 11.2428C23.1905 11.4011 23.1905 11.5989 23.0955 11.7572L22.2572 13.1543C22.172 13.2964 21.9877 13.3425 21.8457 13.2572C21.7036 13.172 21.6575 12.9877 21.7428 12.8457L22.5501 11.5L21.7428 10.1543ZM11.0951 8.29271C11.0652 8.20057 10.9348 8.20057 10.9049 8.2927L10.7979 8.62188C10.7845 8.66309 10.7462 8.69098 10.7028 8.69098H10.3567C10.2598 8.69098 10.2196 8.81494 10.2979 8.87188L10.578 9.07533C10.613 9.10079 10.6277 9.14593 10.6143 9.18713L10.5073 9.51631C10.4774 9.60844 10.5828 9.68506 10.6612 9.62812L10.9412 9.42467C10.9763 9.39921 11.0237 9.39921 11.0588 9.42467L11.3388 9.62812C11.4172 9.68506 11.5226 9.60844 11.4927 9.51631L11.3857 9.18713C11.3723 9.14593 11.387 9.10079 11.422 9.07533L11.7021 8.87188C11.7804 8.81494 11.7402 8.69098 11.6433 8.69098H11.2972C11.2538 8.69098 11.2155 8.66309 11.2021 8.62188L11.0951 8.29271ZM13.4049 8.2927C13.4348 8.20057 13.5652 8.20057 13.5951 8.29271L13.7021 8.62188C13.7155 8.66309 13.7538 8.69098 13.7972 8.69098H14.1433C14.2402 8.69098 14.2804 8.81494 14.2021 8.87188L13.922 9.07533C13.887 9.10079 13.8723 9.14593 13.8857 9.18713L13.9927 9.51631C14.0226 9.60844 13.9172 9.68506 13.8388 9.62812L13.5588 9.42467C13.5237 9.39921 13.4763 9.39921 13.4412 9.42467L13.1612 9.62812C13.0828 9.68506 12.9774 9.60844 13.0073 9.51631L13.1143 9.18713C13.1277 9.14593 13.113 9.10079 13.078 9.07533L12.7979 8.87188C12.7196 8.81494 12.7598 8.69098 12.8567 8.69098H13.2028C13.2462 8.69098 13.2845 8.66309 13.2979 8.62188L13.4049 8.2927ZM16.0951 8.29271C16.0652 8.20057 15.9348 8.20057 15.9049 8.2927L15.7979 8.62188C15.7845 8.66309 15.7462 8.69098 15.7028 8.69098H15.3567C15.2598 8.69098 15.2196 8.81494 15.2979 8.87188L15.578 9.07533C15.613 9.10079 15.6277 9.14593 15.6143 9.18713L15.5073 9.51631C15.4774 9.60844 15.5828 9.68506 15.6612 9.62812L15.9412 9.42467C15.9763 9.39921 16.0237 9.39921 16.0588 9.42467L16.3388 9.62812C16.4172 9.68506 16.5226 9.60844 16.4927 9.51631L16.3857 9.18713C16.3723 9.14593 16.387 9.10079 16.422 9.07533L16.7021 8.87188C16.7804 8.81494 16.7402 8.69098 16.6433 8.69098H16.2972C16.2538 8.69098 16.2155 8.66309 16.2021 8.62188L16.0951 8.29271ZM18.4049 8.2927C18.4348 8.20057 18.5652 8.20057 18.5951 8.29271L18.7021 8.62188C18.7155 8.66309 18.7538 8.69098 18.7972 8.69098H19.1433C19.2402 8.69098 19.2804 8.81494 19.2021 8.87188L18.9221 9.07533C18.887 9.10079 18.8723 9.14593 18.8857 9.18713L18.9927 9.51631C19.0226 9.60844 18.9172 9.68506 18.8388 9.62812L18.5588 9.42467C18.5237 9.39921 18.4763 9.39921 18.4412 9.42467L18.1612 9.62812C18.0828 9.68506 17.9774 9.60844 18.0073 9.51631L18.1143 9.18713C18.1277 9.14593 18.113 9.10079 18.0779 9.07533L17.7979 8.87188C17.7196 8.81494 17.7598 8.69098 17.8567 8.69098H18.2028C18.2462 8.69098 18.2845 8.66309 18.2979 8.62188L18.4049 8.2927ZM8.5 10.5C8.5 11.3284 7.82843 12 7 12C6.17157 12 5.5 11.3284 5.5 10.5C5.5 9.67157 6.17157 9 7 9C7.82843 9 8.5 9.67157 8.5 10.5ZM9.5 10.5C9.5 11.8807 8.38071 13 7 13C5.61929 13 4.5 11.8807 4.5 10.5C4.5 9.11929 5.61929 8 7 8C8.38071 8 9.5 9.11929 9.5 10.5ZM10 11.5C10 11.2239 10.2239 11 10.5 11H18.5C18.7761 11 19 11.2239 19 11.5C19 11.7761 18.7761 12 18.5 12H10.5C10.2239 12 10 11.7761 10 11.5ZM10.5 13C10.2239 13 10 13.2239 10 13.5C10 13.7761 10.2239 14 10.5 14H14.5C14.7761 14 15 13.7761 15 13.5C15 13.2239 14.7761 13 14.5 13H10.5Z" fill="black"/>
</svg>
