<svg width="24" height="22" viewBox="0 0 24 22" fill="none" xmlns="http://www.w3.org/2000/svg">
<path fill-rule="evenodd" clip-rule="evenodd" d="M4 0.5H3.5V1V16V16.5H4H20H20.5V16V1V0.5H20H4ZM7.51851 9.18272L4.5 15.0301V1.5H19.5V14.6482L17.5 10.25L12 12.25L8.74223 8.99223L8 8.25L7.51851 9.18272ZM4 17.5H3.5V18V21V21.5H4H7H7.5V21V18V17.5H7H4ZM4.5 20.5V18.5H6.5V20.5H4.5ZM10.5 17.5H10V18V21V21.5H10.5H13.5H14V21V18V17.5H13.5H10.5ZM11 20.5V18.5H13V20.5H11ZM16.5 17.5H17H20H20.5V18V21V21.5H20H17H16.5V21V18V17.5ZM17.5 18.5V20.5H19.5V18.5H17.5ZM11.7432 13.4074L11.2929 12.9571L8.26074 9.92495L5.51186 15.25H18.6751L16.9725 11.5059L12.3417 13.1898L11.7432 13.4074ZM9 5C9 5.55228 8.55228 6 8 6C7.44772 6 7 5.55228 7 5C7 4.44772 7.44772 4 8 4C8.55228 4 9 4.44772 9 5ZM10 5C10 6.10457 9.10457 7 8 7C6.89543 7 6 6.10457 6 5C6 3.89543 6.89543 3 8 3C9.10457 3 10 3.89543 10 5ZM1.5 8.06274L0.689998 8.99805L1.5 9.93336V10.7301L0.5 9.5754L0 8.99805L0.5 8.4207L1.5 7.266V8.06274ZM23.3 8.99799L22.49 9.9333V10.73L23.49 9.57533L23.99 8.99798L23.49 8.42063L22.49 7.26593V8.06268L23.3 8.99799Z" fill="black"/>
</svg>
