<svg width="24" height="20" viewBox="0 0 24 20" fill="none" xmlns="http://www.w3.org/2000/svg">
<path fill-rule="evenodd" clip-rule="evenodd" d="M24 10.5H20.937C20.715 11.3626 19.9319 12 19 12C18.0681 12 17.285 11.3626 17.063 10.5L13.937 10.5C13.715 11.3626 12.9319 12 12 12C11.0681 12 10.285 11.3626 10.063 10.5H6.93699C6.71497 11.3626 5.93192 12 5 12C4.06808 12 3.28503 11.3626 3.06301 10.5H0L0 9.5H3.06301C3.28503 8.63739 4.06808 8 5 8C5.93192 8 6.71497 8.63739 6.93699 9.5H10.063C10.285 8.63739 11.0681 8 12 8C12.9319 8 13.715 8.63739 13.937 9.5L17.063 9.5C17.285 8.63739 18.0681 8 19 8C19.9319 8 20.715 8.63739 20.937 9.5H24V10.5ZM19 8L16 5.89474V1V0H17H21H22V1V5.89474L19 8ZM5 8L2 5.89474L2 1V0H3H7H8V1L8 5.89474L5 8ZM7 5.37483V1H3L3 5.37483L5 6.77834L7 5.37483ZM21 5.37483V1H17V5.37483L19 6.77834L21 5.37483ZM12 14.1735L14 15.4015V19H10V15.4015L12 14.1735ZM12 13L9 14.8421V19V20H10H14H15V19V14.8421L12 13ZM6 10C6 9.44772 5.55228 9 5 9C4.44772 9 4 9.44772 4 10C4 10.5523 4.44772 11 5 11C5.55228 11 6 10.5523 6 10ZM13 10C13 9.44772 12.5523 9 12 9C11.4477 9 11 9.44772 11 10C11 10.5523 11.4477 11 12 11C12.5523 11 13 10.5523 13 10ZM19 9C19.5523 9 20 9.44772 20 10C20 10.5523 19.5523 11 19 11C18.4477 11 18 10.5523 18 10C18 9.44772 18.4477 9 19 9Z" fill="black"/>
</svg>
