<svg width="24" height="24" viewBox="0 0 24 24" fill="none" xmlns="http://www.w3.org/2000/svg">
<path fill-rule="evenodd" clip-rule="evenodd" d="M11.5 24V20.937C10.6374 20.715 10 19.9319 10 19C10 18.0681 10.6374 17.285 11.5 17.063V13.937C10.6374 13.715 10 12.9319 10 12C10 11.0681 10.6374 10.285 11.5 10.063V6.93699C10.6374 6.71497 10 5.93192 10 5C10 4.06808 10.6374 3.28503 11.5 3.06301V0H12.5V3.06301C13.3626 3.28503 14 4.06808 14 5C14 5.93192 13.3626 6.71497 12.5 6.93699V10.063C13.3626 10.285 14 11.0681 14 12C14 12.9319 13.3626 13.715 12.5 13.937V17.063C13.3626 17.285 14 18.0681 14 19C14 19.9319 13.3626 20.715 12.5 20.937V24H11.5ZM17.4684 7H23V3H17.4684L15.8017 5L17.4684 7ZM17 8L14.5 5L17 2H23H24V3V7V8H23H17ZM17.4684 21H23V17H17.4684L15.8017 19L17.4684 21ZM17 22L14.5 19L17 16H23H24V17V21V22H23H17ZM8.19829 12L6.53162 14H1V10H6.53162L8.19829 12ZM9.5 12L7 9H1H0V10V14V15H1H7L9.5 12ZM12 6C12.5523 6 13 5.55228 13 5C13 4.44772 12.5523 4 12 4C11.4477 4 11 4.44772 11 5C11 5.55228 11.4477 6 12 6ZM12 13C12.5523 13 13 12.5523 13 12C13 11.4477 12.5523 11 12 11C11.4477 11 11 11.4477 11 12C11 12.5523 11.4477 13 12 13ZM13 19C13 19.5523 12.5523 20 12 20C11.4477 20 11 19.5523 11 19C11 18.4477 11.4477 18 12 18C12.5523 18 13 18.4477 13 19Z" fill="black"/>
</svg>
