<svg width="22" height="18" viewBox="0 0 22 18" fill="none" xmlns="http://www.w3.org/2000/svg">
<path fill-rule="evenodd" clip-rule="evenodd" d="M20.8106 1.27905L21.1581 0L20.0524 0.730846C19.6182 1.0178 18.7244 1.37107 18.0173 1.57104C17.2242 0.80921 16.1554 0.339646 14.9778 0.339646C12.5096 0.339646 10.5323 2.39299 10.5323 4.89644C10.5323 5.02398 10.5374 5.15037 10.5474 5.27541C7.5328 5.04974 5.11004 3.66478 3.45524 1.31447L3.05709 0.748999L2.64491 1.30432C2.34015 1.71492 1.96744 2.6976 2.00415 3.82349C2.02686 4.51976 2.20648 5.27967 2.65481 6.00302L2.10148 5.6065L1.99783 6.44133C1.93691 6.93202 2.04318 7.85229 2.53259 8.74863C2.72362 9.09849 2.97361 9.44565 3.29469 9.76324L3.2206 9.73394L3.37458 10.6135C3.46548 11.1327 3.829 11.9009 4.48462 12.5547C4.93916 13.0081 5.54151 13.4139 6.30266 13.6476C5.75441 13.9721 5.14178 14.1953 4.52059 14.3416C3.54879 14.5703 2.58884 14.6027 1.89776 14.5568L0 14.4309L1.59049 15.4739C3.39116 16.6546 5.53219 17.3396 7.82845 17.3396C14.4976 17.3396 19.4398 11.6127 19.4254 5.05129C19.7762 4.77946 20.1387 4.44594 20.4525 4.11108C20.8199 3.71892 21.1658 3.27737 21.3252 2.90051L21.9986 1.30804L20.5792 2.2953C20.5053 2.34668 20.3946 2.40077 20.2567 2.45501C20.4906 2.10903 20.6931 1.71146 20.8106 1.27905ZM5.19078 11.8467C4.94883 11.6054 4.76484 11.3514 4.63157 11.119C4.9855 11.1228 5.43307 11.0892 5.79332 10.941L7.18455 10.3688L5.72762 9.99433C4.48544 9.67504 3.79226 8.96899 3.41028 8.2694C3.22561 7.93117 3.11437 7.59553 3.05176 7.30628C3.14475 7.33416 3.2362 7.35787 3.32399 7.37787C3.68317 7.45969 4.04754 7.49424 4.29239 7.47135L5.60291 7.34885L4.54159 6.57035C3.38608 5.72276 3.03279 4.68526 3.00362 3.79089C2.98841 3.3246 3.06154 2.90278 3.15755 2.57199C5.09451 4.91742 7.83008 6.22568 11.1195 6.3044L11.7583 6.31969L11.6196 5.69599C11.5625 5.43949 11.5323 5.17193 11.5323 4.89644C11.5323 2.91889 13.0879 1.33965 14.9778 1.33965C15.9672 1.33965 16.8612 1.76974 17.4923 2.4647L17.6913 2.68391L17.9792 2.61475C18.3214 2.53255 18.742 2.40238 19.1598 2.24751C18.9064 2.54534 18.6413 2.77243 18.4427 2.90462C18.2255 2.95907 18.0647 3.15557 18.0647 3.38963C18.0647 3.66578 18.2885 3.88963 18.5647 3.88963C18.6162 3.88963 18.6659 3.88184 18.7127 3.86736L18.7128 3.86806C18.8776 3.8425 19.1328 3.79677 19.42 3.73353C19.1589 3.98431 18.8834 4.21667 18.6328 4.3948L18.4167 4.54837L18.4225 4.81343C18.5594 11.002 13.9476 16.3396 7.82845 16.3396C6.37615 16.3396 4.99242 16.0395 3.73229 15.4959C4.06337 15.4549 4.40535 15.396 4.74974 15.3149C5.83342 15.0598 6.9738 14.5772 7.86238 13.7083L8.68353 12.9053L7.5363 12.8514C6.46708 12.8011 5.70511 12.3596 5.19078 11.8467Z" fill="black"/>
</svg>
