<svg width="20" height="14" viewBox="0 0 20 14" fill="none" xmlns="http://www.w3.org/2000/svg">
<path fill-rule="evenodd" clip-rule="evenodd" d="M2 1H18C18.5523 1 19 1.44772 19 2V12C19 12.5523 18.5523 13 18 13H2C1.44772 13 1 12.5523 1 12V2C1 1.44772 1.44772 1 2 1ZM0 2C0 0.89543 0.895431 0 2 0H18C19.1046 0 20 0.895431 20 2V12C20 13.1046 19.1046 14 18 14H2C0.895431 14 0 13.1046 0 12V2ZM12 4H4V10H12V7V4ZM13 4V6.34017L16.25 4.19573L17.25 3.5359V4.73397V9.26603V10.4641L16.25 9.80427L13 7.65983V10V11H12H4H3V10V4V3H4H12H13V4ZM13.8157 7L16.25 8.6062V5.3938L13.8157 7Z" fill="black"/>
</svg>
