<svg width="25" height="12" viewBox="0 0 25 12" fill="none" xmlns="http://www.w3.org/2000/svg">
<path fill-rule="evenodd" clip-rule="evenodd" d="M5.5 1H18.6429C19.1951 1 19.6429 1.44771 19.6429 2V10C19.6429 10.5523 19.1951 11 18.6429 11H5.5C4.94772 11 4.5 10.5523 4.5 10V2C4.5 1.44772 4.94772 1 5.5 1ZM3.5 2C3.5 0.895431 4.39543 0 5.5 0H18.6429C19.7474 0 20.6429 0.895431 20.6429 2V10C20.6429 11.1046 19.7474 12 18.6429 12H5.5C4.39543 12 3.5 11.1046 3.5 10V2ZM13.6429 3.57146H7.07142V8.4286H13.6429V3.57146ZM7.07142 2.57146H6.07142V3.57146V8.4286V9.4286H7.07142H13.6429H14.6429V8.4286V6.56553L14.6936 6.59899L17.2857 8.30936L18.2857 8.96919V7.77112V4.2288V3.03073L17.2857 3.69056L14.6936 5.40092L14.6429 5.43439V3.57146V2.57146H13.6429H7.07142ZM15.6014 5.99996L17.2857 7.11129V4.88863L15.6014 5.99996ZM2.26756 1C2.09739 1.29417 2 1.63571 2 2C1.44772 2 1 2.44772 1 3V9C1 9.55228 1.44772 10 2 10C2 10.3643 2.09739 10.7058 2.26756 11H2C0.895432 11 0 10.1046 0 9V3C0 1.89543 0.895431 1 2 1H2.26756ZM22.2857 11H21.7324C21.9026 10.7058 22 10.3643 22 10H22.2857C22.838 10 23.2857 9.55229 23.2857 9V3C23.2857 2.44772 22.838 2 22.2857 2H22C22 1.63571 21.9026 1.29417 21.7324 1H22.2857C23.3903 1 24.2857 1.89543 24.2857 3V9C24.2857 10.1046 23.3903 11 22.2857 11Z" fill="black"/>
</svg>
