<svg width="24" height="24" viewBox="0 0 24 24" fill="none" xmlns="http://www.w3.org/2000/svg">
<path fill-rule="evenodd" clip-rule="evenodd" d="M6.6587 2.33776L6.32873 2.48064V2.81048L5 4.71403L6.32873 5.49515V9.34309C6.32873 9.4365 6.37751 9.52312 6.45739 9.57154L12.1129 13H11.9V16H3V17V18.5H0.5H0V19V22V22.5H0.5H6H6.5V22V19V18.5H6H4V17H11.9H12V18.5H9.5H9V19V22V22.5H9.5H15H15.5V22V19V18.5H15H13V17H20V18.5H18H17.5V19V22V22.5H18H23.5H24V22V19V18.5H23.5H21V17V16H12.9V13H12.1129L17.7684 9.57155C17.8482 9.52312 17.897 9.4365 17.897 9.34309V5.26813L18.8828 4.69341L17.897 3.11127V2.48064L12.219 0.021997C12.1513 -0.00733238 12.0745 -0.00733231 12.0067 0.0219971L6.68042 2.32835L6.66974 2.32194L6.6587 2.33776ZM6.86243 3.21675L6.903 3.24111L6.99661 3.30215V5.11216L6.32873 4.7181V4.72039L5.96098 4.5042L6.40383 3.86978L6.86243 3.21675ZM6.99662 5.88778V9.1174L11.7789 12.0165V6.55614L10.7577 8.09883L6.99662 5.88778ZM10.764 5.55991L11.3873 5.93775L10.5503 7.20215L6.99662 5.11303V3.29734L10.764 5.55991ZM12.1176 5.59372L16.1378 3.1566L16.8101 2.73779L12.1129 0.703852L7.40485 2.74249L11.1091 4.98808L12.1176 5.59372ZM17.2172 3.28325L16.4876 3.7256L12.8703 5.97902L13.3721 7.13303L17.5869 4.67582L17.6829 4.61791L17.897 4.49259V4.49501L17.9522 4.46284L17.2172 3.28325ZM12.4468 6.68002V12.0165L17.2291 9.1174V5.65751L13.0593 8.08852L12.4468 6.68002ZM1 21.5V19.5H5.5V21.5H1ZM10 19.5V21.5H14.5V19.5H10ZM18.5 21.5V19.5H23V21.5H18.5Z" fill="black"/>
</svg>
