<svg width="24" height="24" viewBox="0 0 24 24" fill="none" xmlns="http://www.w3.org/2000/svg">
<path fill-rule="evenodd" clip-rule="evenodd" d="M4.7885 7.85213L4.84924 7.88861L4.98941 7.97999V10.69L3.98942 10.1V10.1034L3.43882 9.77976L4.10186 8.82987L4.7885 7.85213ZM4.48347 6.53607L3.98942 6.75V7.24384L2.57412 9.27143L2 10.0939L2.8647 10.6022L3.98942 11.2634V17.0247C3.98942 17.1646 4.06247 17.2943 4.18206 17.3668L12.1497 22.1969L12.6497 22.5L13.1497 22.1969L21.1173 17.3668C21.2369 17.2943 21.3099 17.1646 21.3099 17.0247V10.9235L21.9216 10.5669L22.7859 10.063L22.2568 9.21395L21.3099 7.69421V7.3347V6.75L20.7473 6.50637L12.8086 3.06882C12.7072 3.02491 12.5921 3.02491 12.4907 3.06882L4.55205 6.50637L4.51599 6.52199L4.5 6.51239L4.48347 6.53607ZM4.98942 11.8513V16.6868L12.1497 21.0275V12.852L10.6207 15.1618L4.98942 11.8513ZM10.6301 11.3604L11.5633 11.9261L10.3102 13.8192L4.98942 10.6913V7.9728L10.6301 11.3604ZM12.6567 11.411L18.6759 7.76207L19.6825 7.13502L12.6497 4.08972L5.60064 7.14205L11.1468 10.5042L12.1183 11.0877L12.6567 11.411ZM20.2921 7.9517L19.1996 8.614L13.7837 11.9879L14.5351 13.7157L20.8456 10.0367L20.9894 9.95L21.3099 9.76237V9.766L21.3926 9.71782L20.2921 7.9517ZM13.6651 14.2229L13.1497 13.0375V21.0275L20.3099 16.6868V11.5065L14.9366 14.6392L14.0667 15.1463L13.6651 14.2229Z" fill="black"/>
</svg>
