<svg xmlns="http://www.w3.org/2000/svg" width="23" height="23" viewBox="0 0 23 23" fill="none"><path d="M13.7657 21.0302H8.25941C3.27623 21.0302 1.14714 18.8857 1.14714 13.8663V8.31997C1.14714 3.30057 3.27623 1.15601 8.25941 1.15601H13.7657C18.7489 1.15601 20.878 3.30057 20.878 8.31997V13.8663C20.878 18.8857 18.7489 21.0302 13.7657 21.0302ZM8.25941 2.54258C4.02875 2.54258 2.52371 4.05857 2.52371 8.31997V13.8663C2.52371 18.1277 4.02875 19.6437 8.25941 19.6437H13.7657C17.9963 19.6437 19.5014 18.1277 19.5014 13.8663V8.31997C19.5014 4.05857 17.9963 2.54258 13.7657 2.54258H8.25941Z" fill="#737579"></path><path d="M12.1693 15.0495C11.9949 15.0495 11.8206 14.9848 11.6829 14.8461L8.44338 11.5831C8.17724 11.315 8.17724 10.8713 8.44338 10.6032L11.6829 7.34015C11.949 7.07208 12.3895 7.07208 12.6557 7.34015C12.9218 7.60822 12.9218 8.05193 12.6557 8.32L9.90254 11.0931L12.6557 13.8663C12.9218 14.1344 12.9218 14.5781 12.6557 14.8461C12.5272 14.9848 12.3528 15.0495 12.1693 15.0495Z" fill="#737579"></path></svg>