<svg xmlns="http://www.w3.org/2000/svg" width="23" height="23" viewBox="0 0 23 23" fill="none"><path d="M14.9671 13.3832C14.8775 13.2936 14.821 13.171 14.821 13.0296L14.821 7.80646L9.5978 7.80646C9.32439 7.80646 9.09811 7.58019 9.09811 7.30678C9.09811 7.03336 9.32439 6.80709 9.5978 6.80709L15.3207 6.80709C15.5941 6.80709 15.8203 7.03336 15.8203 7.30678L15.8203 13.0296C15.8203 13.303 15.5941 13.5293 15.3207 13.5293C15.1839 13.534 15.0567 13.4727 14.9671 13.3832Z" fill="white"></path><path d="M6.95325 15.6742C6.75997 15.4809 6.75997 15.1603 6.95325 14.9671L14.887 7.03333C15.0803 6.84006 15.4008 6.84006 15.5941 7.03333C15.7874 7.22661 15.7874 7.54716 15.5941 7.74044L7.66036 15.6742C7.46708 15.8675 7.14652 15.8675 6.95325 15.6742Z" fill="white"></path></svg>