<?xml version="1.0" encoding="UTF-8"?>
<svg xmlns="http://www.w3.org/2000/svg" width="100" height="100" viewBox="0 0 100 100" fill="none">
  <path d="M50 100C77.6142 100 100 77.6142 100 50C100 22.3858 77.6142 0 50 0C22.3858 0 0 22.3858 0 50C0 77.6142 22.3858 100 50 100Z" fill="#0073CF"></path>
  <path d="M54.89 39.1471C54.8885 41.8481 52.698 44.0361 49.9975 44.0351C47.2985 44.0336 45.111 41.8461 45.1095 39.1471C45.108 36.4461 47.2965 34.2556 49.9975 34.2546C52.6985 34.2531 54.889 36.4416 54.89 39.1426V39.1476V39.1471Z" fill="#FECB00"></path>
  <path d="M42.0945 20.9411C33.845 21.0956 25.3515 40.9236 45.1745 50.9761V79.0596H47.702V50.3826C45.609 49.6961 38.433 45.0646 38.433 38.9976C38.433 36.4596 40.0185 32.2751 43.041 30.3456C44.8905 29.1651 46.7085 27.9471 46.7085 25.4556C46.7085 22.9641 44.686 20.9416 42.1945 20.9416C42.162 20.9416 42.127 20.9411 42.0945 20.9416V20.9411ZM57.6585 20.9411C55.234 21.0181 53.2915 23.0121 53.2915 25.4551C53.2915 27.8981 55.1095 29.1646 56.959 30.3451C59.982 32.2746 61.567 36.4591 61.567 38.9971C61.567 45.0641 54.391 49.6956 52.298 50.3821V79.0591H54.8255V50.9756C74.726 40.8836 66.085 20.9406 57.8055 20.9406C57.757 20.9406 57.707 20.9391 57.6585 20.9406V20.9411ZM28.9755 27.9946C26.7705 28.0896 25.2665 29.7051 25.2665 32.2266C25.2665 36.9061 33.382 49.2131 41.712 52.2931V79.0601H44.2335V51.1646C39.6535 48.6066 35.895 45.3066 34.1065 41.4721C32.411 37.8371 32.3845 35.2806 32.3845 33.9426C32.3845 32.1326 32.543 32.2801 32.543 31.1331C32.543 28.2396 30.042 27.9946 29.028 27.9946C29.0105 27.9951 28.9925 27.9941 28.975 27.9946H28.9755ZM70.795 27.9946C69.694 28.0266 67.4565 28.3981 67.4565 31.1331C67.4565 32.2801 67.615 32.1326 67.615 33.9426C67.615 35.2801 67.5885 37.8371 65.893 41.4721C64.1045 45.3061 60.3455 48.6066 55.766 51.1646V79.0601H58.2875V52.2931C66.618 49.2131 74.733 36.9061 74.733 32.2266C74.733 29.6851 73.205 28.0661 70.9715 27.9946C70.916 27.9946 70.859 27.9926 70.795 27.9946ZM23.286 35.0946C22.0725 35.1561 20.941 36.0706 20.941 37.7746C20.941 38.3351 20.9015 39.1166 22.4165 40.9836C26.714 46.2811 36.148 52.7666 38.245 53.2326V79.0591H40.7725V52.4801C35.916 50.3331 28.9265 43.4866 25.8725 36.7281C25.3535 35.5791 24.292 35.0431 23.2865 35.0941L23.286 35.0946ZM76.4555 35.0946C75.532 35.1401 74.6025 35.6786 74.128 36.7286C71.074 43.4871 64.0845 50.3341 59.228 52.4806V79.0596H61.7555V53.2331C63.8525 52.7671 73.2865 46.2816 77.584 40.9841C79.0985 39.1171 79.0595 38.3351 79.0595 37.7751C79.0595 35.9491 77.7625 35.0306 76.4555 35.0951V35.0946ZM20.259 40.9076C19.0545 40.9916 18.2135 42.2741 18.2135 43.0411C18.2135 45.7631 30.6905 53.9761 34.377 54.3616V79.0596H37.304V53.4211C34.4345 52.1636 25.2495 45.5191 22.545 42.2006C21.723 41.1921 20.9345 40.8606 20.2585 40.9076H20.259ZM79.494 40.9076C78.876 40.9491 78.178 41.3126 77.4545 42.2006C74.75 45.5191 65.565 52.1636 62.6955 53.4211V79.0596H65.6225V54.3616C69.309 53.9766 81.786 45.7636 81.786 43.0411C81.786 42.2226 80.829 40.8176 79.4935 40.9076H79.494ZM48.6425 50.4706V79.0596H51.358V50.4706H48.6425Z" fill="white"></path>
</svg>
