<?xml version="1.0" encoding="UTF-8"?>
<svg xmlns="http://www.w3.org/2000/svg" width="100" height="100" viewBox="0 0 100 100" fill="none">
  <path d="M50 100C77.6142 100 100 77.6142 100 50C100 22.3858 77.6142 0 50 0C22.3858 0 0 22.3858 0 50C0 77.6142 22.3858 100 50 100Z" fill="white"></path>
  <path d="M97.155 66.665C90.29 86.085 71.77 100 50 100C28.23 100 9.70753 86.085 2.84253 66.665H97.155Z" fill="black"></path>
  <path d="M97.155 33.335H2.84253C9.70753 13.915 28.23 0 50 0C71.77 0 90.29 13.915 97.155 33.335Z" fill="#CE1126"></path>
  <path d="M50.1325 50.4001L61.5475 60.9976L60.735 41.7525C60.615 38.835 58.08 39.505 56.24 40.5575C54.375 41.7525 52.2475 41.7526 50 40.9626C47.7525 41.7526 45.625 41.7525 43.76 40.5575C41.92 39.505 39.385 38.835 39.265 41.7525L38.4525 60.9976L50.135 50.4001H50.1325Z" fill="white"></path>
  <path d="M61.5475 61.1026C61.5225 61.1026 61.495 61.0926 61.475 61.0751L50.1325 50.5451L38.5225 61.0776C38.49 61.1051 38.445 61.1126 38.4075 61.0951C38.37 61.0776 38.345 61.0376 38.3475 60.9951L39.16 41.7501C39.2 40.7626 39.5175 40.1001 40.1 39.7776C41.25 39.1426 43.08 40.0476 43.8125 40.4676C45.525 41.5651 47.595 41.6976 49.965 40.8651C49.9875 40.8576 50.0125 40.8576 50.035 40.8651C52.4075 41.6976 54.475 41.5651 56.185 40.4701C56.9225 40.0476 58.7525 39.1401 59.9025 39.7776C60.485 40.1001 60.8025 40.7651 60.8425 41.7501L61.655 60.9951C61.655 61.0376 61.6325 61.0776 61.5925 61.0951C61.5775 61.1026 61.5625 61.1051 61.5475 61.1051V61.1026ZM41.0475 39.7626C40.74 39.7626 40.45 39.8201 40.2 39.9576C39.685 40.2426 39.4075 40.8476 39.37 41.7551L38.5675 60.7476L50.0625 50.3201C50.1025 50.2826 50.165 50.2826 50.205 50.3201L61.43 60.7426L60.6275 41.7551C60.59 40.8476 60.31 40.2426 59.7975 39.9576C58.7425 39.3726 56.995 40.2451 56.2925 40.6476C54.54 41.7726 52.42 41.9151 50 41.0751C47.58 41.9151 45.46 41.7726 43.7025 40.6451C43.17 40.3401 42.03 39.7626 41.05 39.7626H41.0475Z" fill="#C09300"></path>
  <path d="M40.5775 41.0825L39.7875 59.8025L38.4475 60.9975L39.26 41.7525C39.6425 41.49 40.3125 41.0825 40.5775 41.0825ZM42.1825 42.4225L41.5125 58.0825L40.175 59.4525L40.9875 41.37C41.25 41.6325 42.04 42.2775 42.1825 42.42V42.425V42.4225ZM43.64 43.6175L43.115 56.6775L42.04 57.7275L42.71 42.8275C42.9725 43.09 43.4975 43.4725 43.6425 43.6175H43.64ZM45.2175 44.2875L44.6925 55.4175L43.64 56.27L44.165 43.88C44.4275 44 44.955 44.2875 45.2175 44.2875ZM46.6775 44.2875L46.295 53.5625L45.22 54.615L45.6275 44.4075C45.89 44.4075 46.56 44.4075 46.68 44.2875H46.6775Z" fill="#C09300"></path>
  <path d="M59.4224 41.0825L60.2124 59.8025L61.5524 60.9975L60.7399 41.7525C60.3574 41.49 59.6874 41.0825 59.4224 41.0825ZM57.8174 42.4225L58.4874 58.0825L59.8249 59.4525L59.0124 41.37C58.7499 41.6325 57.9599 42.2775 57.8174 42.42V42.425V42.4225ZM56.3599 43.6175L56.8849 56.6775L57.9599 57.7275L57.2899 42.8275C57.0274 43.09 56.5024 43.4725 56.3574 43.6175H56.3599ZM54.7824 44.2875L55.3074 55.4175L56.3599 56.27L55.8349 43.88C55.5724 44 55.0449 44.2875 54.7824 44.2875ZM53.3224 44.2875L53.7049 53.5625L54.7799 54.615L54.3724 44.4075C54.1099 44.4075 53.4399 44.4075 53.3199 44.2875H53.3224Z" fill="#C09300"></path>
  <path d="M50.5274 52.51L52.1299 59.8025L51.6024 60.3275L51.0524 59.92L50.1449 53.4175L50.5274 59.92L50.0024 60.59L49.4774 59.92L49.8599 53.4175L48.9524 59.92L48.4024 60.3275L47.8774 59.8025L49.4799 52.51H50.5324H50.5274Z" fill="#C09300"></path>
  <path d="M50 60.7349L49.3825 59.9499L49.635 55.6449L49.03 59.9699L48.3875 60.4449L47.7725 59.8299L49.4 52.4199H50.595L52.2225 59.8299L51.6075 60.4449L50.965 59.9699L50.36 55.6424L50.6125 59.9474L49.995 60.7324L50 60.7349ZM49.565 59.8924L50 60.4449L50.435 59.8924L50.055 53.4224L50.2325 53.4049L51.135 59.8699L51.5925 60.2074L52.03 59.7699L50.455 52.5949H49.5475L47.9725 59.7699L48.41 60.2074L48.8675 59.8699L49.77 53.4049L49.9475 53.4224L49.5675 59.8924H49.565Z" fill="#C09300"></path>
  <path d="M46.4124 49.3074L43.2324 60.5924L47.6074 61.2624L49.4724 52.7749L46.4124 49.3074Z" fill="white"></path>
  <path d="M47.6099 61.3599C47.6099 61.3599 47.5999 61.3599 47.5949 61.3599L43.2199 60.6899C43.1924 60.6849 43.1674 60.6699 43.1524 60.6449C43.1374 60.6199 43.1324 60.5924 43.1399 60.5649L46.3199 49.2799C46.3299 49.2449 46.3574 49.2174 46.3924 49.2099C46.4274 49.2024 46.4649 49.2149 46.4899 49.2399L49.5499 52.7074C49.5699 52.7299 49.5799 52.7624 49.5724 52.7949L47.7074 61.2824C47.6974 61.3274 47.6574 61.3599 47.6099 61.3599ZM43.3599 60.5099L47.5324 61.1474L49.3674 52.7999L46.4599 49.5074L43.3599 60.5099Z" fill="#C09300"></path>
  <path d="M45.7449 54.195C45.7449 54.195 45.7299 54.195 45.7224 54.195C45.6874 54.1875 45.6599 54.165 45.6474 54.1325L45.2649 53.2L45.4599 53.12L45.7824 53.9075L47.7374 52.04L47.8849 52.1925L45.8174 54.1675C45.7974 54.1875 45.7724 54.1975 45.7449 54.1975V54.195Z" fill="#C09300"></path>
  <path d="M47.2249 54.9824C47.2249 54.9824 47.2049 54.9824 47.1974 54.9774C47.1549 54.9649 47.1249 54.9299 47.1199 54.8874L46.6874 50.8299L46.8974 50.8074L47.3024 54.5999L48.4574 53.0899L48.6249 53.2174L47.3074 54.9374C47.2874 54.9649 47.2549 54.9799 47.2224 54.9799L47.2249 54.9824Z" fill="#C09300"></path>
  <path d="M48.1193 53.7994L47.9152 53.8584L48.6315 56.337L48.8356 56.278L48.1193 53.7994Z" fill="#C09300"></path>
  <path d="M46.8399 61.295L46.3874 59.915L45.7174 61.0525C45.6949 61.0875 45.6574 61.11 45.6124 61.105C45.5699 61.1 45.5349 61.07 45.5249 61.03L45.0124 59.3275L44.2549 60.3925L44.0824 60.27L44.9524 59.05L44.2824 56.5925C44.2724 56.5575 44.2824 56.5175 44.3099 56.49L45.6724 55.0925C45.6999 55.065 45.7374 55.055 45.7749 55.0625C45.8124 55.0725 45.8399 55.1 45.8499 55.1375L46.2174 56.45L47.0624 55.3075C47.0874 55.2725 47.1299 55.2575 47.1724 55.2675C47.2124 55.2775 47.2449 55.31 47.2524 55.3525L47.6124 57.3425L48.9299 55.34L49.1074 55.4575L47.6674 57.6425L48.1224 59.785L47.9149 59.83L47.4999 57.8725L46.6474 59.195C46.6249 59.23 46.5849 59.2475 46.5449 59.2425C46.5049 59.2375 46.4699 59.21 46.4574 59.17L46.0024 57.7875L45.1774 59.145L45.6574 60.74L46.3224 59.61C46.3424 59.575 46.3824 59.5525 46.4249 59.5575C46.4674 59.5625 46.5024 59.59 46.5149 59.63L47.0424 61.2325L46.8424 61.2975L46.8399 61.295ZM46.0299 57.4225C46.0299 57.4225 46.0374 57.4225 46.0424 57.4225C46.0824 57.4275 46.1174 57.455 46.1299 57.495L46.5874 58.885L47.4349 57.5675L47.0824 55.6225L46.2549 56.7425C46.2299 56.775 46.1899 56.7925 46.1499 56.7825C46.1099 56.775 46.0774 56.745 46.0674 56.7075L45.6899 55.365L44.4974 56.5875L45.1099 58.8325L45.9374 57.47C45.9574 57.4375 45.9924 57.42 46.0274 57.42L46.0299 57.4225Z" fill="#C09300"></path>
  <path d="M53.5875 49.3074L56.7675 60.5924L52.3925 61.2624L50.5275 52.7749L53.5875 49.3074Z" fill="white"></path>
  <path d="M52.39 61.36C52.345 61.36 52.3025 61.3275 52.2925 61.2825L50.4275 52.795C50.42 52.765 50.4275 52.7325 50.45 52.7075L53.51 49.24C53.535 49.2125 53.57 49.2 53.605 49.21C53.64 49.2175 53.6675 49.245 53.6775 49.28L56.8575 60.565C56.865 60.5925 56.86 60.6225 56.845 60.645C56.83 60.67 56.805 60.685 56.7775 60.69L52.4025 61.36C52.4025 61.36 52.3925 61.36 52.3875 61.36H52.39ZM50.635 52.8L52.47 61.1475L56.6425 60.51L53.5425 49.51L50.635 52.8025V52.8Z" fill="#C09300"></path>
  <path d="M54.255 54.1949C54.2275 54.1949 54.2025 54.1849 54.1825 54.1649L52.115 52.1899L52.26 52.0374L54.215 53.9049L54.5375 53.1174L54.7325 53.1974L54.35 54.1299C54.3375 54.1624 54.3075 54.1849 54.275 54.1924C54.2675 54.1924 54.26 54.1924 54.2525 54.1924L54.255 54.1949Z" fill="#C09300"></path>
  <path d="M52.7749 54.9826C52.7424 54.9826 52.7099 54.9676 52.6899 54.9401L51.3724 53.2201L51.5399 53.0926L52.6949 54.6026L53.0999 50.8101L53.3099 50.8326L52.8774 54.8901C52.8724 54.9326 52.8424 54.9701 52.7999 54.9801C52.7899 54.9826 52.7799 54.9851 52.7724 54.9851L52.7749 54.9826Z" fill="#C09300"></path>
  <path d="M51.8796 53.7923L51.162 56.2705L51.3661 56.3296L52.0837 53.8514L51.8796 53.7923Z" fill="#C09300"></path>
  <path d="M53.16 61.2949L52.96 61.2299L53.485 59.6274C53.4975 59.5874 53.5325 59.5599 53.575 59.5549C53.6175 59.5499 53.6575 59.5699 53.6775 59.6074L54.3425 60.7374L54.8225 59.1424L53.9975 57.7849L53.5425 59.1674C53.53 59.2049 53.495 59.2349 53.455 59.2399C53.415 59.2449 53.375 59.2274 53.3525 59.1924L52.5 57.8699L52.085 59.8274L51.8775 59.7824L52.3325 57.6399L50.8925 55.4549L51.07 55.3374L52.3875 57.3399L52.7475 55.3499C52.755 55.3074 52.7875 55.2749 52.8275 55.2649C52.8675 55.2549 52.9125 55.2699 52.9375 55.3049L53.7825 56.4474L54.15 55.1349C54.16 55.0974 54.19 55.0699 54.225 55.0599C54.2625 55.0499 54.3 55.0599 54.3275 55.0899L55.69 56.4874C55.715 56.5149 55.725 56.5524 55.7175 56.5899L55.0475 59.0474L55.9175 60.2674L55.745 60.3899L54.9875 59.3249L54.475 61.0274C54.4625 61.0674 54.4275 61.0974 54.3875 61.1024C54.345 61.1074 54.305 61.0874 54.2825 61.0499L53.6125 59.9124L53.16 61.2924V61.2949ZM52.5625 57.5699L53.41 58.8874L53.8675 57.4974C53.88 57.4574 53.915 57.4299 53.955 57.4249C53.995 57.4199 54.035 57.4399 54.0575 57.4749L54.885 58.8374L55.4975 56.5924L54.305 55.3699L53.9275 56.7124C53.9175 56.7524 53.885 56.7799 53.845 56.7874C53.805 56.7949 53.765 56.7799 53.74 56.7474L52.9125 55.6274L52.56 57.5724L52.5625 57.5699Z" fill="#C09300"></path>
  <path d="M50 65.6324C53.325 65.6324 56.505 65.3699 58.37 64.8424C59.16 64.6999 59.16 64.2925 59.16 63.7675C59.95 63.505 59.5425 62.5724 60.0925 62.5724C59.5425 62.7149 59.4225 61.6399 58.7525 61.7849C58.7525 60.8524 57.82 60.7324 57.03 60.9949C55.4525 61.5224 52.655 61.6399 50 61.6399C47.345 61.5199 44.5725 61.5199 42.97 60.9949C42.18 60.7324 41.25 60.8524 41.25 61.7849C40.58 61.6424 40.46 62.7174 39.91 62.5724C40.46 62.5724 40.0525 63.505 40.8425 63.7675C40.8425 64.295 40.8425 64.6999 41.655 64.8424C43.495 65.3674 46.6775 65.6324 50 65.6324Z" fill="white"></path>
  <path d="M50 65.8325C46.44 65.8325 43.385 65.5425 41.61 65.0375C40.7225 64.8775 40.65 64.395 40.645 63.9025C40.235 63.7025 40.1425 63.325 40.08 63.065C40.035 62.875 40.0075 62.8075 39.9725 62.785C39.9375 62.7825 39.8975 62.775 39.86 62.765C39.7625 62.74 39.7 62.6475 39.7125 62.5475C39.725 62.4475 39.81 62.375 39.91 62.375C39.9525 62.375 39.9925 62.38 40.0275 62.385C40.1225 62.37 40.21 62.2725 40.355 62.085C40.5175 61.8775 40.73 61.605 41.065 61.575C41.1175 61.22 41.3025 61.015 41.46 60.9C41.8275 60.635 42.415 60.6 43.0325 60.805C44.32 61.2275 46.39 61.305 48.5775 61.385C49.0525 61.4025 49.5325 61.42 50.0075 61.4425C53.405 61.4425 55.6825 61.235 56.965 60.8075C57.5825 60.6025 58.17 60.6375 58.5375 60.9025C58.695 61.0175 58.88 61.2225 58.9325 61.5775C59.2675 61.6075 59.48 61.88 59.6425 62.0875C59.7875 62.2725 59.875 62.3725 59.97 62.3875C60.0075 62.38 60.045 62.3775 60.0875 62.3775C60.1875 62.3775 60.2725 62.4525 60.285 62.55C60.2975 62.65 60.235 62.7425 60.1375 62.7675C60.0975 62.7775 60.06 62.785 60.025 62.7875C59.99 62.81 59.9625 62.8775 59.9175 63.0675C59.855 63.3275 59.7625 63.705 59.3525 63.905C59.3475 64.4 59.275 64.88 58.41 65.04C56.615 65.545 53.5475 65.835 49.9975 65.835L50 65.8325ZM40.365 62.6575C40.415 62.7575 40.4425 62.8725 40.465 62.9725C40.53 63.2425 40.5875 63.475 40.905 63.5825C40.985 63.61 41.04 63.685 41.04 63.77C41.04 64.295 41.04 64.5375 41.69 64.65C41.6975 64.65 41.7025 64.6525 41.71 64.655C43.4225 65.145 46.5225 65.435 50 65.435C53.5225 65.435 56.555 65.15 58.315 64.6525C58.32 64.6525 58.3275 64.65 58.3325 64.6475C58.96 64.535 58.96 64.2925 58.96 63.7675C58.96 63.6825 59.015 63.6075 59.095 63.58C59.4125 63.475 59.47 63.24 59.535 62.97C59.56 62.87 59.5875 62.7575 59.635 62.6575C59.515 62.5675 59.42 62.4425 59.3325 62.33C59.12 62.0575 59 61.935 58.7925 61.9775C58.735 61.99 58.6725 61.9775 58.6275 61.9375C58.58 61.9 58.5525 61.8425 58.5525 61.7825C58.5525 61.5275 58.47 61.3375 58.3075 61.22C58.0475 61.0325 57.5825 61.0175 57.0925 61.18C55.77 61.6225 53.45 61.835 50 61.835C49.5175 61.8125 49.0375 61.795 48.565 61.7775C46.3475 61.695 44.25 61.62 42.91 61.1775C42.42 61.015 41.955 61.03 41.695 61.2175C41.5325 61.335 41.45 61.525 41.45 61.78C41.45 61.84 41.4225 61.8975 41.3775 61.935C41.33 61.9725 41.27 61.9875 41.2125 61.975C41.0075 61.9325 40.885 62.055 40.6725 62.3275C40.585 62.44 40.4875 62.565 40.37 62.655L40.365 62.6575Z" fill="#C09300"></path>
  <path d="M45.4825 60.5899C46.5575 60.7324 47.755 60.8524 48.6875 60.7324C49.2125 60.7324 49.595 61.6399 48.5425 61.7849C47.61 61.9049 46.1525 61.7849 45.3625 61.6424C44.6925 61.5224 43.235 61.2599 42.3025 60.9974C41.37 60.5924 42.04 59.8024 42.565 59.9224C43.3775 60.1849 44.43 60.4474 45.4825 60.5924V60.5899ZM54.52 60.5899C53.445 60.7324 52.2475 60.8524 51.34 60.7324C50.79 60.7324 50.4075 61.6399 51.46 61.7849C52.3925 61.9049 53.85 61.7849 54.64 61.6424C55.31 61.5224 56.7675 61.2599 57.7 60.9974C58.6325 60.5924 57.9625 59.8024 57.4375 59.9224C56.625 60.1849 55.57 60.4474 54.52 60.5924V60.5899Z" fill="white"></path>
  <path d="M52.3625 61.94C52.035 61.94 51.72 61.925 51.445 61.89C50.7075 61.79 50.68 61.3575 50.69 61.2275C50.7125 60.9025 51.01 60.6275 51.34 60.6275C52.28 60.75 53.525 60.615 54.505 60.485C55.77 60.3125 56.865 59.995 57.405 59.82C57.7475 59.7425 58.135 59.965 58.245 60.2975C58.285 60.415 58.3625 60.825 57.7425 61.095C56.7675 61.3725 55.235 61.645 54.6575 61.7475C54.1225 61.845 53.2025 61.9425 52.3625 61.9425V61.94ZM51.325 60.8375C51.0975 60.8375 50.9125 61.05 50.9 61.24C50.885 61.4675 51.0925 61.6275 51.4725 61.6775C52.43 61.8 53.89 61.6675 54.62 61.535C55.195 61.4325 56.72 61.16 57.67 60.8925C57.9725 60.76 58.11 60.57 58.0425 60.36C57.97 60.135 57.6875 59.97 57.46 60.0225C56.9225 60.1975 55.8175 60.5175 54.535 60.6925C53.54 60.825 52.2775 60.96 51.3275 60.835L51.325 60.8375ZM47.64 61.94C46.8 61.94 45.88 61.8425 45.345 61.745C44.7675 61.6425 43.235 61.3675 42.275 61.0975C41.6425 60.8225 41.72 60.415 41.76 60.295C41.8675 59.965 42.2575 59.74 42.59 59.815C43.14 59.9925 44.2325 60.31 45.4975 60.4825C46.4775 60.6125 47.725 60.7475 48.675 60.625C49.005 60.625 49.2925 60.8975 49.315 61.22C49.325 61.35 49.295 61.7875 48.5575 61.8875C48.2825 61.9225 47.9675 61.9375 47.64 61.9375V61.94ZM42.4525 60.0125C42.2525 60.0125 42.025 60.1625 41.96 60.3625C41.8925 60.57 42.0275 60.76 42.345 60.9C43.28 61.1625 44.8075 61.435 45.3825 61.5375C46.1125 61.67 47.5725 61.8025 48.53 61.68C48.91 61.6275 49.12 61.4675 49.1025 61.2375C49.0875 61.03 48.89 60.84 48.685 60.84C47.725 60.965 46.46 60.8275 45.4675 60.695C44.1875 60.52 43.0775 60.1975 42.5325 60.0225C42.5075 60.0175 42.48 60.015 42.4525 60.015V60.0125Z" fill="#C09300"></path>
  <path d="M42.1825 60.0676C41.37 59.9251 40.9875 60.8551 41.25 61.3826C41.37 61.1201 41.92 61.1201 42.04 60.8576C42.1825 60.4526 41.92 60.4526 42.1825 60.0701V60.0676ZM45.3625 62.5101C45.3625 61.9851 45.8875 62.0501 45.8875 61.5226C45.8875 61.2601 45.745 60.8526 45.4825 60.8526C45.22 60.8526 44.9575 61.1151 44.9575 61.3776C44.8375 61.9026 45.365 61.9826 45.365 62.5076L45.3625 62.5101ZM49.145 60.9976C49.9325 60.9976 49.855 62.0501 49.4725 62.5751C49.4725 62.1926 48.8025 62.0501 48.8025 61.7876C48.8025 61.3801 49.4075 61.3801 49.145 60.9976ZM57.815 60.0676C58.6275 59.9251 59.01 60.8551 58.7475 61.3826C58.6275 61.1201 58.0775 61.1201 57.9575 60.8576C57.815 60.4526 58.0775 60.4526 57.815 60.0701V60.0676ZM54.6375 62.5101C54.6375 61.9851 54.1125 62.0501 54.1125 61.5226C54.1125 61.2601 54.255 60.8526 54.52 60.8526C54.785 60.8526 55.045 61.1151 55.045 61.3776C55.165 61.9026 54.6375 61.9826 54.6375 62.5076V62.5101ZM50.855 60.9976C50.0675 60.9976 50.145 62.0501 50.5275 62.5751C50.5275 62.1926 51.1975 62.0501 51.1975 61.7876C51.1975 61.3801 50.5925 61.3801 50.855 60.9976Z" fill="white"></path>
  <path d="M50.5275 62.6801C50.495 62.6801 50.4625 62.6651 50.4425 62.6376C50.185 62.2826 50.0325 61.6501 50.2375 61.2451C50.32 61.0826 50.495 60.8901 50.855 60.8901C50.895 60.8901 50.93 60.9126 50.95 60.9476C50.9675 60.9826 50.965 61.0251 50.9425 61.0576C50.8575 61.1826 50.885 61.2126 51.03 61.3301C51.145 61.4251 51.3025 61.5526 51.3025 61.7876C51.3025 61.9626 51.14 62.0751 50.97 62.1926C50.805 62.3051 50.635 62.4226 50.635 62.5776C50.635 62.6226 50.605 62.6651 50.5625 62.6776C50.5525 62.6801 50.54 62.6826 50.53 62.6826L50.5275 62.6801ZM50.685 61.1251C50.5675 61.1601 50.4825 61.2326 50.425 61.3426C50.29 61.6051 50.3525 62.0151 50.5 62.3251C50.585 62.1976 50.725 62.1001 50.8475 62.0176C50.96 61.9401 51.09 61.8501 51.09 61.7876C51.09 61.6626 51.015 61.5926 50.895 61.4951C50.7975 61.4151 50.66 61.3026 50.6875 61.1276L50.685 61.1251ZM49.4725 62.6801C49.4725 62.6801 49.45 62.6801 49.44 62.6751C49.3975 62.6601 49.3675 62.6201 49.3675 62.5751C49.3675 62.4226 49.1975 62.3051 49.0325 62.1901C48.86 62.0726 48.7 61.9601 48.7 61.7851C48.7 61.5501 48.8575 61.4226 48.975 61.3276C49.12 61.2101 49.1475 61.1801 49.0625 61.0551C49.04 61.0226 49.0375 60.9801 49.055 60.9451C49.0725 60.9101 49.11 60.8876 49.15 60.8876C49.51 60.8876 49.685 61.0801 49.7675 61.2426C49.9725 61.6476 49.8225 62.2801 49.5625 62.6351C49.5425 62.6626 49.51 62.6776 49.4775 62.6776L49.4725 62.6801ZM49.315 61.1251C49.3425 61.3001 49.205 61.4126 49.105 61.4926C48.9825 61.5926 48.91 61.6601 48.91 61.7851C48.91 61.8476 49.0375 61.9376 49.1525 62.0151C49.275 62.0976 49.415 62.1951 49.5 62.3226C49.6475 62.0151 49.7075 61.6026 49.575 61.3401C49.52 61.2301 49.4325 61.1576 49.315 61.1226V61.1251ZM54.6375 62.6151C54.58 62.6151 54.5325 62.5676 54.5325 62.5101C54.5325 62.2951 54.4325 62.2076 54.305 62.0976C54.1725 61.9801 54.005 61.8351 54.005 61.5251C54.005 61.2151 54.1825 60.7501 54.5175 60.7501C54.8325 60.7501 55.1425 61.0551 55.15 61.3701C55.22 61.6926 55.075 61.8776 54.9475 62.0426C54.8425 62.1776 54.745 62.3026 54.745 62.5126C54.745 62.5701 54.6975 62.6176 54.64 62.6176L54.6375 62.6151ZM54.52 60.9601C54.345 60.9601 54.22 61.2976 54.22 61.5226C54.22 61.7376 54.32 61.8251 54.4475 61.9376C54.5075 61.9901 54.575 62.0501 54.6325 62.1276C54.6775 62.0451 54.7325 61.9751 54.7825 61.9076C54.9025 61.7551 54.9975 61.6326 54.945 61.4026C54.945 61.3951 54.9425 61.3876 54.9425 61.3801C54.9425 61.1751 54.7275 60.9601 54.5225 60.9601H54.52ZM45.3625 62.6151C45.305 62.6151 45.2575 62.5676 45.2575 62.5101C45.2575 62.3001 45.16 62.1726 45.055 62.0401C44.9275 61.8751 44.7825 61.6901 44.8525 61.3676C44.86 61.0526 45.17 60.7476 45.485 60.7476C45.82 60.7476 45.9975 61.1976 45.9975 61.5226C45.9975 61.8476 45.8325 61.9801 45.6975 62.0951C45.57 62.2051 45.47 62.2951 45.47 62.5076C45.47 62.5651 45.4225 62.6126 45.365 62.6126L45.3625 62.6151ZM45.48 60.9601C45.275 60.9601 45.06 61.1751 45.06 61.3801C45.06 61.3876 45.06 61.3951 45.0575 61.4026C45.005 61.6326 45.1 61.7551 45.22 61.9076C45.2725 61.9726 45.325 62.0451 45.37 62.1276C45.425 62.0501 45.4925 61.9901 45.555 61.9376C45.6825 61.8276 45.7825 61.7376 45.7825 61.5226C45.7825 61.2951 45.6575 60.9601 45.4825 60.9601H45.48ZM41.25 61.4876C41.21 61.4876 41.1725 61.4651 41.155 61.4301C40.99 61.1026 41.045 60.6451 41.2875 60.3201C41.505 60.0301 41.8375 59.9001 42.2 59.9626C42.235 59.9701 42.265 59.9926 42.28 60.0251C42.295 60.0576 42.29 60.0976 42.27 60.1251C42.1475 60.3026 42.16 60.3676 42.175 60.4651C42.19 60.5626 42.2125 60.6826 42.1375 60.8876C42.0575 61.0676 41.865 61.1426 41.6825 61.2126C41.5375 61.2701 41.3875 61.3276 41.345 61.4201C41.3275 61.4576 41.2925 61.4826 41.25 61.4826V61.4876ZM42.0075 60.1576C41.7175 60.1626 41.5425 60.3326 41.4575 60.4451C41.3025 60.6551 41.24 60.9376 41.29 61.1726C41.38 61.1051 41.495 61.0601 41.605 61.0176C41.75 60.9601 41.9 60.9026 41.9425 60.8101C41.9925 60.6626 41.98 60.5851 41.9675 60.5001C41.95 60.3901 41.9425 60.2951 42.0075 60.1551V60.1576ZM58.7475 61.4876C58.7075 61.4876 58.67 61.4626 58.6525 61.4251C58.61 61.3326 58.46 61.2726 58.315 61.2176C58.13 61.1451 57.94 61.0701 57.8625 60.9001C57.785 60.6851 57.805 60.5651 57.8225 60.4676C57.84 60.3701 57.85 60.3051 57.7275 60.1276C57.7075 60.0976 57.7025 60.0601 57.7175 60.0276C57.7325 59.9951 57.7625 59.9701 57.7975 59.9651C58.16 59.9001 58.495 60.0301 58.71 60.3226C58.9525 60.6476 59.005 61.1026 58.8425 61.4301C58.825 61.4651 58.7875 61.4876 58.7475 61.4876ZM57.99 60.1576C58.055 60.2976 58.0475 60.3926 58.03 60.5026C58.015 60.5851 58.0025 60.6651 58.0575 60.8201C58.095 60.9051 58.245 60.9626 58.39 61.0201C58.5025 61.0651 58.615 61.1101 58.705 61.1751C58.755 60.9401 58.695 60.6551 58.5375 60.4476C58.4525 60.3351 58.2775 60.1651 57.9875 60.1601L57.99 60.1576Z" fill="#C09300"></path>
  <path d="M42.4451 60.3276C42.7076 60.3276 43.1151 60.4476 43.2351 60.5901L42.4451 60.3276ZM43.7576 60.7326C43.9001 60.7326 44.4276 60.8526 44.6901 60.9951L43.7576 60.7326ZM48.5426 61.2601C48.2801 61.2601 47.7526 61.2601 47.6101 61.3801L48.5426 61.2601ZM47.0826 61.2601C46.9401 61.1176 46.4126 61.1176 46.1501 61.2601H47.0826ZM57.5576 60.3276C57.2951 60.3276 56.9126 60.4476 56.7676 60.5901L57.5576 60.3276ZM56.2401 60.7326C56.0976 60.7326 55.5701 60.8526 55.3076 60.9951L56.2401 60.7326ZM51.4576 61.2576C51.7201 61.2576 52.2476 61.2576 52.3901 61.3776L51.4576 61.2576ZM52.9151 61.2576C53.0576 61.1151 53.5851 61.1151 53.8476 61.2576H52.9151Z" fill="white"></path>
  <path d="M47.61 61.4526C47.58 61.4526 47.555 61.4351 47.5425 61.4076C47.53 61.3776 47.5375 61.3426 47.5625 61.3201C47.7125 61.1951 48.14 61.1826 48.5325 61.1826C48.5675 61.1776 48.5975 61.1976 48.61 61.2301C48.6225 61.2626 48.61 61.2976 48.585 61.3176C48.5725 61.3276 48.55 61.3301 48.54 61.3326L47.6175 61.4501C47.6175 61.4501 47.61 61.4501 47.6075 61.4501L47.61 61.4526ZM52.39 61.4526C52.39 61.4526 52.3825 61.4526 52.38 61.4526L51.4575 61.3351C51.4375 61.3351 51.4175 61.3276 51.405 61.3126C51.3825 61.2901 51.3775 61.2551 51.39 61.2276C51.405 61.2001 51.435 61.1826 51.465 61.1876C51.8575 61.1876 52.285 61.2001 52.435 61.3251C52.46 61.3451 52.47 61.3826 52.455 61.4126C52.4425 61.4401 52.415 61.4576 52.3875 61.4576L52.39 61.4526ZM47.085 61.3351H46.1525C46.1175 61.3351 46.09 61.3126 46.08 61.2801C46.0725 61.2476 46.0875 61.2126 46.1175 61.1976C46.3825 61.0526 46.9425 61.0326 47.13 61.2026C47.1475 61.2151 47.16 61.2376 47.16 61.2626C47.16 61.3026 47.1275 61.3376 47.085 61.3376V61.3351ZM53.8475 61.3326H52.915C52.875 61.3326 52.84 61.3001 52.84 61.2576C52.84 61.2326 52.8525 61.2126 52.87 61.1976C53.055 61.0276 53.6175 61.0476 53.8825 61.1926C53.9125 61.2101 53.9275 61.2426 53.92 61.2751C53.9125 61.3076 53.8825 61.3301 53.8475 61.3301V61.3326ZM44.69 61.0701C44.69 61.0701 44.6775 61.0701 44.67 61.0676L43.7475 60.8076C43.7275 60.8051 43.7075 60.7926 43.695 60.7751C43.6775 60.7476 43.6775 60.7151 43.695 60.6901C43.7125 60.6676 43.74 60.6551 43.7675 60.6601C43.94 60.6651 44.4575 60.7876 44.7225 60.9301C44.755 60.9476 44.77 60.9876 44.755 61.0226C44.7425 61.0501 44.715 61.0701 44.685 61.0701H44.69ZM55.3075 61.0676C55.2775 61.0676 55.25 61.0501 55.2375 61.0201C55.2225 60.9851 55.2375 60.9451 55.27 60.9276C55.5375 60.7826 56.055 60.6626 56.2275 60.6551C56.2575 60.6501 56.2875 60.6651 56.305 60.6901C56.3225 60.7201 56.3175 60.7551 56.2925 60.7801C56.28 60.7901 56.2675 60.8001 56.25 60.8026L55.325 61.0626C55.325 61.0626 55.3125 61.0651 55.305 61.0651L55.3075 61.0676ZM43.235 60.6651C43.235 60.6651 43.22 60.6651 43.2125 60.6601L42.4275 60.3976C42.4275 60.3976 42.4125 60.3926 42.4075 60.3901C42.375 60.3701 42.3625 60.3301 42.3775 60.2951C42.3925 60.2651 42.4225 60.2476 42.455 60.2526C42.735 60.2526 43.1575 60.3801 43.2925 60.5426C43.315 60.5676 43.315 60.6051 43.2975 60.6326C43.2825 60.6526 43.26 60.6651 43.235 60.6651ZM56.7675 60.6651C56.7425 60.6651 56.7175 60.6526 56.705 60.6301C56.6875 60.6001 56.6925 60.5626 56.715 60.5376C56.8825 60.3701 57.2925 60.2526 57.5575 60.2526C57.595 60.2526 57.625 60.2801 57.63 60.3151C57.635 60.3501 57.615 60.3851 57.58 60.3976L56.79 60.6601C56.79 60.6601 56.775 60.6651 56.7675 60.6651Z" fill="#C09300"></path>
  <path d="M42.2225 62.4301C42.1325 62.4126 42.0875 62.3426 42.11 62.2601C42.1375 62.1601 42.2175 62.1001 42.295 62.1276C42.345 62.1451 42.4325 62.2351 42.4325 62.2676C42.4325 62.3051 42.385 62.3926 42.365 62.3926C42.355 62.3926 42.3425 62.4001 42.335 62.4101C42.3175 62.4301 42.265 62.4401 42.2225 62.4301ZM51.3775 63.0826C51.345 63.0701 51.2925 62.9951 51.2925 62.9626C51.2925 62.8976 51.3875 62.7926 51.4475 62.7926C51.4775 62.7926 51.5575 62.8351 51.5875 62.8651C51.6425 62.9226 51.63 63.0151 51.5625 63.0676C51.53 63.0926 51.43 63.1001 51.38 63.0851L51.3775 63.0826ZM51.4375 63.4976C51.3675 63.4751 51.3425 63.4401 51.335 63.3626C51.33 63.2826 51.335 63.2701 51.4225 63.2226L51.4825 63.1901L51.54 63.2151C51.62 63.2501 51.655 63.2901 51.6575 63.3426C51.66 63.4001 51.6175 63.4601 51.55 63.4901C51.4925 63.5176 51.4875 63.5176 51.4325 63.4976H51.4375ZM42.9575 61.6826C42.9 61.6826 42.82 61.7326 42.775 61.7601C42.6675 61.7851 42.54 61.8526 42.4375 61.7801C42.335 61.7476 42.1975 61.7726 42.1825 61.9001C42.21 62.0076 42.36 62.0701 42.4525 62.0001C42.52 61.9101 42.7075 61.8576 42.7275 62.0101C42.6525 62.1251 42.66 62.2776 42.5975 62.4001C42.5875 62.4776 42.555 62.5476 42.515 62.6126C42.4375 62.6201 42.355 62.6126 42.29 62.6601C42.185 62.6651 42.08 62.7176 42.02 62.8051C41.9525 62.9026 41.8875 63.0001 41.87 63.1176C41.8875 63.2376 42.0275 63.2726 42.13 63.2801L42.4625 63.3851L42.995 63.5301C43.26 63.6101 43.5375 63.6451 43.8025 63.7176C43.83 63.7276 43.8575 63.7351 43.885 63.7376C43.995 63.7601 44.0525 63.6401 44.0625 63.5501L44.2125 62.9676C44.25 62.8901 44.295 62.7151 44.145 62.7551C44.06 62.8051 43.9875 62.8851 43.88 62.8901C43.735 62.8976 43.8175 63.0476 43.875 63.1101C43.8875 63.2151 43.8575 63.3201 43.7925 63.4026C43.705 63.4576 43.5975 63.3926 43.505 63.3726C43.41 63.3726 43.2175 63.3251 43.3075 63.1951C43.34 63.1001 43.3425 62.9926 43.38 62.8976C43.43 62.7951 43.435 62.6826 43.4575 62.5751C43.3975 62.4451 43.295 62.6176 43.2125 62.6326C43.155 62.6726 42.945 62.6876 43.0575 62.7901C43.1525 62.8626 43.08 62.9901 43.0625 63.0826C43.0575 63.2101 42.9225 63.2426 42.8175 63.2126C42.7125 63.2076 42.5675 63.1301 42.655 63.0151L42.7275 62.7276L42.8425 62.3851C42.86 62.2826 42.8975 62.1826 42.9475 62.0926C42.95 61.9776 43.0275 61.8801 43.025 61.7651C43.0175 61.7076 42.9925 61.6876 42.9575 61.6876V61.6826ZM42.36 62.8926C42.3725 62.8926 42.3825 62.8926 42.3975 62.8976C42.44 62.9151 42.44 62.9476 42.3975 62.9851C42.38 63.0001 42.3575 63.0176 42.35 63.0176C42.2725 63.0101 42.25 63.0001 42.245 62.9701C42.2425 62.9451 42.25 62.9376 42.3025 62.9126C42.3275 62.9001 42.345 62.8951 42.36 62.8926ZM42.1875 63.7251C42.105 63.6476 42.1175 63.5901 42.24 63.5001C42.2925 63.4601 42.325 63.4651 42.385 63.5201C42.4775 63.6051 42.48 63.6576 42.4 63.7301C42.36 63.7651 42.3425 63.7726 42.295 63.7726C42.245 63.7726 42.2325 63.7676 42.1875 63.7251ZM42.695 63.8776C42.6175 63.8601 42.57 63.7826 42.59 63.7051C42.59 63.7026 42.59 63.7001 42.59 63.6976C42.6125 63.6251 42.625 63.6176 42.73 63.6176C42.85 63.6176 42.8725 63.6351 42.8725 63.7401C42.8725 63.8001 42.8675 63.8126 42.84 63.8401C42.8 63.8726 42.745 63.8876 42.6925 63.8776H42.695ZM57.545 63.8926C57.5075 63.8601 57.5 63.8476 57.5 63.8076C57.5 63.7401 57.54 63.6901 57.625 63.6501C57.7375 63.6001 57.785 63.6051 57.8275 63.6801C57.885 63.7801 57.8825 63.8201 57.8125 63.8876C57.775 63.9251 57.7675 63.9276 57.6825 63.9276C57.5975 63.9276 57.5875 63.9276 57.545 63.8901V63.8926ZM43.3675 64.0826C43.3075 64.0676 43.275 64.0201 43.275 63.9476C43.275 63.8926 43.2775 63.8826 43.3175 63.8526C43.345 63.8326 43.38 63.8176 43.415 63.8126C43.45 63.8051 43.485 63.8126 43.5125 63.8351C43.605 63.9001 43.6225 63.9626 43.57 64.0251C43.5125 64.0901 43.46 64.1076 43.37 64.0826H43.3675ZM47.0225 64.2476C47.01 64.2301 46.98 64.2201 46.9775 64.2001C46.9825 64.1076 46.9875 64.0151 47.0175 63.9251C47.0325 63.8376 47.0175 63.7476 47.05 63.6626C47.08 63.5076 47.08 63.3476 47.1175 63.1951C47.1175 63.1151 47.1275 63.0376 47.15 62.9601C47.1775 62.8401 47.15 62.7151 47.1875 62.5926C47.1825 62.5476 47.235 62.4276 47.28 62.5001C47.345 62.5951 47.43 62.6751 47.5175 62.7526C47.59 62.7951 47.5225 62.8576 47.4725 62.8776C47.4025 62.9051 47.3875 62.9801 47.3925 63.0476C47.3825 63.1176 47.355 63.1826 47.3525 63.2526C47.3375 63.3551 47.34 63.4626 47.3275 63.5651C47.2975 63.6651 47.31 63.7751 47.2975 63.8801C47.2975 63.9476 47.2675 64.0076 47.2725 64.0726C47.265 64.1401 47.2625 64.2226 47.205 64.2676C47.15 64.2951 47.07 64.2901 47.0275 64.2451L47.0225 64.2476ZM51.9725 62.6151C51.8925 62.6751 51.82 62.7476 51.7475 62.8176C51.6475 62.8926 51.8275 62.9351 51.8525 63.0001C51.8775 63.0976 51.8775 63.2001 51.885 63.3026C51.915 63.3951 51.9275 63.4926 51.9225 63.5901C51.915 63.6926 51.7775 63.6726 51.72 63.7301C51.6375 63.7651 51.605 63.8476 51.5425 63.9026C51.5025 63.9826 51.49 64.0826 51.485 64.1726C51.49 64.2476 51.435 64.3301 51.485 64.3976L51.505 64.4301C51.5225 64.4551 51.5625 64.4351 51.5875 64.4401C51.6725 64.4351 51.76 64.4476 51.8375 64.4151C52.0375 64.3826 52.2425 64.3776 52.4475 64.3676C52.5725 64.3726 52.6925 64.3276 52.8175 64.3301C52.915 64.3526 52.96 64.2451 52.9575 64.1676C52.9025 64.0576 52.95 63.9301 52.905 63.8176C52.865 63.7051 52.8825 63.5801 52.8625 63.4626C52.86 63.3701 52.745 63.3376 52.685 63.4051C52.6275 63.4626 52.535 63.4751 52.4925 63.5451C52.4425 63.6451 52.5975 63.6451 52.6225 63.7226C52.6525 63.8001 52.6425 63.8851 52.6475 63.9676C52.6675 64.0651 52.56 64.0726 52.4925 64.0826C52.4025 64.1151 52.275 64.1376 52.2275 64.0301C52.195 63.9501 52.2 63.8651 52.19 63.7801C52.19 63.6326 52.1525 63.4851 52.1425 63.3376L52.09 62.7901C52.09 62.7151 52.0775 62.5901 51.97 62.6126L51.9725 62.6151ZM51.87 63.9901L51.9225 63.9951L51.9325 64.1201L51.865 64.1401C51.8425 64.1476 51.82 64.1526 51.7975 64.1551C51.7875 64.1476 51.7775 64.1426 51.7675 64.1351C51.73 64.1076 51.74 64.0701 51.7875 64.0201C51.8075 63.9951 51.84 63.9826 51.87 63.9901ZM46.875 62.4401C46.8125 62.4626 46.7325 62.5551 46.6675 62.5551C46.52 62.5651 46.5425 62.7076 46.6475 62.7576C46.6625 62.8001 46.6475 62.8551 46.6525 62.9026C46.6725 63.0351 46.59 63.1401 46.605 63.2726C46.5975 63.4176 46.555 63.5601 46.5475 63.7051C46.5075 63.8551 46.505 64.0101 46.48 64.1626C46.4625 64.3001 46.3625 64.2526 46.2775 64.2151L46.2725 64.0376C46.3075 63.9026 46.2 63.8626 46.09 63.8451C45.975 63.8551 45.92 63.7576 45.945 63.6576C45.995 63.6001 46.1175 63.6151 46.195 63.6051C46.3575 63.6401 46.3525 63.4201 46.2675 63.3451C46.21 63.2401 46.0675 63.1951 46.0275 63.0851C46.0425 62.9401 45.9475 62.7976 45.83 62.7251C45.6475 62.7126 45.5125 62.8701 45.445 63.0226L45.22 63.0951C45.1025 63.1251 44.9325 63.3301 45.095 63.4076C45.185 63.4326 45.4625 63.4951 45.34 63.6201C45.2725 63.7376 45.14 63.7401 45.0225 63.7076C44.9025 63.7076 44.7675 63.6501 44.7725 63.5101C44.7475 63.3851 44.7525 63.2501 44.695 63.1351C44.67 62.9951 44.5125 63.0276 44.5025 63.1551C44.38 63.2451 44.3975 63.3876 44.4825 63.4926C44.535 63.6151 44.4825 63.7551 44.43 63.8676C44.3975 64.0126 44.2375 64.0176 44.1225 64.0651C44.065 64.0876 43.85 64.0526 43.93 64.1751C44.055 64.2201 44.205 64.2601 44.3375 64.2276C44.475 64.2101 44.595 64.1176 44.66 63.9976C44.7525 63.9051 44.91 63.9526 45.03 63.9501C45.16 63.9501 45.29 64.0401 45.415 63.9826C45.45 63.8876 45.6175 63.7326 45.67 63.8951C45.66 64.0401 45.7875 64.1151 45.92 64.0976C46.065 64.0901 46.01 64.1976 46.0075 64.2851C46.0175 64.4401 46.1175 64.5226 46.2475 64.5876C46.2925 64.6001 46.3375 64.5951 46.3825 64.5876C46.5075 64.5476 46.6425 64.4926 46.68 64.3526C46.73 64.2401 46.73 64.1101 46.7675 63.9926C46.7975 63.8051 46.835 63.6151 46.84 63.4251C46.885 63.2526 46.8725 63.0701 46.9075 62.8951L46.96 62.5051C46.945 62.4351 46.915 62.4251 46.8775 62.4376L46.875 62.4401ZM45.745 63.1326C45.77 63.1351 45.785 63.1676 45.7875 63.2201C45.79 63.2801 45.8225 63.3301 45.86 63.3401C45.89 63.3476 45.8875 63.3801 45.855 63.4026C45.835 63.4151 45.8025 63.4226 45.74 63.4226C45.6425 63.4226 45.585 63.3976 45.5325 63.3451L45.5 63.3126L45.5475 63.2826C45.58 63.2576 45.6125 63.2301 45.6425 63.2001C45.69 63.1501 45.7225 63.1301 45.7475 63.1326H45.745ZM56.75 61.8201C56.6575 61.8251 56.565 61.8376 56.475 61.8626C56.3025 61.8526 56.215 62.0326 56.3825 62.1226C56.4825 62.3776 56.64 62.0701 56.8 62.0926C57.04 62.1401 57.06 62.3976 57.0975 62.5926C57.11 62.7851 57.1675 62.9726 57.2225 63.1551C57.3825 63.3326 57.1025 63.4451 56.9825 63.3051C56.8825 63.1951 56.6625 63.0576 56.54 63.2126C56.39 63.2776 56.3825 63.4801 56.26 63.5351C56.06 63.5976 56.0325 63.3476 55.9275 63.2426C55.83 63.1051 55.645 63.0926 55.49 63.0451C55.4175 62.9001 55.455 62.6551 55.3075 62.5551C55.1825 62.6051 54.955 62.8376 55.145 62.9451C55.3325 63.1051 55.0625 63.1776 54.9775 63.2901C54.855 63.4251 54.835 63.6126 54.815 63.7851C54.605 63.9001 54.565 63.6526 54.54 63.4976C54.5225 63.3151 54.3675 63.3676 54.26 63.4351C54.1025 63.5001 54.0225 63.6526 53.91 63.7676C53.8975 63.8751 53.915 63.9926 53.915 64.1051C53.95 64.2376 54.115 64.1776 54.2175 64.1676C54.38 64.1001 54.4475 64.2726 54.3175 64.3701C54.23 64.4826 53.9475 64.4251 53.975 64.6051C54.065 64.6151 54.1575 64.6126 54.25 64.6051C54.4325 64.5551 54.6275 64.4276 54.645 64.2251C54.67 64.0476 54.9225 64.0801 55.0625 64.0426C55.235 63.9926 55.445 63.9801 55.485 64.2001C55.6025 64.3251 55.86 64.4651 55.99 64.2951C56.1225 64.2151 56.185 64.0726 56.1775 63.9201C56.15 63.7901 56.39 63.7851 56.4475 63.8576C56.535 64.0001 56.805 63.9576 56.9375 63.8776C57.0775 63.7751 57.1075 63.5926 57.3075 63.5901L58.2025 63.3401C58.435 63.2901 58.17 63.1401 58.11 63.0526C57.93 62.9651 57.775 63.3251 57.5725 63.1476C57.4175 63.0276 57.4275 62.8026 57.37 62.6276C57.33 62.4026 57.34 62.1401 57.1775 61.9601C57.065 61.8401 56.9125 61.8126 56.755 61.8201H56.75ZM55.615 63.3976C55.635 63.3976 55.66 63.4076 55.6975 63.4301C55.77 63.4701 55.8225 63.5376 55.8225 63.5926C55.8225 63.6276 55.8125 63.6301 55.76 63.6551C55.7275 63.6726 55.69 63.6876 55.6775 63.6876C55.6475 63.6876 55.5725 63.6276 55.5725 63.6051C55.5725 63.5951 55.5625 63.5576 55.5525 63.5276C55.5325 63.4751 55.535 63.4751 55.5625 63.4401C55.58 63.4176 55.5925 63.4051 55.615 63.4026V63.3976ZM56.7025 63.4551C56.765 63.4501 56.8025 63.4701 56.8275 63.5176C56.8575 63.5726 56.8375 63.6151 56.76 63.6476C56.725 63.6626 56.6925 63.6751 56.6875 63.6726C56.6825 63.6726 56.655 63.6551 56.625 63.6351C56.58 63.6051 56.575 63.5901 56.5725 63.5576C56.5725 63.5051 56.63 63.4576 56.7025 63.4526V63.4551ZM55.2125 63.4726C55.23 63.4701 55.2475 63.4801 55.27 63.4976C55.3 63.5226 55.31 63.5451 55.3175 63.5976C55.3225 63.6326 55.3225 63.6676 55.3175 63.7026C55.31 63.7401 55.3075 63.7376 55.225 63.7401C55.1175 63.7401 55.1075 63.7301 55.11 63.6301C55.11 63.5676 55.11 63.5501 55.1475 63.5151C55.175 63.4876 55.1975 63.4751 55.215 63.4726H55.2125ZM54.2975 63.7101C54.335 63.7176 54.3625 63.7476 54.37 63.7826C54.38 63.8351 54.37 63.8601 54.3275 63.8826C54.29 63.9026 54.205 63.9076 54.1825 63.8926C54.17 63.8851 54.16 63.8751 54.1525 63.8626C54.14 63.8426 54.1425 63.8326 54.1575 63.8201C54.1675 63.8126 54.1775 63.8001 54.1775 63.7951C54.1775 63.7901 54.1875 63.7676 54.2025 63.7476C54.2275 63.7151 54.2625 63.7026 54.2975 63.7101ZM55.8375 63.9101C55.865 63.9101 55.89 63.9176 55.91 63.9351C55.94 63.9626 55.94 64.0026 55.905 64.0301C55.8825 64.0476 55.76 64.0451 55.7175 64.0301C55.7 64.0276 55.69 64.0101 55.6925 63.9926C55.6925 63.9701 55.7 63.9551 55.74 63.9351C55.775 63.9176 55.81 63.9101 55.84 63.9101H55.8375ZM52.9775 64.7151C52.9625 64.7051 52.9375 64.6951 52.9625 64.6776C52.9925 64.6276 53.05 64.6101 53.1 64.5901C53.1925 64.5501 53.27 64.4826 53.33 64.4026C53.3375 64.3476 53.4 64.3176 53.4 64.2601C53.4 64.1801 53.405 64.1001 53.385 64.0226C53.3625 63.9526 53.31 63.8976 53.2475 63.8601C53.205 63.8276 53.135 63.8176 53.12 63.7576C53.11 63.7001 53.1625 63.6576 53.18 63.6076L53.2875 63.3951C53.33 63.3476 53.3975 63.3926 53.42 63.4376C53.4525 63.4826 53.4775 63.5326 53.495 63.5876C53.545 63.6426 53.59 63.7076 53.6075 63.7801C53.6325 63.8301 53.6725 63.8801 53.67 63.9401C53.67 64.0101 53.71 64.0701 53.7075 64.1401C53.7075 64.2326 53.7075 64.3301 53.675 64.4201C53.6525 64.4701 53.605 64.4976 53.575 64.5426C53.5225 64.5926 53.4625 64.6401 53.395 64.6651C53.345 64.6801 53.32 64.7351 53.2575 64.7226C53.1725 64.7226 53.085 64.7351 53 64.7226C53.005 64.7326 52.975 64.7051 52.98 64.7126L52.9775 64.7151ZM51.8325 64.7876C51.7925 64.7451 51.7825 64.7276 51.7825 64.6876C51.7825 64.6476 51.79 64.6301 51.83 64.5901C51.9025 64.5151 51.9375 64.5151 52.0625 64.5776C52.1825 64.6376 52.225 64.6451 52.235 64.6001C52.245 64.5576 52.315 64.5201 52.38 64.5201C52.415 64.5201 52.4525 64.5301 52.4775 64.5551C52.52 64.5876 52.5225 64.5926 52.5225 64.6676C52.5225 64.7451 52.5225 64.7476 52.4725 64.7901C52.4275 64.8301 52.42 64.8326 52.3625 64.8276C52.29 64.8201 52.245 64.7876 52.235 64.7301C52.2275 64.6876 52.2125 64.6801 52.2 64.7076C52.1975 64.7176 52.1775 64.7276 52.16 64.7326C52.125 64.7401 52.0675 64.7776 52.0275 64.8151C52.0125 64.8301 51.985 64.8376 51.94 64.8376C51.88 64.8376 51.8725 64.8351 51.8275 64.7876H51.83H51.8325ZM48.5325 63.3051C48.4225 63.3051 48.3025 63.4001 48.2875 63.5076C48.3125 63.6326 48.4175 63.7576 48.35 63.8876C48.3975 64.0576 48.2225 64.1201 48.105 64.0226C48.035 63.8601 47.9975 63.6826 47.8925 63.5376C47.7575 63.5001 47.7 63.7126 47.605 63.7876C47.6525 63.9126 47.7875 64.0251 47.8025 64.1826C47.835 64.3351 47.7425 64.5051 47.61 64.5826C47.495 64.6926 47.34 64.6526 47.1975 64.6776C47.0275 64.7776 47.3225 64.8151 47.4 64.8176C47.575 64.8351 47.755 64.8126 47.885 64.6826C48.0125 64.6226 48.0025 64.4001 48.155 64.3751C48.42 64.3626 48.6825 64.4151 48.9475 64.4226C49.09 64.4576 49.3075 64.4051 49.405 64.5101C49.405 64.6951 49.5625 64.8101 49.7125 64.8801C49.795 64.9026 49.8825 64.8001 49.9675 64.7801C50.1275 64.7276 50.08 64.5301 50.175 64.4526L51.0025 64.4376C51.055 64.4376 51.07 64.3651 51.1075 64.3326L51.0825 64.0151C51.03 63.8801 51.09 63.7076 50.995 63.5926C50.8575 63.5551 50.74 63.6826 50.6 63.6926C50.445 63.7601 50.315 63.9051 50.3075 64.0776C50.215 64.2276 50.07 64.0501 50.12 63.9276C50.115 63.8726 50.1325 63.8101 50.115 63.7601C50.03 63.6576 49.8825 63.6926 49.765 63.6776C49.595 63.6851 49.43 63.6476 49.26 63.6526C49.11 63.6426 48.9575 63.6651 48.8125 63.6276C48.64 63.6226 48.6625 63.4551 48.635 63.3351C48.605 63.3126 48.5675 63.3026 48.53 63.3051H48.5325ZM48.8675 63.9201C48.925 63.9201 48.9775 63.9276 49.035 63.9351C49.1075 63.9476 49.185 63.9101 49.255 63.9351C49.4175 63.9626 49.58 63.9551 49.745 63.9726C49.7875 63.9726 49.82 64.0026 49.85 64.0301V64.3751C49.845 64.4176 49.8625 64.4751 49.825 64.5051C49.8125 64.5151 49.7975 64.5226 49.7825 64.5251C49.7375 64.5126 49.69 64.4826 49.6675 64.4426C49.66 64.3826 49.67 64.3251 49.6725 64.2651C49.6725 64.2501 49.68 64.2251 49.6725 64.2126C49.6375 64.1876 49.5975 64.1701 49.5525 64.1701L49.13 64.1501C49.0125 64.1426 48.89 64.1601 48.775 64.1301C48.73 64.1126 48.6725 64.1201 48.645 64.0726C48.605 64.0276 48.6625 63.9726 48.7025 63.9526C48.755 63.9301 48.8125 63.9201 48.87 63.9226L48.8675 63.9201ZM50.7475 63.9626C50.775 63.9626 50.78 63.9701 50.795 64.0201L50.815 64.1026C50.82 64.1226 50.8125 64.1276 50.785 64.1401C50.7025 64.1701 50.62 64.1676 50.5925 64.1301C50.58 64.1126 50.5925 64.0576 50.6175 64.0376C50.6675 63.9951 50.7175 63.9651 50.7475 63.9651V63.9626Z" fill="#C09300"></path>
  <path d="M49.9974 54.5375C55.4374 50.3525 54.9724 44.2225 54.9724 44.2225C54.8324 44.25 54.6924 44.265 54.5499 44.265C53.4099 44.265 50.6874 43.6125 50.0524 42.7825C49.3724 43.5325 46.5899 44.265 45.4574 44.265C45.3149 44.265 45.1699 44.25 45.0349 44.2225C45.0349 44.2225 44.5624 50.3525 50.0024 54.5375H49.9974Z" fill="white"></path>
  <path d="M49.9974 54.66L49.9399 54.615C44.5199 50.4475 44.9324 44.28 44.9374 44.2175L44.9449 44.1075L45.0524 44.13C45.1824 44.1575 45.3174 44.17 45.4549 44.17C46.6049 44.17 49.3274 43.44 49.9799 42.72L50.0574 42.635L50.1274 42.7275C50.7324 43.5175 53.4299 44.1725 54.5499 44.1725C54.6849 44.1725 54.8224 44.1575 54.9549 44.1325L55.0624 44.11L55.0699 44.2175C55.0749 44.28 55.4774 50.4475 50.0599 54.615L50.0024 54.66H49.9974ZM45.1199 44.3375C45.0924 45.165 45.1099 50.615 49.9949 54.4175C54.8824 50.615 54.9049 45.165 54.8774 44.3375C54.7674 44.355 54.6549 44.3625 54.5449 44.3625C53.4449 44.3625 50.8099 43.7475 50.0424 42.925C49.2024 43.705 46.5024 44.3625 45.4524 44.3625C45.3399 44.3625 45.2274 44.355 45.1199 44.3375Z" fill="#C09300"></path>
  <path d="M54.5375 44.6725L54.395 44.6775C53.36 44.6775 50.9575 44.1475 50.0325 43.3525C49.0625 44.085 46.62 44.6775 45.6025 44.6775C45.555 44.6775 45.5075 44.6725 45.46 44.6625C45.46 44.895 45.47 45.135 45.485 45.3525C45.54 46.17 45.6825 46.99 45.9 47.7775C46.585 50.26 47.985 52.37 49.995 53.97C52.005 52.37 53.41 50.2575 54.095 47.7725C54.3125 46.985 54.4575 46.165 54.51 45.3475C54.525 45.1325 54.535 44.9 54.535 44.6725H54.5375Z" fill="white"></path>
  <path d="M49.995 54.0699L49.9475 54.0324C47.9325 52.4274 46.5075 50.2724 45.825 47.7999C45.6025 46.9899 45.46 46.1674 45.4075 45.3599C45.395 45.1674 45.38 44.9149 45.3825 44.6624V44.5699L45.4725 44.5874C45.515 44.5949 45.5575 44.5999 45.6 44.5999C46.62 44.5999 49.0425 43.9999 49.9825 43.2899L50.0325 43.2524L50.08 43.2924C51.01 44.0899 53.435 44.5999 54.3925 44.5999L54.5325 44.5949V44.6724H54.61C54.61 44.9224 54.5975 45.1824 54.585 45.3549C54.5325 46.1624 54.39 46.9849 54.1675 47.7949C53.4825 50.2724 52.0575 52.4274 50.0425 54.0324L49.995 54.0699ZM45.5375 44.7499C45.5375 44.9674 45.55 45.1799 45.5625 45.3474C45.615 46.1449 45.755 46.9574 45.975 47.7574C46.6525 50.2149 48.005 52.2724 49.9975 53.8724C51.9625 52.2924 53.355 50.1774 54.025 47.7524C54.2475 46.9499 54.385 46.1399 54.4375 45.3424C54.4475 45.1899 54.46 44.9699 54.4625 44.7499H54.4C53.41 44.7499 51.0325 44.2574 50.0325 43.4474C49.0225 44.1724 46.655 44.7524 45.605 44.7524C45.5825 44.7524 45.56 44.7524 45.54 44.7499H45.5375Z" fill="#C09300"></path>
  <path d="M48.23 44.1725C47.2525 44.48 46.1925 44.6775 45.605 44.6775C45.5575 44.6775 45.51 44.67 45.465 44.6625C45.465 44.895 45.4775 45.1375 45.49 45.355C45.545 46.175 45.6825 46.985 45.9025 47.7775C46.3625 49.4475 47.1525 50.95 48.23 52.24V44.1725ZM51.6675 44.155V52.3625C52.8 51.0425 53.6225 49.495 54.1 47.77C54.3175 46.9825 54.4575 46.165 54.5125 45.3475C54.5275 45.1325 54.54 44.8975 54.5375 44.67C54.49 44.6725 54.445 44.675 54.3975 44.675C53.775 44.675 52.66 44.48 51.6675 44.155Z" fill="#C09300"></path>
  <path d="M52.0499 42.1825C52.1599 42.19 51.8999 41.5875 51.8999 41.5875C52.1949 41.8875 53.3049 41.96 53.3049 41.96C52.6374 41.665 51.9724 39.445 52.0499 37.6725C52.1224 35.895 51.7949 35.195 51.5349 34.935C51.2024 34.6025 50.1299 34.3075 49.4249 34.2675C49.0274 34.2475 49.0924 34.5675 49.0924 34.5675C48.3549 34.3775 47.6149 34.305 47.2824 34.5275C46.9699 34.7375 46.9024 35.7825 47.1324 35.6C47.6874 35.155 48.1724 35.56 48.5049 36.045C48.7999 36.47 48.7799 37.6725 48.3549 39.0775C47.9099 40.555 46.6949 42.03 46.6949 42.03C47.3549 42.03 48.2824 41.4425 48.2824 41.4425L48.0599 42.365C48.7599 42.0325 49.3149 41.515 49.3149 41.515L49.9824 42.215C50.2049 41.92 50.6499 41.515 50.6499 41.515C50.6499 41.515 51.2049 42.1025 52.0549 42.1825H52.0499Z" fill="white"></path>
  <path d="M47.9075 42.55L48.1225 41.655C47.805 41.8325 47.1825 42.1375 46.69 42.1375H46.475L46.6125 41.9725C46.625 41.9575 47.82 40.4925 48.2525 39.055C48.6925 37.6 48.6675 36.4725 48.4175 36.11C48.1775 35.76 47.925 35.5575 47.69 35.5225C47.525 35.4975 47.3625 35.5525 47.1925 35.685C47.12 35.745 47.055 35.73 47.0225 35.7175C46.95 35.6875 46.9075 35.605 46.895 35.465C46.87 35.195 46.9575 34.625 47.2225 34.45C47.625 34.1825 48.4575 34.3175 48.99 34.445C49 34.3975 49.02 34.3425 49.0625 34.295C49.14 34.205 49.2625 34.165 49.4275 34.1725C50.1675 34.2125 51.2575 34.52 51.605 34.87C51.895 35.16 52.225 35.8825 52.15 37.685C52.07 39.5025 52.765 41.62 53.345 41.875L53.2975 42.07C53.205 42.065 52.535 42.015 52.105 41.8375C52.215 42.15 52.1725 42.21 52.1525 42.24C52.1275 42.275 52.0875 42.295 52.045 42.2925H52.0425C51.335 42.2275 50.8275 41.8275 50.645 41.665C50.5125 41.79 50.2225 42.07 50.06 42.285L49.9875 42.38L49.305 41.665C49.13 41.8175 48.6625 42.1975 48.1 42.465L47.9075 42.5575V42.55ZM48.4375 41.225L48.2075 42.175C48.7925 41.8575 49.2375 41.4475 49.2425 41.4425L49.315 41.375L49.97 42.0625C50.205 41.78 50.5575 41.4575 50.575 41.4425L50.6475 41.375L50.715 41.4475C50.715 41.4475 51.215 41.965 51.9625 42.0725C51.9375 41.9675 51.87 41.7825 51.8025 41.63L51.9675 41.5175C52.1275 41.68 52.6075 41.7775 52.9725 41.825C52.3725 41.135 51.875 39.2375 51.945 37.67C52.0175 35.85 51.6725 35.2225 51.4575 35.0075C51.145 34.695 50.1025 34.41 49.4125 34.37C49.345 34.3675 49.2575 34.3725 49.2125 34.4225C49.17 34.4725 49.1825 34.55 49.1825 34.55L49.21 34.705L49.0575 34.6675C48.24 34.4575 47.595 34.4375 47.33 34.615C47.2425 34.675 47.16 34.8525 47.1175 35.0825C47.0825 35.2675 47.085 35.4175 47.1 35.4925C47.3025 35.345 47.5075 35.285 47.715 35.3175C48.0125 35.3625 48.305 35.5875 48.58 35.99C48.91 36.4675 48.855 37.75 48.4425 39.11C48.085 40.2975 47.25 41.4675 46.91 41.9125C47.505 41.81 48.21 41.365 48.2175 41.36L48.43 41.225H48.4375Z" fill="#C09300"></path>
  <path d="M51.8125 41.6475C51.175 40.715 51.0225 38.23 51.0175 38.125L51.23 38.1125C51.23 38.1375 51.385 40.645 51.99 41.53L51.815 41.65L51.8125 41.6475ZM49.4075 41.5675L49.2225 41.4675C49.69 40.61 49.835 37.88 49.8375 37.8525L50.05 37.8625C50.045 37.9775 49.9 40.6675 49.41 41.5675H49.4075ZM50.5475 41.5525C50.36 41.0225 50.3575 38.0925 50.3575 37.9675H50.57C50.57 38.805 50.6025 41.0725 50.7475 41.4825L50.5475 41.5525ZM48.36 41.515L48.2025 41.3725C48.8725 40.6275 49.245 37.94 49.2475 37.9125L49.4575 37.94C49.4425 38.0525 49.0725 40.72 48.36 41.5125V41.515Z" fill="#C09300"></path>
  <path d="M48.6801 36.5999C48.6476 36.3574 48.5876 36.1674 48.5026 36.0449C48.1701 35.5624 47.6851 35.1574 47.1301 35.5999C47.1301 35.5999 47.3201 35.0124 47.7251 34.9924C48.0376 34.9724 48.7501 35.2249 49.3776 36.2999C49.3776 36.2999 48.9126 36.1949 48.8026 36.2924C48.5926 36.4749 48.6776 36.5999 48.6776 36.5999H48.6801ZM47.0726 34.8774C47.1176 34.7274 47.1901 34.5899 47.2826 34.5299C47.6151 34.3074 48.3551 34.3799 49.0926 34.5699C49.0926 34.5699 49.0276 34.2499 49.4251 34.2699C50.1301 34.3099 51.2026 34.6024 51.5351 34.9374C51.6126 35.0199 51.7051 35.1474 51.7851 35.3349H51.7726C51.6101 35.1074 51.1451 35.1199 51.0351 35.1324C50.8576 35.1524 50.7476 35.1449 50.5126 35.2049C50.4026 35.2299 50.2326 35.2649 50.1401 35.3349C50.0676 35.3949 50.0101 35.6099 49.8976 35.6099C49.7201 35.6099 49.7351 35.5649 49.6876 35.5124C49.6276 35.4399 49.5951 35.3349 49.5376 35.3424C49.3551 35.3749 49.0601 35.2324 48.6876 34.9374C48.3151 34.6424 48.1726 34.5724 47.6876 34.6049C47.2101 34.6449 47.0601 34.9124 47.0601 34.9124L47.0726 34.8799V34.8774Z" fill="#C09300"></path>
  <path d="M48.6525 36.6125C48.6525 36.6125 48.625 36.57 48.635 36.5C48.6 36.31 48.5475 36.16 48.48 36.06C48.225 35.69 47.9625 35.4825 47.7025 35.4425C47.5175 35.415 47.3325 35.475 47.15 35.62L47.0725 35.68L47.1025 35.5875C47.11 35.5625 47.3025 34.98 47.725 34.96C48.05 34.94 48.77 35.195 49.405 36.28L49.44 36.3375L49.375 36.3225C49.2025 36.2825 48.9 36.245 48.825 36.31C48.7375 36.3875 48.705 36.4525 48.695 36.4975C48.7 36.5275 48.705 36.56 48.71 36.5925L48.655 36.61L48.6525 36.6125ZM47.615 35.38C47.6475 35.38 47.6775 35.38 47.71 35.3875C47.9875 35.4275 48.2625 35.645 48.5275 36.03C48.59 36.12 48.6375 36.245 48.675 36.4C48.6975 36.3625 48.7325 36.3175 48.785 36.2725C48.88 36.1875 49.1825 36.2325 49.32 36.26C48.7075 35.2475 48.0325 35.005 47.7275 35.025C47.4425 35.0375 47.2675 35.3575 47.195 35.52C47.3325 35.43 47.4725 35.3825 47.615 35.3825V35.38ZM49.8975 35.6375C49.75 35.6375 49.72 35.6075 49.685 35.5575C49.68 35.55 49.6725 35.54 49.665 35.53C49.6425 35.505 49.6275 35.475 49.61 35.45C49.585 35.41 49.56 35.37 49.54 35.37C49.3525 35.405 49.0575 35.265 48.67 34.96C48.2975 34.6675 48.1625 34.6 47.69 34.6325C47.2375 34.67 47.0875 34.9225 47.0875 34.925L47.05 34.9075H47.035V34.9L47.045 34.87C47.075 34.7675 47.145 34.585 47.2675 34.5075C47.6675 34.2425 48.545 34.4025 49.06 34.5325C49.06 34.485 49.0675 34.405 49.1225 34.34C49.185 34.2675 49.2875 34.235 49.4275 34.24C50.155 34.28 51.22 34.5775 51.5575 34.915C51.66 35.0225 51.745 35.16 51.815 35.3225L51.8325 35.3625H51.76L51.75 35.35C51.6025 35.1425 51.1775 35.1425 51.04 35.16C50.99 35.165 50.9475 35.17 50.9025 35.1725C50.7925 35.18 50.6875 35.19 50.52 35.2325L50.4825 35.2425C50.3775 35.2675 50.235 35.3 50.16 35.36C50.1375 35.3775 50.115 35.4175 50.09 35.4625C50.0425 35.5475 49.9875 35.6425 49.9 35.6425L49.8975 35.6375ZM49.5425 35.31C49.5975 35.31 49.6275 35.3625 49.6625 35.4175C49.6775 35.4425 49.6925 35.4675 49.7125 35.49C49.7225 35.5 49.73 35.5125 49.7375 35.5225C49.76 35.555 49.775 35.5775 49.9 35.5775C49.9525 35.5775 49.9975 35.4975 50.04 35.4275C50.0675 35.38 50.0925 35.335 50.125 35.31C50.2125 35.2425 50.3625 35.2075 50.4725 35.1825L50.51 35.175C50.6825 35.1325 50.79 35.1225 50.9025 35.115C50.945 35.1125 50.9875 35.1075 51.0375 35.1025C51.0425 35.1025 51.4675 35.0575 51.7075 35.225C51.6525 35.12 51.59 35.03 51.52 34.955C51.1975 34.6325 50.13 34.3375 49.43 34.2975C49.3075 34.2925 49.2225 34.3175 49.1725 34.375C49.1075 34.4525 49.1275 34.5625 49.1275 34.5625L49.1375 34.6075L49.0925 34.595C48.2425 34.3775 47.5925 34.36 47.305 34.5525C47.2475 34.59 47.19 34.6675 47.1475 34.775C47.2425 34.6925 47.415 34.5925 47.695 34.57C48.185 34.5375 48.335 34.61 48.715 34.91C49.085 35.2025 49.37 35.34 49.54 35.31C49.5425 35.31 49.5475 35.31 49.55 35.31H49.5425Z" fill="#C09300"></path>
  <path d="M49.805 35.3075C49.9127 35.3075 50 35.2202 50 35.1125C50 35.0048 49.9127 34.9175 49.805 34.9175C49.6973 34.9175 49.61 35.0048 49.61 35.1125C49.61 35.2202 49.6973 35.3075 49.805 35.3075Z" fill="white"></path>
</svg>
