<svg xmlns="http://www.w3.org/2000/svg" width="100" height="100" viewBox="0 0 100 100" fill="none"><g clip-path="url(#clip0_26_469)"><path d="M50 0C77.6142 0 100 22.3858 100 50C100 77.6142 77.6142 100 50 100C22.3858 100 0 77.6142 0 50C0 22.3858 22.3858 0 50 0Z" fill="white"></path><path d="M97.155 33.335C90.29 13.915 71.77 -3.8147e-05 50 -3.8147e-05C28.23 -3.8147e-05 9.70753 13.915 2.84253 33.335H97.155Z" fill="black"></path><path d="M97.155 66.665H2.84253C9.70753 86.085 28.23 100 50 100C71.77 100 90.29 86.085 97.155 66.665Z" fill="#CE1126"></path><path d="M50.1325 49.5999L61.5475 39.0024L60.735 58.2475C60.615 61.165 58.08 60.495 56.24 59.4425C54.375 58.2475 52.2475 58.2474 50 59.0374C47.7525 58.2474 45.625 58.2475 43.76 59.4425C41.92 60.495 39.385 61.165 39.265 58.2475L38.4525 39.0024L50.135 49.5999H50.1325Z" fill="white"></path><path d="M61.5475 38.8974C61.5225 38.8974 61.495 38.9074 61.475 38.9249L50.1325 49.4549L38.5225 38.9224C38.49 38.8949 38.445 38.8874 38.4075 38.9049C38.37 38.9224 38.345 38.9624 38.3475 39.0049L39.16 58.2499C39.2 59.2374 39.5175 59.8999 40.1 60.2224C41.25 60.8574 43.08 59.9524 43.8125 59.5324C45.525 58.4349 47.595 58.3024 49.965 59.1349C49.9875 59.1424 50.0125 59.1424 50.035 59.1349C52.4075 58.3024 54.475 58.4349 56.185 59.5299C56.9225 59.9524 58.7525 60.8599 59.9025 60.2224C60.485 59.8999 60.8025 59.2349 60.8425 58.2499L61.655 39.0049C61.655 38.9624 61.6325 38.9224 61.5925 38.9049C61.5775 38.8974 61.5625 38.8949 61.5475 38.8949V38.8974ZM41.0475 60.2374C40.74 60.2374 40.45 60.1799 40.2 60.0424C39.685 59.7574 39.4075 59.1524 39.37 58.2449L38.5675 39.2524L50.0625 49.6799C50.1025 49.7174 50.165 49.7174 50.205 49.6799L61.43 39.2574L60.6275 58.2449C60.59 59.1524 60.31 59.7574 59.7975 60.0424C58.7425 60.6274 56.995 59.7549 56.2925 59.3524C54.54 58.2274 52.42 58.0849 50 58.9249C47.58 58.0849 45.46 58.2274 43.7025 59.3549C43.17 59.6599 42.03 60.2374 41.05 60.2374H41.0475Z" fill="#C09300"></path><path d="M40.5775 58.9175L39.7875 40.1975L38.4475 39.0025L39.26 58.2475C39.6425 58.51 40.3125 58.9175 40.5775 58.9175ZM42.1825 57.5775L41.5125 41.9175L40.175 40.5475L40.9875 58.63C41.25 58.3675 42.04 57.7225 42.1825 57.58V57.575V57.5775ZM43.64 56.3825L43.115 43.3225L42.04 42.2725L42.71 57.1725C42.9725 56.91 43.4975 56.5275 43.6425 56.3825H43.64ZM45.2175 55.7125L44.6925 44.5825L43.64 43.73L44.165 56.12C44.4275 56 44.955 55.7125 45.2175 55.7125ZM46.6775 55.7125L46.295 46.4375L45.22 45.385L45.6275 55.5925C45.89 55.5925 46.56 55.5925 46.68 55.7125H46.6775Z" fill="#C09300"></path><path d="M59.4224 58.9175L60.2124 40.1975L61.5524 39.0025L60.7399 58.2475C60.3574 58.51 59.6874 58.9175 59.4224 58.9175ZM57.8174 57.5775L58.4874 41.9175L59.8249 40.5475L59.0124 58.63C58.7499 58.3675 57.9599 57.7225 57.8174 57.58V57.575V57.5775ZM56.3599 56.3825L56.8849 43.3225L57.9599 42.2725L57.2899 57.1725C57.0274 56.91 56.5024 56.5275 56.3574 56.3825H56.3599ZM54.7824 55.7125L55.3074 44.5825L56.3599 43.73L55.8349 56.12C55.5724 56 55.0449 55.7125 54.7824 55.7125ZM53.3224 55.7125L53.7049 46.4375L54.7799 45.385L54.3724 55.5925C54.1099 55.5925 53.4399 55.5925 53.3199 55.7125H53.3224Z" fill="#C09300"></path><path d="M50.5274 47.49L52.1299 40.1975L51.6024 39.6725L51.0524 40.08L50.1449 46.5825L50.5274 40.08L50.0024 39.41L49.4774 40.08L49.8599 46.5825L48.9524 40.08L48.4024 39.6725L47.8774 40.1975L49.4799 47.49H50.5324H50.5274Z" fill="#C09300"></path><path d="M50 39.2651L49.3825 40.0501L49.635 44.3551L49.03 40.0301L48.3875 39.5551L47.7725 40.1701L49.4 47.5801H50.595L52.2225 40.1701L51.6075 39.5551L50.965 40.0301L50.36 44.3576L50.6125 40.0526L49.995 39.2676L50 39.2651ZM49.565 40.1076L50 39.5551L50.435 40.1076L50.055 46.5776L50.2325 46.5951L51.135 40.1301L51.5925 39.7926L52.03 40.2301L50.455 47.4051H49.5475L47.9725 40.2301L48.41 39.7926L48.8675 40.1301L49.77 46.5951L49.9475 46.5776L49.5675 40.1076H49.565Z" fill="#C09300"></path><path d="M46.4124 50.6926L43.2324 39.4076L47.6074 38.7376L49.4724 47.2251L46.4124 50.6926Z" fill="white"></path><path d="M47.6099 38.6401C47.6099 38.6401 47.5999 38.6401 47.5949 38.6401L43.2199 39.3101C43.1924 39.3151 43.1674 39.3301 43.1524 39.3551C43.1374 39.3801 43.1324 39.4076 43.1399 39.4351L46.3199 50.7201C46.3299 50.7551 46.3574 50.7826 46.3924 50.7901C46.4274 50.7976 46.4649 50.7851 46.4899 50.7601L49.5499 47.2926C49.5699 47.2701 49.5799 47.2376 49.5724 47.2051L47.7074 38.7176C47.6974 38.6726 47.6574 38.6401 47.6099 38.6401ZM43.3599 39.4901L47.5324 38.8526L49.3674 47.2001L46.4599 50.4926L43.3599 39.4901Z" fill="#C09300"></path><path d="M45.7449 45.805C45.7449 45.805 45.7299 45.805 45.7224 45.805C45.6874 45.8125 45.6599 45.835 45.6474 45.8675L45.2649 46.8L45.4599 46.88L45.7824 46.0925L47.7374 47.96L47.8849 47.8075L45.8174 45.8325C45.7974 45.8125 45.7724 45.8025 45.7449 45.8025V45.805Z" fill="#C09300"></path><path d="M47.2249 45.0176C47.2249 45.0176 47.2049 45.0176 47.1974 45.0226C47.1549 45.0351 47.1249 45.0701 47.1199 45.1126L46.6874 49.1701L46.8974 49.1926L47.3024 45.4001L48.4574 46.9101L48.6249 46.7826L47.3074 45.0626C47.2874 45.0351 47.2549 45.0201 47.2224 45.0201L47.2249 45.0176Z" fill="#C09300"></path><path d="M48.1193 46.2006L47.9152 46.1416L48.6315 43.663L48.8356 43.722L48.1193 46.2006Z" fill="#C09300"></path><path d="M46.8399 38.705L46.3874 40.085L45.7174 38.9475C45.6949 38.9125 45.6574 38.89 45.6124 38.895C45.5699 38.9 45.5349 38.93 45.5249 38.97L45.0124 40.6725L44.2549 39.6075L44.0824 39.73L44.9524 40.95L44.2824 43.4075C44.2724 43.4425 44.2824 43.4825 44.3099 43.51L45.6724 44.9075C45.6999 44.935 45.7374 44.945 45.7749 44.9375C45.8124 44.9275 45.8399 44.9 45.8499 44.8625L46.2174 43.55L47.0624 44.6925C47.0874 44.7275 47.1299 44.7425 47.1724 44.7325C47.2124 44.7225 47.2449 44.69 47.2524 44.6475L47.6124 42.6575L48.9299 44.66L49.1074 44.5425L47.6674 42.3575L48.1224 40.215L47.9149 40.17L47.4999 42.1275L46.6474 40.805C46.6249 40.77 46.5849 40.7525 46.5449 40.7575C46.5049 40.7625 46.4699 40.79 46.4574 40.83L46.0024 42.2125L45.1774 40.855L45.6574 39.26L46.3224 40.39C46.3424 40.425 46.3824 40.4475 46.4249 40.4425C46.4674 40.4375 46.5024 40.41 46.5149 40.37L47.0424 38.7675L46.8424 38.7025L46.8399 38.705ZM46.0299 42.5775C46.0299 42.5775 46.0374 42.5775 46.0424 42.5775C46.0824 42.5725 46.1174 42.545 46.1299 42.505L46.5874 41.115L47.4349 42.4325L47.0824 44.3775L46.2549 43.2575C46.2299 43.225 46.1899 43.2075 46.1499 43.2175C46.1099 43.225 46.0774 43.255 46.0674 43.2925L45.6899 44.635L44.4974 43.4125L45.1099 41.1675L45.9374 42.53C45.9574 42.5625 45.9924 42.58 46.0274 42.58L46.0299 42.5775Z" fill="#C09300"></path><path d="M53.5875 50.6926L56.7675 39.4076L52.3925 38.7376L50.5275 47.2251L53.5875 50.6926Z" fill="white"></path><path d="M52.39 38.64C52.345 38.64 52.3025 38.6725 52.2925 38.7175L50.4275 47.205C50.42 47.235 50.4275 47.2675 50.45 47.2925L53.51 50.76C53.535 50.7875 53.57 50.8 53.605 50.79C53.64 50.7825 53.6675 50.755 53.6775 50.72L56.8575 39.435C56.865 39.4075 56.86 39.3775 56.845 39.355C56.83 39.33 56.805 39.315 56.7775 39.31L52.4025 38.64C52.4025 38.64 52.3925 38.64 52.3875 38.64H52.39ZM50.635 47.2L52.47 38.8525L56.6425 39.49L53.5425 50.49L50.635 47.1975V47.2Z" fill="#C09300"></path><path d="M54.255 45.8051C54.2275 45.8051 54.2025 45.8151 54.1825 45.8351L52.115 47.8101L52.26 47.9626L54.215 46.0951L54.5375 46.8826L54.7325 46.8026L54.35 45.8701C54.3375 45.8376 54.3075 45.8151 54.275 45.8076C54.2675 45.8076 54.26 45.8076 54.2525 45.8076L54.255 45.8051Z" fill="#C09300"></path><path d="M52.7749 45.0174C52.7424 45.0174 52.7099 45.0324 52.6899 45.0599L51.3724 46.7799L51.5399 46.9074L52.6949 45.3974L53.0999 49.1899L53.3099 49.1674L52.8774 45.1099C52.8724 45.0674 52.8424 45.0299 52.7999 45.0199C52.7899 45.0174 52.7799 45.0149 52.7724 45.0149L52.7749 45.0174Z" fill="#C09300"></path><path d="M51.8796 46.2077L51.162 43.7295L51.3661 43.6704L52.0837 46.1486L51.8796 46.2077Z" fill="#C09300"></path><path d="M53.16 38.7051L52.96 38.7701L53.485 40.3726C53.4975 40.4126 53.5325 40.4401 53.575 40.4451C53.6175 40.4501 53.6575 40.4301 53.6775 40.3926L54.3425 39.2626L54.8225 40.8576L53.9975 42.2151L53.5425 40.8326C53.53 40.7951 53.495 40.7651 53.455 40.7601C53.415 40.7551 53.375 40.7726 53.3525 40.8076L52.5 42.1301L52.085 40.1726L51.8775 40.2176L52.3325 42.3601L50.8925 44.5451L51.07 44.6626L52.3875 42.6601L52.7475 44.6501C52.755 44.6926 52.7875 44.7251 52.8275 44.7351C52.8675 44.7451 52.9125 44.7301 52.9375 44.6951L53.7825 43.5526L54.15 44.8651C54.16 44.9026 54.19 44.9301 54.225 44.9401C54.2625 44.9501 54.3 44.9401 54.3275 44.9101L55.69 43.5126C55.715 43.4851 55.725 43.4476 55.7175 43.4101L55.0475 40.9526L55.9175 39.7326L55.745 39.6101L54.9875 40.6751L54.475 38.9726C54.4625 38.9326 54.4275 38.9026 54.3875 38.8976C54.345 38.8926 54.305 38.9126 54.2825 38.9501L53.6125 40.0876L53.16 38.7076V38.7051ZM52.5625 42.4301L53.41 41.1126L53.8675 42.5026C53.88 42.5426 53.915 42.5701 53.955 42.5751C53.995 42.5801 54.035 42.5601 54.0575 42.5251L54.885 41.1626L55.4975 43.4076L54.305 44.6301L53.9275 43.2876C53.9175 43.2476 53.885 43.2201 53.845 43.2126C53.805 43.2051 53.765 43.2201 53.74 43.2526L52.9125 44.3726L52.56 42.4276L52.5625 42.4301Z" fill="#C09300"></path><path d="M50 34.3676C53.325 34.3676 56.505 34.6301 58.37 35.1576C59.16 35.3001 59.16 35.7075 59.16 36.2325C59.95 36.495 59.5425 37.4276 60.0925 37.4276C59.5425 37.2851 59.4225 38.3601 58.7525 38.2151C58.7525 39.1476 57.82 39.2676 57.03 39.0051C55.4525 38.4776 52.655 38.3601 50 38.3601C47.345 38.4801 44.5725 38.4801 42.97 39.0051C42.18 39.2676 41.25 39.1476 41.25 38.2151C40.58 38.3576 40.46 37.2826 39.91 37.4276C40.46 37.4276 40.0525 36.495 40.8425 36.2325C40.8425 35.705 40.8425 35.3001 41.655 35.1576C43.495 34.6326 46.6775 34.3676 50 34.3676Z" fill="white"></path><path d="M50 34.1675C46.44 34.1675 43.385 34.4575 41.61 34.9625C40.7225 35.1225 40.65 35.605 40.645 36.0975C40.235 36.2975 40.1425 36.675 40.08 36.935C40.035 37.125 40.0075 37.1925 39.9725 37.215C39.9375 37.2175 39.8975 37.225 39.86 37.235C39.7625 37.26 39.7 37.3525 39.7125 37.4525C39.725 37.5525 39.81 37.625 39.91 37.625C39.9525 37.625 39.9925 37.62 40.0275 37.615C40.1225 37.63 40.21 37.7275 40.355 37.915C40.5175 38.1225 40.73 38.395 41.065 38.425C41.1175 38.78 41.3025 38.985 41.46 39.1C41.8275 39.365 42.415 39.4 43.0325 39.195C44.32 38.7725 46.39 38.695 48.5775 38.615C49.0525 38.5975 49.5325 38.58 50.0075 38.5575C53.405 38.5575 55.6825 38.765 56.965 39.1925C57.5825 39.3975 58.17 39.3625 58.5375 39.0975C58.695 38.9825 58.88 38.7775 58.9325 38.4225C59.2675 38.3925 59.48 38.12 59.6425 37.9125C59.7875 37.7275 59.875 37.6275 59.97 37.6125C60.0075 37.62 60.045 37.6225 60.0875 37.6225C60.1875 37.6225 60.2725 37.5475 60.285 37.45C60.2975 37.35 60.235 37.2575 60.1375 37.2325C60.0975 37.2225 60.06 37.215 60.025 37.2125C59.99 37.19 59.9625 37.1225 59.9175 36.9325C59.855 36.6725 59.7625 36.295 59.3525 36.095C59.3475 35.6 59.275 35.12 58.41 34.96C56.615 34.455 53.5475 34.165 49.9975 34.165L50 34.1675ZM40.365 37.3425C40.415 37.2425 40.4425 37.1275 40.465 37.0275C40.53 36.7575 40.5875 36.525 40.905 36.4175C40.985 36.39 41.04 36.315 41.04 36.23C41.04 35.705 41.04 35.4625 41.69 35.35C41.6975 35.35 41.7025 35.3475 41.71 35.345C43.4225 34.855 46.5225 34.565 50 34.565C53.5225 34.565 56.555 34.85 58.315 35.3475C58.32 35.3475 58.3275 35.35 58.3325 35.3525C58.96 35.465 58.96 35.7075 58.96 36.2325C58.96 36.3175 59.015 36.3925 59.095 36.42C59.4125 36.525 59.47 36.76 59.535 37.03C59.56 37.13 59.5875 37.2425 59.635 37.3425C59.515 37.4325 59.42 37.5575 59.3325 37.67C59.12 37.9425 59 38.065 58.7925 38.0225C58.735 38.01 58.6725 38.0225 58.6275 38.0625C58.58 38.1 58.5525 38.1575 58.5525 38.2175C58.5525 38.4725 58.47 38.6625 58.3075 38.78C58.0475 38.9675 57.5825 38.9825 57.0925 38.82C55.77 38.3775 53.45 38.165 50 38.165C49.5175 38.1875 49.0375 38.205 48.565 38.2225C46.3475 38.305 44.25 38.38 42.91 38.8225C42.42 38.985 41.955 38.97 41.695 38.7825C41.5325 38.665 41.45 38.475 41.45 38.22C41.45 38.16 41.4225 38.1025 41.3775 38.065C41.33 38.0275 41.27 38.0125 41.2125 38.025C41.0075 38.0675 40.885 37.945 40.6725 37.6725C40.585 37.56 40.4875 37.435 40.37 37.345L40.365 37.3425Z" fill="#C09300"></path><path d="M45.4825 39.4101C46.5575 39.2676 47.755 39.1476 48.6875 39.2676C49.2125 39.2676 49.595 38.3601 48.5425 38.2151C47.61 38.0951 46.1525 38.2151 45.3625 38.3576C44.6925 38.4776 43.235 38.7401 42.3025 39.0026C41.37 39.4076 42.04 40.1976 42.565 40.0776C43.3775 39.8151 44.43 39.5526 45.4825 39.4076V39.4101ZM54.52 39.4101C53.445 39.2676 52.2475 39.1476 51.34 39.2676C50.79 39.2676 50.4075 38.3601 51.46 38.2151C52.3925 38.0951 53.85 38.2151 54.64 38.3576C55.31 38.4776 56.7675 38.7401 57.7 39.0026C58.6325 39.4076 57.9625 40.1976 57.4375 40.0776C56.625 39.8151 55.57 39.5526 54.52 39.4076V39.4101Z" fill="white"></path><path d="M52.3625 38.06C52.035 38.06 51.72 38.075 51.445 38.11C50.7075 38.21 50.68 38.6425 50.69 38.7725C50.7125 39.0975 51.01 39.3725 51.34 39.3725C52.28 39.25 53.525 39.385 54.505 39.515C55.77 39.6875 56.865 40.005 57.405 40.18C57.7475 40.2575 58.135 40.035 58.245 39.7025C58.285 39.585 58.3625 39.175 57.7425 38.905C56.7675 38.6275 55.235 38.355 54.6575 38.2525C54.1225 38.155 53.2025 38.0575 52.3625 38.0575V38.06ZM51.325 39.1625C51.0975 39.1625 50.9125 38.95 50.9 38.76C50.885 38.5325 51.0925 38.3725 51.4725 38.3225C52.43 38.2 53.89 38.3325 54.62 38.465C55.195 38.5675 56.72 38.84 57.67 39.1075C57.9725 39.24 58.11 39.43 58.0425 39.64C57.97 39.865 57.6875 40.03 57.46 39.9775C56.9225 39.8025 55.8175 39.4825 54.535 39.3075C53.54 39.175 52.2775 39.04 51.3275 39.165L51.325 39.1625ZM47.64 38.06C46.8 38.06 45.88 38.1575 45.345 38.255C44.7675 38.3575 43.235 38.6325 42.275 38.9025C41.6425 39.1775 41.72 39.585 41.76 39.705C41.8675 40.035 42.2575 40.26 42.59 40.185C43.14 40.0075 44.2325 39.69 45.4975 39.5175C46.4775 39.3875 47.725 39.2525 48.675 39.375C49.005 39.375 49.2925 39.1025 49.315 38.78C49.325 38.65 49.295 38.2125 48.5575 38.1125C48.2825 38.0775 47.9675 38.0625 47.64 38.0625V38.06ZM42.4525 39.9875C42.2525 39.9875 42.025 39.8375 41.96 39.6375C41.8925 39.43 42.0275 39.24 42.345 39.1C43.28 38.8375 44.8075 38.565 45.3825 38.4625C46.1125 38.33 47.5725 38.1975 48.53 38.32C48.91 38.3725 49.12 38.5325 49.1025 38.7625C49.0875 38.97 48.89 39.16 48.685 39.16C47.725 39.035 46.46 39.1725 45.4675 39.305C44.1875 39.48 43.0775 39.8025 42.5325 39.9775C42.5075 39.9825 42.48 39.985 42.4525 39.985V39.9875Z" fill="#C09300"></path><path d="M42.1825 39.9324C41.37 40.0749 40.9875 39.1449 41.25 38.6174C41.37 38.8799 41.92 38.8799 42.04 39.1424C42.1825 39.5474 41.92 39.5474 42.1825 39.9299V39.9324ZM45.3625 37.4899C45.3625 38.0149 45.8875 37.9499 45.8875 38.4774C45.8875 38.7399 45.745 39.1474 45.4825 39.1474C45.22 39.1474 44.9575 38.8849 44.9575 38.6224C44.8375 38.0974 45.365 38.0174 45.365 37.4924L45.3625 37.4899ZM49.145 39.0024C49.9325 39.0024 49.855 37.9499 49.4725 37.4249C49.4725 37.8074 48.8025 37.9499 48.8025 38.2124C48.8025 38.6199 49.4075 38.6199 49.145 39.0024ZM57.815 39.9324C58.6275 40.0749 59.01 39.1449 58.7475 38.6174C58.6275 38.8799 58.0775 38.8799 57.9575 39.1424C57.815 39.5474 58.0775 39.5474 57.815 39.9299V39.9324ZM54.6375 37.4899C54.6375 38.0149 54.1125 37.9499 54.1125 38.4774C54.1125 38.7399 54.255 39.1474 54.52 39.1474C54.785 39.1474 55.045 38.8849 55.045 38.6224C55.165 38.0974 54.6375 38.0174 54.6375 37.4924V37.4899ZM50.855 39.0024C50.0675 39.0024 50.145 37.9499 50.5275 37.4249C50.5275 37.8074 51.1975 37.9499 51.1975 38.2124C51.1975 38.6199 50.5925 38.6199 50.855 39.0024Z" fill="white"></path><path d="M50.5275 37.3199C50.495 37.3199 50.4625 37.3349 50.4425 37.3624C50.185 37.7174 50.0325 38.3499 50.2375 38.7549C50.32 38.9174 50.495 39.1099 50.855 39.1099C50.895 39.1099 50.93 39.0874 50.95 39.0524C50.9675 39.0174 50.965 38.9749 50.9425 38.9424C50.8575 38.8174 50.885 38.7874 51.03 38.6699C51.145 38.5749 51.3025 38.4474 51.3025 38.2124C51.3025 38.0374 51.14 37.9249 50.97 37.8074C50.805 37.6949 50.635 37.5774 50.635 37.4224C50.635 37.3774 50.605 37.3349 50.5625 37.3224C50.5525 37.3199 50.54 37.3174 50.53 37.3174L50.5275 37.3199ZM50.685 38.8749C50.5675 38.8399 50.4825 38.7674 50.425 38.6574C50.29 38.3949 50.3525 37.9849 50.5 37.6749C50.585 37.8024 50.725 37.8999 50.8475 37.9824C50.96 38.0599 51.09 38.1499 51.09 38.2124C51.09 38.3374 51.015 38.4074 50.895 38.5049C50.7975 38.5849 50.66 38.6974 50.6875 38.8724L50.685 38.8749ZM49.4725 37.3199C49.4725 37.3199 49.45 37.3199 49.44 37.3249C49.3975 37.3399 49.3675 37.3799 49.3675 37.4249C49.3675 37.5774 49.1975 37.6949 49.0325 37.8099C48.86 37.9274 48.7 38.0399 48.7 38.2149C48.7 38.4499 48.8575 38.5774 48.975 38.6724C49.12 38.7899 49.1475 38.8199 49.0625 38.9449C49.04 38.9774 49.0375 39.0199 49.055 39.0549C49.0725 39.0899 49.11 39.1124 49.15 39.1124C49.51 39.1124 49.685 38.9199 49.7675 38.7574C49.9725 38.3524 49.8225 37.7199 49.5625 37.3649C49.5425 37.3374 49.51 37.3224 49.4775 37.3224L49.4725 37.3199ZM49.315 38.8749C49.3425 38.6999 49.205 38.5874 49.105 38.5074C48.9825 38.4074 48.91 38.3399 48.91 38.2149C48.91 38.1524 49.0375 38.0624 49.1525 37.9849C49.275 37.9024 49.415 37.8049 49.5 37.6774C49.6475 37.9849 49.7075 38.3974 49.575 38.6599C49.52 38.7699 49.4325 38.8424 49.315 38.8774V38.8749ZM54.6375 37.3849C54.58 37.3849 54.5325 37.4324 54.5325 37.4899C54.5325 37.7049 54.4325 37.7924 54.305 37.9024C54.1725 38.0199 54.005 38.1649 54.005 38.4749C54.005 38.7849 54.1825 39.2499 54.5175 39.2499C54.8325 39.2499 55.1425 38.9449 55.15 38.6299C55.22 38.3074 55.075 38.1224 54.9475 37.9574C54.8425 37.8224 54.745 37.6974 54.745 37.4874C54.745 37.4299 54.6975 37.3824 54.64 37.3824L54.6375 37.3849ZM54.52 39.0399C54.345 39.0399 54.22 38.7024 54.22 38.4774C54.22 38.2624 54.32 38.1749 54.4475 38.0624C54.5075 38.0099 54.575 37.9499 54.6325 37.8724C54.6775 37.9549 54.7325 38.0249 54.7825 38.0924C54.9025 38.2449 54.9975 38.3674 54.945 38.5974C54.945 38.6049 54.9425 38.6124 54.9425 38.6199C54.9425 38.8249 54.7275 39.0399 54.5225 39.0399H54.52ZM45.3625 37.3849C45.305 37.3849 45.2575 37.4324 45.2575 37.4899C45.2575 37.6999 45.16 37.8274 45.055 37.9599C44.9275 38.1249 44.7825 38.3099 44.8525 38.6324C44.86 38.9474 45.17 39.2524 45.485 39.2524C45.82 39.2524 45.9975 38.8024 45.9975 38.4774C45.9975 38.1524 45.8325 38.0199 45.6975 37.9049C45.57 37.7949 45.47 37.7049 45.47 37.4924C45.47 37.4349 45.4225 37.3874 45.365 37.3874L45.3625 37.3849ZM45.48 39.0399C45.275 39.0399 45.06 38.8249 45.06 38.6199C45.06 38.6124 45.06 38.6049 45.0575 38.5974C45.005 38.3674 45.1 38.2449 45.22 38.0924C45.2725 38.0274 45.325 37.9549 45.37 37.8724C45.425 37.9499 45.4925 38.0099 45.555 38.0624C45.6825 38.1724 45.7825 38.2624 45.7825 38.4774C45.7825 38.7049 45.6575 39.0399 45.4825 39.0399H45.48ZM41.25 38.5124C41.21 38.5124 41.1725 38.5349 41.155 38.5699C40.99 38.8974 41.045 39.3549 41.2875 39.6799C41.505 39.9699 41.8375 40.0999 42.2 40.0374C42.235 40.0299 42.265 40.0074 42.28 39.9749C42.295 39.9424 42.29 39.9024 42.27 39.8749C42.1475 39.6974 42.16 39.6324 42.175 39.5349C42.19 39.4374 42.2125 39.3174 42.1375 39.1124C42.0575 38.9324 41.865 38.8574 41.6825 38.7874C41.5375 38.7299 41.3875 38.6724 41.345 38.5799C41.3275 38.5424 41.2925 38.5174 41.25 38.5174V38.5124ZM42.0075 39.8424C41.7175 39.8374 41.5425 39.6674 41.4575 39.5549C41.3025 39.3449 41.24 39.0624 41.29 38.8274C41.38 38.8949 41.495 38.9399 41.605 38.9824C41.75 39.0399 41.9 39.0974 41.9425 39.1899C41.9925 39.3374 41.98 39.4149 41.9675 39.4999C41.95 39.6099 41.9425 39.7049 42.0075 39.8449V39.8424ZM58.7475 38.5124C58.7075 38.5124 58.67 38.5374 58.6525 38.5749C58.61 38.6674 58.46 38.7274 58.315 38.7824C58.13 38.8549 57.94 38.9299 57.8625 39.0999C57.785 39.3149 57.805 39.4349 57.8225 39.5324C57.84 39.6299 57.85 39.6949 57.7275 39.8724C57.7075 39.9024 57.7025 39.9399 57.7175 39.9724C57.7325 40.0049 57.7625 40.0299 57.7975 40.0349C58.16 40.0999 58.495 39.9699 58.71 39.6774C58.9525 39.3524 59.005 38.8974 58.8425 38.5699C58.825 38.5349 58.7875 38.5124 58.7475 38.5124ZM57.99 39.8424C58.055 39.7024 58.0475 39.6074 58.03 39.4974C58.015 39.4149 58.0025 39.3349 58.0575 39.1799C58.095 39.0949 58.245 39.0374 58.39 38.9799C58.5025 38.9349 58.615 38.8899 58.705 38.8249C58.755 39.0599 58.695 39.3449 58.5375 39.5524C58.4525 39.6649 58.2775 39.8349 57.9875 39.8399L57.99 39.8424Z" fill="#C09300"></path><path d="M42.4451 39.6724C42.7076 39.6724 43.1151 39.5524 43.2351 39.4099L42.4451 39.6724ZM43.7576 39.2674C43.9001 39.2674 44.4276 39.1474 44.6901 39.0049L43.7576 39.2674ZM48.5426 38.7399C48.2801 38.7399 47.7526 38.7399 47.6101 38.6199L48.5426 38.7399ZM47.0826 38.7399C46.9401 38.8824 46.4126 38.8824 46.1501 38.7399H47.0826ZM57.5576 39.6724C57.2951 39.6724 56.9126 39.5524 56.7676 39.4099L57.5576 39.6724ZM56.2401 39.2674C56.0976 39.2674 55.5701 39.1474 55.3076 39.0049L56.2401 39.2674ZM51.4576 38.7424C51.7201 38.7424 52.2476 38.7424 52.3901 38.6224L51.4576 38.7424ZM52.9151 38.7424C53.0576 38.8849 53.5851 38.8849 53.8476 38.7424H52.9151Z" fill="white"></path><path d="M47.61 38.5474C47.58 38.5474 47.555 38.5649 47.5425 38.5924C47.53 38.6224 47.5375 38.6574 47.5625 38.6799C47.7125 38.8049 48.14 38.8174 48.5325 38.8174C48.5675 38.8224 48.5975 38.8024 48.61 38.7699C48.6225 38.7374 48.61 38.7024 48.585 38.6824C48.5725 38.6724 48.55 38.6699 48.54 38.6674L47.6175 38.5499C47.6175 38.5499 47.61 38.5499 47.6075 38.5499L47.61 38.5474ZM52.39 38.5474C52.39 38.5474 52.3825 38.5474 52.38 38.5474L51.4575 38.6649C51.4375 38.6649 51.4175 38.6724 51.405 38.6874C51.3825 38.7099 51.3775 38.7449 51.39 38.7724C51.405 38.7999 51.435 38.8174 51.465 38.8124C51.8575 38.8124 52.285 38.7999 52.435 38.6749C52.46 38.6549 52.47 38.6174 52.455 38.5874C52.4425 38.5599 52.415 38.5424 52.3875 38.5424L52.39 38.5474ZM47.085 38.6649H46.1525C46.1175 38.6649 46.09 38.6874 46.08 38.7199C46.0725 38.7524 46.0875 38.7874 46.1175 38.8024C46.3825 38.9474 46.9425 38.9674 47.13 38.7974C47.1475 38.7849 47.16 38.7624 47.16 38.7374C47.16 38.6974 47.1275 38.6624 47.085 38.6624V38.6649ZM53.8475 38.6674H52.915C52.875 38.6674 52.84 38.6999 52.84 38.7424C52.84 38.7674 52.8525 38.7874 52.87 38.8024C53.055 38.9724 53.6175 38.9524 53.8825 38.8074C53.9125 38.7899 53.9275 38.7574 53.92 38.7249C53.9125 38.6924 53.8825 38.6699 53.8475 38.6699V38.6674ZM44.69 38.9299C44.69 38.9299 44.6775 38.9299 44.67 38.9324L43.7475 39.1924C43.7275 39.1949 43.7075 39.2074 43.695 39.2249C43.6775 39.2524 43.6775 39.2849 43.695 39.3099C43.7125 39.3324 43.74 39.3449 43.7675 39.3399C43.94 39.3349 44.4575 39.2124 44.7225 39.0699C44.755 39.0524 44.77 39.0124 44.755 38.9774C44.7425 38.9499 44.715 38.9299 44.685 38.9299H44.69ZM55.3075 38.9324C55.2775 38.9324 55.25 38.9499 55.2375 38.9799C55.2225 39.0149 55.2375 39.0549 55.27 39.0724C55.5375 39.2174 56.055 39.3374 56.2275 39.3449C56.2575 39.3499 56.2875 39.3349 56.305 39.3099C56.3225 39.2799 56.3175 39.2449 56.2925 39.2199C56.28 39.2099 56.2675 39.1999 56.25 39.1974L55.325 38.9374C55.325 38.9374 55.3125 38.9349 55.305 38.9349L55.3075 38.9324ZM43.235 39.3349C43.235 39.3349 43.22 39.3349 43.2125 39.3399L42.4275 39.6024C42.4275 39.6024 42.4125 39.6074 42.4075 39.6099C42.375 39.6299 42.3625 39.6699 42.3775 39.7049C42.3925 39.7349 42.4225 39.7524 42.455 39.7474C42.735 39.7474 43.1575 39.6199 43.2925 39.4574C43.315 39.4324 43.315 39.3949 43.2975 39.3674C43.2825 39.3474 43.26 39.3349 43.235 39.3349ZM56.7675 39.3349C56.7425 39.3349 56.7175 39.3474 56.705 39.3699C56.6875 39.3999 56.6925 39.4374 56.715 39.4624C56.8825 39.6299 57.2925 39.7474 57.5575 39.7474C57.595 39.7474 57.625 39.7199 57.63 39.6849C57.635 39.6499 57.615 39.6149 57.58 39.6024L56.79 39.3399C56.79 39.3399 56.775 39.3349 56.7675 39.3349Z" fill="#C09300"></path><path d="M42.2225 37.5699C42.1325 37.5874 42.0875 37.6574 42.11 37.7399C42.1375 37.8399 42.2175 37.8999 42.295 37.8724C42.345 37.8549 42.4325 37.7649 42.4325 37.7324C42.4325 37.6949 42.385 37.6074 42.365 37.6074C42.355 37.6074 42.3425 37.5999 42.335 37.5899C42.3175 37.5699 42.265 37.5599 42.2225 37.5699ZM51.3775 36.9174C51.345 36.9299 51.2925 37.0049 51.2925 37.0374C51.2925 37.1024 51.3875 37.2074 51.4475 37.2074C51.4775 37.2074 51.5575 37.1649 51.5875 37.1349C51.6425 37.0774 51.63 36.9849 51.5625 36.9324C51.53 36.9074 51.43 36.8999 51.38 36.9149L51.3775 36.9174ZM51.4375 36.5024C51.3675 36.5249 51.3425 36.5599 51.335 36.6374C51.33 36.7174 51.335 36.7299 51.4225 36.7774L51.4825 36.8099L51.54 36.7849C51.62 36.7499 51.655 36.7099 51.6575 36.6574C51.66 36.5999 51.6175 36.5399 51.55 36.5099C51.4925 36.4824 51.4875 36.4824 51.4325 36.5024H51.4375ZM42.9575 38.3174C42.9 38.3174 42.82 38.2674 42.775 38.2399C42.6675 38.2149 42.54 38.1474 42.4375 38.2199C42.335 38.2524 42.1975 38.2274 42.1825 38.0999C42.21 37.9924 42.36 37.9299 42.4525 37.9999C42.52 38.0899 42.7075 38.1424 42.7275 37.9899C42.6525 37.8749 42.66 37.7224 42.5975 37.5999C42.5875 37.5224 42.555 37.4524 42.515 37.3874C42.4375 37.3799 42.355 37.3874 42.29 37.3399C42.185 37.3349 42.08 37.2824 42.02 37.1949C41.9525 37.0974 41.8875 36.9999 41.87 36.8824C41.8875 36.7624 42.0275 36.7274 42.13 36.7199L42.4625 36.6149L42.995 36.4699C43.26 36.3899 43.5375 36.3549 43.8025 36.2824C43.83 36.2724 43.8575 36.2649 43.885 36.2624C43.995 36.2399 44.0525 36.3599 44.0625 36.4499L44.2125 37.0324C44.25 37.1099 44.295 37.2849 44.145 37.2449C44.06 37.1949 43.9875 37.1149 43.88 37.1099C43.735 37.1024 43.8175 36.9524 43.875 36.8899C43.8875 36.7849 43.8575 36.6799 43.7925 36.5974C43.705 36.5424 43.5975 36.6074 43.505 36.6274C43.41 36.6274 43.2175 36.6749 43.3075 36.8049C43.34 36.8999 43.3425 37.0074 43.38 37.1024C43.43 37.2049 43.435 37.3174 43.4575 37.4249C43.3975 37.5549 43.295 37.3824 43.2125 37.3674C43.155 37.3274 42.945 37.3124 43.0575 37.2099C43.1525 37.1374 43.08 37.0099 43.0625 36.9174C43.0575 36.7899 42.9225 36.7574 42.8175 36.7874C42.7125 36.7924 42.5675 36.8699 42.655 36.9849L42.7275 37.2724L42.8425 37.6149C42.86 37.7174 42.8975 37.8174 42.9475 37.9074C42.95 38.0224 43.0275 38.1199 43.025 38.2349C43.0175 38.2924 42.9925 38.3124 42.9575 38.3124V38.3174ZM42.36 37.1074C42.3725 37.1074 42.3825 37.1074 42.3975 37.1024C42.44 37.0849 42.44 37.0524 42.3975 37.0149C42.38 36.9999 42.3575 36.9824 42.35 36.9824C42.2725 36.9899 42.25 36.9999 42.245 37.0299C42.2425 37.0549 42.25 37.0624 42.3025 37.0874C42.3275 37.0999 42.345 37.1049 42.36 37.1074ZM42.1875 36.2749C42.105 36.3524 42.1175 36.4099 42.24 36.4999C42.2925 36.5399 42.325 36.5349 42.385 36.4799C42.4775 36.3949 42.48 36.3424 42.4 36.2699C42.36 36.2349 42.3425 36.2274 42.295 36.2274C42.245 36.2274 42.2325 36.2324 42.1875 36.2749ZM42.695 36.1224C42.6175 36.1399 42.57 36.2174 42.59 36.2949C42.59 36.2974 42.59 36.2999 42.59 36.3024C42.6125 36.3749 42.625 36.3824 42.73 36.3824C42.85 36.3824 42.8725 36.3649 42.8725 36.2599C42.8725 36.1999 42.8675 36.1874 42.84 36.1599C42.8 36.1274 42.745 36.1124 42.6925 36.1224H42.695ZM57.545 36.1074C57.5075 36.1399 57.5 36.1524 57.5 36.1924C57.5 36.2599 57.54 36.3099 57.625 36.3499C57.7375 36.3999 57.785 36.3949 57.8275 36.3199C57.885 36.2199 57.8825 36.1799 57.8125 36.1124C57.775 36.0749 57.7675 36.0724 57.6825 36.0724C57.5975 36.0724 57.5875 36.0724 57.545 36.1099V36.1074ZM43.3675 35.9174C43.3075 35.9324 43.275 35.9799 43.275 36.0524C43.275 36.1074 43.2775 36.1174 43.3175 36.1474C43.345 36.1674 43.38 36.1824 43.415 36.1874C43.45 36.1949 43.485 36.1874 43.5125 36.1649C43.605 36.0999 43.6225 36.0374 43.57 35.9749C43.5125 35.9099 43.46 35.8924 43.37 35.9174H43.3675ZM47.0225 35.7524C47.01 35.7699 46.98 35.7799 46.9775 35.7999C46.9825 35.8924 46.9875 35.9849 47.0175 36.0749C47.0325 36.1624 47.0175 36.2524 47.05 36.3374C47.08 36.4924 47.08 36.6524 47.1175 36.8049C47.1175 36.8849 47.1275 36.9624 47.15 37.0399C47.1775 37.1599 47.15 37.2849 47.1875 37.4074C47.1825 37.4524 47.235 37.5724 47.28 37.4999C47.345 37.4049 47.43 37.3249 47.5175 37.2474C47.59 37.2049 47.5225 37.1424 47.4725 37.1224C47.4025 37.0949 47.3875 37.0199 47.3925 36.9524C47.3825 36.8824 47.355 36.8174 47.3525 36.7474C47.3375 36.6449 47.34 36.5374 47.3275 36.4349C47.2975 36.3349 47.31 36.2249 47.2975 36.1199C47.2975 36.0524 47.2675 35.9924 47.2725 35.9274C47.265 35.8599 47.2625 35.7774 47.205 35.7324C47.15 35.7049 47.07 35.7099 47.0275 35.7549L47.0225 35.7524ZM51.9725 37.3849C51.8925 37.3249 51.82 37.2524 51.7475 37.1824C51.6475 37.1074 51.8275 37.0649 51.8525 36.9999C51.8775 36.9024 51.8775 36.7999 51.885 36.6974C51.915 36.6049 51.9275 36.5074 51.9225 36.4099C51.915 36.3074 51.7775 36.3274 51.72 36.2699C51.6375 36.2349 51.605 36.1524 51.5425 36.0974C51.5025 36.0174 51.49 35.9174 51.485 35.8274C51.49 35.7524 51.435 35.6699 51.485 35.6024L51.505 35.5699C51.5225 35.5449 51.5625 35.5649 51.5875 35.5599C51.6725 35.5649 51.76 35.5524 51.8375 35.5849C52.0375 35.6174 52.2425 35.6224 52.4475 35.6324C52.5725 35.6274 52.6925 35.6724 52.8175 35.6699C52.915 35.6474 52.96 35.7549 52.9575 35.8324C52.9025 35.9424 52.95 36.0699 52.905 36.1824C52.865 36.2949 52.8825 36.4199 52.8625 36.5374C52.86 36.6299 52.745 36.6624 52.685 36.5949C52.6275 36.5374 52.535 36.5249 52.4925 36.4549C52.4425 36.3549 52.5975 36.3549 52.6225 36.2774C52.6525 36.1999 52.6425 36.1149 52.6475 36.0324C52.6675 35.9349 52.56 35.9274 52.4925 35.9174C52.4025 35.8849 52.275 35.8624 52.2275 35.9699C52.195 36.0499 52.2 36.1349 52.19 36.2199C52.19 36.3674 52.1525 36.5149 52.1425 36.6624L52.09 37.2099C52.09 37.2849 52.0775 37.4099 51.97 37.3874L51.9725 37.3849ZM51.87 36.0099L51.9225 36.0049L51.9325 35.8799L51.865 35.8599C51.8425 35.8524 51.82 35.8474 51.7975 35.8449C51.7875 35.8524 51.7775 35.8574 51.7675 35.8649C51.73 35.8924 51.74 35.9299 51.7875 35.9799C51.8075 36.0049 51.84 36.0174 51.87 36.0099ZM46.875 37.5599C46.8125 37.5374 46.7325 37.4449 46.6675 37.4449C46.52 37.4349 46.5425 37.2924 46.6475 37.2424C46.6625 37.1999 46.6475 37.1449 46.6525 37.0974C46.6725 36.9649 46.59 36.8599 46.605 36.7274C46.5975 36.5824 46.555 36.4399 46.5475 36.2949C46.5075 36.1449 46.505 35.9899 46.48 35.8374C46.4625 35.6999 46.3625 35.7474 46.2775 35.7849L46.2725 35.9624C46.3075 36.0974 46.2 36.1374 46.09 36.1549C45.975 36.1449 45.92 36.2424 45.945 36.3424C45.995 36.3999 46.1175 36.3849 46.195 36.3949C46.3575 36.3599 46.3525 36.5799 46.2675 36.6549C46.21 36.7599 46.0675 36.8049 46.0275 36.9149C46.0425 37.0599 45.9475 37.2024 45.83 37.2749C45.6475 37.2874 45.5125 37.1299 45.445 36.9774L45.22 36.9049C45.1025 36.8749 44.9325 36.6699 45.095 36.5924C45.185 36.5674 45.4625 36.5049 45.34 36.3799C45.2725 36.2624 45.14 36.2599 45.0225 36.2924C44.9025 36.2924 44.7675 36.3499 44.7725 36.4899C44.7475 36.6149 44.7525 36.7499 44.695 36.8649C44.67 37.0049 44.5125 36.9724 44.5025 36.8449C44.38 36.7549 44.3975 36.6124 44.4825 36.5074C44.535 36.3849 44.4825 36.2449 44.43 36.1324C44.3975 35.9874 44.2375 35.9824 44.1225 35.9349C44.065 35.9124 43.85 35.9474 43.93 35.8249C44.055 35.7799 44.205 35.7399 44.3375 35.7724C44.475 35.7899 44.595 35.8824 44.66 36.0024C44.7525 36.0949 44.91 36.0474 45.03 36.0499C45.16 36.0499 45.29 35.9599 45.415 36.0174C45.45 36.1124 45.6175 36.2674 45.67 36.1049C45.66 35.9599 45.7875 35.8849 45.92 35.9024C46.065 35.9099 46.01 35.8024 46.0075 35.7149C46.0175 35.5599 46.1175 35.4774 46.2475 35.4124C46.2925 35.3999 46.3375 35.4049 46.3825 35.4124C46.5075 35.4524 46.6425 35.5074 46.68 35.6474C46.73 35.7599 46.73 35.8899 46.7675 36.0074C46.7975 36.1949 46.835 36.3849 46.84 36.5749C46.885 36.7474 46.8725 36.9299 46.9075 37.1049L46.96 37.4949C46.945 37.5649 46.915 37.5749 46.8775 37.5624L46.875 37.5599ZM45.745 36.8674C45.77 36.8649 45.785 36.8324 45.7875 36.7799C45.79 36.7199 45.8225 36.6699 45.86 36.6599C45.89 36.6524 45.8875 36.6199 45.855 36.5974C45.835 36.5849 45.8025 36.5774 45.74 36.5774C45.6425 36.5774 45.585 36.6024 45.5325 36.6549L45.5 36.6874L45.5475 36.7174C45.58 36.7424 45.6125 36.7699 45.6425 36.7999C45.69 36.8499 45.7225 36.8699 45.7475 36.8674H45.745ZM56.75 38.1799C56.6575 38.1749 56.565 38.1624 56.475 38.1374C56.3025 38.1474 56.215 37.9674 56.3825 37.8774C56.4825 37.6224 56.64 37.9299 56.8 37.9074C57.04 37.8599 57.06 37.6024 57.0975 37.4074C57.11 37.2149 57.1675 37.0274 57.2225 36.8449C57.3825 36.6674 57.1025 36.5549 56.9825 36.6949C56.8825 36.8049 56.6625 36.9424 56.54 36.7874C56.39 36.7224 56.3825 36.5199 56.26 36.4649C56.06 36.4024 56.0325 36.6524 55.9275 36.7574C55.83 36.8949 55.645 36.9074 55.49 36.9549C55.4175 37.0999 55.455 37.3449 55.3075 37.4449C55.1825 37.3949 54.955 37.1624 55.145 37.0549C55.3325 36.8949 55.0625 36.8224 54.9775 36.7099C54.855 36.5749 54.835 36.3874 54.815 36.2149C54.605 36.0999 54.565 36.3474 54.54 36.5024C54.5225 36.6849 54.3675 36.6324 54.26 36.5649C54.1025 36.4999 54.0225 36.3474 53.91 36.2324C53.8975 36.1249 53.915 36.0074 53.915 35.8949C53.95 35.7624 54.115 35.8224 54.2175 35.8324C54.38 35.8999 54.4475 35.7274 54.3175 35.6299C54.23 35.5174 53.9475 35.5749 53.975 35.3949C54.065 35.3849 54.1575 35.3874 54.25 35.3949C54.4325 35.4449 54.6275 35.5724 54.645 35.7749C54.67 35.9524 54.9225 35.9199 55.0625 35.9574C55.235 36.0074 55.445 36.0199 55.485 35.7999C55.6025 35.6749 55.86 35.5349 55.99 35.7049C56.1225 35.7849 56.185 35.9274 56.1775 36.0799C56.15 36.2099 56.39 36.2149 56.4475 36.1424C56.535 35.9999 56.805 36.0424 56.9375 36.1224C57.0775 36.2249 57.1075 36.4074 57.3075 36.4099L58.2025 36.6599C58.435 36.7099 58.17 36.8599 58.11 36.9474C57.93 37.0349 57.775 36.6749 57.5725 36.8524C57.4175 36.9724 57.4275 37.1974 57.37 37.3724C57.33 37.5974 57.34 37.8599 57.1775 38.0399C57.065 38.1599 56.9125 38.1874 56.755 38.1799H56.75ZM55.615 36.6024C55.635 36.6024 55.66 36.5924 55.6975 36.5699C55.77 36.5299 55.8225 36.4624 55.8225 36.4074C55.8225 36.3724 55.8125 36.3699 55.76 36.3449C55.7275 36.3274 55.69 36.3124 55.6775 36.3124C55.6475 36.3124 55.5725 36.3724 55.5725 36.3949C55.5725 36.4049 55.5625 36.4424 55.5525 36.4724C55.5325 36.5249 55.535 36.5249 55.5625 36.5599C55.58 36.5824 55.5925 36.5949 55.615 36.5974V36.6024ZM56.7025 36.5449C56.765 36.5499 56.8025 36.5299 56.8275 36.4824C56.8575 36.4274 56.8375 36.3849 56.76 36.3524C56.725 36.3374 56.6925 36.3249 56.6875 36.3274C56.6825 36.3274 56.655 36.3449 56.625 36.3649C56.58 36.3949 56.575 36.4099 56.5725 36.4424C56.5725 36.4949 56.63 36.5424 56.7025 36.5474V36.5449ZM55.2125 36.5274C55.23 36.5299 55.2475 36.5199 55.27 36.5024C55.3 36.4774 55.31 36.4549 55.3175 36.4024C55.3225 36.3674 55.3225 36.3324 55.3175 36.2974C55.31 36.2599 55.3075 36.2624 55.225 36.2599C55.1175 36.2599 55.1075 36.2699 55.11 36.3699C55.11 36.4324 55.11 36.4499 55.1475 36.4849C55.175 36.5124 55.1975 36.5249 55.215 36.5274H55.2125ZM54.2975 36.2899C54.335 36.2824 54.3625 36.2524 54.37 36.2174C54.38 36.1649 54.37 36.1399 54.3275 36.1174C54.29 36.0974 54.205 36.0924 54.1825 36.1074C54.17 36.1149 54.16 36.1249 54.1525 36.1374C54.14 36.1574 54.1425 36.1674 54.1575 36.1799C54.1675 36.1874 54.1775 36.1999 54.1775 36.2049C54.1775 36.2099 54.1875 36.2324 54.2025 36.2524C54.2275 36.2849 54.2625 36.2974 54.2975 36.2899ZM55.8375 36.0899C55.865 36.0899 55.89 36.0824 55.91 36.0649C55.94 36.0374 55.94 35.9974 55.905 35.9699C55.8825 35.9524 55.76 35.9549 55.7175 35.9699C55.7 35.9724 55.69 35.9899 55.6925 36.0074C55.6925 36.0299 55.7 36.0449 55.74 36.0649C55.775 36.0824 55.81 36.0899 55.84 36.0899H55.8375ZM52.9775 35.2849C52.9625 35.2949 52.9375 35.3049 52.9625 35.3224C52.9925 35.3724 53.05 35.3899 53.1 35.4099C53.1925 35.4499 53.27 35.5174 53.33 35.5974C53.3375 35.6524 53.4 35.6824 53.4 35.7399C53.4 35.8199 53.405 35.8999 53.385 35.9774C53.3625 36.0474 53.31 36.1024 53.2475 36.1399C53.205 36.1724 53.135 36.1824 53.12 36.2424C53.11 36.2999 53.1625 36.3424 53.18 36.3924L53.2875 36.6049C53.33 36.6524 53.3975 36.6074 53.42 36.5624C53.4525 36.5174 53.4775 36.4674 53.495 36.4124C53.545 36.3574 53.59 36.2924 53.6075 36.2199C53.6325 36.1699 53.6725 36.1199 53.67 36.0599C53.67 35.9899 53.71 35.9299 53.7075 35.8599C53.7075 35.7674 53.7075 35.6699 53.675 35.5799C53.6525 35.5299 53.605 35.5024 53.575 35.4574C53.5225 35.4074 53.4625 35.3599 53.395 35.3349C53.345 35.3199 53.32 35.2649 53.2575 35.2774C53.1725 35.2774 53.085 35.2649 53 35.2774C53.005 35.2674 52.975 35.2949 52.98 35.2874L52.9775 35.2849ZM51.8325 35.2124C51.7925 35.2549 51.7825 35.2724 51.7825 35.3124C51.7825 35.3524 51.79 35.3699 51.83 35.4099C51.9025 35.4849 51.9375 35.4849 52.0625 35.4224C52.1825 35.3624 52.225 35.3549 52.235 35.3999C52.245 35.4424 52.315 35.4799 52.38 35.4799C52.415 35.4799 52.4525 35.4699 52.4775 35.4449C52.52 35.4124 52.5225 35.4074 52.5225 35.3324C52.5225 35.2549 52.5225 35.2524 52.4725 35.2099C52.4275 35.1699 52.42 35.1674 52.3625 35.1724C52.29 35.1799 52.245 35.2124 52.235 35.2699C52.2275 35.3124 52.2125 35.3199 52.2 35.2924C52.1975 35.2824 52.1775 35.2724 52.16 35.2674C52.125 35.2599 52.0675 35.2224 52.0275 35.1849C52.0125 35.1699 51.985 35.1624 51.94 35.1624C51.88 35.1624 51.8725 35.1649 51.8275 35.2124H51.83H51.8325ZM48.5325 36.6949C48.4225 36.6949 48.3025 36.5999 48.2875 36.4924C48.3125 36.3674 48.4175 36.2424 48.35 36.1124C48.3975 35.9424 48.2225 35.8799 48.105 35.9774C48.035 36.1399 47.9975 36.3174 47.8925 36.4624C47.7575 36.4999 47.7 36.2874 47.605 36.2124C47.6525 36.0874 47.7875 35.9749 47.8025 35.8174C47.835 35.6649 47.7425 35.4949 47.61 35.4174C47.495 35.3074 47.34 35.3474 47.1975 35.3224C47.0275 35.2224 47.3225 35.1849 47.4 35.1824C47.575 35.1649 47.755 35.1874 47.885 35.3174C48.0125 35.3774 48.0025 35.5999 48.155 35.6249C48.42 35.6374 48.6825 35.5849 48.9475 35.5774C49.09 35.5424 49.3075 35.5949 49.405 35.4899C49.405 35.3049 49.5625 35.1899 49.7125 35.1199C49.795 35.0974 49.8825 35.1999 49.9675 35.2199C50.1275 35.2724 50.08 35.4699 50.175 35.5474L51.0025 35.5624C51.055 35.5624 51.07 35.6349 51.1075 35.6674L51.0825 35.9849C51.03 36.1199 51.09 36.2924 50.995 36.4074C50.8575 36.4449 50.74 36.3174 50.6 36.3074C50.445 36.2399 50.315 36.0949 50.3075 35.9224C50.215 35.7724 50.07 35.9499 50.12 36.0724C50.115 36.1274 50.1325 36.1899 50.115 36.2399C50.03 36.3424 49.8825 36.3074 49.765 36.3224C49.595 36.3149 49.43 36.3524 49.26 36.3474C49.11 36.3574 48.9575 36.3349 48.8125 36.3724C48.64 36.3774 48.6625 36.5449 48.635 36.6649C48.605 36.6874 48.5675 36.6974 48.53 36.6949H48.5325ZM48.8675 36.0799C48.925 36.0799 48.9775 36.0724 49.035 36.0649C49.1075 36.0524 49.185 36.0899 49.255 36.0649C49.4175 36.0374 49.58 36.0449 49.745 36.0274C49.7875 36.0274 49.82 35.9974 49.85 35.9699V35.6249C49.845 35.5824 49.8625 35.5249 49.825 35.4949C49.8125 35.4849 49.7975 35.4774 49.7825 35.4749C49.7375 35.4874 49.69 35.5174 49.6675 35.5574C49.66 35.6174 49.67 35.6749 49.6725 35.7349C49.6725 35.7499 49.68 35.7749 49.6725 35.7874C49.6375 35.8124 49.5975 35.8299 49.5525 35.8299L49.13 35.8499C49.0125 35.8574 48.89 35.8399 48.775 35.8699C48.73 35.8874 48.6725 35.8799 48.645 35.9274C48.605 35.9724 48.6625 36.0274 48.7025 36.0474C48.755 36.0699 48.8125 36.0799 48.87 36.0774L48.8675 36.0799ZM50.7475 36.0374C50.775 36.0374 50.78 36.0299 50.795 35.9799L50.815 35.8974C50.82 35.8774 50.8125 35.8724 50.785 35.8599C50.7025 35.8299 50.62 35.8324 50.5925 35.8699C50.58 35.8874 50.5925 35.9424 50.6175 35.9624C50.6675 36.0049 50.7175 36.0349 50.7475 36.0349V36.0374Z" fill="#C09300"></path><path d="M49.9974 45.4625C55.4374 49.6475 54.9724 55.7775 54.9724 55.7775C54.8324 55.75 54.6924 55.735 54.5499 55.735C53.4099 55.735 50.6874 56.3875 50.0524 57.2175C49.3724 56.4675 46.5899 55.735 45.4574 55.735C45.3149 55.735 45.1699 55.75 45.0349 55.7775C45.0349 55.7775 44.5624 49.6475 50.0024 45.4625H49.9974Z" fill="white"></path><path d="M49.9974 45.34L49.9399 45.385C44.5199 49.5525 44.9324 55.72 44.9374 55.7825L44.9449 55.8925L45.0524 55.87C45.1824 55.8425 45.3174 55.83 45.4549 55.83C46.6049 55.83 49.3274 56.56 49.9799 57.28L50.0574 57.365L50.1274 57.2725C50.7324 56.4825 53.4299 55.8275 54.5499 55.8275C54.6849 55.8275 54.8224 55.8425 54.9549 55.8675L55.0624 55.89L55.0699 55.7825C55.0749 55.72 55.4774 49.5525 50.0599 45.385L50.0024 45.34H49.9974ZM45.1199 55.6625C45.0924 54.835 45.1099 49.385 49.9949 45.5825C54.8824 49.385 54.9049 54.835 54.8774 55.6625C54.7674 55.645 54.6549 55.6375 54.5449 55.6375C53.4449 55.6375 50.8099 56.2525 50.0424 57.075C49.2024 56.295 46.5024 55.6375 45.4524 55.6375C45.3399 55.6375 45.2274 55.645 45.1199 55.6625Z" fill="#C09300"></path><path d="M54.5375 55.3275L54.395 55.3225C53.36 55.3225 50.9575 55.8525 50.0325 56.6475C49.0625 55.915 46.62 55.3225 45.6025 55.3225C45.555 55.3225 45.5075 55.3275 45.46 55.3375C45.46 55.105 45.47 54.865 45.485 54.6475C45.54 53.83 45.6825 53.01 45.9 52.2225C46.585 49.74 47.985 47.63 49.995 46.03C52.005 47.63 53.41 49.7425 54.095 52.2275C54.3125 53.015 54.4575 53.835 54.51 54.6525C54.525 54.8675 54.535 55.1 54.535 55.3275H54.5375Z" fill="white"></path><path d="M49.995 45.9301L49.9475 45.9676C47.9325 47.5726 46.5075 49.7276 45.825 52.2001C45.6025 53.0101 45.46 53.8326 45.4075 54.6401C45.395 54.8326 45.38 55.0851 45.3825 55.3376V55.4301L45.4725 55.4126C45.515 55.4051 45.5575 55.4001 45.6 55.4001C46.62 55.4001 49.0425 56.0001 49.9825 56.7101L50.0325 56.7476L50.08 56.7076C51.01 55.9101 53.435 55.4001 54.3925 55.4001L54.5325 55.4051V55.3276H54.61C54.61 55.0776 54.5975 54.8176 54.585 54.6451C54.5325 53.8376 54.39 53.0151 54.1675 52.2051C53.4825 49.7276 52.0575 47.5726 50.0425 45.9676L49.995 45.9301ZM45.5375 55.2501C45.5375 55.0326 45.55 54.8201 45.5625 54.6526C45.615 53.8551 45.755 53.0426 45.975 52.2426C46.6525 49.7851 48.005 47.7276 49.9975 46.1276C51.9625 47.7076 53.355 49.8226 54.025 52.2476C54.2475 53.0501 54.385 53.8601 54.4375 54.6576C54.4475 54.8101 54.46 55.0301 54.4625 55.2501H54.4C53.41 55.2501 51.0325 55.7426 50.0325 56.5526C49.0225 55.8276 46.655 55.2476 45.605 55.2476C45.5825 55.2476 45.56 55.2476 45.54 55.2501H45.5375Z" fill="#C09300"></path><path d="M48.23 55.8275C47.2525 55.52 46.1925 55.3225 45.605 55.3225C45.5575 55.3225 45.51 55.33 45.465 55.3375C45.465 55.105 45.4775 54.8625 45.49 54.645C45.545 53.825 45.6825 53.015 45.9025 52.2225C46.3625 50.5525 47.1525 49.05 48.23 47.76V55.8275ZM51.6675 55.845V47.6375C52.8 48.9575 53.6225 50.505 54.1 52.23C54.3175 53.0175 54.4575 53.835 54.5125 54.6525C54.5275 54.8675 54.54 55.1025 54.5375 55.33C54.49 55.3275 54.445 55.325 54.3975 55.325C53.775 55.325 52.66 55.52 51.6675 55.845Z" fill="#C09300"></path><path d="M52.0499 57.8175C52.1599 57.81 51.8999 58.4125 51.8999 58.4125C52.1949 58.1125 53.3049 58.04 53.3049 58.04C52.6374 58.335 51.9724 60.555 52.0499 62.3275C52.1224 64.105 51.7949 64.805 51.5349 65.065C51.2024 65.3975 50.1299 65.6925 49.4249 65.7325C49.0274 65.7525 49.0924 65.4325 49.0924 65.4325C48.3549 65.6225 47.6149 65.695 47.2824 65.4725C46.9699 65.2625 46.9024 64.2175 47.1324 64.4C47.6874 64.845 48.1724 64.44 48.5049 63.955C48.7999 63.53 48.7799 62.3275 48.3549 60.9225C47.9099 59.445 46.6949 57.97 46.6949 57.97C47.3549 57.97 48.2824 58.5575 48.2824 58.5575L48.0599 57.635C48.7599 57.9675 49.3149 58.485 49.3149 58.485L49.9824 57.785C50.2049 58.08 50.6499 58.485 50.6499 58.485C50.6499 58.485 51.2049 57.8975 52.0549 57.8175H52.0499Z" fill="white"></path><path d="M47.9075 57.45L48.1225 58.345C47.805 58.1675 47.1825 57.8625 46.69 57.8625H46.475L46.6125 58.0275C46.625 58.0425 47.82 59.5075 48.2525 60.945C48.6925 62.4 48.6675 63.5275 48.4175 63.89C48.1775 64.24 47.925 64.4425 47.69 64.4775C47.525 64.5025 47.3625 64.4475 47.1925 64.315C47.12 64.255 47.055 64.27 47.0225 64.2825C46.95 64.3125 46.9075 64.395 46.895 64.535C46.87 64.805 46.9575 65.375 47.2225 65.55C47.625 65.8175 48.4575 65.6825 48.99 65.555C49 65.6025 49.02 65.6575 49.0625 65.705C49.14 65.795 49.2625 65.835 49.4275 65.8275C50.1675 65.7875 51.2575 65.48 51.605 65.13C51.895 64.84 52.225 64.1175 52.15 62.315C52.07 60.4975 52.765 58.38 53.345 58.125L53.2975 57.93C53.205 57.935 52.535 57.985 52.105 58.1625C52.215 57.85 52.1725 57.79 52.1525 57.76C52.1275 57.725 52.0875 57.705 52.045 57.7075H52.0425C51.335 57.7725 50.8275 58.1725 50.645 58.335C50.5125 58.21 50.2225 57.93 50.06 57.715L49.9875 57.62L49.305 58.335C49.13 58.1825 48.6625 57.8025 48.1 57.535L47.9075 57.4425V57.45ZM48.4375 58.775L48.2075 57.825C48.7925 58.1425 49.2375 58.5525 49.2425 58.5575L49.315 58.625L49.97 57.9375C50.205 58.22 50.5575 58.5425 50.575 58.5575L50.6475 58.625L50.715 58.5525C50.715 58.5525 51.215 58.035 51.9625 57.9275C51.9375 58.0325 51.87 58.2175 51.8025 58.37L51.9675 58.4825C52.1275 58.32 52.6075 58.2225 52.9725 58.175C52.3725 58.865 51.875 60.7625 51.945 62.33C52.0175 64.15 51.6725 64.7775 51.4575 64.9925C51.145 65.305 50.1025 65.59 49.4125 65.63C49.345 65.6325 49.2575 65.6275 49.2125 65.5775C49.17 65.5275 49.1825 65.45 49.1825 65.45L49.21 65.295L49.0575 65.3325C48.24 65.5425 47.595 65.5625 47.33 65.385C47.2425 65.325 47.16 65.1475 47.1175 64.9175C47.0825 64.7325 47.085 64.5825 47.1 64.5075C47.3025 64.655 47.5075 64.715 47.715 64.6825C48.0125 64.6375 48.305 64.4125 48.58 64.01C48.91 63.5325 48.855 62.25 48.4425 60.89C48.085 59.7025 47.25 58.5325 46.91 58.0875C47.505 58.19 48.21 58.635 48.2175 58.64L48.43 58.775H48.4375Z" fill="#C09300"></path><path d="M51.8125 58.3525C51.175 59.285 51.0225 61.77 51.0175 61.875L51.23 61.8875C51.23 61.8625 51.385 59.355 51.99 58.47L51.815 58.35L51.8125 58.3525ZM49.4075 58.4325L49.2225 58.5325C49.69 59.39 49.835 62.12 49.8375 62.1475L50.05 62.1375C50.045 62.0225 49.9 59.3325 49.41 58.4325H49.4075ZM50.5475 58.4475C50.36 58.9775 50.3575 61.9075 50.3575 62.0325H50.57C50.57 61.195 50.6025 58.9275 50.7475 58.5175L50.5475 58.4475ZM48.36 58.485L48.2025 58.6275C48.8725 59.3725 49.245 62.06 49.2475 62.0875L49.4575 62.06C49.4425 61.9475 49.0725 59.28 48.36 58.4875V58.485Z" fill="#C09300"></path><path d="M48.6801 63.4001C48.6476 63.6426 48.5876 63.8326 48.5026 63.9551C48.1701 64.4376 47.6851 64.8426 47.1301 64.4001C47.1301 64.4001 47.3201 64.9876 47.7251 65.0076C48.0376 65.0276 48.7501 64.7751 49.3776 63.7001C49.3776 63.7001 48.9126 63.8051 48.8026 63.7076C48.5926 63.5251 48.6776 63.4001 48.6776 63.4001H48.6801ZM47.0726 65.1226C47.1176 65.2726 47.1901 65.4101 47.2826 65.4701C47.6151 65.6926 48.3551 65.6201 49.0926 65.4301C49.0926 65.4301 49.0276 65.7501 49.4251 65.7301C50.1301 65.6901 51.2026 65.3976 51.5351 65.0626C51.6126 64.9801 51.7051 64.8526 51.7851 64.6651H51.7726C51.6101 64.8926 51.1451 64.8801 51.0351 64.8676C50.8576 64.8476 50.7476 64.8551 50.5126 64.7951C50.4026 64.7701 50.2326 64.7351 50.1401 64.6651C50.0676 64.6051 50.0101 64.3901 49.8976 64.3901C49.7201 64.3901 49.7351 64.4351 49.6876 64.4876C49.6276 64.5601 49.5951 64.6651 49.5376 64.6576C49.3551 64.6251 49.0601 64.7676 48.6876 65.0626C48.3151 65.3576 48.1726 65.4276 47.6876 65.3951C47.2101 65.3551 47.0601 65.0876 47.0601 65.0876L47.0726 65.1201V65.1226Z" fill="#C09300"></path><path d="M48.6525 63.3875C48.6525 63.3875 48.625 63.43 48.635 63.5C48.6 63.69 48.5475 63.84 48.48 63.94C48.225 64.31 47.9625 64.5175 47.7025 64.5575C47.5175 64.585 47.3325 64.525 47.15 64.38L47.0725 64.32L47.1025 64.4125C47.11 64.4375 47.3025 65.02 47.725 65.04C48.05 65.06 48.77 64.805 49.405 63.72L49.44 63.6625L49.375 63.6775C49.2025 63.7175 48.9 63.755 48.825 63.69C48.7375 63.6125 48.705 63.5475 48.695 63.5025C48.7 63.4725 48.705 63.44 48.71 63.4075L48.655 63.39L48.6525 63.3875ZM47.615 64.62C47.6475 64.62 47.6775 64.62 47.71 64.6125C47.9875 64.5725 48.2625 64.355 48.5275 63.97C48.59 63.88 48.6375 63.755 48.675 63.6C48.6975 63.6375 48.7325 63.6825 48.785 63.7275C48.88 63.8125 49.1825 63.7675 49.32 63.74C48.7075 64.7525 48.0325 64.995 47.7275 64.975C47.4425 64.9625 47.2675 64.6425 47.195 64.48C47.3325 64.57 47.4725 64.6175 47.615 64.6175V64.62ZM49.8975 64.3625C49.75 64.3625 49.72 64.3925 49.685 64.4425C49.68 64.45 49.6725 64.46 49.665 64.47C49.6425 64.495 49.6275 64.525 49.61 64.55C49.585 64.59 49.56 64.63 49.54 64.63C49.3525 64.595 49.0575 64.735 48.67 65.04C48.2975 65.3325 48.1625 65.4 47.69 65.3675C47.2375 65.33 47.0875 65.0775 47.0875 65.075L47.05 65.0925H47.035V65.1L47.045 65.13C47.075 65.2325 47.145 65.415 47.2675 65.4925C47.6675 65.7575 48.545 65.5975 49.06 65.4675C49.06 65.515 49.0675 65.595 49.1225 65.66C49.185 65.7325 49.2875 65.765 49.4275 65.76C50.155 65.72 51.22 65.4225 51.5575 65.085C51.66 64.9775 51.745 64.84 51.815 64.6775L51.8325 64.6375H51.76L51.75 64.65C51.6025 64.8575 51.1775 64.8575 51.04 64.84C50.99 64.835 50.9475 64.83 50.9025 64.8275C50.7925 64.82 50.6875 64.81 50.52 64.7675L50.4825 64.7575C50.3775 64.7325 50.235 64.7 50.16 64.64C50.1375 64.6225 50.115 64.5825 50.09 64.5375C50.0425 64.4525 49.9875 64.3575 49.9 64.3575L49.8975 64.3625ZM49.5425 64.69C49.5975 64.69 49.6275 64.6375 49.6625 64.5825C49.6775 64.5575 49.6925 64.5325 49.7125 64.51C49.7225 64.5 49.73 64.4875 49.7375 64.4775C49.76 64.445 49.775 64.4225 49.9 64.4225C49.9525 64.4225 49.9975 64.5025 50.04 64.5725C50.0675 64.62 50.0925 64.665 50.125 64.69C50.2125 64.7575 50.3625 64.7925 50.4725 64.8175L50.51 64.825C50.6825 64.8675 50.79 64.8775 50.9025 64.885C50.945 64.8875 50.9875 64.8925 51.0375 64.8975C51.0425 64.8975 51.4675 64.9425 51.7075 64.775C51.6525 64.88 51.59 64.97 51.52 65.045C51.1975 65.3675 50.13 65.6625 49.43 65.7025C49.3075 65.7075 49.2225 65.6825 49.1725 65.625C49.1075 65.5475 49.1275 65.4375 49.1275 65.4375L49.1375 65.3925L49.0925 65.405C48.2425 65.6225 47.5925 65.64 47.305 65.4475C47.2475 65.41 47.19 65.3325 47.1475 65.225C47.2425 65.3075 47.415 65.4075 47.695 65.43C48.185 65.4625 48.335 65.39 48.715 65.09C49.085 64.7975 49.37 64.66 49.54 64.69C49.5425 64.69 49.5475 64.69 49.55 64.69H49.5425Z" fill="#C09300"></path><path d="M49.805 64.6925C49.9127 64.6925 50 64.7798 50 64.8875C50 64.9952 49.9127 65.0825 49.805 65.0825C49.6973 65.0825 49.61 64.9952 49.61 64.8875C49.61 64.7798 49.6973 64.6925 49.805 64.6925Z" fill="white"></path><g clip-path="url(#clip1_26_469)"><path d="M85.3561 14.6447C104.882 34.1709 104.882 65.8291 85.3561 85.3553C65.8298 104.882 34.1716 104.882 14.6454 85.3553C-4.88084 65.8291 -4.88084 34.1709 14.6454 14.6447C34.1716 -4.88155 65.8298 -4.88155 85.3561 14.6447Z" fill="#00732F"></path><path d="M100 50.0001C100 22.3876 77.6125 9.91821e-05 50 9.91821e-05C42.97 9.91821e-05 36.2775 1.4501 30.2075 4.0726C12.4375 11.7401 0 29.4176 0 50.0001C0 56.0076 1.06 61.7651 3 67.1001H96.9975C98.94 61.7651 100 56.0076 100 50.0001Z" fill="white"></path><path d="M96.825 32.4351C89.715 13.4851 71.4301 0.00256348 50 0.00256348C42.9701 0.00256348 36.2775 1.45256 30.2076 4.07506C17.7751 9.43756 7.95505 19.7051 3.17505 32.4351H96.8275H96.825Z" fill="black"></path><path d="M30.2075 95.9275V4.07249C12.4375 11.74 0 29.4175 0 50C0 70.5825 12.4375 88.2625 30.2075 95.9275Z" fill="#FF0000"></path><g clip-path="url(#clip2_26_469)"><path d="M50 0C77.6142 0 100 22.3858 100 50C100 77.6142 77.6142 100 50 100C22.3858 100 0 77.6142 0 50C0 22.3858 22.3858 0 50 0Z" fill="#006C35"></path><path fill-rule="evenodd" clip-rule="evenodd" d="M64.5325 35.4351C64.5325 35.4351 64.53 35.4326 64.5275 35.4301C63.59 35.2276 63.6175 34.4051 64.22 34.0451C54.315 34.0451 39.115 34.1876 35.855 34.1876C34.0325 34.1876 28.2625 34.3701 28.15 34.3701C29.3875 32.8426 31.18 32.5326 33.525 32.5001L64.11 32.5451C63.6975 31.9276 64.1475 30.9301 64.47 30.7501C64.4775 30.7451 64.4875 30.7401 64.495 30.7376C64.5075 30.7326 64.52 30.7276 64.535 30.7251C64.54 30.7251 64.545 30.7251 64.55 30.7251C64.935 30.6476 65.1025 30.8826 65.2325 31.0551C65.855 31.0101 69.3625 30.9651 69.6825 31.0601L69.6875 31.0651C69.905 30.7951 70.12 30.5401 70.5325 30.5851C71.255 30.7151 71.825 30.7826 71.8425 32.0201C71.8425 32.0201 71.7675 34.1301 70.1275 33.9976C69.74 33.9476 68.65 33.8551 68.65 33.8551C67.3875 33.9826 66.4625 33.9951 65.045 34.0376C65.175 34.1776 65.4075 34.7451 65.125 34.9526C65.05 35.0051 64.9425 35.0326 64.79 35.0226H64.785C64.785 35.0226 64.7775 35.0226 64.775 35.0226L64.77 35.0276C64.765 35.0276 64.76 35.0276 64.755 35.0326C64.745 35.0376 64.7375 35.0451 64.73 35.0526C64.73 35.0526 64.7225 35.0601 64.72 35.0601C64.6475 35.1476 64.61 35.3651 64.5625 35.4201L64.5575 35.4251L64.5525 35.4301C64.55 35.4301 64.545 35.4326 64.5425 35.4351H64.5325ZM65.205 32.4176C65.205 32.4176 65.2075 32.4176 65.21 32.4176C66.655 32.3576 68.0125 32.4051 69.4575 32.3476C69.6875 32.1826 69.5725 31.8076 69.4225 31.7376C69.415 31.7351 69.4075 31.7326 69.3975 31.7301C69.3925 31.7301 69.385 31.7301 69.3775 31.7301C69.37 31.7301 69.365 31.7301 69.3575 31.7301L68.145 31.7601C68.145 31.7801 68.1425 31.8001 68.135 31.8176C68.0225 32.0951 67.2175 32.0776 67.0275 31.8601C67.025 31.8551 67.02 31.8526 67.0175 31.8476C67.0125 31.8426 67.01 31.8376 67.0075 31.8301C67.005 31.8226 67 31.8176 66.9975 31.8101C66.995 31.8026 66.995 31.7901 66.9925 31.7801C66.9925 31.7701 66.9875 31.7576 66.9875 31.7476C66.355 31.6826 65.7825 31.7651 65.1475 31.7851C64.9625 31.9801 64.9825 32.3351 65.2025 32.4201L65.205 32.4176Z" fill="white"></path><path d="M69.7 55.3551C69.9 55.2576 70.425 55.8526 70.4075 56.6001C70.465 56.9826 70.26 58.4001 69.735 58.6401C69.6725 58.6601 69.61 58.6676 69.545 58.6601C69.27 58.6226 69.0125 58.3901 69.13 58.0076C69.055 57.7826 69.5025 57.0001 69.6175 56.5826C69.7225 56.2851 69.4825 55.4476 69.7 55.3601V55.3526V55.3551ZM28.3175 67.3801C28.96 67.0976 30.1625 67.2176 30.1125 68.1701C30.1125 68.2526 30.0925 68.5376 30.0825 68.6151C30.0175 68.7551 29.895 68.8076 29.78 68.7901C29.6625 68.7701 29.5525 68.6826 29.5125 68.5376C29.4875 68.4426 29.5575 68.2851 29.465 68.2376C29.4125 68.1826 29.2075 68.2176 29.2175 68.4851C29.2175 68.5676 29.15 68.6576 29.11 68.7101C29.07 68.7376 29.0425 68.7476 28.9675 68.7476C28.8775 68.7476 28.88 68.7201 28.83 68.6526C28.8075 68.5876 28.78 68.5126 28.78 68.4326C28.77 68.3401 28.7275 68.3076 28.6525 68.2926C28.57 68.2926 28.5875 68.2851 28.52 68.3301C28.4825 68.3751 28.4325 68.3851 28.4325 68.4551C28.4325 68.5201 28.4125 68.6426 28.3875 68.6901C28.3525 68.7351 28.2975 68.7551 28.2325 68.7726C27.8825 68.7726 27.8575 68.4001 27.8775 68.2601C27.8525 68.2326 27.8375 67.5776 28.3175 67.3926V67.3801ZM23.175 67.4176C23.2725 67.1926 23.0775 66.4651 23.2825 66.3976C23.47 66.3251 23.73 66.9001 23.8275 67.4351C23.8825 67.7276 23.84 68.7301 23.1 68.9351C23.0625 68.9426 23.0225 68.9551 22.9825 68.9551C22.7 68.9626 22.3875 68.8001 22.51 68.4876C22.44 68.3176 23.0625 67.7401 23.1725 67.4226V67.4176H23.175ZM45.8375 67.1476C46.205 68.0651 46.2075 68.4576 46.2325 68.8451C46.175 69.1401 46.035 69.2851 45.8775 69.2726C45.72 69.2526 45.5425 69.0901 45.4 68.7601C45.2775 68.5076 45.1275 67.2001 45.15 67.2001C45.0525 66.8101 45.5925 66.6451 45.8375 67.1451V67.1476ZM41.26 67.4051C41.4425 67.1651 41.6225 67.1901 41.9875 67.3601C42.1975 67.5026 42.2675 67.5951 42.3375 67.8326C42.425 68.2326 41.88 67.6426 41.81 68.0901C41.6875 68.5026 42.035 68.6726 42.365 69.0751C42.3725 69.2626 42.375 69.4176 42.2425 69.4226C42.1825 69.4226 42.0925 69.3951 41.965 69.3251C41.68 69.1501 41.115 68.6051 41.0975 67.9826C41.08 67.6301 41.0075 67.6326 41.2575 67.4076L41.26 67.4051ZM22.5475 61.0851C24.42 60.9201 23.385 64.0026 24.065 64.5626C24.1925 64.8376 24.43 64.8451 24.45 64.4976V61.8776C24.4325 61.0251 25.04 60.7726 25.5125 60.5976C26.0025 60.6351 26.33 60.6251 26.5225 60.1801L26.7575 55.6451C26.7575 55.6451 27.8925 55.3451 27.9475 58.1926C28.0025 59.8651 27.585 61.2701 27.83 61.5951C27.8375 61.9151 28.2825 61.9301 28.59 61.7751C29.08 61.4576 29.2975 61.0651 30.0575 61.2226C31.215 61.5151 31.9125 62.0351 31.93 62.8526C31.8625 63.6326 31.765 64.4101 31.3975 65.1901C31.4475 65.3326 31.175 65.7001 31.2275 65.8426C31.435 65.5426 31.75 65.5676 31.8225 65.8426C31.625 66.4401 31.3175 67.0151 30.8225 67.2626C30.4125 67.5951 29.8125 67.5251 29.595 66.8326C29.4925 66.0326 29.91 65.0851 30.54 64.3126C30.675 64.0101 30.8625 63.5076 30.78 63.0551C30.445 62.8776 30.11 62.9526 29.83 63.2251C29.83 63.2251 28.9075 63.8601 28.9075 64.0026C29.1525 65.4451 28.96 65.6101 28.825 66.0126C28.73 66.5651 28.445 66.7401 28.215 67.1176C27.985 67.3426 27.6725 67.3426 27.5225 67.1176C27.115 66.4676 27.3075 65.0676 27.6 64.4451C27.8125 63.8701 28.1375 63.5101 27.985 63.5101C27.8575 63.1851 27.595 63.2601 27.405 63.6351C27.1325 64.4101 27.0775 65.5676 27.0775 66.0876C26.9975 66.7326 26.905 68.1151 26.4425 68.4651C26.32 68.6201 26.175 68.6726 26.0325 68.6576C25.8525 68.6376 25.68 68.5026 25.5975 68.3201C25.5675 67.6776 25.5625 67.0376 25.6425 66.4451C25.96 65.4076 26.06 64.4951 26.2125 63.4351C26.255 62.0126 25.3225 62.8201 25.365 63.5276C25.58 64.4426 25.52 65.8851 25.33 66.2501C25.1775 66.6151 25.0025 66.7051 24.6325 66.6451C24.34 66.6651 23.5825 65.9001 23.37 64.6401C23.37 64.6401 23.1925 63.9926 23.1175 63.4176C23.015 62.7676 22.545 62.3051 22.22 63.5101C21.9375 64.3826 21.765 66.5351 21.2925 66.0301C21.1575 64.3501 20.9975 61.3951 22.545 61.0926V61.0851H22.5475ZM34.615 63.9351H34.62L34.625 63.9301C34.625 63.9301 34.6275 63.9301 34.63 63.9301L34.635 63.9251C34.7575 63.8526 36.2575 63.8526 36.425 63.9201L36.43 63.9251H36.435V63.9301C36.95 64.1051 39.4 66.6851 39.4 66.6851C39.2725 66.7851 39.155 66.8601 39.03 66.9601C38.895 67.0701 38.9075 67.1751 39.03 67.2826C39.6375 67.6076 39.445 68.3226 39.1275 68.6501C38.865 68.7576 38.6175 68.7951 38.395 68.7851C38.1925 68.7801 37.9925 68.7276 37.81 68.6376C37.385 68.2626 37.285 67.6601 37.62 67.2851C37.945 67.1426 38.27 66.8401 38.055 66.6751C37.1325 65.7676 34.7325 64.2501 34.6125 63.9751C34.6125 63.9726 34.61 63.9701 34.6075 63.9676C34.6075 63.9676 34.6075 63.9601 34.6075 63.9576V63.9526C34.6075 63.9526 34.61 63.9476 34.6125 63.9426L34.6175 63.9376L34.615 63.9351ZM38.2475 67.9776C38.2475 67.9776 38.2675 67.9826 38.2775 67.9826C38.4275 68.0026 38.6075 67.8701 38.6975 67.6901C38.7925 67.5001 38.745 67.3176 38.59 67.2801C38.435 67.2426 38.235 67.3726 38.1425 67.5626C38.0475 67.7526 38.095 67.9426 38.25 67.9751L38.2475 67.9776ZM41.635 62.4201C42.385 62.1351 42.86 63.4476 43.165 64.8876C43.375 65.2926 43.535 65.3376 43.6425 65.1301C43.615 63.2176 43.7925 62.7901 44.325 62.2101C45.515 61.3626 46.5 62.1026 46.5775 62.1726L47.505 63.0276C47.7125 63.2276 47.985 63.2401 48.275 63.0651C48.5575 62.8276 48.5225 62.4176 49.1275 62.1351C49.6375 61.9476 50.7275 62.0901 50.98 62.4951C51.32 63.0326 51.4025 63.2176 51.56 63.4201C51.8025 63.7176 52.2175 63.5851 52.2175 63.4851C52.18 63.3201 51.935 63.1551 52.1 62.8551C52.3875 62.6551 52.455 62.7901 52.6275 62.8276C53.2325 63.0926 53.685 64.3026 53.685 64.3026C53.7125 64.7526 53.4325 64.7176 53.255 64.6276C53.0225 64.4976 53.01 64.4526 52.7775 64.3226C52.4825 64.2776 51.91 64.1026 51.6275 64.5076C51.3375 64.9926 51.3375 65.6701 51.115 66.1601C51.115 66.1976 50.7275 66.9301 51.085 66.9776C51.265 66.9401 51.6525 66.8551 51.715 67.1526C51.905 67.4426 51.3075 68.2676 50.9 68.6851C50.5475 69.0426 50.06 69.0851 49.5875 68.7226C49.2575 68.4426 49.305 68.1301 49.24 67.8326C49.1575 67.4926 49.1725 67.0701 49.5475 66.6201C49.8775 66.0226 50.4775 65.2526 50.28 64.1676C50.28 64.1676 49.9325 63.6526 49.32 63.7176C49.065 63.7726 48.65 63.8701 48.4275 65.3751C48.26 66.5151 48.47 68.1101 47.945 68.8576C47.8275 69.1401 47.725 69.4126 47.555 69.3926C47.4525 69.3851 47.3275 69.2626 47.155 68.9701C47.03 68.6676 46.495 68.2076 46.8825 67.2626C47.1975 66.6626 47.3275 65.6876 47.185 64.6026C46.965 64.2951 46.915 64.1876 46.63 63.8801C46.2275 63.4801 45.79 63.5826 45.455 63.7326C45.1425 63.9276 44.895 64.0276 44.7525 64.6451C44.7775 65.6301 44.84 67.2426 44.645 67.5851C44.3575 68.1151 43.8825 67.9251 43.68 67.7651C42.705 66.9451 42.2225 65.5576 41.93 64.4526C41.66 63.6501 41.3725 63.8801 41.17 64.2051C40.6775 64.6301 40.6425 67.9551 40.0475 67.4101C39.095 64.9026 40.595 62.1551 41.6325 62.4226V62.4301L41.635 62.4201ZM37.71 64.2076C37.1425 63.9251 36.9225 63.0851 37.2775 62.5951C37.6075 62.1651 38.13 62.3201 38.2 62.3201C38.755 62.2551 39.0875 63.2826 39.0875 63.2826C39.0875 63.2826 39.105 63.5726 38.445 63.0276C38.1675 62.9726 38.13 63.0726 38.06 63.2151C38.0025 63.4826 38.015 63.7526 38.1475 64.0176C38.21 64.1776 38.1475 64.2801 38.015 64.2926C37.9375 64.3001 37.8325 64.2726 37.7125 64.2101L37.71 64.2076ZM74.39 51.4051C74.2675 51.5326 73.995 51.4601 73.81 51.4701C73.7225 51.4701 73.4325 51.5151 73.5725 51.7451C73.6875 51.8901 73.73 51.9776 73.8075 52.1601C73.8925 52.3351 73.8175 52.4551 73.505 52.5501C73.345 52.5776 73.235 52.5876 73.12 52.5876C73.005 52.5826 72.8825 52.5676 72.705 52.5501C72.515 52.5126 72.4475 52.4351 72.4125 52.2226C72.425 51.8976 72.64 51.9151 72.86 51.7876C72.9875 51.6376 73.07 51.5026 72.85 51.2576L72.285 50.8076C72.1875 50.6526 72.125 50.4151 72.4275 50.3401C72.9825 50.1951 74.27 50.9676 74.27 50.9826C74.4775 51.1276 74.41 51.4001 74.3925 51.4001V51.4051H74.39ZM78.385 64.9401C78.3425 65.2251 78.205 65.8826 78.2575 65.9701C78.3425 66.1701 78.7725 65.9501 78.925 66.1801C79.15 66.3926 77.8125 67.9676 77.345 68.6426C77.2525 68.8126 77.195 68.9501 77.11 68.9426C77.045 68.9376 76.9675 68.8401 76.8475 68.6051C76.5575 68.1676 76.4575 67.3851 76.575 66.6951C77.2725 62.3526 77.79 58.1476 77.8975 54.2976C77.8375 53.9326 77.82 53.7376 77.635 53.2776C77.225 52.7926 76.77 52.1826 76.3425 51.8901C75.915 51.5976 75.0075 51.3176 74.71 51.1001C73.7675 50.5976 73.76 50.0201 74.525 50.0001C75.84 50.1401 77.3925 50.2401 78.465 51.7301C78.7525 52.1476 79.09 53.2801 79.105 53.9726C79.205 58.0351 79.05 62.0051 78.3875 64.9426L78.385 64.9401ZM21.505 56.9776L26.38 59.1351C26.1125 59.5026 26.3625 59.8326 25.36 59.8576C23.82 59.8301 21.5625 57.9951 21.5025 56.9776H21.505ZM22.375 52.3226C21.97 51.5651 21.8 52.0826 21.765 52.5076C21.7025 53.3101 21.7875 54.0526 21.8825 54.6376C21.9325 54.9376 21.93 55.0426 21.8925 55.0426C21.855 55.0426 21.775 54.9351 21.6725 54.8151C20.755 53.4701 20.675 51.4601 21.18 50.8601C21.45 50.5776 21.8925 50.4526 22.2175 50.5401C22.7925 50.7701 23.0475 51.8451 22.91 52.2376C22.7175 52.5151 22.565 52.5576 22.3725 52.3201L22.375 52.3226ZM33.8675 54.3451C34.535 56.3926 33.8525 57.9401 34.0775 58.1276C34.0775 58.1276 34.085 58.1276 34.0875 58.1326C34.0875 58.1326 34.095 58.1326 34.0975 58.1376C34.0975 58.1376 34.105 58.1426 34.1075 58.1426C34.1175 58.1451 34.1275 58.1476 34.1375 58.1476C34.9625 57.3301 36.1175 58.0451 36.37 58.3276C36.4775 58.4676 36.75 58.5601 36.94 58.3826C37.5825 57.9576 38.71 58.1576 38.945 58.9076C39.08 59.6426 39.195 60.3976 39.2225 61.1801C38.805 61.0601 38.4675 60.9701 38.33 60.8401C38.2975 60.8026 38.275 60.7751 38.2675 60.7326L38.16 60.0801C38.1575 60.0601 38.15 60.0426 38.14 60.0251C38.12 59.9976 38.0925 59.9701 38.0625 59.9601C37.915 59.8876 37.6575 59.9226 37.6425 60.1251C37.445 60.9601 36.625 61.0676 36.1275 59.7751C35.7925 59.5251 35.1825 59.4751 35.1175 59.8476C35.1975 60.7151 34.8175 60.8326 34.06 60.4226L33.3275 65.5001C33.645 65.5076 33.935 65.2976 34.225 65.6326C33.9125 66.5326 33.2475 68.3601 32.875 68.5301C32.8725 68.5301 32.8675 68.5301 32.865 68.5351C32.8475 68.5551 32.83 68.5726 32.8125 68.5901C32.805 68.5951 32.7975 68.6001 32.7875 68.6101C32.78 68.6151 32.77 68.6176 32.7625 68.6301C32.7475 68.6376 32.73 68.6501 32.715 68.6501C32.6825 68.6576 32.6475 68.6576 32.6125 68.6576C32.52 68.6501 32.4175 68.6026 32.295 68.5751C31.8975 68.4576 31.525 68.1401 31.6425 67.5226L32.89 60.2376C32.9625 59.9301 32.6825 59.5226 32.32 59.5626C31.705 59.9451 31.5525 60.7251 30.5025 60.6901C29.7425 60.6826 28.875 59.9201 28.7675 59.1851C28.64 58.6026 28.595 57.9676 28.7675 57.4601C29.3 56.8676 29.9425 56.9301 30.5025 57.0651C30.965 57.2401 31.3425 57.6601 31.5075 57.5601H31.5125V57.5551C31.6125 57.3926 31.5025 56.0226 29.3375 54.9626C28.0075 54.4126 26.9475 54.2801 26.3775 55.2826C26.025 55.9076 26.4025 58.2901 25.535 57.7401C22.965 51.6326 31.5575 50.7801 32.5175 57.4876C32.58 57.6776 32.77 57.8676 32.9025 57.8201C32.96 57.7926 33.015 57.7226 33.035 57.5876C32.835 51.5151 26.3875 51.0976 25.2925 53.0076C25.02 53.4576 24.94 54.4601 24.9125 55.0601C24.8625 55.4226 24.765 55.6326 24.65 55.7151C24.39 55.8951 24.04 55.4226 23.9625 54.6051C23.855 53.9451 23.885 53.7676 23.885 53.1301C24.23 48.3326 32.5275 50.3951 33.875 54.3576V54.3401L33.8675 54.3451ZM30.6625 58.4951V58.4901C30.6625 58.4901 30.66 58.4826 30.6575 58.4826C30.5925 58.4101 30.365 58.4376 30.205 58.4376C30.01 58.4451 29.9125 58.4751 29.795 58.6226C29.74 58.7851 29.91 58.9476 29.985 59.0676C29.985 59.0676 29.99 59.0701 29.99 59.0726C30 59.0801 30.01 59.1001 30.025 59.1101C30.0825 59.1651 30.185 59.2051 30.2925 59.2176C30.3125 59.2176 30.335 59.2226 30.355 59.2226C30.505 59.2226 30.665 59.1576 30.75 58.9576C30.8125 58.8026 30.78 58.6251 30.6625 58.4976V58.4951ZM58.1 63.0751C58.7425 62.7926 59.95 62.9176 59.9 63.8701C59.9 63.9526 59.875 64.2376 59.865 64.3151C59.8 64.4551 59.6775 64.5076 59.5625 64.4901C59.4475 64.4701 59.335 64.3801 59.295 64.2326C59.27 64.1376 59.345 63.9851 59.25 63.9351C59.1975 63.8801 58.9875 63.9151 58.9975 64.1776C58.9975 64.2601 58.9325 64.3526 58.89 64.4076C58.85 64.4351 58.8225 64.4451 58.7475 64.4451C58.6575 64.4426 58.66 64.4176 58.61 64.3501C58.59 64.2851 58.5625 64.2101 58.5625 64.1301C58.5525 64.0376 58.515 64.0051 58.44 63.9901C58.3575 63.9901 58.37 63.9826 58.3025 64.0276C58.265 64.0726 58.215 64.0826 58.215 64.1526C58.215 64.2176 58.195 64.3401 58.17 64.3876C58.135 64.4326 58.08 64.4426 58.015 64.4601C57.665 64.4601 57.6425 64.0926 57.665 63.9526C57.64 63.9251 57.62 63.2626 58.1 63.0801V63.0726V63.0751ZM68.4475 60.6176C68.4575 61.1751 68.5175 61.9151 68.55 62.3751C68.565 62.5501 68.6075 62.7401 68.7875 62.7851C68.9675 62.8301 69.2825 62.6176 69.285 62.8051C69.2525 63.1601 69.175 63.6801 68.9575 63.9276C68.8475 64.0801 68.665 64.1626 68.475 64.1701C68.16 64.1901 67.825 63.9951 67.7375 63.6001C67.7375 63.3651 67.8525 63.2376 67.83 63.0251C67.7975 62.9051 67.6625 62.8251 67.3375 62.9701C67.39 63.0151 67.1275 63.3526 67.1275 63.3526C66.875 63.4951 66.5375 63.3451 66.3175 63.2126C66.1975 63.0101 66.1075 62.6626 66.245 62.3101C66.6075 61.6926 67.85 60.6401 68.445 60.6301V60.6176H68.4475ZM64.45 52.9351C64.8975 52.9326 65.415 53.8776 65.635 54.8126C65.755 56.1026 65.555 56.8851 65.5175 57.6426C65.48 58.4001 64.5875 64.5476 64.405 65.1201C64.1875 66.2026 65.275 65.2626 65.155 65.8926C64.78 66.6876 63.84 67.8451 63.545 68.5351C63.435 68.7201 63.42 68.8901 63.33 68.8751C63.275 68.8651 63.195 68.7926 63.0475 68.6101C62.68 67.5051 62.5525 66.6001 62.6925 65.9151C63.635 61.3801 64.6025 57.2501 64.4475 52.9326L64.45 52.9351ZM61.095 53.8601C60.0625 52.8676 58.575 51.6426 56.955 51.0776C56.78 50.8976 57.3875 50.1276 58.175 50.1301C59.49 50.2701 60.645 50.9501 61.715 52.7401C62.0025 53.1576 62.505 54.0526 62.52 54.7451C62.62 58.8076 62.3 61.9651 61.6375 64.9001C61.595 65.1851 61.6225 65.5226 61.675 65.6101C61.76 65.7026 62.0475 65.6101 62.2025 65.8401C62.4275 66.0501 61.6025 67.8026 61.135 68.4776C61.0425 68.6476 60.985 68.7801 60.9 68.7751C60.835 68.7701 60.7575 68.6776 60.6375 68.4426C60.3475 68.0051 60.1525 67.2451 60.175 66.5326C60.8025 62.5326 60.995 59.0326 61.4025 55.0326C61.435 54.6451 61.375 54.0851 61.095 53.8601ZM58.535 66.7751C58.765 66.1851 58.36 65.6201 58.5975 65.5401C58.8175 65.4476 59.1225 66.1501 59.2375 66.7976C59.37 67.3226 58.965 68.3951 58.39 68.6176C58.345 68.6276 58.3 68.6276 58.2525 68.6376C57.9225 68.6476 57.56 68.4551 57.7025 68.0751C57.62 67.8676 58.41 67.1651 58.535 66.7801V66.7751ZM70.1225 60.6426C70.105 60.6451 70.0875 60.6426 70.07 60.6376L67.0225 58.6201C66.7275 58.3776 66.875 57.5301 67.0225 57.6276C67.235 57.5551 70.23 59.4226 70.1725 59.6401C70.3025 59.6326 70.365 60.6026 70.125 60.6426H70.1225ZM68.0275 66.0976C68.9325 65.0726 69.815 64.0301 70.68 62.9701C70.8675 60.7401 70.9175 58.6926 71.11 56.4601C71.0825 55.5051 70.765 54.2351 70.4625 54.1151C70.4625 54.1151 70 53.8701 69.6925 54.1426C69.4675 54.2251 68.57 55.5226 68.57 55.5226C68.11 55.9101 67.805 55.8001 67.4775 55.5226C66.5775 54.7201 66.17 53.2176 65.5575 52.1826C65.4 51.9526 64.955 51.7551 64.46 52.2026C63.4425 53.4851 63.7325 55.2026 63.795 55.5026L63.7825 55.4476C62.665 54.2851 63.16 52.3601 63.4125 51.9476C63.78 51.2676 64.08 50.8326 64.7975 50.4951C65.45 50.0526 65.96 50.3276 66.24 50.6376C66.8975 51.2651 66.9075 52.8726 67.215 53.1901C67.4325 53.7751 67.975 53.6726 68.24 53.4151C68.4975 53.0751 68.8 52.8526 69.175 52.6701C69.7875 52.1726 70.52 52.0801 71.2425 52.5351C71.735 52.7901 72.055 53.1226 72.345 53.7751C72.655 54.5376 72.5025 58.5401 72.4325 60.7676L73.8075 58.9301C74.0075 56.9776 74.0975 55.0501 74.0325 53.2051C73.985 52.8376 75.4225 54.3001 75.4125 54.9926V56.6601C76.11 55.6351 76.7825 54.5926 77.42 53.5376C77.815 53.7301 77.68 55.7926 77.43 56.0751C76.7625 57.1076 75.9075 58.2226 75.245 59.0851C75.115 60.1751 74.935 61.4601 74.855 61.8526C74.73 62.4651 74.6025 63.3876 74.41 64.1176C74.3575 64.4026 74.2 65.3101 74.25 65.3976C74.3275 65.6001 74.6225 65.3901 74.7675 65.6276C74.985 65.8451 74.015 68.1576 73.525 68.8176C73.3475 69.1151 73.0275 69.0101 72.6325 68.5301C72.265 68.2126 72.3975 67.4901 72.54 66.8051C72.905 65.0551 73.2275 63.2726 73.485 61.4926L71.8575 63.6951L71.785 64.0426C71.785 64.0801 71.7075 65.4751 71.6375 65.8076C71.625 65.9426 71.59 65.9826 71.745 65.9651C71.9075 65.8376 71.93 65.8326 72.0325 65.7901C72.1975 65.7626 72.3425 66.0201 72.2425 66.2576L70.7125 68.8651C70.65 68.9201 70.5825 68.9801 70.5025 68.9901C70.4225 69.0001 70.3375 68.9626 70.24 68.8326C70.055 68.6826 69.8525 68.4101 69.86 68.0601C69.905 67.4426 70.025 66.8126 70.07 66.1951L70.1175 65.9476C70.065 66.0126 70.0075 66.0726 69.9475 66.1326C68.6425 67.3951 70.545 66.3401 69.7 67.3151C68.9825 68.0401 68.7725 68.2726 68.16 68.7076C67.8525 68.8901 67.665 69.2426 67.565 68.6526C67.5275 68.1276 67.4825 67.5226 67.5225 67.0801C67.5225 66.8351 67.795 66.3726 68.035 66.1001L68.0275 66.0976ZM75.5925 65.0851C75.6975 64.7876 75.435 63.8351 75.65 63.7451C75.85 63.6476 76.13 64.4051 76.235 65.1076C76.2925 65.4901 75.985 66.8401 75.46 67.0801C75.42 67.0876 75.3775 67.1001 75.3325 67.1001C75.0325 67.1076 74.705 66.9001 74.835 66.4901C74.76 66.2651 75.475 65.5051 75.59 65.0876L75.5925 65.0851ZM52.8575 51.2601C52.8575 51.2326 53.1075 51.0376 53.4025 51.2051C54.025 51.4251 54.4125 51.6376 55.285 51.8126C55.515 51.8176 55.5 52.3826 55.1375 52.4001C54.665 52.3726 54.23 52.3551 53.7575 52.0126C53.4675 51.9576 53.4175 52.1126 53.3525 52.2601C53.28 52.6226 53.5175 52.8776 53.47 53.1501C53.4825 53.1401 53.3225 53.2701 53.12 53.2801C53.045 53.2826 52.9725 53.2701 52.905 53.2351C52.8925 53.2351 52.2475 52.8351 52.0425 52.5576C51.9175 52.4651 51.93 52.3926 51.97 52.2376C52.0675 52.0301 52.2425 52.0951 52.4375 52.1926C52.6975 52.2301 52.825 52.0676 52.8025 51.7801C52.6825 51.4201 52.855 51.2851 52.855 51.2626L52.8575 51.2601ZM55.8025 56.9876L55.8075 56.9926L55.8125 56.9976C55.8125 56.9976 55.8175 56.9976 55.8175 57.0026V57.0126C55.8175 57.0276 55.8175 57.0426 55.8125 57.0576L55.53 57.2101L49.9575 57.2376C49.8875 57.2651 49.8375 57.2926 49.8075 57.3026C49.805 57.3051 49.8 57.3101 49.7975 57.3126L49.7925 57.3176L49.7875 57.3226L49.7825 57.3301L49.7775 57.3351V57.3401L49.7725 57.3451V57.3876L49.7775 57.3926L49.7825 57.4001C49.8075 57.4376 49.875 57.4651 49.9575 57.4951C51.2875 57.6626 53.6525 58.0201 53.81 60.1151C53.785 61.2051 53.3025 61.9201 51.85 62.1201C50.7825 62.0476 50.02 61.0926 50.1425 60.0426C50.0925 59.7601 50.245 59.2051 49.9325 59.1451C47.885 58.9726 45.6475 57.7901 45.5725 56.9426H45.5675L45.5625 56.9376L45.5525 56.9326H45.5425C45.5425 56.9326 45.5325 56.9326 45.5275 56.9276H45.4975C45.4975 56.9276 45.485 56.9276 45.4775 56.9326C45.345 56.9701 45.1725 57.1701 45.2 57.4526C45.1225 58.9151 44.605 60.5726 43.795 61.8476C43.505 62.1126 43.38 62.2201 43.2975 62.2326C43.295 62.2326 43.29 62.2326 43.2875 62.2326H43.2575C43.2575 62.2326 43.2375 62.2226 43.2325 62.2126C43.2275 62.2126 43.2225 62.2076 43.2175 62.2051C43.155 62.1601 43.08 62.0626 42.915 61.9526C42.635 61.6601 42.585 61.4551 42.6025 60.8701C42.6175 60.8151 43.1325 59.4926 43.5675 58.5651C43.86 57.6026 44.1325 56.5001 43.9325 55.4601C43.245 54.0851 41.8625 52.8501 40.53 52.1801C39.85 51.9801 39.2625 52.0476 39.1075 52.1851L39.1025 52.1901C38.7125 52.4326 38.7025 52.8601 38.7275 52.9351V52.9401L38.7325 52.9451C39.8575 53.6676 41.1425 54.2501 42.15 56.2026C42.4475 56.9476 42.5375 57.3951 42.2425 58.5476C42.1275 58.9776 41.985 59.3301 41.6675 59.6351L41.6725 59.6401C41.865 59.7226 42.36 59.3876 42.4375 59.5951C42.32 60.1451 41.915 60.8851 41.4575 61.2626C41.0575 61.5976 40.62 61.6376 40.2525 61.3276C39.84 61.1151 39.75 60.3551 39.95 59.6876C40.17 59.1851 40.7675 59.0976 41.1925 58.0876V58.0826C41.2025 58.0276 41.3375 57.3276 41.125 57.0501C40.95 56.5501 38.72 54.9301 38.56 54.8301C38.56 54.8301 38.5475 54.8226 38.545 54.8201L38.54 54.8151C38.54 54.8151 38.5375 54.8151 38.535 54.8101C38.535 54.8101 38.5325 54.8101 38.53 54.8051H38.52C38.52 54.8051 38.5175 54.8076 38.515 54.8101V54.8151C38.515 54.8151 38.5125 54.8226 38.51 54.8251C38.5025 54.8701 38.515 54.9676 38.51 55.1351C38.495 55.4376 38.6325 56.1276 38.6225 56.2451V56.2501L38.6175 56.2551V56.2601H38.6125C37.875 55.8226 37.63 54.4751 37.495 54.0751C35.6275 52.8851 33.5025 52.0001 32.2825 50.7951C31.645 49.8801 36.6675 51.8476 37.25 52.0851C37.255 52.0851 37.26 52.0751 37.265 52.0651C37.375 51.9526 37.385 51.5601 37.7175 51.2076C38.24 50.5551 39.35 50.1551 40.4275 50.4051C42.2375 51.0076 43.28 52.1451 44.3425 53.4076C44.495 53.6101 44.7325 53.7701 44.9525 53.6151C45.6825 52.1101 47.785 51.0376 50.505 50.9276C51.135 51.6326 50.8325 51.9801 50.5775 52.1276C50.5 52.1826 49.225 52.6351 49.0275 53.0901C48.9025 53.5151 49.205 53.8901 49.8125 54.1726C51.56 54.3676 53.275 54.5826 54.9375 55.0751C54.955 55.5901 55.2825 56.3576 55.5025 56.6926C55.655 56.9251 55.7525 56.9476 55.79 56.9801V56.9876H55.8025ZM51.205 60.2126C51.21 60.2326 51.215 60.2401 51.225 60.2576C51.2275 60.2626 51.23 60.2651 51.235 60.2776L51.24 60.2826C51.24 60.2826 51.255 60.3026 51.265 60.3101C51.3 60.3376 51.35 60.3551 51.4075 60.3651C51.53 60.3751 51.6875 60.3376 51.84 60.2576C52.0625 60.1401 52.2 59.9601 52.1825 59.8301C52.1825 59.8301 52.1825 59.8226 52.1825 59.8101C52.1825 59.8101 52.175 59.8026 52.1725 59.7901L52.1675 59.7701L52.1625 59.7626C52.1625 59.7626 52.16 59.7576 52.1575 59.7526C52.15 59.7426 52.14 59.7251 52.1275 59.7151C52.02 59.6226 51.775 59.6426 51.5425 59.7601C51.3225 59.8776 51.1875 60.0576 51.2025 60.1876C51.2025 60.1901 51.2075 60.1951 51.2075 60.2076L51.205 60.2126ZM48.9775 55.0676C48.38 54.8776 47.805 54.7301 47.8025 53.9351C47.88 53.5401 47.865 53.3351 47.7975 53.2401C47.7925 53.2326 47.785 53.2201 47.7775 53.2126L47.7725 53.2076L47.7675 53.2026C47.7675 53.2026 47.765 53.2001 47.7625 53.1976L47.7575 53.1926C47.7575 53.1926 47.75 53.1901 47.7475 53.1876C47.7375 53.1801 47.7275 53.1801 47.7175 53.1676C47.71 53.1676 47.6975 53.1676 47.6875 53.1626C47.545 53.1426 47.34 53.2676 47.185 53.3426C46.8175 53.5876 45.7825 54.1776 45.635 55.4451C45.615 55.7301 45.8475 55.9776 46.22 56.0026C46.2375 56.0026 46.255 56.0026 46.2725 56.0026H46.2825C46.9025 55.8476 47.8175 55.8301 48.6125 55.7551C49.26 55.7176 49.58 55.2501 48.9725 55.0551V55.0676H48.9775ZM35.9 56.8201C35.885 56.5926 36.585 56.3126 36.6275 55.7876C36.7275 55.5701 36.4775 54.8726 36.6875 54.8076C36.8775 54.7351 37.1425 55.2901 37.2425 55.8051C37.2975 56.0876 37.0025 57.0751 36.5025 57.2526C36.425 57.2726 36.345 57.2801 36.265 57.2726C36.0225 57.2526 35.8075 57.1376 35.905 56.8226L35.9 56.8201ZM47.1325 60.0376C47.775 59.7551 49.305 59.9201 48.9325 60.8326C48.9325 60.9151 48.9075 61.2001 48.8975 61.2776C48.8325 61.4176 48.71 61.4701 48.595 61.4526C48.48 61.4326 48.3675 61.3451 48.3275 61.2001C48.3025 61.1051 48.3775 60.9476 48.285 60.8976C48.2325 60.8426 48.0225 60.8776 48.0325 61.1401C48.0325 61.2226 47.965 61.3151 47.925 61.3701C47.885 61.3976 47.8625 61.4076 47.7875 61.4076C47.6975 61.4051 47.6975 61.3801 47.645 61.3126C47.625 61.2476 47.5975 61.1726 47.5975 61.0926C47.5875 61.0001 47.55 60.9676 47.475 60.9526C47.3925 60.9526 47.41 60.9426 47.3425 60.9901C47.305 61.0351 47.25 61.0451 47.25 61.1151C47.25 61.1801 47.235 61.3001 47.2125 61.3476C47.1775 61.3926 47.115 61.4026 47.0525 61.4201C46.7025 61.4201 46.6825 61.0526 46.7025 60.9126C46.6775 60.8851 46.6575 60.2226 47.135 60.0401V60.0326L47.1325 60.0376ZM52.5675 66.5526C53.6425 65.2201 54.6775 63.8801 55.6775 62.4951C55.8325 61.4651 55.95 60.4601 56.0225 59.4576C56.185 57.2601 56.2325 54.5251 56.085 52.2101C56.5325 52.1901 57.2475 52.8751 57.5 53.8726C57.6625 55.2526 57.4425 58.0676 57.4275 58.8826C57.4175 59.2201 57.395 59.6251 57.3675 60.0476C58.5825 58.2176 59.7175 56.3351 60.765 54.4026C61.17 54.5776 61.08 56.6751 60.8425 56.9676C59.955 58.7251 58.7325 60.4601 58.3425 61.1301C58.2025 61.3701 57.7225 62.0426 57.1525 62.8201C57.0475 63.9276 56.935 64.8651 56.86 65.1476C56.6775 66.3176 57.3825 65.0176 57.285 65.6951C57.055 66.8626 56.3575 67.6576 55.53 68.7276C55.2625 69.0751 55.27 69.1476 54.8575 68.6451C54.6125 68.1301 54.615 67.7026 54.6875 67.3026C54.55 67.4851 54.4075 67.6626 54.2525 67.8326L52.9025 68.8876C52.715 69.0101 52.36 69.2001 52.0875 69.1751C51.925 69.1551 51.795 69.0726 51.7475 68.8526C51.6825 68.3301 51.7175 68.0476 51.81 67.6126C51.8825 67.3226 52.34 66.8376 52.565 66.5551L52.5675 66.5526ZM54.845 66.6251C54.87 66.5126 54.9 66.4001 54.9175 66.2851C54.98 66.0376 55.0325 65.7901 55.0875 65.5426C54.85 65.8426 54.655 66.0851 54.57 66.1726C54.035 66.7601 54.5825 66.5576 54.8425 66.6251H54.845Z" fill="white"></path><g clip-path="url(#clip3_26_469)"><path d="M85.3561 14.6447C104.882 34.1709 104.882 65.8291 85.3561 85.3553C65.8298 104.882 34.1716 104.882 14.6454 85.3553C-4.88084 65.8291 -4.88084 34.1709 14.6454 14.6447C34.1716 -4.88155 65.8298 -4.88155 85.3561 14.6447Z" fill="#8D1B3D"></path><path d="M47.5275 83.335L27.165 77.7775L47.5275 72.2225L27.165 66.665L47.5275 61.11L27.165 55.5525L47.5275 49.9975L27.165 44.4425L47.5275 38.885L27.165 33.33L47.5275 27.7725L27.165 22.2175L47.5275 16.66L27.165 11.105L47.5275 5.54754L35.2625 2.20254C14.8425 8.50004 0 27.5175 0 50C0 72.4825 14.8425 91.5025 35.2625 97.79L47.5275 94.445L27.165 88.8875L47.5275 83.3325V83.335Z" fill="white"></path></g></g></g></g><defs><clipPath id="clip0_26_469"><rect width="100" height="100" fill="white" transform="matrix(1 0 0 -1 0 100)"></rect></clipPath><clipPath id="clip1_26_469"><rect width="100" height="100" fill="white" transform="matrix(1 0 0 -1 0 100)"></rect></clipPath><clipPath id="clip2_26_469"><rect width="100" height="100" fill="white" transform="matrix(1 0 0 -1 0 100)"></rect></clipPath><clipPath id="clip3_26_469"><rect width="100" height="100" fill="white" transform="matrix(1 0 0 -1 0 100)"></rect></clipPath></defs></svg>