<?xml version="1.0" encoding="UTF-8"?>
<svg xmlns="http://www.w3.org/2000/svg" width="100" height="100" viewBox="0 0 100 100" fill="none">
  <g clip-path="url(#clip0_26_615)">
    <g clip-path="url(#clip1_26_615)">
      <path d="M100 50C100 22.3862 77.6138 0 50 0C22.3862 0 0 22.3862 0 50C0 77.6138 22.3862 100 50 100C77.6138 100 100 77.6138 100 50ZM35.3249 75C21.5175 75 10.3249 63.8074 10.3249 50C10.3249 36.1926 21.5175 25 35.3249 25C44.2013 25 51.9967 29.6258 56.4333 36.5985C52.7735 32.558 47.4858 30.0197 41.605 30.0197C30.5591 30.0197 21.605 38.9737 21.605 50.0197C21.605 61.0656 30.5591 70.0197 41.605 70.0197C47.4398 70.0197 52.6915 67.5208 56.3479 63.535C51.8972 70.4333 44.1455 75 35.326 75H35.3249ZM77.6794 57.2823L69.1236 54.5022L63.8359 61.7801V52.7834L55.2801 50.0033L63.8359 47.2232V38.2265L69.1236 45.5044L77.6794 42.7243L72.3917 50.0022L77.6794 57.2801V57.2823Z" fill="#E30A17"></path>
      <path d="M41.605 70.0197C30.5591 70.0197 21.605 61.0656 21.605 50.0197C21.605 38.9737 30.5591 30.0197 41.605 30.0197C47.4858 30.0197 52.7735 32.558 56.4333 36.5985C51.9967 29.6258 44.2013 25 35.325 25C21.5175 25 10.325 36.1926 10.325 50C10.325 63.8074 21.5175 75 35.325 75C44.1444 75 51.8972 70.4333 56.3468 63.535C52.6904 67.5208 47.4398 70.0197 41.6039 70.0197H41.605Z" fill="white"></path>
      <path d="M69.1237 45.5054L63.8359 38.2275V47.2243L55.2791 50.0033L63.8359 52.7833V61.7801L69.1237 54.5022L77.6795 57.2822L72.3917 50.0033L77.6795 42.7254L69.1237 45.5054Z" fill="white"></path>
    </g>
  </g>
  <defs>
    <clipPath id="clip0_26_615">
      <rect width="100" height="100" fill="white"></rect>
    </clipPath>
    <clipPath id="clip1_26_615">
      <rect width="100" height="100" fill="white"></rect>
    </clipPath>
  </defs>
</svg>
