<svg xmlns="http://www.w3.org/2000/svg" width="100" height="100" viewBox="0 0 100 100" fill="none"><g clip-path="url(#clip0_26_615)"><path d="M85.3561 85.3553C104.882 65.8291 104.882 34.1709 85.3561 14.6447C65.8298 -4.88155 34.1716 -4.88155 14.6454 14.6447C-4.88084 34.1709 -4.88084 65.8291 14.6454 85.3553C34.1716 104.882 65.8298 104.882 85.3561 85.3553Z" fill="#00732F"></path><path d="M100 49.9999C100 77.6124 77.6125 99.9999 50 99.9999C42.97 99.9999 36.2775 98.5499 30.2075 95.9274C12.4375 88.2599 0 70.5824 0 49.9999C0 43.9924 1.06 38.2349 3 32.8999H96.9975C98.94 38.2349 100 43.9924 100 49.9999Z" fill="white"></path><path d="M96.825 67.5649C89.715 86.5149 71.4301 99.9974 50 99.9974C42.9701 99.9974 36.2775 98.5474 30.2076 95.9249C17.7751 90.5624 7.95505 80.2949 3.17505 67.5649H96.8275H96.825Z" fill="black"></path><path d="M30.2075 4.07251V95.9275C12.4375 88.26 0 70.5825 0 50C0 29.4175 12.4375 11.7375 30.2075 4.07251Z" fill="#FF0000"></path></g><defs><clipPath id="clip0_26_615"><rect width="100" height="100" fill="white"></rect></clipPath></defs></svg>