<?xml version="1.0" encoding="UTF-8"?>
<svg xmlns="http://www.w3.org/2000/svg" width="74" height="74" viewBox="0 0 74 74" fill="none">
  <circle cx="37" cy="37" r="37" fill="#2AA8FF"></circle>
  <g clip-path="url(#clip0_264_123)">
    <path d="M41.985 42.251H32.7747C31.4249 42.251 30.3297 41.17 30.3297 39.8376V25.6165C30.3297 24.2841 31.4249 23.2031 32.7747 23.2031H41.985C43.3348 23.2031 44.43 24.2841 44.43 25.6165V39.8376C44.43 41.17 43.3348 42.251 41.985 42.251ZM32.7747 24.4118C32.1039 24.4118 31.5542 24.9503 31.5542 25.6165V39.8376C31.5542 40.4998 32.0998 41.0423 32.7747 41.0423H41.985C42.6559 41.0423 43.2055 40.5038 43.2055 39.8376V25.6165C43.2055 24.9543 42.6599 24.4118 41.985 24.4118H32.7747Z" fill="white"></path>
    <path d="M37.5961 45.1192H37.1596C36.1412 45.1192 35.3127 44.3014 35.3127 43.2962C35.3127 42.9611 35.5876 42.6898 35.927 42.6898C36.2665 42.6898 36.5413 42.9611 36.5413 43.2962C36.5413 43.6312 36.8202 43.9065 37.1596 43.9065H37.5961C37.9396 43.9065 38.2144 43.6312 38.2144 43.2962C38.2144 42.9611 38.4893 42.6898 38.8287 42.6898C39.1682 42.6898 39.443 42.9611 39.443 43.2962C39.443 44.3014 38.6145 45.1192 37.5961 45.1192Z" fill="white"></path>
    <path d="M37.3778 24.4118C37.0384 24.4118 36.7635 24.1405 36.7635 23.8054V20.7059C36.7635 20.3708 37.0384 20.0995 37.3778 20.0995C37.7173 20.0995 37.9921 20.3708 37.9921 20.7059V23.8054C37.9921 24.1405 37.7173 24.4118 37.3778 24.4118Z" fill="white"></path>
    <path d="M29.6589 54.4736C25.0638 54.4736 21.3256 50.7837 21.3256 46.2481V32.7251C21.3256 32.39 21.6004 32.1187 21.9398 32.1187C22.2793 32.1187 22.5541 32.39 22.5541 32.7251V46.2481C22.5541 50.1136 25.7428 53.261 29.6589 53.261C33.5749 53.261 36.7636 50.1136 36.7636 46.2481V44.5129C36.7636 44.1778 37.0384 43.9065 37.3779 43.9065C37.7173 43.9065 37.9921 44.1778 37.9921 44.5129V46.2481C37.9921 50.7837 34.2539 54.4736 29.6589 54.4736Z" fill="white"></path>
    <path d="M32.4878 31.7358H30.944C30.6045 31.7358 30.3297 31.4645 30.3297 31.1294C30.3297 30.7943 30.6045 30.5231 30.944 30.5231H32.4878C32.8273 30.5231 33.1021 30.7943 33.1021 31.1294C33.1021 31.4645 32.8273 31.7358 32.4878 31.7358Z" fill="white"></path>
    <path d="M32.4878 38.1183H30.944C30.6045 38.1183 30.3297 37.8471 30.3297 37.512C30.3297 37.1769 30.6045 36.9056 30.944 36.9056H32.4878C32.8273 36.9056 33.1021 37.1769 33.1021 37.512C33.1021 37.8471 32.8273 38.1183 32.4878 38.1183Z" fill="white"></path>
    <path d="M32.4878 28.5445H30.944C30.6045 28.5445 30.3297 28.2732 30.3297 27.9381C30.3297 27.603 30.6045 27.3318 30.944 27.3318H32.4878C32.8273 27.3318 33.1021 27.603 33.1021 27.9381C33.1021 28.2732 32.8273 28.5445 32.4878 28.5445Z" fill="white"></path>
    <path d="M32.4878 34.927H30.944C30.6045 34.927 30.3297 34.6558 30.3297 34.3207C30.3297 33.9856 30.6045 33.7144 30.944 33.7144H32.4878C32.8273 33.7144 33.1021 33.9856 33.1021 34.3207C33.1021 34.6558 32.8273 34.927 32.4878 34.927Z" fill="white"></path>
    <path d="M53.3857 58C53.0463 58 52.7715 57.7287 52.7715 57.3937V18.815C52.7715 18.4839 52.4966 18.2127 52.1612 18.2127C51.8258 18.2127 51.551 18.4839 51.551 18.815V57.3976C51.551 57.7327 51.2762 58.004 50.9367 58.004C50.5972 58.004 50.3224 57.7327 50.3224 57.3976V18.815C50.3224 17.8138 51.1468 17 52.1612 17C53.1756 17 54 17.8138 54 18.815V57.3976C54 57.7327 53.7252 58.004 53.3857 58.004V58Z" fill="white"></path>
    <path d="M50.9366 21.3122H34.7065C34.367 21.3122 34.0922 21.041 34.0922 20.7059C34.0922 20.3708 34.367 20.0995 34.7065 20.0995H50.9366C51.2761 20.0995 51.5509 20.3708 51.5509 20.7059C51.5509 21.041 51.2761 21.3122 50.9366 21.3122Z" fill="white"></path>
    <path d="M23.3099 36.6383H20.6143C20.2748 36.6383 20 36.3671 20 36.032C20 35.6969 20.2748 35.4257 20.6143 35.4257H23.3099C23.6494 35.4257 23.9242 35.6969 23.9242 36.032C23.9242 36.3671 23.6494 36.6383 23.3099 36.6383Z" fill="white"></path>
  </g>
  <defs>
    <clipPath id="clip0_264_123">
      <rect width="34" height="41" fill="white" transform="translate(20 17)"></rect>
    </clipPath>
  </defs>
</svg>
