<svg xmlns="http://www.w3.org/2000/svg" width="74" height="74" viewBox="0 0 74 74" fill="none"><circle cx="37" cy="37" r="37" fill="#2AA8FF"></circle><g clip-path="url(#clip0_4_334)"><path d="M40.6399 60.7632C39.9292 60.7632 39.2285 60.6286 38.5625 60.3593C31.6991 57.5869 23.0167 52.2018 20.6212 42.2642C19.2247 36.4652 20.6212 31.853 20.7604 31.4192C20.8896 30.9305 22.3756 25.7698 28.2898 24.6678C28.6973 24.588 29.0949 24.8623 29.1694 25.2711C29.244 25.68 28.9756 26.0789 28.5681 26.1537C23.469 27.1061 22.2663 31.6236 22.2166 31.8131C22.2166 31.833 22.2066 31.848 22.2017 31.8679C22.1867 31.9128 20.7455 36.4254 22.1072 41.98C23.9312 49.4195 29.6565 55.1287 39.1291 58.9532C41.4102 59.8756 43.4827 58.4745 44.5164 57.557C48.3333 54.1664 50.6145 47.769 50.7735 40.0154C50.7735 40.0055 50.7188 36.8342 48.6911 35.2536C47.4735 34.3012 45.744 34.0918 43.5473 34.6303C43.1447 34.73 42.7322 34.4807 42.6378 34.0718C42.5384 33.668 42.7869 33.2541 43.1944 33.1594C45.8632 32.5062 48.0301 32.8153 49.6304 34.0669C52.2346 36.1062 52.2843 39.8708 52.2843 40.0304C52.0507 51.2444 47.9456 56.5348 45.5203 58.6939C43.9846 60.0601 42.2899 60.7682 40.6498 60.7682L40.6399 60.7632Z" fill="white"></path><path d="M31.8333 31.7981C31.8333 31.7981 31.7885 31.7981 31.7637 31.7981C31.3462 31.7632 31.0431 31.3942 31.0779 30.9754C31.8482 22.3741 37.6977 19.7065 37.9462 19.5968C38.3289 19.4272 38.7712 19.6018 38.9402 19.9857C39.1092 20.3696 38.9352 20.8134 38.5526 20.983C38.3339 21.0827 33.2696 23.4412 32.5837 31.11C32.5489 31.5039 32.2209 31.7981 31.8333 31.7981Z" fill="white"></path><path d="M31.7935 21.8905C31.719 21.8905 31.6494 21.8805 31.5748 21.8606C31.2965 21.7758 31.0928 21.5414 31.048 21.2522C30.5113 17.8317 28.2003 14.2067 28.1754 14.1718C27.9518 13.8227 28.0512 13.354 28.3991 13.1247C28.747 12.8953 29.2142 13 29.4428 13.3491C29.5322 13.4887 31.381 16.3807 32.2358 19.6018C33.2398 18.6345 34.845 17.2283 36.3757 16.5253C36.7535 16.3508 37.2007 16.5203 37.3747 16.8993C37.5486 17.2782 37.3797 17.727 37.002 17.9015C34.8649 18.8838 32.375 21.6162 32.3501 21.6412C32.206 21.8007 32.0023 21.8905 31.7935 21.8905Z" fill="white"></path><path d="M28.2103 31.8131C28.1357 31.8131 28.0562 31.8031 27.9767 31.7782C27.5791 31.6485 27.3604 31.2247 27.4896 30.8258C27.5194 30.731 29.731 23.4661 25.2035 15.9419C24.9898 15.5829 25.1041 15.1191 25.4569 14.9047C25.8148 14.6903 26.277 14.805 26.4907 15.159C31.3959 23.3065 29.0253 30.9654 28.9259 31.2895C28.8215 31.6086 28.5283 31.8131 28.2103 31.8131Z" fill="white"></path><path d="M33.5827 36.3406C33.3889 36.3406 33.2 36.2658 33.0509 36.1212C32.7577 35.827 32.7527 35.3483 33.0459 35.0541C33.1901 34.9045 36.2714 31.6286 32.6334 27.0911C32.37 26.767 32.4247 26.2883 32.7477 26.029C33.0708 25.7698 33.5479 25.8196 33.8063 26.1437C38.309 31.7632 34.1542 36.0763 34.1145 36.1162C33.9654 36.2658 33.7715 36.3406 33.5777 36.3406H33.5827Z" fill="white"></path><path d="M36.3509 38.4647C36.1968 38.4647 36.0378 38.4148 35.9036 38.3201C35.5706 38.0708 35.4961 37.6021 35.7396 37.263C35.7794 37.2132 39.5266 31.9976 37.3946 27.9637C37.2753 27.7393 37.2753 27.4701 37.3946 27.2457C37.5138 27.0213 37.7375 26.8767 37.991 26.8518C38.3687 26.8169 47.2647 26.0839 51.6233 30.5017C51.9166 30.8009 51.9116 31.2795 51.6184 31.5737C51.3202 31.8679 50.8431 31.8679 50.5498 31.5687C47.5083 28.4823 41.5842 28.2679 39.1738 28.3127C40.7194 32.93 37.1163 37.9262 36.9473 38.1556C36.7982 38.355 36.5696 38.4647 36.341 38.4647H36.3509Z" fill="white"></path><path d="M52.2446 28.4823C52.1154 28.4823 51.9862 28.4474 51.8669 28.3825C47.5182 25.8545 42.1955 24.6528 37.6331 25.1664C37.2157 25.2113 36.8479 24.9121 36.7982 24.4983C36.7535 24.0844 37.0517 23.7104 37.4642 23.6606C42.3396 23.1171 48.0053 24.3886 52.6223 27.0711C52.9851 27.2806 53.1044 27.7443 52.8956 28.1033C52.7565 28.3476 52.503 28.4823 52.2446 28.4823Z" fill="white"></path><path d="M48.373 34.6203C48.3382 34.6203 48.3084 34.6203 48.2736 34.6153C47.8611 34.5605 47.5729 34.1815 47.6226 33.7677C47.6226 33.7427 47.7021 33.0546 47.4437 32.3965C47.2946 32.0075 47.4834 31.5687 47.8711 31.4142C48.2587 31.2646 48.6961 31.4541 48.8501 31.843C49.2477 32.8602 49.1334 33.8475 49.1185 33.9572C49.0688 34.3361 48.7458 34.6153 48.373 34.6153V34.6203Z" fill="white"></path><path d="M30.3274 55.6623C30.0938 55.6623 29.8602 55.5526 29.7111 55.3431C28.737 53.9719 27.753 50.696 31.0083 48.1031C31.3363 47.8438 31.8084 47.8987 32.0669 48.2278C32.3253 48.5569 32.2706 49.0306 31.9426 49.2898C28.9855 51.6434 30.8542 54.3509 30.9337 54.4656C31.1772 54.8046 31.0977 55.2783 30.7598 55.5226C30.6256 55.6174 30.4715 55.6623 30.3224 55.6623H30.3274Z" fill="white"></path></g><defs><clipPath id="clip0_4_334"><rect width="33" height="47.7632" fill="white" transform="translate(20 13)"></rect></clipPath></defs></svg>