<svg xmlns="http://www.w3.org/2000/svg" width="74" height="74" viewBox="0 0 74 74" fill="none"><circle cx="37" cy="37" r="37" fill="#2AA8FF"></circle><g clip-path="url(#clip0_4_338)"><path d="M59.3364 50.5557H14.6636C13.1939 50.5557 12 49.3619 12 47.8921V18.6636C12 17.1939 13.1939 16 14.6636 16H59.3316C60.8014 16 61.9952 17.1939 61.9952 18.6636V47.8921C61.9952 49.3619 60.8014 50.5557 59.3316 50.5557H59.3364ZM14.6636 17.446C13.993 17.446 13.4412 17.993 13.4412 18.6684V47.8969C13.4412 48.5675 13.9882 49.1193 14.6636 49.1193H59.3316C60.0023 49.1193 60.5493 48.5723 60.5493 47.8969V18.6636C60.5493 17.993 60.0023 17.4412 59.3316 17.4412H14.6636V17.446Z" fill="white"></path><path d="M40.9859 57.4812H33.0093C32.6098 57.4812 32.2863 57.1577 32.2863 56.7582V49.8375C32.2863 49.438 32.6098 49.1145 33.0093 49.1145H40.9859C41.3854 49.1145 41.7089 49.438 41.7089 49.8375V56.7582C41.7089 57.1577 41.3854 57.4812 40.9859 57.4812ZM33.7323 56.0352H40.2677V50.5557H33.7323V56.0352Z" fill="white"></path><path d="M46.3179 57.4812H27.6821C27.2825 57.4812 26.9591 57.1577 26.9591 56.7582C26.9591 56.3586 27.2825 56.0352 27.6821 56.0352H46.3179C46.7175 56.0352 47.0409 56.3586 47.0409 56.7582C47.0409 57.1577 46.7175 57.4812 46.3179 57.4812Z" fill="white"></path><path d="M35.8347 40.7051C35.8347 40.7051 35.8014 40.7051 35.7871 40.7051C35.516 40.6861 35.2782 40.5148 35.1735 40.2675L30.2696 28.6332L25.8841 35.4064C25.751 35.6109 25.5226 35.7346 25.2801 35.7346H18.9112C18.5116 35.7346 18.1882 35.4111 18.1882 35.0116C18.1882 34.612 18.5116 34.2886 18.9112 34.2886H24.8853L29.7987 26.6973C29.9462 26.4737 30.203 26.3453 30.4694 26.3691C30.7357 26.3929 30.9688 26.5593 31.0734 26.8067L35.9536 38.3792L40.5721 30.6023C40.7053 30.374 40.9479 30.2409 41.219 30.2504C41.4806 30.2599 41.7184 30.4121 41.8373 30.6499L44.3107 35.5871L45.9184 33.1423C46.0516 32.9378 46.2799 32.8141 46.5225 32.8141H55.0984C55.4979 32.8141 55.8214 33.1375 55.8214 33.5371C55.8214 33.9366 55.4979 34.2601 55.0984 34.2601H46.9125L44.8339 37.4279C44.6912 37.6419 44.4486 37.7703 44.187 37.7513C43.9302 37.737 43.6971 37.5848 43.583 37.3518L41.1381 32.4764L36.4625 40.3483C36.3341 40.5671 36.0963 40.7003 35.8442 40.7003L35.8347 40.7051Z" fill="white"></path></g><defs><clipPath id="clip0_4_338"><rect width="50" height="41.4812" fill="white" transform="translate(12 16)"></rect></clipPath></defs></svg>