<svg xmlns="http://www.w3.org/2000/svg" width="74" height="74" viewBox="0 0 74 74" fill="none"><circle cx="37" cy="37" r="37" fill="#2AA8FF"></circle><g clip-path="url(#clip0_4_333)"><path d="M27.1109 59.9612C27.0796 59.9612 27.0535 59.9612 27.0222 59.9612C26.7405 59.9299 26.4953 59.7473 26.3857 59.4864L24.7319 55.6362L20.7356 55.3284C20.4487 55.3075 20.1982 55.1301 20.0782 54.8692C19.9582 54.6084 19.9896 54.3006 20.1565 54.071L44.5153 20.8379C44.7761 20.4832 45.2717 20.4101 45.6213 20.6658C45.976 20.9266 46.0491 21.4223 45.7934 21.7718L22.2747 53.8571L25.3267 54.0919C25.6188 54.1128 25.8797 54.3006 25.9945 54.5667L27.2935 57.5822L47.9377 29.4253C49.0489 27.9072 49.5028 26.0499 49.2159 24.1873C48.9289 22.3248 47.9377 20.6919 46.4195 19.5806C46.0647 19.3198 45.9917 18.8241 46.2473 18.4746C46.5082 18.1198 47.0038 18.0468 47.3534 18.3024C51.188 21.1145 52.0227 26.5246 49.2107 30.3592L27.7474 59.6377C27.5961 59.8412 27.3613 59.9612 27.1109 59.9612Z" fill="white"></path><path d="M35.0723 30.4636C34.8323 30.4636 34.5923 30.354 34.4358 30.1453L28.3474 21.9701C28.0865 21.6205 28.1596 21.1249 28.5091 20.8641C28.8587 20.6032 29.3543 20.6762 29.6152 21.0258L35.7035 29.201C35.9644 29.5506 35.8914 30.0462 35.5418 30.3071C35.401 30.4114 35.234 30.4636 35.0671 30.4636H35.0723Z" fill="white"></path><path d="M30.3769 37.3084C30.1369 37.3084 29.8969 37.1989 29.7404 36.9902L24.7893 30.3644C23.4224 28.5019 22.8642 26.222 23.219 23.9474C23.5685 21.6727 24.7841 19.6641 26.6466 18.3025C27.0014 18.0416 27.497 18.1199 27.7527 18.4746C28.0135 18.8294 27.9353 19.325 27.5805 19.5806C26.0623 20.6919 25.0711 22.3301 24.7841 24.1874C24.4972 26.0447 24.9511 27.9072 26.0623 29.4254L31.0081 36.0407C31.269 36.3902 31.196 36.8859 30.8464 37.1467C30.7055 37.2511 30.5386 37.3032 30.3717 37.3032L30.3769 37.3084Z" fill="white"></path><path d="M46.8891 59.9612C46.6386 59.9612 46.3987 59.8412 46.2474 59.6325L38.3382 48.6974C38.0826 48.3427 38.1608 47.847 38.5156 47.5914C38.8703 47.3357 39.366 47.414 39.6216 47.7688L46.6386 57.4674L47.6873 54.4467C47.7968 54.1389 48.0786 53.925 48.4073 53.9145L51.6993 53.7945L43.0962 41.9308C42.8406 41.576 42.9188 41.0804 43.2736 40.8248C43.6284 40.5691 44.124 40.6474 44.3796 41.0022L53.8539 54.0711C54.0261 54.3058 54.0522 54.6189 53.927 54.8849C53.7965 55.1458 53.5357 55.318 53.2435 55.3284L49.0124 55.4797L47.6456 59.429C47.5464 59.7056 47.3064 59.909 47.0143 59.956C46.9778 59.9612 46.936 59.9664 46.8995 59.9664L46.8891 59.9612Z" fill="white"></path><path d="M46.889 19.7319C46.7534 19.7319 46.6178 19.6954 46.4978 19.6276L44.8022 18.652C39.992 15.8921 34.0132 15.8921 29.203 18.652L27.5074 19.6276C27.1266 19.8467 26.6466 19.7163 26.4275 19.3354C26.2084 18.9546 26.3388 18.4746 26.7197 18.2555L28.4152 17.2799C33.7106 14.2383 40.2946 14.2383 45.59 17.2799L47.2856 18.2555C47.6664 18.4746 47.7968 18.9546 47.5777 19.3354C47.4316 19.5911 47.1656 19.7319 46.889 19.7319Z" fill="white"></path><path d="M31.9576 25.549C31.6811 25.549 31.4151 25.4082 31.269 25.1525C31.0499 24.7717 31.1803 24.2917 31.5611 24.0726C34.9158 22.1475 39.0842 22.1475 42.4388 24.0726C42.8197 24.2917 42.9501 24.7717 42.731 25.1525C42.5119 25.5334 42.0319 25.6638 41.6511 25.4447C38.7816 23.7961 35.2183 23.7961 32.3489 25.4447C32.2237 25.5177 32.0881 25.549 31.9576 25.549Z" fill="white"></path></g><defs><clipPath id="clip0_4_333"><rect width="34" height="44.9612" fill="white" transform="translate(20 15)"></rect></clipPath></defs></svg>