<svg xmlns="http://www.w3.org/2000/svg" width="71" height="74" viewBox="0 0 71 74" fill="none"><circle cx="37" cy="37" r="37" fill="#2AA8FF"></circle><g clip-path="url(#clip0_4_339)"><path d="M49.7549 59.1192H24.0424C23.6273 59.1192 23.2913 58.7831 23.2913 58.368C23.2913 57.9529 23.6273 57.6169 24.0424 57.6169H49.7599C50.175 57.6169 50.511 57.9529 50.511 58.368C50.511 58.7831 50.175 59.1192 49.7599 59.1192H49.7549Z" fill="white"></path><path d="M29.1177 46.7942H20.7512C20.336 46.7942 20 46.4581 20 46.043C20 45.6279 20.336 45.2918 20.7512 45.2918H29.1177C29.5328 45.2918 29.8689 45.6279 29.8689 46.043C29.8689 46.4581 29.5328 46.7942 29.1177 46.7942Z" fill="white"></path><path d="M40.9238 30.7825C40.7163 30.7825 40.5137 30.6985 40.3654 30.5305L35.2951 24.8573C35.1616 24.709 35.0924 24.5163 35.1073 24.3137C35.1171 24.116 35.2061 23.9282 35.3544 23.7948L44.5314 15.5962C44.8378 15.3195 45.3122 15.3491 45.5889 15.6555L50.6593 21.3288C50.7927 21.477 50.8619 21.6698 50.8471 21.8724C50.8372 22.07 50.7483 22.2578 50.6 22.3913L41.418 30.5948C41.2747 30.7232 41.0968 30.7875 40.9189 30.7875L40.9238 30.7825ZM36.911 24.4174L40.9831 28.9738L49.0433 21.7686L44.9712 17.2122L36.911 24.4174Z" fill="white"></path><path d="M34.9689 33.4314C34.9689 33.4314 34.9392 33.4314 34.9244 33.4314C34.7267 33.4215 34.5389 33.3326 34.4055 33.1843L31.9889 30.4811C31.7122 30.1747 31.7418 29.7003 32.0482 29.4236L36.6738 25.2922C36.9852 25.0154 37.4546 25.0451 37.7314 25.3515L40.148 28.0547C40.2814 28.2029 40.3506 28.3957 40.3357 28.5983C40.3259 28.7959 40.2369 28.9837 40.0887 29.1172L35.4631 33.2486C35.3247 33.3721 35.1468 33.4413 34.9639 33.4413L34.9689 33.4314ZM33.6148 30.0364L35.0331 31.6227L38.5418 28.4895L37.1235 26.9032L33.6148 30.0364Z" fill="white"></path><path d="M48.9346 21.2695C48.6825 21.2695 48.4305 21.141 48.2921 20.9038C48.0796 20.548 48.1933 20.0884 48.5491 19.8759L50.6988 18.586L48.3218 15.9273L46.7997 17.9189C46.5476 18.25 46.0782 18.3093 45.7471 18.0573C45.416 17.8052 45.3567 17.3358 45.6087 17.0047L47.6843 14.2965C47.8177 14.1186 48.0302 14.0099 48.2526 14.0049C48.4799 13.9901 48.6924 14.089 48.8407 14.257L52.4285 18.2698C52.5767 18.4378 52.6459 18.6602 52.6113 18.8826C52.5767 19.1049 52.4482 19.2977 52.2555 19.4113L49.3299 21.1706C49.2113 21.2448 49.0779 21.2794 48.9444 21.2794L48.9346 21.2695Z" fill="white"></path><path d="M39.6241 52.0523C39.2782 52.0523 38.9669 51.8102 38.8927 51.4593C38.8038 51.0541 39.0657 50.6538 39.466 50.5698C45.0058 49.3788 49.0285 44.3875 49.0285 38.7093C49.0285 34.4346 46.8442 30.5552 43.1872 28.3363C42.8314 28.1189 42.7227 27.6593 42.9352 27.3035C43.1526 26.9477 43.6122 26.839 43.968 27.0515C48.0747 29.5471 50.5308 33.9058 50.5308 38.7093C50.5308 45.0893 46.009 50.6933 39.7823 52.0375C39.7279 52.0474 39.6736 52.0523 39.6241 52.0523Z" fill="white"></path><path d="M33.9064 53.7079C33.857 53.7079 33.8125 53.7079 33.7631 53.693C29.5625 52.8776 25.9599 50.2486 23.8843 46.4878C23.6866 46.127 23.8151 45.6675 24.1808 45.4698C24.5416 45.2721 25.0012 45.4006 25.1988 45.7663C27.0619 49.1416 30.284 51.4939 34.0497 52.2253C34.4549 52.3044 34.7218 52.6997 34.6427 53.105C34.5735 53.4608 34.2573 53.7128 33.9064 53.7128V53.7079Z" fill="white"></path><path d="M39.891 55.3041C39.5401 55.3041 39.2238 55.052 39.1546 54.6962C39.0756 54.291 39.3424 53.8956 39.7526 53.8166C47.1407 52.4081 52.5026 46.0134 52.5026 38.6203C52.5026 34.4939 50.8668 30.6145 47.8968 27.6889C47.6003 27.3974 47.5953 26.9229 47.8869 26.6264C48.1785 26.3299 48.6529 26.3299 48.9494 26.6166C52.2061 29.8238 54 34.0837 54 38.6154C54 46.7299 48.1241 53.7424 40.0293 55.2843C39.9799 55.2942 39.9354 55.2991 39.886 55.2991L39.891 55.3041Z" fill="white"></path><path d="M39.6242 56.3814C39.209 56.3814 38.873 56.0453 38.873 55.6302V52.5959C38.873 51.5087 37.9884 50.6241 36.9012 50.6241C35.814 50.6241 34.9294 51.5087 34.9294 52.5959V55.6302C34.9294 56.0453 34.5933 56.3814 34.1782 56.3814C33.7631 56.3814 33.4271 56.0453 33.4271 55.6302V52.5959C33.4271 50.6785 34.9837 49.1218 36.9012 49.1218C38.8186 49.1218 40.3753 50.6785 40.3753 52.5959V55.6302C40.3753 56.0453 40.0393 56.3814 39.6242 56.3814Z" fill="white"></path></g><defs><clipPath id="clip0_4_339"><rect width="34" height="45.1192" fill="white" transform="translate(20 14)"></rect></clipPath></defs></svg>