<?xml version="1.0" encoding="UTF-8"?>
<svg xmlns="http://www.w3.org/2000/svg" width="74" height="74" viewBox="0 0 74 74" fill="none">
  <circle cx="37" cy="37" r="37" fill="#2AA8FF"></circle>
  <g clip-path="url(#clip0_264_74)">
    <path d="M46.945 53.2292C46.8032 53.2292 46.6574 53.1781 46.5471 53.0759C44.0928 50.8737 42.7455 47.9401 42.7455 44.8177C42.7455 41.6953 44.0967 38.7617 46.5471 36.5596C46.7756 36.3551 47.1184 36.3551 47.3469 36.5596C49.8012 38.7617 51.1485 41.6953 51.1485 44.8177C51.1485 47.9401 49.7972 50.8737 47.3469 53.0759C47.2326 53.1781 47.0908 53.2292 46.949 53.2292H46.945ZM46.945 37.8219C45.0028 39.7448 43.9392 42.2105 43.9392 44.8177C43.9392 47.4249 45.0028 49.8906 46.945 51.8135C48.8872 49.8906 49.9509 47.4249 49.9509 44.8177C49.9509 42.2105 48.8872 39.7448 46.945 37.8219Z" fill="white"></path>
    <path d="M50.8294 54C49.4742 54 48.0678 53.7286 46.7166 53.182C46.4093 53.0562 46.2635 52.7101 46.3856 52.4034C46.5117 52.0967 46.8584 51.9512 47.1657 52.0731C49.75 53.1191 52.5392 53.0405 54.6232 51.8607C56.2384 50.9445 57.3021 49.4541 57.7197 47.535C57.5779 47.4918 57.4439 47.4525 57.31 47.4249C56.9869 47.3541 56.7821 47.0356 56.853 46.7132C56.9239 46.3907 57.243 46.1862 57.566 46.257C57.9048 46.3317 58.2515 46.4418 58.6258 46.5912C58.8818 46.6935 59.0355 46.9609 58.9921 47.2362C58.5982 49.7647 57.2942 51.7231 55.2181 52.8989C53.9259 53.6303 52.4131 53.9961 50.8334 53.9961L50.8294 54Z" fill="white"></path>
    <path d="M47.0514 53.2253L46.8347 52.0495C49.9982 51.4714 52.5431 49.8906 53.8235 47.712C54.8359 45.9896 55.0329 43.9369 54.4026 41.7504C53.9653 41.8605 53.4531 42.0139 53.004 42.1712C52.6928 42.2813 52.3501 42.1201 52.2398 41.8094C52.1294 41.4987 52.291 41.1566 52.6022 41.0465C53.2956 40.7988 54.1386 40.5667 54.698 40.4645C54.9896 40.4094 55.2771 40.5785 55.3717 40.8577C56.3014 43.5711 56.1241 46.1508 54.8517 48.3137C53.398 50.7911 50.5536 52.5804 47.0475 53.2214L47.0514 53.2253Z" fill="white"></path>
    <path d="M43.0567 54C41.477 54 39.9642 53.6303 38.672 52.9028C36.5919 51.727 35.288 49.7687 34.894 47.2401C34.8507 46.9648 35.0043 46.7014 35.2604 46.5952C35.6346 46.4418 35.9813 46.3356 36.3201 46.2609C36.6392 46.1901 36.9623 46.3946 37.0332 46.7171C37.1041 47.0396 36.8992 47.3581 36.5762 47.4289C36.4422 47.4564 36.3044 47.4957 36.1625 47.539C36.5801 49.4619 37.6399 50.9523 39.259 51.8647C41.343 53.0444 44.1283 53.1231 46.7165 52.077C47.0199 51.9512 47.3705 52.1006 47.4966 52.4074C47.6226 52.7141 47.4729 53.0601 47.1656 53.186C45.8144 53.7326 44.4119 54.0039 43.0528 54.0039L43.0567 54Z" fill="white"></path>
    <path d="M46.945 53.2332C46.9096 53.2332 46.8741 53.2332 46.8347 53.2214C43.3285 52.5804 40.4842 50.7911 39.0305 48.3137C37.762 46.1508 37.5807 43.5711 38.5105 40.8577C38.605 40.5785 38.8926 40.4094 39.1841 40.4645C39.909 40.5982 40.6418 40.8145 41.3548 41.1094C41.6582 41.2353 41.8039 41.5852 41.6779 41.888C41.5518 42.1908 41.2012 42.3363 40.8978 42.2105C40.429 42.0178 39.9563 41.8605 39.4835 41.7465C38.8532 43.9329 39.0502 45.9857 40.0626 47.7081C41.3391 49.8867 43.8879 51.4675 47.0514 52.0456C47.3744 52.1046 47.5911 52.4152 47.532 52.7416C47.4808 53.0287 47.2287 53.2292 46.945 53.2292V53.2332Z" fill="white"></path>
    <path d="M36.3083 40.1971C36.2768 40.1971 36.2452 40.1971 36.2098 40.1892L34.9058 39.9769C34.5788 39.9218 34.3582 39.6151 34.4134 39.2926C34.4685 38.9662 34.7719 38.746 35.0988 38.8011L36.4028 39.0134C36.7298 39.0685 36.9504 39.3752 36.8953 39.6977C36.848 39.9887 36.5919 40.1971 36.3043 40.1971H36.3083Z" fill="white"></path>
    <path d="M31.1081 43.2251C28.772 43.2251 26.6367 42.0414 25.3997 40.0634C25.2264 39.7842 25.3091 39.4146 25.5928 39.2415C25.8725 39.0685 26.2428 39.1511 26.4161 39.4303C27.4325 41.0583 29.1895 42.0296 31.112 42.0296C33.0345 42.0296 34.7876 41.0583 35.808 39.4303C35.9813 39.1511 36.3516 39.0646 36.6313 39.2415C36.911 39.4146 36.9977 39.7842 36.8244 40.0634C35.5873 42.0454 33.4521 43.2251 31.116 43.2251H31.1081Z" fill="white"></path>
    <path d="M16.5988 54C16.5791 54 16.5594 54 16.5397 54C16.2127 53.9686 15.9724 53.6736 16.0039 53.3472L16.8549 44.9278C17.1267 42.2616 19.1634 40.0949 21.8147 39.6623L27.1134 38.7971C27.4404 38.7421 27.7477 38.9662 27.7989 39.2887C27.8501 39.6151 27.6295 39.9218 27.3065 39.9729L22.0078 40.8381C19.8923 41.1841 18.2613 42.9144 18.0446 45.0458L17.1937 53.4652C17.1622 53.7719 16.9022 54.0039 16.5988 54.0039V54Z" fill="white"></path>
    <path d="M27.208 39.9848C27.1056 39.9848 27.0031 39.9572 26.9086 39.9061C26.6249 39.7409 26.5265 39.3752 26.6919 39.0921L27.2513 38.1247C27.4168 37.8416 27.7832 37.7433 28.0668 37.9084C28.3505 38.0736 28.4489 38.4393 28.2835 38.7224L27.7241 39.6898C27.6138 39.8825 27.4129 39.9887 27.2041 39.9887L27.208 39.9848Z" fill="white"></path>
    <path d="M35.0043 39.9847C34.7995 39.9847 34.5985 39.8786 34.4843 39.6859L33.9249 38.7185C33.7594 38.4314 33.8579 38.0696 34.1416 37.9045C34.4291 37.7393 34.7916 37.8376 34.957 38.1208L35.5165 39.0881C35.6819 39.3752 35.5834 39.737 35.2998 39.9022C35.2052 39.9572 35.1028 39.9808 35.0004 39.9808L35.0043 39.9847Z" fill="white"></path>
    <path d="M31.1081 37.5977C27.9762 37.5977 26.0497 34.727 25.313 32.171C24.6788 31.6558 24.4345 30.3974 24.34 29.6227C24.34 29.6109 24.34 29.5991 24.34 29.5873C24.2809 28.6711 24.5567 28.0261 25.1515 27.6644C25.2421 27.3616 25.4234 26.8503 25.7228 26.3352C26.357 25.2341 26.487 23.9128 26.0813 22.7527C25.9906 22.5561 25.9552 22.4263 25.9473 22.4027C25.8685 22.0999 26.0379 21.7893 26.3334 21.687C26.6289 21.5848 26.9519 21.7303 27.074 22.0213L27.0977 22.0724C27.1292 22.1511 27.1607 22.2336 27.1922 22.3162C27.464 22.8668 28.4686 24.2471 31.6084 24.1055C33.8343 24.0072 35.4258 24.4909 36.3556 25.5408C37.0489 26.3234 37.1789 27.22 37.1829 27.743C37.7029 28.1127 37.9393 28.734 37.8841 29.5913C37.7974 30.3778 37.565 31.6243 36.9544 32.1474C36.2531 34.8254 34.374 37.6017 31.112 37.6017L31.1081 37.5977ZM26.0458 31.235C26.2231 31.3058 26.357 31.4552 26.4043 31.6401C26.9834 33.8383 28.5592 36.4101 31.1081 36.4101C34.4528 36.4101 35.5795 32.7608 35.8434 31.644C35.8868 31.4592 36.0168 31.3058 36.1901 31.2311C36.3674 31.0581 36.5998 30.244 36.6865 29.4929C36.7259 28.8559 36.5525 28.7301 36.3359 28.6435C36.0759 28.5374 35.9222 28.266 35.9695 27.9908C35.9734 27.9593 36.1034 27.0588 35.4416 26.3273C34.7679 25.5802 33.46 25.2262 31.6557 25.3088C29.6662 25.3953 28.3544 24.947 27.4956 24.3768C27.4601 25.2656 27.208 26.1504 26.751 26.9408C26.3846 27.5739 26.2349 28.2149 26.2349 28.2228C26.1916 28.4115 26.0576 28.5728 25.8725 28.6435C25.6597 28.7301 25.4864 28.852 25.5218 29.5047C25.6164 30.248 25.8646 31.0738 26.0419 31.239L26.0458 31.235Z" fill="white"></path>
    <path d="M21.3736 38.6752C21.0663 38.6752 20.8063 38.4432 20.7787 38.1325C20.7708 38.0264 20.5541 35.5332 20.889 32.399C21.346 28.1362 22.5594 24.9038 24.4976 22.792C26.1956 20.9399 28.4175 20 31.1003 20C33.9328 20 36.2611 20.9792 38.026 22.91C39.9721 25.0414 41.1934 28.2621 41.6464 32.4737C41.9813 35.5765 41.7606 38.0303 41.7488 38.1325C41.7173 38.4589 41.4258 38.7028 41.0988 38.6713C40.7718 38.6398 40.5276 38.3488 40.5591 38.0224C40.567 37.9281 41.3943 28.3683 37.1396 23.7122C35.611 22.0409 33.5782 21.1915 31.1003 21.1915C28.7681 21.1915 26.8456 21.9977 25.384 23.5903C21.153 28.2031 21.9606 37.9281 21.9684 38.0224C21.996 38.3488 21.7557 38.6398 21.4248 38.6713C21.4051 38.6713 21.3893 38.6713 21.3696 38.6713L21.3736 38.6752Z" fill="white"></path>
  </g>
  <defs>
    <clipPath id="clip0_264_74">
      <rect width="43" height="34" fill="white" transform="translate(16 20)"></rect>
    </clipPath>
  </defs>
</svg>
