<svg xmlns="http://www.w3.org/2000/svg" width="74" height="74" viewBox="0 0 74 74" fill="none"><circle cx="37" cy="37" r="37" fill="#2AA8FF"></circle><g clip-path="url(#clip0_4_336)"><path d="M19.7459 41.8558C19.6481 41.8558 19.555 41.8371 19.4665 41.7952L14.4232 39.6112C14.0646 39.4575 13.9016 39.0384 14.0553 38.6798L21.1057 22.4229C21.1802 22.2506 21.3199 22.1155 21.4922 22.0457C21.6645 21.9758 21.8601 21.9805 22.0324 22.055L27.0758 24.239C27.4343 24.3927 27.5973 24.8118 27.4437 25.1704L20.3979 41.4273C20.3234 41.5996 20.1837 41.7347 20.0114 41.8045C19.9276 41.8371 19.8391 41.8558 19.7506 41.8558H19.7459ZM15.634 38.596L19.3781 40.2212L25.865 25.2589L22.1209 23.6336L15.634 38.596Z" fill="white"></path><path d="M31.6074 46.9605C31.5143 46.9605 31.4165 46.9419 31.328 46.9L28.4967 45.6706C28.4967 45.6706 28.4734 45.6613 28.4594 45.6519C28.357 45.6007 25.9028 44.3527 24.8364 42.788C23.9376 41.4748 22.0982 40.5574 22.0796 40.5481C21.7303 40.3758 21.586 39.952 21.7583 39.6027C21.9306 39.2535 22.3543 39.1091 22.7036 39.2814C22.7921 39.3233 24.8923 40.3665 26.0053 41.9917C26.8295 43.1931 28.8785 44.2782 29.0834 44.3806L31.8961 45.6007C32.2547 45.7544 32.4177 46.1735 32.264 46.5321C32.1476 46.7975 31.8868 46.9559 31.6167 46.9559L31.6074 46.9605Z" fill="white"></path><path d="M47.2916 34.8714C46.9516 34.8714 46.6117 34.8016 46.2857 34.6619L40.9024 32.3288C40.5438 32.1751 40.3808 31.756 40.5345 31.3975C40.6882 31.0389 41.1073 30.8759 41.4659 31.0296L46.8492 33.3626C47.2543 33.5396 47.7246 33.4604 48.0506 33.1624C48.3207 32.9156 48.4511 32.5663 48.4045 32.1984C48.358 31.8352 48.1484 31.5278 47.8271 31.3509L40.8605 27.5835C38.9 26.5218 36.6228 26.2237 34.4574 26.7453L27.8773 28.324C27.5001 28.4171 27.1182 28.1796 27.0251 27.8024C26.932 27.4205 27.1695 27.0433 27.5467 26.9502L34.1268 25.3715C36.6321 24.7708 39.2632 25.1154 41.5311 26.3402L48.4977 30.1075C49.2148 30.494 49.7084 31.2112 49.8062 32.0215C49.9087 32.8457 49.6153 33.6374 49.0053 34.2009C48.5303 34.6386 47.9156 34.8668 47.2916 34.8668V34.8714Z" fill="white"></path><path d="M57.1407 43.7939C56.7635 43.7939 56.377 43.7194 56.0091 43.5564L44.26 38.4618C43.9014 38.3082 43.7384 37.8891 43.8921 37.5305C44.0458 37.1719 44.4649 37.0089 44.8234 37.1626L56.5726 42.2572C56.9265 42.4108 57.3177 42.4155 57.6763 42.2758C58.0348 42.1361 58.3142 41.8613 58.4679 41.5074C58.6216 41.1535 58.6262 40.7623 58.4865 40.4037C58.3468 40.0452 58.0721 39.7658 57.7182 39.6121L41.0607 32.3894C40.7022 32.2357 40.5392 31.8166 40.6929 31.458C40.8465 31.0994 41.2656 30.9364 41.6242 31.0901L58.2816 38.3128C58.9802 38.6155 59.5204 39.1743 59.7998 39.8822C60.0792 40.59 60.0652 41.3677 59.7625 42.0662C59.2968 43.1419 58.2444 43.7846 57.1407 43.7846V43.7939Z" fill="white"></path><path d="M47.3894 44.2503C47.0028 44.2503 46.621 44.1711 46.2531 44.0128L41.5218 41.9591C41.1632 41.8054 41.0002 41.3863 41.1539 41.0277C41.3076 40.6692 41.7267 40.5062 42.0852 40.6599L46.8166 42.7135C47.1705 42.8672 47.5617 42.8718 47.9202 42.7321C48.2788 42.5924 48.5582 42.3177 48.7119 41.9638C49.0286 41.2326 48.6933 40.3851 47.9621 40.0684L44.2553 38.4618C43.8967 38.3082 43.7338 37.8891 43.8874 37.5305C44.0411 37.1719 44.4602 37.0089 44.8188 37.1626L48.5256 38.7692C49.2241 39.0719 49.7643 39.6307 50.0437 40.3385C50.3231 41.0464 50.3092 41.8241 50.0065 42.5226C49.7038 43.2211 49.145 43.7613 48.4371 44.0407C48.0972 44.1758 47.7433 44.2409 47.3894 44.2409V44.2503Z" fill="white"></path><path d="M44.9026 47.8547C44.5161 47.8547 44.1342 47.7755 43.7664 47.6172L38.7556 45.4471C38.397 45.2934 38.2341 44.8743 38.3877 44.5157C38.5414 44.1571 38.9605 43.9942 39.3191 44.1478L44.3298 46.3179C44.6837 46.4716 45.0749 46.4762 45.4335 46.3365C45.7921 46.1968 46.0715 45.9221 46.2251 45.5682C46.3788 45.2142 46.3835 44.8231 46.2438 44.4645C46.1041 44.1059 45.8293 43.8265 45.4754 43.6728L41.5218 41.9591C41.1632 41.8055 41.0002 41.3863 41.1539 41.0278C41.3076 40.6692 41.7267 40.5062 42.0852 40.6599L46.0389 42.3736C46.7374 42.6763 47.2776 43.2351 47.557 43.9429C47.8364 44.6508 47.8224 45.4285 47.5197 46.127C47.2171 46.8255 46.6582 47.3657 45.9504 47.6451C45.6105 47.7801 45.2565 47.8453 44.9026 47.8453V47.8547Z" fill="white"></path><path d="M42.2156 51.3705C41.8384 51.3705 41.4519 51.296 41.084 51.133L30.4199 46.5088C30.0614 46.3551 29.8984 45.936 30.052 45.5774C30.2057 45.2189 30.6248 45.0559 30.9834 45.2096L41.6475 49.8338C42.3786 50.1504 43.2262 49.8151 43.5428 49.084C43.8595 48.3529 43.5242 47.5054 42.7931 47.1887L41.6428 46.6904C41.2843 46.5368 41.1213 46.1176 41.275 45.7591C41.4286 45.4005 41.8477 45.2375 42.2063 45.3912L43.3566 45.8895C44.8002 46.5135 45.4661 48.1992 44.8421 49.6428C44.3764 50.7186 43.324 51.3612 42.2203 51.3612L42.2156 51.3705Z" fill="white"></path><path d="M57.4155 52.4044C56.4794 52.4044 55.6133 51.9433 55.1569 51.1982C54.7518 50.5323 54.7192 49.7546 55.0684 49.0654L56.8706 45.5309C56.9917 45.2887 57.2385 45.1304 57.5133 45.1444C57.7833 45.149 58.0302 45.3074 58.1419 45.5542L59.7951 49.1446C60.1118 49.8338 60.0559 50.5929 59.6461 51.2355C59.1804 51.9666 58.3422 52.4044 57.4108 52.4044H57.4155ZM57.4667 47.4728L56.3258 49.7081C56.1628 50.0247 56.2559 50.2902 56.3584 50.4625C56.5586 50.7884 56.9637 50.9933 57.4108 50.9933C57.8579 50.9933 58.249 50.7978 58.4539 50.4764C58.561 50.3134 58.6542 50.0527 58.5098 49.736L57.4667 47.4681V47.4728Z" fill="white"></path></g><defs><clipPath id="clip0_4_336"><rect width="46" height="30.4043" fill="white" transform="translate(14 22)"></rect></clipPath></defs></svg>