<svg xmlns="http://www.w3.org/2000/svg" width="74" height="74" viewBox="0 0 74 74" fill="none"><circle cx="37" cy="37" r="37" fill="#2AA8FF"></circle><g clip-path="url(#clip0_4_335)"><path d="M45.424 36.1256H22.5088C22.0668 36.1256 21.709 35.7678 21.709 35.3258C21.709 34.8839 22.0668 34.5261 22.5088 34.5261H45.424C47.6024 34.5261 49.3704 32.7528 49.3704 30.5797C49.3704 28.4066 47.5971 26.6333 45.424 26.6333H35.5108C33.5639 26.6333 31.9854 25.0495 31.9854 23.1079V13.7998C31.9854 13.3578 32.3432 13 32.7851 13C33.2271 13 33.5849 13.3578 33.5849 13.7998V23.1132C33.5849 24.1761 34.4479 25.0443 35.516 25.0443H45.4293C48.4864 25.0443 50.9752 27.5331 50.9752 30.5902C50.9752 33.6473 48.4864 36.1362 45.4293 36.1362L45.424 36.1256Z" fill="white"></path><path d="M39.0046 45.6863H28.5441C28.1022 45.6863 27.7444 45.3285 27.7444 44.8866C27.7444 44.4446 28.1022 44.0868 28.5441 44.0868H39.0046C39.4466 44.0868 39.8044 44.4446 39.8044 44.8866C39.8044 45.3285 39.4466 45.6863 39.0046 45.6863Z" fill="white"></path><path d="M51.454 45.6863H46.4974C46.0554 45.6863 45.6976 45.3285 45.6976 44.8865C45.6976 44.4446 46.0554 44.0868 46.4974 44.0868H51.454C53.6324 44.0868 55.4004 42.3135 55.4004 40.1404C55.4004 37.9673 53.6272 36.194 51.454 36.194C51.0121 36.194 50.6543 35.8362 50.6543 35.3942C50.6543 34.9523 51.0121 34.5945 51.454 34.5945C54.5112 34.5945 57 37.0833 57 40.1404C57 43.1975 54.5112 45.6863 51.454 45.6863Z" fill="white"></path><path d="M45.0136 31.3163H34.1585C30.149 31.3163 26.8867 28.054 26.8867 24.0445V13.7998C26.8867 13.3578 27.2445 13 27.6865 13C28.1285 13 28.4863 13.3578 28.4863 13.7998V24.0445C28.4863 27.1753 31.033 29.722 34.1638 29.722H45.0189C45.4608 29.722 45.8187 30.0798 45.8187 30.5218C45.8187 30.9638 45.4608 31.3216 45.0189 31.3216L45.0136 31.3163Z" fill="white"></path><path d="M50.9437 40.9402H21.6091C18.5151 40.9402 16 38.425 16 35.3311C16 32.2372 18.5151 29.722 21.6091 29.722H25.6238C26.0658 29.722 26.4236 30.0798 26.4236 30.5218C26.4236 30.9638 26.0658 31.3216 25.6238 31.3216H21.6091C19.3991 31.3216 17.5996 33.1211 17.5996 35.3311C17.5996 37.5411 19.3991 39.3406 21.6091 39.3406H50.9437C51.3857 39.3406 51.7435 39.6984 51.7435 40.1404C51.7435 40.5824 51.3857 40.9402 50.9437 40.9402Z" fill="white"></path><path d="M40.2043 60.2615C39.7623 60.2615 39.4045 59.9037 39.4045 59.4618V51.99C39.4045 51.2007 38.7626 50.5588 37.9733 50.5588H28.3284C25.2345 50.5588 22.7193 48.0436 22.7193 44.9497C22.7193 41.8558 25.2345 39.3406 28.3284 39.3406H32.3432C32.7852 39.3406 33.143 39.6984 33.143 40.1404C33.143 40.5824 32.7852 40.9402 32.3432 40.9402H28.3284C26.1185 40.9402 24.3189 42.7397 24.3189 44.9497C24.3189 47.1597 26.1185 48.9592 28.3284 48.9592H37.9733C39.6413 48.9592 41.0041 50.3167 41.0041 51.99V59.4618C41.0041 59.9037 40.6463 60.2615 40.2043 60.2615Z" fill="white"></path><path d="M45.0136 60.2615C44.5716 60.2615 44.2138 59.9037 44.2138 59.4617V50.8955C44.2138 48.0226 41.8723 45.6811 38.9994 45.6811C38.5574 45.6811 38.1996 45.3233 38.1996 44.8813C38.1996 44.4393 38.5574 44.0815 38.9994 44.0815C42.7563 44.0815 45.8081 47.1386 45.8081 50.8903V59.4565C45.8081 59.8985 45.4503 60.2563 45.0083 60.2563L45.0136 60.2615Z" fill="white"></path></g><defs><clipPath id="clip0_4_335"><rect width="41" height="47.2615" fill="white" transform="translate(16 13)"></rect></clipPath></defs></svg>