<svg xmlns="http://www.w3.org/2000/svg" width="74" height="74" viewBox="0 0 74 74" fill="none"><circle cx="37" cy="37" r="37" fill="#2AA8FF"></circle><g clip-path="url(#clip0_4_337)"><path d="M37.5024 26.993C37.0975 26.993 36.7697 26.6652 36.7697 26.2603V21.7772C36.7697 21.3723 37.0975 21.0445 37.5024 21.0445C37.9073 21.0445 38.2351 21.3723 38.2351 21.7772V26.2603C38.2351 26.6652 37.9073 26.993 37.5024 26.993Z" fill="white"></path><path d="M48.474 21.6952C48.2619 21.6952 48.0546 21.6036 47.91 21.4301C47.8763 21.3915 45.3937 18.4703 41.5276 18.4606C41.0937 18.4606 40.6502 18.5474 40.2453 18.7209C39.8741 18.88 39.4451 18.7065 39.286 18.3353C39.1269 17.9641 39.3005 17.5351 39.6717 17.376C40.2598 17.1253 40.8816 17 41.5228 17H41.5324C46.1071 17.0048 48.9223 20.3551 49.0428 20.4997C49.2983 20.8131 49.2549 21.271 48.9416 21.5313C48.8066 21.6422 48.6427 21.7001 48.4788 21.7001L48.474 21.6952Z" fill="white"></path><path d="M52.3112 26.2989C52.2148 26.2989 52.1135 26.2796 52.0171 26.2362C51.646 26.0723 51.482 25.6385 51.6459 25.2721C51.6797 25.195 52.4799 23.2957 51.1253 22.0375C49.7466 20.76 47.8473 22.0857 47.8281 22.1002C47.4954 22.3364 47.0423 22.2544 46.8061 21.9266C46.5699 21.5988 46.647 21.1409 46.9796 20.9047C47.9727 20.196 50.3299 19.2994 52.1232 20.9673C54.2442 22.9389 53.0391 25.7493 52.9861 25.865C52.8656 26.1398 52.5956 26.2989 52.316 26.2989H52.3112Z" fill="white"></path><path d="M40.2791 31.7413C40.226 31.7413 40.173 31.7365 40.12 31.722C37.218 31.0857 36.6588 27.8366 36.7697 26.2073C36.7986 25.8023 37.1505 25.5035 37.5506 25.5276C37.9555 25.5565 38.2592 25.9036 38.2303 26.3037C38.2207 26.4435 38.0375 29.7649 40.4333 30.2903C40.8286 30.3771 41.0793 30.7675 40.9925 31.1628C40.9202 31.5051 40.6165 31.7365 40.2791 31.7365V31.7413Z" fill="white"></path><path d="M56.9148 39.4205C56.7557 39.4205 56.5967 39.3674 56.4617 39.2614C56.1435 39.0107 56.0905 38.5528 56.3412 38.2346C57.2233 37.1114 57.6042 35.9738 57.4692 34.8506C57.2378 32.9223 55.5651 31.5967 55.5458 31.5822C55.271 31.3653 55.1842 30.9845 55.3433 30.6711C55.888 29.5962 55.9893 28.6176 55.6374 27.7692C54.9046 26 52.4895 25.195 52.4654 25.1853C52.0798 25.06 51.8725 24.6454 51.9978 24.2646C52.1232 23.879 52.5329 23.6717 52.9186 23.7922C53.0439 23.8308 55.9941 24.8093 56.9871 27.2003C57.4499 28.3187 57.4162 29.5335 56.8859 30.8158C57.5367 31.4521 58.6936 32.8115 58.9202 34.6577C59.1082 36.1859 58.6261 37.6947 57.4885 39.1361C57.3439 39.3192 57.1317 39.4156 56.9148 39.4156V39.4205Z" fill="white"></path><path d="M42.6652 56.5961C41.0118 56.5961 39.6668 56.1382 38.6545 55.2271C36.6877 53.4628 36.7649 50.6765 36.7697 50.556C36.7841 50.151 37.1071 49.8377 37.5265 49.8522C37.9314 49.8666 38.2448 50.2089 38.2303 50.609C38.2303 50.6283 38.1773 52.8409 39.6379 54.1425C40.6117 55.0102 42.0771 55.309 43.9957 55.0246C44.3958 54.962 44.767 55.2416 44.8248 55.6417C44.8827 56.0418 44.6079 56.413 44.2078 56.4708C43.6679 56.5528 43.1521 56.5913 42.6652 56.5913V56.5961Z" fill="white"></path><path d="M46.5554 56.9432C43.9379 56.9432 42.8918 55.526 42.8436 55.4585C42.6074 55.1307 42.6845 54.6728 43.0123 54.4366C43.3353 54.2052 43.7884 54.2775 44.0246 54.5956C44.0777 54.6631 45.008 55.7911 47.5774 55.3958C50.4649 54.9572 50.7782 52.9904 50.7831 52.9711C50.8409 52.571 51.2073 52.2962 51.6122 52.3541C52.0123 52.4119 52.2871 52.7831 52.2292 53.1832C52.21 53.3085 51.7424 56.2443 47.7943 56.8468C47.346 56.9143 46.9314 56.9432 46.5506 56.9432H46.5554Z" fill="white"></path><path d="M51.5062 54.692C51.1012 54.692 50.7734 54.3642 50.7734 53.9593C50.7734 53.5544 51.1012 53.2266 51.5062 53.2266C51.5206 53.2266 53.4055 53.1976 54.4612 51.978C55.1023 51.2357 55.324 50.1655 55.1312 48.7965C55.0734 48.3964 55.353 48.0252 55.7531 47.9673C56.1532 47.9143 56.5244 48.1891 56.5822 48.5892C56.8425 50.4017 56.5003 51.8672 55.5651 52.947C54.0659 54.6776 51.617 54.6968 51.511 54.6968L51.5062 54.692Z" fill="white"></path><path d="M54.8806 49.7076C54.5094 49.7076 54.1912 49.428 54.1527 49.052C54.1093 48.6519 54.4033 48.2903 54.8034 48.2469C54.9143 48.2325 57.6572 47.8661 58.3803 44.0723C59.1082 40.2737 56.9486 38.9577 56.857 38.9047C56.5099 38.7022 56.3894 38.2539 56.5919 37.9068C56.7895 37.5597 57.233 37.4344 57.5801 37.632C57.7102 37.7044 60.752 39.4735 59.8168 44.3471C58.8816 49.24 55.1119 49.6835 54.9529 49.7027C54.9288 49.7027 54.8998 49.7027 54.8757 49.7027L54.8806 49.7076Z" fill="white"></path><path d="M45.2876 36.1569C45.2442 36.1569 45.2009 36.1569 45.1575 36.1473C43.2919 35.8195 42.7183 34.0021 42.6701 33.067C42.6411 32.7536 42.4821 30.165 44.6851 29.1719C46.5554 28.3283 47.992 29.3262 48.4837 29.9673C48.7295 30.2855 48.6717 30.7483 48.3487 30.9941C48.0305 31.24 47.5726 31.1821 47.3267 30.864C47.2448 30.7627 46.5265 29.9432 45.2828 30.5072C43.9427 31.1098 44.121 32.9175 44.1259 32.9368C44.1259 32.9513 44.1259 32.9705 44.1259 32.985C44.1259 33.0428 44.2223 34.4987 45.4081 34.7059C45.8034 34.7783 46.0734 35.1543 46.0011 35.5544C45.9384 35.9111 45.6299 36.1569 45.2828 36.1569H45.2876Z" fill="white"></path><path d="M45.9384 30.3144C45.8372 30.3144 45.7359 30.2951 45.6347 30.2469C45.5238 30.1987 44.5597 29.7263 44.1741 28.6658C43.9138 27.9523 43.9813 27.1762 44.3717 26.3567C44.5453 25.9904 44.9839 25.8361 45.3455 26.0096C45.7118 26.1832 45.8661 26.617 45.6926 26.9834C45.0948 28.2416 45.9673 28.7863 46.2517 28.9213C46.6133 29.0948 46.7675 29.5286 46.5988 29.895C46.4735 30.1601 46.2132 30.3144 45.9384 30.3144Z" fill="white"></path><path d="M44.9695 51.8238C43.4462 51.8238 42.6411 51.0091 42.3953 50.2475C42.1061 49.3364 42.4917 48.3192 43.3546 47.707C43.6872 47.4756 44.1403 47.5576 44.3717 47.8854C44.6031 48.218 44.526 48.6711 44.1934 48.9025C43.8511 49.1436 43.6872 49.4955 43.7884 49.7992C43.8993 50.1511 44.3428 50.3583 44.9695 50.3583H44.9888C46.5024 50.3487 46.9652 48.8495 46.9845 48.782C47.1002 48.3964 47.5051 48.1746 47.8907 48.2855C48.2764 48.3964 48.5029 48.7965 48.3921 49.1869C48.1366 50.0932 47.1002 51.8093 45.0032 51.8238H44.9743H44.9695Z" fill="white"></path><path d="M44.7525 40.0712C44.5645 40.0712 44.3765 39.9989 44.2367 39.8591C43.5137 39.1409 43.1473 38.331 43.1473 37.4537C43.1473 36.0075 44.1885 34.9518 44.2367 34.9036C44.5212 34.6192 44.9839 34.6192 45.2732 34.9036C45.5576 35.188 45.5576 35.6508 45.2732 35.9352C45.0321 36.181 43.9138 37.4633 45.2732 38.8179C45.5576 39.1023 45.5624 39.5651 45.2732 39.8543C45.1285 39.9989 44.9405 40.0712 44.7574 40.0712H44.7525Z" fill="white"></path><path d="M41.4504 52.5035C41.3348 52.5035 41.2191 52.4987 41.0937 52.4794C40.6936 52.4312 40.4092 52.0648 40.4574 51.6647C40.5056 51.2646 40.8672 50.9802 41.2721 51.0284C42.1976 51.1441 42.5833 50.2667 42.6218 50.1655C42.7713 49.7943 43.1907 49.6063 43.5667 49.7509C43.9427 49.8956 44.1307 50.3101 43.9909 50.6861C43.745 51.3465 42.9111 52.5035 41.4504 52.5035Z" fill="white"></path><path d="M49.8527 46.3814C49.5394 46.3814 49.2549 46.1789 49.1537 45.8656C48.2957 43.1178 48.4065 41.0884 49.4815 39.8302C50.8023 38.2876 53.015 38.5962 53.1066 38.6106C53.5067 38.6685 53.7815 39.0445 53.7236 39.4446C53.6658 39.8447 53.2898 40.1146 52.8945 40.0616C52.8607 40.0616 51.3712 39.8688 50.5854 40.7895C49.872 41.6283 49.8623 43.2335 50.5469 45.4317C50.6674 45.8174 50.4504 46.2271 50.0648 46.3476C49.9925 46.3717 49.9202 46.3814 49.8479 46.3814H49.8527Z" fill="white"></path><path d="M51.1543 40.0664C50.9229 40.0664 50.6963 39.9556 50.5517 39.7483C49.9395 38.8613 49.255 36.7017 51.0386 34.9036C51.323 34.6144 51.7858 34.6144 52.075 34.9036C52.3642 35.188 52.3642 35.6508 52.0798 35.94C50.7397 37.2946 51.6556 38.7649 51.7617 38.9288C51.9834 39.2614 51.8966 39.7193 51.564 39.9411C51.4387 40.0279 51.2941 40.0664 51.1543 40.0664Z" fill="white"></path><path d="M37.4976 26.993C37.0927 26.993 36.7649 26.6652 36.7649 26.2603V21.7772C36.7649 20.8902 36.4178 20.0514 35.7911 19.4247C35.1693 18.8029 34.3498 18.4654 33.4772 18.4654H33.4724C29.6015 18.4702 27.1141 21.4011 27.09 21.4349C26.8297 21.7434 26.3717 21.7868 26.0584 21.5313C25.7499 21.2758 25.7017 20.813 25.962 20.5045C26.0777 20.3599 28.8929 17.0144 33.4724 17.0048H33.4821C34.745 17.0048 35.9357 17.4965 36.8323 18.3931C37.7386 19.2994 38.24 20.4997 38.24 21.782V26.2651C38.24 26.67 37.9122 26.9978 37.5072 26.9978L37.4976 26.993Z" fill="white"></path><path d="M22.684 26.2989C22.4044 26.2989 22.1393 26.135 22.0139 25.865C21.9609 25.7445 20.7509 22.9389 22.8768 20.9673C24.6652 19.2994 27.0225 20.2008 28.0204 20.9047C28.3482 21.1409 28.4253 21.594 28.1939 21.9266C27.9577 22.2544 27.5046 22.3315 27.1768 22.1002C27.0948 22.0423 25.2341 20.7745 23.8747 22.0375C22.5249 23.2957 23.3203 25.195 23.354 25.2769C23.5131 25.6481 23.3444 26.0771 22.978 26.241C22.8816 26.2844 22.7804 26.3037 22.684 26.3037V26.2989Z" fill="white"></path><path d="M34.7209 45.933C34.3835 45.933 34.0798 45.7016 34.0075 45.3594C33.9207 44.9641 34.1714 44.5736 34.5667 44.4869C36.9625 43.9614 36.7793 40.64 36.7697 40.5003C36.7456 40.0953 37.0493 39.7482 37.4494 39.7241C37.8688 39.6952 38.2014 40.0037 38.2255 40.4038C38.3364 42.0332 37.7772 45.2823 34.8752 45.9186C34.8222 45.9282 34.7691 45.9379 34.7161 45.9379L34.7209 45.933Z" fill="white"></path><path d="M18.0852 39.4205C17.8682 39.4205 17.6561 39.324 17.5115 39.1409C16.3739 37.6995 15.8918 36.1907 16.0798 34.6626C16.3064 32.8211 17.4633 31.4569 18.1141 30.8206C17.5838 29.5335 17.5501 28.3187 18.0129 27.2051C19.0059 24.8141 21.9561 23.8356 22.0814 23.797C22.4622 23.6717 22.8768 23.8838 23.0021 24.2694C23.1275 24.6551 22.9154 25.0648 22.5345 25.1901C22.5104 25.1998 20.0953 26.0048 19.3626 27.774C19.0107 28.6224 19.1119 29.601 19.6567 30.676C19.8157 30.9893 19.729 31.3701 19.4494 31.587C19.4349 31.5967 17.7622 32.9272 17.526 34.8554C17.391 35.9786 17.7718 37.1162 18.654 38.2394C18.9047 38.5576 18.8516 39.0155 18.5335 39.2662C18.3985 39.3723 18.2394 39.4253 18.0803 39.4253L18.0852 39.4205Z" fill="white"></path><path d="M37.4976 51.3176C37.0927 51.3176 36.7649 50.9898 36.7649 50.5849V26.2603C36.7649 25.8554 37.0927 25.5276 37.4976 25.5276C37.9025 25.5276 38.2303 25.8554 38.2303 26.2603V50.5849C38.2303 50.9898 37.9025 51.3176 37.4976 51.3176Z" fill="white"></path><path d="M32.3251 56.5961C31.8382 56.5961 31.3273 56.5576 30.7873 56.4756C30.3872 56.4178 30.1125 56.0466 30.1703 55.6465C30.2282 55.2464 30.5993 54.9668 30.9995 55.0294C32.6625 55.2753 33.9882 55.0825 34.9427 54.4606C35.2801 54.2389 35.7333 54.3353 35.955 54.6727C36.1767 55.0102 36.0803 55.4633 35.7429 55.685C34.8125 56.2924 33.6652 56.5961 32.3203 56.5961H32.3251Z" fill="white"></path><path d="M28.4446 56.9432C28.0637 56.9432 27.6492 56.9143 27.2008 56.8468C23.2576 56.2442 22.7852 53.3085 22.7659 53.1832C22.7081 52.783 22.9829 52.4119 23.383 52.354C23.7879 52.2962 24.1543 52.5758 24.2121 52.9711C24.2266 53.0434 24.5785 54.9619 27.4178 55.3958C30.0064 55.7911 30.932 54.6438 30.9705 54.5956C31.2164 54.2822 31.6695 54.2148 31.9877 54.451C32.3058 54.6872 32.383 55.1355 32.1516 55.4585C32.1034 55.526 31.0573 56.9432 28.4397 56.9432H28.4446Z" fill="white"></path><path d="M23.4938 54.692C23.3878 54.692 20.9389 54.6727 19.4397 52.9422C18.5046 51.8623 18.1623 50.3969 18.4226 48.5844C18.4805 48.1843 18.8516 47.9095 19.2517 47.9625C19.6518 48.0204 19.9314 48.3915 19.8736 48.7916C19.676 50.1607 19.9025 51.2309 20.5437 51.9732C21.5945 53.1976 23.4794 53.2217 23.4987 53.2217C23.9036 53.2217 24.2266 53.5544 24.2266 53.9545C24.2266 54.3594 23.8988 54.6824 23.4938 54.6824V54.692Z" fill="white"></path><path d="M20.1194 49.7075C20.0953 49.7075 20.0712 49.7075 20.0423 49.7075C19.8832 49.6931 16.1135 49.2448 15.1783 44.3519C14.248 39.4783 17.2898 37.7091 17.4151 37.6368C17.767 37.4392 18.2153 37.5645 18.4129 37.9164C18.6106 38.2683 18.4853 38.7118 18.1382 38.9095C18.0321 38.9721 15.8918 40.293 16.6149 44.0771C17.338 47.8661 20.0809 48.2373 20.1966 48.2517C20.5967 48.2999 20.8859 48.6615 20.8377 49.0616C20.7943 49.4376 20.481 49.7124 20.1146 49.7124L20.1194 49.7075Z" fill="white"></path><path d="M31.6695 34.4553C30.7729 34.4553 29.7027 34.1275 28.7868 33.0429C26.9598 30.8784 28.4687 28.2078 28.6422 27.9138C29.158 26.9593 30.6813 25.3396 32.7927 25.9277C33.1832 26.0386 33.4097 26.4387 33.2989 26.8291C33.188 27.2196 32.7879 27.4462 32.3974 27.3353C30.8741 26.9111 29.9582 28.5501 29.9245 28.6224C29.9197 28.632 29.91 28.6513 29.9004 28.661C29.8522 28.7381 28.7 30.6663 29.9052 32.098C31.0525 33.4574 32.3589 32.8838 32.5035 32.8163C32.865 32.6427 33.3037 32.7922 33.4821 33.1489C33.6604 33.5104 33.5158 33.9443 33.1591 34.1227C32.8168 34.2962 32.2817 34.4505 31.6695 34.4505V34.4553Z" fill="white"></path><path d="M27.7359 36.7836C27.331 36.7836 27.0032 36.451 27.008 36.0509C27.0129 34.9952 27.331 34.1467 27.9577 33.5394C28.8929 32.6283 30.1269 32.6186 30.2716 32.6234C30.6765 32.6283 30.9995 32.9657 30.9898 33.3658C30.985 33.7659 30.6379 34.0793 30.2523 34.0841C29.9534 34.0841 28.4831 34.1805 28.4735 36.0605C28.4735 36.4654 28.1457 36.7884 27.7408 36.7884L27.7359 36.7836Z" fill="white"></path><path d="M30.0305 51.8238H30.0016C27.9047 51.8093 26.8682 50.0932 26.6127 49.1869C26.5019 48.7965 26.7284 48.3915 27.1189 48.2855C27.5045 48.1746 27.9095 48.4012 28.0203 48.7868C28.0396 48.8543 28.5072 50.3487 30.0112 50.3583C30.6524 50.3487 31.0959 50.151 31.2116 49.7991C31.308 49.4954 31.1489 49.1435 30.8066 48.9025C30.474 48.6711 30.3969 48.2132 30.6283 47.8854C30.8597 47.5528 31.3176 47.4756 31.6454 47.707C32.5083 48.3144 32.8939 49.3364 32.6047 50.2474C32.3589 51.0139 31.5538 51.8238 30.0305 51.8238Z" fill="white"></path><path d="M32.0118 27.0895C31.7129 27.0895 31.4285 26.9014 31.3224 26.6026C31.2983 26.5351 30.7343 24.8961 31.4622 23.3728C31.9009 22.4569 32.6963 21.7916 33.8195 21.4012C34.2003 21.2662 34.6197 21.4687 34.7499 21.8495C34.8848 22.2303 34.6824 22.6497 34.3015 22.7799C31.925 23.6138 32.6143 25.865 32.7011 26.1157C32.8313 26.4965 32.6288 26.9111 32.248 27.0461C32.166 27.075 32.0889 27.0846 32.007 27.0846L32.0118 27.0895Z" fill="white"></path><path d="M33.5495 52.5035C32.0889 52.5035 31.2549 51.3465 31.0091 50.6861C30.8693 50.3101 31.0573 49.8859 31.4381 49.7461C31.8141 49.6063 32.2335 49.7943 32.3781 50.1703C32.4215 50.2764 32.8072 51.1489 33.7279 51.0332C34.1328 50.985 34.4944 51.2694 34.5426 51.6695C34.5908 52.0696 34.3064 52.436 33.9063 52.4842C33.7857 52.4986 33.6652 52.5083 33.5495 52.5083V52.5035Z" fill="white"></path><path d="M25.0846 44.3519C25.0123 44.3519 24.94 44.3423 24.8677 44.3182C24.482 44.1976 24.2651 43.7879 24.3856 43.4023C25.075 41.2041 25.0605 39.5988 24.3519 38.76C23.5613 37.8297 22.0621 38.0273 22.0428 38.0321C21.6427 38.09 21.2715 37.8104 21.2137 37.4151C21.1559 37.015 21.4306 36.6486 21.8259 36.586C21.9175 36.5715 24.1301 36.2582 25.451 37.8056C26.526 39.0637 26.6368 41.0932 25.7788 43.8409C25.6824 44.1543 25.3931 44.3567 25.0798 44.3567L25.0846 44.3519Z" fill="white"></path><path d="M23.7831 38.0418C23.6384 38.0418 23.4987 37.9984 23.3685 37.9116C23.0359 37.685 22.9491 37.2319 23.1757 36.8993C23.2865 36.7306 24.1976 35.2651 22.8575 33.9105C22.5731 33.6213 22.5731 33.1585 22.8623 32.8741C23.1516 32.5897 23.6143 32.5897 23.8988 32.8741C25.6776 34.6722 24.993 36.827 24.3856 37.7188C24.2458 37.9261 24.0145 38.0369 23.7831 38.0369V38.0418Z" fill="white"></path></g><defs><clipPath id="clip0_4_337"><rect width="45" height="39.9432" fill="white" transform="translate(15 17)"></rect></clipPath></defs></svg>