<svg xmlns="http://www.w3.org/2000/svg" width="100" height="100" viewBox="0 0 100 100" fill="none"><g clip-path="url(#clip0_26_550)"><path d="M50 100C77.6142 100 100 77.6142 100 50C100 22.3858 77.6142 0 50 0C22.3858 0 0 22.3858 0 50C0 77.6142 22.3858 100 50 100Z" fill="#006C35"></path><path fill-rule="evenodd" clip-rule="evenodd" d="M64.5325 64.5649C64.5325 64.5649 64.53 64.5674 64.5275 64.5699C63.59 64.7724 63.6175 65.5949 64.22 65.9549C54.315 65.9549 39.115 65.8124 35.855 65.8124C34.0325 65.8124 28.2625 65.6299 28.15 65.6299C29.3875 67.1574 31.18 67.4674 33.525 67.4999L64.11 67.4549C63.6975 68.0724 64.1475 69.0699 64.47 69.2499C64.4775 69.2549 64.4875 69.2599 64.495 69.2624C64.5075 69.2674 64.52 69.2724 64.535 69.2749C64.54 69.2749 64.545 69.2749 64.55 69.2749C64.935 69.3524 65.1025 69.1174 65.2325 68.9449C65.855 68.9899 69.3625 69.0349 69.6825 68.9399L69.6875 68.9349C69.905 69.2049 70.12 69.4599 70.5325 69.4149C71.255 69.2849 71.825 69.2174 71.8425 67.9799C71.8425 67.9799 71.7675 65.8699 70.1275 66.0024C69.74 66.0524 68.65 66.1449 68.65 66.1449C67.3875 66.0174 66.4625 66.0049 65.045 65.9624C65.175 65.8224 65.4075 65.2549 65.125 65.0474C65.05 64.9949 64.9425 64.9674 64.79 64.9774H64.785C64.785 64.9774 64.7775 64.9774 64.775 64.9774L64.77 64.9724C64.765 64.9724 64.76 64.9724 64.755 64.9674C64.745 64.9624 64.7375 64.9549 64.73 64.9474C64.73 64.9474 64.7225 64.9399 64.72 64.9399C64.6475 64.8524 64.61 64.6349 64.5625 64.5799L64.5575 64.5749L64.5525 64.5699C64.55 64.5699 64.545 64.5674 64.5425 64.5649H64.5325ZM65.205 67.5824C65.205 67.5824 65.2075 67.5824 65.21 67.5824C66.655 67.6424 68.0125 67.5949 69.4575 67.6524C69.6875 67.8174 69.5725 68.1924 69.4225 68.2624C69.415 68.2649 69.4075 68.2674 69.3975 68.2699C69.3925 68.2699 69.385 68.2699 69.3775 68.2699C69.37 68.2699 69.365 68.2699 69.3575 68.2699L68.145 68.2399C68.145 68.2199 68.1425 68.1999 68.135 68.1824C68.0225 67.9049 67.2175 67.9224 67.0275 68.1399C67.025 68.1449 67.02 68.1474 67.0175 68.1524C67.0125 68.1574 67.01 68.1624 67.0075 68.1699C67.005 68.1774 67 68.1824 66.9975 68.1899C66.995 68.1974 66.995 68.2099 66.9925 68.2199C66.9925 68.2299 66.9875 68.2424 66.9875 68.2524C66.355 68.3174 65.7825 68.2349 65.1475 68.2149C64.9625 68.0199 64.9825 67.6649 65.2025 67.5799L65.205 67.5824Z" fill="white"></path><path d="M69.7 44.6449C69.9 44.7424 70.425 44.1474 70.4075 43.3999C70.465 43.0174 70.26 41.5999 69.735 41.3599C69.6725 41.3399 69.61 41.3324 69.545 41.3399C69.27 41.3774 69.0125 41.6099 69.13 41.9924C69.055 42.2174 69.5025 42.9999 69.6175 43.4174C69.7225 43.7149 69.4825 44.5524 69.7 44.6399V44.6474V44.6449ZM28.3175 32.6199C28.96 32.9024 30.1625 32.7824 30.1125 31.8299C30.1125 31.7474 30.0925 31.4624 30.0825 31.3849C30.0175 31.2449 29.895 31.1924 29.78 31.2099C29.6625 31.2299 29.5525 31.3174 29.5125 31.4624C29.4875 31.5574 29.5575 31.7149 29.465 31.7624C29.4125 31.8174 29.2075 31.7824 29.2175 31.5149C29.2175 31.4324 29.15 31.3424 29.11 31.2899C29.07 31.2624 29.0425 31.2524 28.9675 31.2524C28.8775 31.2524 28.88 31.2799 28.83 31.3474C28.8075 31.4124 28.78 31.4874 28.78 31.5674C28.77 31.6599 28.7275 31.6924 28.6525 31.7074C28.57 31.7074 28.5875 31.7149 28.52 31.6699C28.4825 31.6249 28.4325 31.6149 28.4325 31.5449C28.4325 31.4799 28.4125 31.3574 28.3875 31.3099C28.3525 31.2649 28.2975 31.2449 28.2325 31.2274C27.8825 31.2274 27.8575 31.5999 27.8775 31.7399C27.8525 31.7674 27.8375 32.4224 28.3175 32.6074V32.6199ZM23.175 32.5824C23.2725 32.8074 23.0775 33.5349 23.2825 33.6024C23.47 33.6749 23.73 33.0999 23.8275 32.5649C23.8825 32.2724 23.84 31.2699 23.1 31.0649C23.0625 31.0574 23.0225 31.0449 22.9825 31.0449C22.7 31.0374 22.3875 31.1999 22.51 31.5124C22.44 31.6824 23.0625 32.2599 23.1725 32.5774V32.5824H23.175ZM45.8375 32.8524C46.205 31.9349 46.2075 31.5424 46.2325 31.1549C46.175 30.8599 46.035 30.7149 45.8775 30.7274C45.72 30.7474 45.5425 30.9099 45.4 31.2399C45.2775 31.4924 45.1275 32.7999 45.15 32.7999C45.0525 33.1899 45.5925 33.3549 45.8375 32.8549V32.8524ZM41.26 32.5949C41.4425 32.8349 41.6225 32.8099 41.9875 32.6399C42.1975 32.4974 42.2675 32.4049 42.3375 32.1674C42.425 31.7674 41.88 32.3574 41.81 31.9099C41.6875 31.4974 42.035 31.3274 42.365 30.9249C42.3725 30.7374 42.375 30.5824 42.2425 30.5774C42.1825 30.5774 42.0925 30.6049 41.965 30.6749C41.68 30.8499 41.115 31.3949 41.0975 32.0174C41.08 32.3699 41.0075 32.3674 41.2575 32.5924L41.26 32.5949ZM22.5475 38.9149C24.42 39.0799 23.385 35.9974 24.065 35.4374C24.1925 35.1624 24.43 35.1549 24.45 35.5024V38.1224C24.4325 38.9749 25.04 39.2274 25.5125 39.4024C26.0025 39.3649 26.33 39.3749 26.5225 39.8199L26.7575 44.3549C26.7575 44.3549 27.8925 44.6549 27.9475 41.8074C28.0025 40.1349 27.585 38.7299 27.83 38.4049C27.8375 38.0849 28.2825 38.0699 28.59 38.2249C29.08 38.5424 29.2975 38.9349 30.0575 38.7774C31.215 38.4849 31.9125 37.9649 31.93 37.1474C31.8625 36.3674 31.765 35.5899 31.3975 34.8099C31.4475 34.6674 31.175 34.2999 31.2275 34.1574C31.435 34.4574 31.75 34.4324 31.8225 34.1574C31.625 33.5599 31.3175 32.9849 30.8225 32.7374C30.4125 32.4049 29.8125 32.4749 29.595 33.1674C29.4925 33.9674 29.91 34.9149 30.54 35.6874C30.675 35.9899 30.8625 36.4924 30.78 36.9449C30.445 37.1224 30.11 37.0474 29.83 36.7749C29.83 36.7749 28.9075 36.1399 28.9075 35.9974C29.1525 34.5549 28.96 34.3899 28.825 33.9874C28.73 33.4349 28.445 33.2599 28.215 32.8824C27.985 32.6574 27.6725 32.6574 27.5225 32.8824C27.115 33.5324 27.3075 34.9324 27.6 35.5549C27.8125 36.1299 28.1375 36.4899 27.985 36.4899C27.8575 36.8149 27.595 36.7399 27.405 36.3649C27.1325 35.5899 27.0775 34.4324 27.0775 33.9124C26.9975 33.2674 26.905 31.8849 26.4425 31.5349C26.32 31.3799 26.175 31.3274 26.0325 31.3424C25.8525 31.3624 25.68 31.4974 25.5975 31.6799C25.5675 32.3224 25.5625 32.9624 25.6425 33.5549C25.96 34.5924 26.06 35.5049 26.2125 36.5649C26.255 37.9874 25.3225 37.1799 25.365 36.4724C25.58 35.5574 25.52 34.1149 25.33 33.7499C25.1775 33.3849 25.0025 33.2949 24.6325 33.3549C24.34 33.3349 23.5825 34.0999 23.37 35.3599C23.37 35.3599 23.1925 36.0074 23.1175 36.5824C23.015 37.2324 22.545 37.6949 22.22 36.4899C21.9375 35.6174 21.765 33.4649 21.2925 33.9699C21.1575 35.6499 20.9975 38.6049 22.545 38.9074V38.9149H22.5475ZM34.615 36.0649H34.62L34.625 36.0699C34.625 36.0699 34.6275 36.0699 34.63 36.0699L34.635 36.0749C34.7575 36.1474 36.2575 36.1474 36.425 36.0799L36.43 36.0749H36.435V36.0699C36.95 35.8949 39.4 33.3149 39.4 33.3149C39.2725 33.2149 39.155 33.1399 39.03 33.0399C38.895 32.9299 38.9075 32.8249 39.03 32.7174C39.6375 32.3924 39.445 31.6774 39.1275 31.3499C38.865 31.2424 38.6175 31.2049 38.395 31.2149C38.1925 31.2199 37.9925 31.2724 37.81 31.3624C37.385 31.7374 37.285 32.3399 37.62 32.7149C37.945 32.8574 38.27 33.1599 38.055 33.3249C37.1325 34.2324 34.7325 35.7499 34.6125 36.0249C34.6125 36.0274 34.61 36.0299 34.6075 36.0324C34.6075 36.0324 34.6075 36.0399 34.6075 36.0424V36.0474C34.6075 36.0474 34.61 36.0524 34.6125 36.0574L34.6175 36.0624L34.615 36.0649ZM38.2475 32.0224C38.2475 32.0224 38.2675 32.0174 38.2775 32.0174C38.4275 31.9974 38.6075 32.1299 38.6975 32.3099C38.7925 32.4999 38.745 32.6824 38.59 32.7199C38.435 32.7574 38.235 32.6274 38.1425 32.4374C38.0475 32.2474 38.095 32.0574 38.25 32.0249L38.2475 32.0224ZM41.635 37.5799C42.385 37.8649 42.86 36.5524 43.165 35.1124C43.375 34.7074 43.535 34.6624 43.6425 34.8699C43.615 36.7824 43.7925 37.2099 44.325 37.7899C45.515 38.6374 46.5 37.8974 46.5775 37.8274L47.505 36.9724C47.7125 36.7724 47.985 36.7599 48.275 36.9349C48.5575 37.1724 48.5225 37.5824 49.1275 37.8649C49.6375 38.0524 50.7275 37.9099 50.98 37.5049C51.32 36.9674 51.4025 36.7824 51.56 36.5799C51.8025 36.2824 52.2175 36.4149 52.2175 36.5149C52.18 36.6799 51.935 36.8449 52.1 37.1449C52.3875 37.3449 52.455 37.2099 52.6275 37.1724C53.2325 36.9074 53.685 35.6974 53.685 35.6974C53.7125 35.2474 53.4325 35.2824 53.255 35.3724C53.0225 35.5024 53.01 35.5474 52.7775 35.6774C52.4825 35.7224 51.91 35.8974 51.6275 35.4924C51.3375 35.0074 51.3375 34.3299 51.115 33.8399C51.115 33.8024 50.7275 33.0699 51.085 33.0224C51.265 33.0599 51.6525 33.1449 51.715 32.8474C51.905 32.5574 51.3075 31.7324 50.9 31.3149C50.5475 30.9574 50.06 30.9149 49.5875 31.2774C49.2575 31.5574 49.305 31.8699 49.24 32.1674C49.1575 32.5074 49.1725 32.9299 49.5475 33.3799C49.8775 33.9774 50.4775 34.7474 50.28 35.8324C50.28 35.8324 49.9325 36.3474 49.32 36.2824C49.065 36.2274 48.65 36.1299 48.4275 34.6249C48.26 33.4849 48.47 31.8899 47.945 31.1424C47.8275 30.8599 47.725 30.5874 47.555 30.6074C47.4525 30.6149 47.3275 30.7374 47.155 31.0299C47.03 31.3324 46.495 31.7924 46.8825 32.7374C47.1975 33.3374 47.3275 34.3124 47.185 35.3974C46.965 35.7049 46.915 35.8124 46.63 36.1199C46.2275 36.5199 45.79 36.4174 45.455 36.2674C45.1425 36.0724 44.895 35.9724 44.7525 35.3549C44.7775 34.3699 44.84 32.7574 44.645 32.4149C44.3575 31.8849 43.8825 32.0749 43.68 32.2349C42.705 33.0549 42.2225 34.4424 41.93 35.5474C41.66 36.3499 41.3725 36.1199 41.17 35.7949C40.6775 35.3699 40.6425 32.0449 40.0475 32.5899C39.095 35.0974 40.595 37.8449 41.6325 37.5774V37.5699L41.635 37.5799ZM37.71 35.7924C37.1425 36.0749 36.9225 36.9149 37.2775 37.4049C37.6075 37.8349 38.13 37.6799 38.2 37.6799C38.755 37.7449 39.0875 36.7174 39.0875 36.7174C39.0875 36.7174 39.105 36.4274 38.445 36.9724C38.1675 37.0274 38.13 36.9274 38.06 36.7849C38.0025 36.5174 38.015 36.2474 38.1475 35.9824C38.21 35.8224 38.1475 35.7199 38.015 35.7074C37.9375 35.6999 37.8325 35.7274 37.7125 35.7899L37.71 35.7924ZM74.39 48.5949C74.2675 48.4674 73.995 48.5399 73.81 48.5299C73.7225 48.5299 73.4325 48.4849 73.5725 48.2549C73.6875 48.1099 73.73 48.0224 73.8075 47.8399C73.8925 47.6649 73.8175 47.5449 73.505 47.4499C73.345 47.4224 73.235 47.4124 73.12 47.4124C73.005 47.4174 72.8825 47.4324 72.705 47.4499C72.515 47.4874 72.4475 47.5649 72.4125 47.7774C72.425 48.1024 72.64 48.0849 72.86 48.2124C72.9875 48.3624 73.07 48.4974 72.85 48.7424L72.285 49.1924C72.1875 49.3474 72.125 49.5849 72.4275 49.6599C72.9825 49.8049 74.27 49.0324 74.27 49.0174C74.4775 48.8724 74.41 48.5999 74.3925 48.5999V48.5949H74.39ZM78.385 35.0599C78.3425 34.7749 78.205 34.1174 78.2575 34.0299C78.3425 33.8299 78.7725 34.0499 78.925 33.8199C79.15 33.6074 77.8125 32.0324 77.345 31.3574C77.2525 31.1874 77.195 31.0499 77.11 31.0574C77.045 31.0624 76.9675 31.1599 76.8475 31.3949C76.5575 31.8324 76.4575 32.6149 76.575 33.3049C77.2725 37.6474 77.79 41.8524 77.8975 45.7024C77.8375 46.0674 77.82 46.2624 77.635 46.7224C77.225 47.2074 76.77 47.8174 76.3425 48.1099C75.915 48.4024 75.0075 48.6824 74.71 48.8999C73.7675 49.4024 73.76 49.9799 74.525 49.9999C75.84 49.8599 77.3925 49.7599 78.465 48.2699C78.7525 47.8524 79.09 46.7199 79.105 46.0274C79.205 41.9649 79.05 37.9949 78.3875 35.0574L78.385 35.0599ZM21.505 43.0224L26.38 40.8649C26.1125 40.4974 26.3625 40.1674 25.36 40.1424C23.82 40.1699 21.5625 42.0049 21.5025 43.0224H21.505ZM22.375 47.6774C21.97 48.4349 21.8 47.9174 21.765 47.4924C21.7025 46.6899 21.7875 45.9474 21.8825 45.3624C21.9325 45.0624 21.93 44.9574 21.8925 44.9574C21.855 44.9574 21.775 45.0649 21.6725 45.1849C20.755 46.5299 20.675 48.5399 21.18 49.1399C21.45 49.4224 21.8925 49.5474 22.2175 49.4599C22.7925 49.2299 23.0475 48.1549 22.91 47.7624C22.7175 47.4849 22.565 47.4424 22.3725 47.6799L22.375 47.6774ZM33.8675 45.6549C34.535 43.6074 33.8525 42.0599 34.0775 41.8724C34.0775 41.8724 34.085 41.8724 34.0875 41.8674C34.0875 41.8674 34.095 41.8674 34.0975 41.8624C34.0975 41.8624 34.105 41.8574 34.1075 41.8574C34.1175 41.8549 34.1275 41.8524 34.1375 41.8524C34.9625 42.6699 36.1175 41.9549 36.37 41.6724C36.4775 41.5324 36.75 41.4399 36.94 41.6174C37.5825 42.0424 38.71 41.8424 38.945 41.0924C39.08 40.3574 39.195 39.6024 39.2225 38.8199C38.805 38.9399 38.4675 39.0299 38.33 39.1599C38.2975 39.1974 38.275 39.2249 38.2675 39.2674L38.16 39.9199C38.1575 39.9399 38.15 39.9574 38.14 39.9749C38.12 40.0024 38.0925 40.0299 38.0625 40.0399C37.915 40.1124 37.6575 40.0774 37.6425 39.8749C37.445 39.0399 36.625 38.9324 36.1275 40.2249C35.7925 40.4749 35.1825 40.5249 35.1175 40.1524C35.1975 39.2849 34.8175 39.1674 34.06 39.5774L33.3275 34.4999C33.645 34.4924 33.935 34.7024 34.225 34.3674C33.9125 33.4674 33.2475 31.6399 32.875 31.4699C32.8725 31.4699 32.8675 31.4699 32.865 31.4649C32.8475 31.4449 32.83 31.4274 32.8125 31.4099C32.805 31.4049 32.7975 31.3999 32.7875 31.3899C32.78 31.3849 32.77 31.3824 32.7625 31.3699C32.7475 31.3624 32.73 31.3499 32.715 31.3499C32.6825 31.3424 32.6475 31.3424 32.6125 31.3424C32.52 31.3499 32.4175 31.3974 32.295 31.4249C31.8975 31.5424 31.525 31.8599 31.6425 32.4774L32.89 39.7624C32.9625 40.0699 32.6825 40.4774 32.32 40.4374C31.705 40.0549 31.5525 39.2749 30.5025 39.3099C29.7425 39.3174 28.875 40.0799 28.7675 40.8149C28.64 41.3974 28.595 42.0324 28.7675 42.5399C29.3 43.1324 29.9425 43.0699 30.5025 42.9349C30.965 42.7599 31.3425 42.3399 31.5075 42.4399H31.5125V42.4449C31.6125 42.6074 31.5025 43.9774 29.3375 45.0374C28.0075 45.5874 26.9475 45.7199 26.3775 44.7174C26.025 44.0924 26.4025 41.7099 25.535 42.2599C22.965 48.3674 31.5575 49.2199 32.5175 42.5124C32.58 42.3224 32.77 42.1324 32.9025 42.1799C32.96 42.2074 33.015 42.2774 33.035 42.4124C32.835 48.4849 26.3875 48.9024 25.2925 46.9924C25.02 46.5424 24.94 45.5399 24.9125 44.9399C24.8625 44.5774 24.765 44.3674 24.65 44.2849C24.39 44.1049 24.04 44.5774 23.9625 45.3949C23.855 46.0549 23.885 46.2324 23.885 46.8699C24.23 51.6674 32.5275 49.6049 33.875 45.6424V45.6599L33.8675 45.6549ZM30.6625 41.5049V41.5099C30.6625 41.5099 30.66 41.5174 30.6575 41.5174C30.5925 41.5899 30.365 41.5624 30.205 41.5624C30.01 41.5549 29.9125 41.5249 29.795 41.3774C29.74 41.2149 29.91 41.0524 29.985 40.9324C29.985 40.9324 29.99 40.9299 29.99 40.9274C30 40.9199 30.01 40.8999 30.025 40.8899C30.0825 40.8349 30.185 40.7949 30.2925 40.7824C30.3125 40.7824 30.335 40.7774 30.355 40.7774C30.505 40.7774 30.665 40.8424 30.75 41.0424C30.8125 41.1974 30.78 41.3749 30.6625 41.5024V41.5049ZM58.1 36.9249C58.7425 37.2074 59.95 37.0824 59.9 36.1299C59.9 36.0474 59.875 35.7624 59.865 35.6849C59.8 35.5449 59.6775 35.4924 59.5625 35.5099C59.4475 35.5299 59.335 35.6199 59.295 35.7674C59.27 35.8624 59.345 36.0149 59.25 36.0649C59.1975 36.1199 58.9875 36.0849 58.9975 35.8224C58.9975 35.7399 58.9325 35.6474 58.89 35.5924C58.85 35.5649 58.8225 35.5549 58.7475 35.5549C58.6575 35.5574 58.66 35.5824 58.61 35.6499C58.59 35.7149 58.5625 35.7899 58.5625 35.8699C58.5525 35.9624 58.515 35.9949 58.44 36.0099C58.3575 36.0099 58.37 36.0174 58.3025 35.9724C58.265 35.9274 58.215 35.9174 58.215 35.8474C58.215 35.7824 58.195 35.6599 58.17 35.6124C58.135 35.5674 58.08 35.5574 58.015 35.5399C57.665 35.5399 57.6425 35.9074 57.665 36.0474C57.64 36.0749 57.62 36.7374 58.1 36.9199V36.9274V36.9249ZM68.4475 39.3824C68.4575 38.8249 68.5175 38.0849 68.55 37.6249C68.565 37.4499 68.6075 37.2599 68.7875 37.2149C68.9675 37.1699 69.2825 37.3824 69.285 37.1949C69.2525 36.8399 69.175 36.3199 68.9575 36.0724C68.8475 35.9199 68.665 35.8374 68.475 35.8299C68.16 35.8099 67.825 36.0049 67.7375 36.3999C67.7375 36.6349 67.8525 36.7624 67.83 36.9749C67.7975 37.0949 67.6625 37.1749 67.3375 37.0299C67.39 36.9849 67.1275 36.6474 67.1275 36.6474C66.875 36.5049 66.5375 36.6549 66.3175 36.7874C66.1975 36.9899 66.1075 37.3374 66.245 37.6899C66.6075 38.3074 67.85 39.3599 68.445 39.3699V39.3824H68.4475ZM64.45 47.0649C64.8975 47.0674 65.415 46.1224 65.635 45.1874C65.755 43.8974 65.555 43.1149 65.5175 42.3574C65.48 41.5999 64.5875 35.4524 64.405 34.8799C64.1875 33.7974 65.275 34.7374 65.155 34.1074C64.78 33.3124 63.84 32.1549 63.545 31.4649C63.435 31.2799 63.42 31.1099 63.33 31.1249C63.275 31.1349 63.195 31.2074 63.0475 31.3899C62.68 32.4949 62.5525 33.3999 62.6925 34.0849C63.635 38.6199 64.6025 42.7499 64.4475 47.0674L64.45 47.0649ZM61.095 46.1399C60.0625 47.1324 58.575 48.3574 56.955 48.9224C56.78 49.1024 57.3875 49.8724 58.175 49.8699C59.49 49.7299 60.645 49.0499 61.715 47.2599C62.0025 46.8424 62.505 45.9474 62.52 45.2549C62.62 41.1924 62.3 38.0349 61.6375 35.0999C61.595 34.8149 61.6225 34.4774 61.675 34.3899C61.76 34.2974 62.0475 34.3899 62.2025 34.1599C62.4275 33.9499 61.6025 32.1974 61.135 31.5224C61.0425 31.3524 60.985 31.2199 60.9 31.2249C60.835 31.2299 60.7575 31.3224 60.6375 31.5574C60.3475 31.9949 60.1525 32.7549 60.175 33.4674C60.8025 37.4674 60.995 40.9674 61.4025 44.9674C61.435 45.3549 61.375 45.9149 61.095 46.1399ZM58.535 33.2249C58.765 33.8149 58.36 34.3799 58.5975 34.4599C58.8175 34.5524 59.1225 33.8499 59.2375 33.2024C59.37 32.6774 58.965 31.6049 58.39 31.3824C58.345 31.3724 58.3 31.3724 58.2525 31.3624C57.9225 31.3524 57.56 31.5449 57.7025 31.9249C57.62 32.1324 58.41 32.8349 58.535 33.2199V33.2249ZM70.1225 39.3574C70.105 39.3549 70.0875 39.3574 70.07 39.3624L67.0225 41.3799C66.7275 41.6224 66.875 42.4699 67.0225 42.3724C67.235 42.4449 70.23 40.5774 70.1725 40.3599C70.3025 40.3674 70.365 39.3974 70.125 39.3574H70.1225ZM68.0275 33.9024C68.9325 34.9274 69.815 35.9699 70.68 37.0299C70.8675 39.2599 70.9175 41.3074 71.11 43.5399C71.0825 44.4949 70.765 45.7649 70.4625 45.8849C70.4625 45.8849 70 46.1299 69.6925 45.8574C69.4675 45.7749 68.57 44.4774 68.57 44.4774C68.11 44.0899 67.805 44.1999 67.4775 44.4774C66.5775 45.2799 66.17 46.7824 65.5575 47.8174C65.4 48.0474 64.955 48.2449 64.46 47.7974C63.4425 46.5149 63.7325 44.7974 63.795 44.4974L63.7825 44.5524C62.665 45.7149 63.16 47.6399 63.4125 48.0524C63.78 48.7324 64.08 49.1674 64.7975 49.5049C65.45 49.9474 65.96 49.6724 66.24 49.3624C66.8975 48.7349 66.9075 47.1274 67.215 46.8099C67.4325 46.2249 67.975 46.3274 68.24 46.5849C68.4975 46.9249 68.8 47.1474 69.175 47.3299C69.7875 47.8274 70.52 47.9199 71.2425 47.4649C71.735 47.2099 72.055 46.8774 72.345 46.2249C72.655 45.4624 72.5025 41.4599 72.4325 39.2324L73.8075 41.0699C74.0075 43.0224 74.0975 44.9499 74.0325 46.7949C73.985 47.1624 75.4225 45.6999 75.4125 45.0074V43.3399C76.11 44.3649 76.7825 45.4074 77.42 46.4624C77.815 46.2699 77.68 44.2074 77.43 43.9249C76.7625 42.8924 75.9075 41.7774 75.245 40.9149C75.115 39.8249 74.935 38.5399 74.855 38.1474C74.73 37.5349 74.6025 36.6124 74.41 35.8824C74.3575 35.5974 74.2 34.6899 74.25 34.6024C74.3275 34.3999 74.6225 34.6099 74.7675 34.3724C74.985 34.1549 74.015 31.8424 73.525 31.1824C73.3475 30.8849 73.0275 30.9899 72.6325 31.4699C72.265 31.7874 72.3975 32.5099 72.54 33.1949C72.905 34.9449 73.2275 36.7274 73.485 38.5074L71.8575 36.3049L71.785 35.9574C71.785 35.9199 71.7075 34.5249 71.6375 34.1924C71.625 34.0574 71.59 34.0174 71.745 34.0349C71.9075 34.1624 71.93 34.1674 72.0325 34.2099C72.1975 34.2374 72.3425 33.9799 72.2425 33.7424L70.7125 31.1349C70.65 31.0799 70.5825 31.0199 70.5025 31.0099C70.4225 30.9999 70.3375 31.0374 70.24 31.1674C70.055 31.3174 69.8525 31.5899 69.86 31.9399C69.905 32.5574 70.025 33.1874 70.07 33.8049L70.1175 34.0524C70.065 33.9874 70.0075 33.9274 69.9475 33.8674C68.6425 32.6049 70.545 33.6599 69.7 32.6849C68.9825 31.9599 68.7725 31.7274 68.16 31.2924C67.8525 31.1099 67.665 30.7574 67.565 31.3474C67.5275 31.8724 67.4825 32.4774 67.5225 32.9199C67.5225 33.1649 67.795 33.6274 68.035 33.8999L68.0275 33.9024ZM75.5925 34.9149C75.6975 35.2124 75.435 36.1649 75.65 36.2549C75.85 36.3524 76.13 35.5949 76.235 34.8924C76.2925 34.5099 75.985 33.1599 75.46 32.9199C75.42 32.9124 75.3775 32.8999 75.3325 32.8999C75.0325 32.8924 74.705 33.0999 74.835 33.5099C74.76 33.7349 75.475 34.4949 75.59 34.9124L75.5925 34.9149ZM52.8575 48.7399C52.8575 48.7674 53.1075 48.9624 53.4025 48.7949C54.025 48.5749 54.4125 48.3624 55.285 48.1874C55.515 48.1824 55.5 47.6174 55.1375 47.5999C54.665 47.6274 54.23 47.6449 53.7575 47.9874C53.4675 48.0424 53.4175 47.8874 53.3525 47.7399C53.28 47.3774 53.5175 47.1224 53.47 46.8499C53.4825 46.8599 53.3225 46.7299 53.12 46.7199C53.045 46.7174 52.9725 46.7299 52.905 46.7649C52.8925 46.7649 52.2475 47.1649 52.0425 47.4424C51.9175 47.5349 51.93 47.6074 51.97 47.7624C52.0675 47.9699 52.2425 47.9049 52.4375 47.8074C52.6975 47.7699 52.825 47.9324 52.8025 48.2199C52.6825 48.5799 52.855 48.7149 52.855 48.7374L52.8575 48.7399ZM55.8025 43.0124L55.8075 43.0074L55.8125 43.0024C55.8125 43.0024 55.8175 43.0024 55.8175 42.9974V42.9874C55.8175 42.9724 55.8175 42.9574 55.8125 42.9424L55.53 42.7899L49.9575 42.7624C49.8875 42.7349 49.8375 42.7074 49.8075 42.6974C49.805 42.6949 49.8 42.6899 49.7975 42.6874L49.7925 42.6824L49.7875 42.6774L49.7825 42.6699L49.7775 42.6649V42.6599L49.7725 42.6549V42.6124L49.7775 42.6074L49.7825 42.5999C49.8075 42.5624 49.875 42.5349 49.9575 42.5049C51.2875 42.3374 53.6525 41.9799 53.81 39.8849C53.785 38.7949 53.3025 38.0799 51.85 37.8799C50.7825 37.9524 50.02 38.9074 50.1425 39.9574C50.0925 40.2399 50.245 40.7949 49.9325 40.8549C47.885 41.0274 45.6475 42.2099 45.5725 43.0574H45.5675L45.5625 43.0624L45.5525 43.0674H45.5425C45.5425 43.0674 45.5325 43.0674 45.5275 43.0724H45.4975C45.4975 43.0724 45.485 43.0724 45.4775 43.0674C45.345 43.0299 45.1725 42.8299 45.2 42.5474C45.1225 41.0849 44.605 39.4274 43.795 38.1524C43.505 37.8874 43.38 37.7799 43.2975 37.7674C43.295 37.7674 43.29 37.7674 43.2875 37.7674H43.2575C43.2575 37.7674 43.2375 37.7774 43.2325 37.7874C43.2275 37.7874 43.2225 37.7924 43.2175 37.7949C43.155 37.8399 43.08 37.9374 42.915 38.0474C42.635 38.3399 42.585 38.5449 42.6025 39.1299C42.6175 39.1849 43.1325 40.5074 43.5675 41.4349C43.86 42.3974 44.1325 43.4999 43.9325 44.5399C43.245 45.9149 41.8625 47.1499 40.53 47.8199C39.85 48.0199 39.2625 47.9524 39.1075 47.8149L39.1025 47.8099C38.7125 47.5674 38.7025 47.1399 38.7275 47.0649V47.0599L38.7325 47.0549C39.8575 46.3324 41.1425 45.7499 42.15 43.7974C42.4475 43.0524 42.5375 42.6049 42.2425 41.4524C42.1275 41.0224 41.985 40.6699 41.6675 40.3649L41.6725 40.3599C41.865 40.2774 42.36 40.6124 42.4375 40.4049C42.32 39.8549 41.915 39.1149 41.4575 38.7374C41.0575 38.4024 40.62 38.3624 40.2525 38.6724C39.84 38.8849 39.75 39.6449 39.95 40.3124C40.17 40.8149 40.7675 40.9024 41.1925 41.9124V41.9174C41.2025 41.9724 41.3375 42.6724 41.125 42.9499C40.95 43.4499 38.72 45.0699 38.56 45.1699C38.56 45.1699 38.5475 45.1774 38.545 45.1799L38.54 45.1849C38.54 45.1849 38.5375 45.1849 38.535 45.1899C38.535 45.1899 38.5325 45.1899 38.53 45.1949H38.52C38.52 45.1949 38.5175 45.1924 38.515 45.1899V45.1849C38.515 45.1849 38.5125 45.1774 38.51 45.1749C38.5025 45.1299 38.515 45.0324 38.51 44.8649C38.495 44.5624 38.6325 43.8724 38.6225 43.7549V43.7499L38.6175 43.7449V43.7399H38.6125C37.875 44.1774 37.63 45.5249 37.495 45.9249C35.6275 47.1149 33.5025 47.9999 32.2825 49.2049C31.645 50.1199 36.6675 48.1524 37.25 47.9149C37.255 47.9149 37.26 47.9249 37.265 47.9349C37.375 48.0474 37.385 48.4399 37.7175 48.7924C38.24 49.4449 39.35 49.8449 40.4275 49.5949C42.2375 48.9924 43.28 47.8549 44.3425 46.5924C44.495 46.3899 44.7325 46.2299 44.9525 46.3849C45.6825 47.8899 47.785 48.9624 50.505 49.0724C51.135 48.3674 50.8325 48.0199 50.5775 47.8724C50.5 47.8174 49.225 47.3649 49.0275 46.9099C48.9025 46.4849 49.205 46.1099 49.8125 45.8274C51.56 45.6324 53.275 45.4174 54.9375 44.9249C54.955 44.4099 55.2825 43.6424 55.5025 43.3074C55.655 43.0749 55.7525 43.0524 55.79 43.0199V43.0124H55.8025ZM51.205 39.7874C51.21 39.7674 51.215 39.7599 51.225 39.7424C51.2275 39.7374 51.23 39.7349 51.235 39.7224L51.24 39.7174C51.24 39.7174 51.255 39.6974 51.265 39.6899C51.3 39.6624 51.35 39.6449 51.4075 39.6349C51.53 39.6249 51.6875 39.6624 51.84 39.7424C52.0625 39.8599 52.2 40.0399 52.1825 40.1699C52.1825 40.1699 52.1825 40.1774 52.1825 40.1899C52.1825 40.1899 52.175 40.1974 52.1725 40.2099L52.1675 40.2299L52.1625 40.2374C52.1625 40.2374 52.16 40.2424 52.1575 40.2474C52.15 40.2574 52.14 40.2749 52.1275 40.2849C52.02 40.3774 51.775 40.3574 51.5425 40.2399C51.3225 40.1224 51.1875 39.9424 51.2025 39.8124C51.2025 39.8099 51.2075 39.8049 51.2075 39.7924L51.205 39.7874ZM48.9775 44.9324C48.38 45.1224 47.805 45.2699 47.8025 46.0649C47.88 46.4599 47.865 46.6649 47.7975 46.7599C47.7925 46.7674 47.785 46.7799 47.7775 46.7874L47.7725 46.7924L47.7675 46.7974C47.7675 46.7974 47.765 46.7999 47.7625 46.8024L47.7575 46.8074C47.7575 46.8074 47.75 46.8099 47.7475 46.8124C47.7375 46.8199 47.7275 46.8199 47.7175 46.8324C47.71 46.8324 47.6975 46.8324 47.6875 46.8374C47.545 46.8574 47.34 46.7324 47.185 46.6574C46.8175 46.4124 45.7825 45.8224 45.635 44.5549C45.615 44.2699 45.8475 44.0224 46.22 43.9974C46.2375 43.9974 46.255 43.9974 46.2725 43.9974H46.2825C46.9025 44.1524 47.8175 44.1699 48.6125 44.2449C49.26 44.2824 49.58 44.7499 48.9725 44.9449V44.9324H48.9775ZM35.9 43.1799C35.885 43.4074 36.585 43.6874 36.6275 44.2124C36.7275 44.4299 36.4775 45.1274 36.6875 45.1924C36.8775 45.2649 37.1425 44.7099 37.2425 44.1949C37.2975 43.9124 37.0025 42.9249 36.5025 42.7474C36.425 42.7274 36.345 42.7199 36.265 42.7274C36.0225 42.7474 35.8075 42.8624 35.905 43.1774L35.9 43.1799ZM47.1325 39.9624C47.775 40.2449 49.305 40.0799 48.9325 39.1674C48.9325 39.0849 48.9075 38.7999 48.8975 38.7224C48.8325 38.5824 48.71 38.5299 48.595 38.5474C48.48 38.5674 48.3675 38.6549 48.3275 38.7999C48.3025 38.8949 48.3775 39.0524 48.285 39.1024C48.2325 39.1574 48.0225 39.1224 48.0325 38.8599C48.0325 38.7774 47.965 38.6849 47.925 38.6299C47.885 38.6024 47.8625 38.5924 47.7875 38.5924C47.6975 38.5949 47.6975 38.6199 47.645 38.6874C47.625 38.7524 47.5975 38.8274 47.5975 38.9074C47.5875 38.9999 47.55 39.0324 47.475 39.0474C47.3925 39.0474 47.41 39.0574 47.3425 39.0099C47.305 38.9649 47.25 38.9549 47.25 38.8849C47.25 38.8199 47.235 38.6999 47.2125 38.6524C47.1775 38.6074 47.115 38.5974 47.0525 38.5799C46.7025 38.5799 46.6825 38.9474 46.7025 39.0874C46.6775 39.1149 46.6575 39.7774 47.135 39.9599V39.9674L47.1325 39.9624ZM52.5675 33.4474C53.6425 34.7799 54.6775 36.1199 55.6775 37.5049C55.8325 38.5349 55.95 39.5399 56.0225 40.5424C56.185 42.7399 56.2325 45.4749 56.085 47.7899C56.5325 47.8099 57.2475 47.1249 57.5 46.1274C57.6625 44.7474 57.4425 41.9324 57.4275 41.1174C57.4175 40.7799 57.395 40.3749 57.3675 39.9524C58.5825 41.7824 59.7175 43.6649 60.765 45.5974C61.17 45.4224 61.08 43.3249 60.8425 43.0324C59.955 41.2749 58.7325 39.5399 58.3425 38.8699C58.2025 38.6299 57.7225 37.9574 57.1525 37.1799C57.0475 36.0724 56.935 35.1349 56.86 34.8524C56.6775 33.6824 57.3825 34.9824 57.285 34.3049C57.055 33.1374 56.3575 32.3424 55.53 31.2724C55.2625 30.9249 55.27 30.8524 54.8575 31.3549C54.6125 31.8699 54.615 32.2974 54.6875 32.6974C54.55 32.5149 54.4075 32.3374 54.2525 32.1674L52.9025 31.1124C52.715 30.9899 52.36 30.7999 52.0875 30.8249C51.925 30.8449 51.795 30.9274 51.7475 31.1474C51.6825 31.6699 51.7175 31.9524 51.81 32.3874C51.8825 32.6774 52.34 33.1624 52.565 33.4449L52.5675 33.4474ZM54.845 33.3749C54.87 33.4874 54.9 33.5999 54.9175 33.7149C54.98 33.9624 55.0325 34.2099 55.0875 34.4574C54.85 34.1574 54.655 33.9149 54.57 33.8274C54.035 33.2399 54.5825 33.4424 54.8425 33.3749H54.845Z" fill="white"></path></g><defs><clipPath id="clip0_26_550"><rect width="100" height="100" fill="white"></rect></clipPath></defs></svg>