<svg xmlns="http://www.w3.org/2000/svg" width="109" height="53" viewBox="0 0 109 53" fill="none"><g clip-path="url(#clip0_18_419)"><path d="M102.358 0H109L104.413 38.537C104.182 40.4704 102.432 42.0454 100.507 42.0454H96.6651C95.5444 42.0454 94.6732 41.0638 94.8072 39.9478L97.2012 19.8302L89.8628 30.4675C89.1926 31.438 88.0831 32.0426 86.9699 32.0426H82.6696L77.1518 19.8302L74.9403 38.4101C74.702 40.4144 72.8851 42.0454 70.8894 42.0454H67.1774C66.0567 42.0454 65.1855 41.0638 65.3196 39.9478L69.523 4.6431C69.8283 2.08641 72.1479 0 74.6945 0H79.5496L87.1933 19.7108L97.9421 2.5343C98.9176 0.974155 100.612 0 102.358 0ZM65.9488 11.9063C65.9488 10.1558 65.569 8.50986 64.8318 7.00944C62.5309 2.35887 58.2865 0 52.2102 0H41.4688C38.9296 0 36.5989 2.09014 36.2973 4.6431L32.1869 39.164C32.0008 40.7428 33.1401 42.0417 34.7075 42.0417H36.1186H37.2542H47.2025C53.2788 42.0417 58.0854 39.6828 61.4921 35.0323C62.5867 33.5356 63.3574 31.8858 63.7744 30.1354C64.2063 28.3251 64.6829 25.2571 65.1892 21.0171C65.6919 16.7808 65.9488 13.7128 65.9488 11.8989V11.9063ZM45.6649 8.33817H50.4938C52.9697 8.33817 54.7234 9.23768 55.7026 11.0106C56.1047 11.7235 56.3206 12.7237 56.343 13.9778C56.3653 15.1759 56.1642 17.546 55.751 21.0246C55.3377 24.5032 54.9728 26.877 54.6638 28.0713C54.3436 29.3254 53.8857 30.3257 53.3123 31.0423C51.9124 32.8115 49.9465 33.711 47.4706 33.711H42.1613L43.107 26.6717" fill="url(#paint0_linear_18_419)"></path><path d="M38.7584 41.4632C37.8983 40.8958 37.3324 39.9889 37.0829 38.9699L32.6486 21.0208L27.5181 0H23.4524C21.5163 0 19.6286 1.22796 18.75 3.05683L0 42.0417H7.1932C8.77183 42.0417 10.276 41.0265 10.9387 39.5149L12.6477 35.6145H26.9857L27.6149 38.1749C28.1696 40.433 30.2062 42.0417 32.5034 42.0417H36.316H37.7754H37.8387H40.2253C39.6668 41.9446 39.1791 41.7431 38.7546 41.4632H38.7584ZM16.1624 27.8885L22.2609 13.9741L25.0459 27.8885H16.1586H16.1624Z" fill="white"></path><path d="M-4.00685e-05 46.9834C-0.0261024 46.6251 0.160057 46.4459 0.554715 46.4459H0.871185V49.1594H4.22578V46.4459H5.11562V52.9104H4.22578V49.8835H0.874909V52.9104H-4.00685e-05V46.9834Z" fill="white"></path><path d="M11.7913 46.9834C11.7913 46.6251 11.9775 46.4459 12.3461 46.4459H16.1251V47.17H12.6588V49.1594H15.2725V49.402C15.2725 49.723 15.0938 49.8835 14.7364 49.8835H12.6625V52.1863H16.1288V52.9104H11.7913V46.9834Z" fill="white"></path><path d="M24.8783 46.7781C24.9528 46.5541 25.1203 46.4422 25.3772 46.4422H26.3229L28.6015 52.9067H27.5627L27.0266 51.4025H24.3198L23.8023 52.9067H22.7449L24.8746 46.7781H24.8783ZM24.5246 50.6598H26.8032L25.6714 47.3155L24.5209 50.6598H24.5246Z" fill="white"></path><path d="M35.3144 46.9834C35.3144 46.6251 35.5006 46.4459 35.8691 46.4459H36.1856V52.1863H39.6519V52.9104H35.3144V46.9834Z" fill="white"></path><path d="M44.6224 46.9834C44.5963 46.6251 44.7825 46.4459 45.1771 46.4459H49.4402V47.17H47.4743V52.9104H46.5845V47.17H44.6187V46.9834H44.6224Z" fill="white"></path><path d="M56.168 46.9834C56.1419 46.6251 56.3281 46.4459 56.7227 46.4459H57.0392V49.1594H60.3938V46.4459H61.2836V52.9104H60.3938V49.8835H57.0392V52.9104H56.168V46.9834Z" fill="white"></path><path d="M73.5925 50.9211C73.2947 52.3319 72.3676 53.0261 70.8113 53C68.8455 53 67.8663 51.8989 67.8737 49.6931C67.8811 47.4873 68.9087 46.3675 70.9602 46.3302C71.7756 46.319 72.4048 46.5094 72.8516 46.905C73.2611 47.2745 73.5069 47.7709 73.5925 48.3905H73.1457C72.8479 48.3905 72.6319 48.2375 72.4979 47.9277C72.2149 47.3566 71.69 47.073 70.923 47.073C69.5268 47.0618 68.8157 47.9277 68.7933 49.6744C68.8194 51.3839 69.5082 52.2573 70.8671 52.2946C71.783 52.2684 72.3862 51.8131 72.6841 50.9211H73.5925Z" fill="white"></path><path d="M81.8803 46.7781C81.9547 46.5541 82.1223 46.4422 82.3792 46.4422H83.3249L85.6035 52.9067H84.5647L84.0286 51.4025H81.3218L80.8043 52.9067H79.7469L81.8766 46.7781H81.8803ZM81.5266 50.6598H83.8052L82.6733 47.3155L81.5228 50.6598H81.5266Z" fill="white"></path><path d="M92.3164 46.9834C92.3164 46.6251 92.4951 46.4459 92.8525 46.4459H95.0939C96.3895 46.4347 97.0523 47.0095 97.0783 48.174C97.0523 48.9914 96.7246 49.5624 96.0954 49.8834C96.4789 49.9581 96.7246 50.1559 96.8363 50.4769C96.9368 50.7755 96.9964 51.2831 97.0225 51.9997C97.0485 52.5185 97.0858 52.8246 97.1342 52.9104H96.2257C96.1513 52.7984 96.114 52.6081 96.114 52.3356C96.1029 51.3316 96.0098 50.7195 95.8348 50.4955C95.7343 50.3351 95.5556 50.2529 95.2987 50.2529H93.1876V52.9104H92.3164V46.9834ZM95.0566 49.5289C95.872 49.5289 96.2592 49.0847 96.2257 48.1927C96.2257 47.547 95.8422 47.2073 95.0753 47.17H93.1839V49.5102L95.0566 49.5289Z" fill="white"></path><path d="M103.698 46.9834C103.698 46.6251 103.884 46.4459 104.253 46.4459H108.032V47.17H104.566V49.1594H107.179V49.402C107.179 49.723 107.001 49.8835 106.643 49.8835H104.569V52.1863H108.036V52.9104H103.698V46.9834Z" fill="white"></path></g><defs><linearGradient id="paint0_linear_18_419" x1="21.1067" y1="41.6013" x2="96.1976" y2="10.7046" gradientUnits="userSpaceOnUse"><stop offset="0.04" stop-color="#0C6CB0"></stop><stop offset="0.05" stop-color="#1772B3"></stop><stop offset="0.11" stop-color="#4D93C5"></stop><stop offset="0.18" stop-color="#7CB0D4"></stop><stop offset="0.24" stop-color="#A4C8E1"></stop><stop offset="0.31" stop-color="#C5DCEC"></stop><stop offset="0.38" stop-color="#DEEBF4"></stop><stop offset="0.45" stop-color="#F0F6FA"></stop><stop offset="0.53" stop-color="#FBFCFD"></stop><stop offset="0.61" stop-color="white"></stop></linearGradient><clipPath id="clip0_18_419"><rect width="109" height="53" fill="white"></rect></clipPath></defs></svg>