<?xml version="1.0" encoding="UTF-8"?>
<svg xmlns="http://www.w3.org/2000/svg" width="56" height="80" viewBox="0 0 56 80" fill="none">
  <rect width="56" height="80" rx="8" fill="white"></rect>
  <path d="M27.7085 16.7357L27.6968 16.7349C27.2227 16.7026 26.76 16.3202 26.7502 15.7623C26.7408 15.2277 27.1459 14.7643 27.6837 14.7538L27.6838 14.7538C32.8327 14.6554 37.85 16.4911 41.8368 19.924C44.6147 22.3126 46.8063 25.4106 48.1779 28.8813L27.7085 16.7357ZM27.7085 16.7357L27.7201 16.7354M27.7085 16.7357L27.7201 16.7354M27.7201 16.7354C32.3894 16.617 36.9849 18.3188 40.624 21.4515C43.1592 23.6338 45.1649 26.4646 46.4172 29.6366C46.5658 30.0136 46.9178 30.25 47.2968 30.25H47.2986C47.424 30.25 47.5495 30.2235 47.6679 30.1724L47.6702 30.1714M27.7201 16.7354L47.6702 30.1714M47.6702 30.1714C48.1568 29.9559 48.374 29.376 48.1781 28.8816L47.6702 30.1714Z" fill="#2AA8FF" stroke="#2AA8FF" stroke-width="0.5"></path>
  <path d="M47.033 27.5562L43.1711 25.1769C43.1709 25.1768 43.1707 25.1767 43.1705 25.1765C42.699 24.8833 42.1166 25.0784 41.8679 25.5644C41.6223 26.0372 41.7706 26.6494 42.2241 26.9281C42.2241 26.9281 42.2242 26.9281 42.2242 26.9282L47.3934 30.1135C47.3938 30.1138 47.3942 30.114 47.3946 30.1143C47.542 30.2069 47.7064 30.25 47.8687 30.25C48.0256 30.25 48.182 30.2089 48.3243 30.1257L48.325 30.1253C48.6097 29.9576 48.7916 29.6495 48.8127 29.311C48.8128 29.3108 48.8128 29.3105 48.8128 29.3103L49.2477 22.834L49.2478 22.8332C49.2819 22.2995 48.9137 21.7954 48.3742 21.7513L48.3742 21.751L48.3626 21.7506C47.8316 21.7319 47.3948 22.1429 47.3597 22.6893C47.3596 22.6894 47.3596 22.6895 47.3596 22.6896L47.033 27.5562Z" fill="#2AA8FF" stroke="#2AA8FF" stroke-width="0.5"></path>
  <path d="M7.34068 44.8269L7.34068 44.8269L7.33925 44.8275C6.84703 45.0416 6.6226 45.6216 6.82351 46.1195C8.2204 49.5908 10.4521 52.6889 13.2805 55.0772C17.2258 58.4129 22.1947 60.2496 27.2751 60.25C27.2757 60.25 27.2763 60.25 27.277 60.25H27.2861C27.8274 60.25 28.25 59.7978 28.25 59.2591C28.25 58.7204 27.8274 58.2682 27.2861 58.2682H27.2751C22.6429 58.2682 18.1064 56.5911 14.5042 53.5469C11.9224 51.3641 9.88006 48.5332 8.60503 45.3615L8.60488 45.3612C8.40211 44.8592 7.83952 44.6135 7.34068 44.8269Z" fill="#2AA8FF" stroke="#2AA8FF" stroke-width="0.5"></path>
  <path d="M6.63598 53.25L6.6258 53.2492C6.08638 53.205 5.71805 52.7011 5.75225 52.1674L5.75229 52.1666L6.18721 45.6918C6.18723 45.6916 6.18724 45.6913 6.18726 45.6911C6.2084 45.3529 6.39002 45.0452 6.67429 44.8774C6.96406 44.7043 7.31656 44.7074 7.60509 44.8878C7.60537 44.8879 7.60566 44.8881 7.60594 44.8883L12.7758 48.0733C12.7759 48.0734 12.776 48.0734 12.7761 48.0735C13.2294 48.3522 13.3777 48.9642 13.1321 49.4369C12.8834 49.9228 12.3009 50.1178 11.8295 49.8247C11.8293 49.8245 11.8291 49.8244 11.829 49.8243L7.96701 47.4456L7.64032 52.3117C7.64032 52.3117 7.64032 52.3117 7.64032 52.3118C7.60585 52.8266 7.2071 53.249 6.6981 53.25H6.698H6.69791H6.69781H6.69772H6.69762H6.69753H6.69743H6.69734H6.69724H6.69715H6.69706H6.69696H6.69687H6.69677H6.69668H6.69658H6.69649H6.69639H6.63598ZM6.63598 53.25H6.64618M6.63598 53.25H6.64618M6.64618 53.25H6.64629M6.64618 53.25H6.64629M6.64629 53.25H6.64639M6.64629 53.25H6.64639M6.64639 53.25H6.6465M6.64639 53.25H6.6465M6.6465 53.25H6.6466M6.6465 53.25H6.6466M6.6466 53.25H6.64671M6.6466 53.25H6.64671M6.64671 53.25H6.64681M6.64671 53.25H6.64681M6.64681 53.25H6.64692M6.64681 53.25H6.64692M6.64692 53.25H6.64702M6.64692 53.25H6.64702M6.64702 53.25H6.64713M6.64702 53.25H6.64713M6.64713 53.25H6.64723M6.64713 53.25H6.64723M6.64723 53.25H6.64734M6.64723 53.25H6.64734M6.64734 53.25H6.64744M6.64734 53.25H6.64744M6.64744 53.25H6.64755M6.64744 53.25H6.64755M6.64755 53.25H6.64765M6.64755 53.25H6.64765M6.64765 53.25H6.64776M6.64765 53.25H6.64776M6.64776 53.25H6.64786M6.64776 53.25H6.64786M6.64786 53.25H6.64797M6.64786 53.25H6.64797M6.64797 53.25H6.64807M6.64797 53.25H6.64807M6.64807 53.25H6.64817M6.64807 53.25H6.64817M6.64817 53.25H6.64828M6.64817 53.25H6.64828M6.64828 53.25H6.64838M6.64828 53.25H6.64838M6.64838 53.25H6.64849M6.64838 53.25H6.64849M6.64849 53.25H6.64859M6.64849 53.25H6.64859M6.64859 53.25H6.6487M6.64859 53.25H6.6487M6.6487 53.25H6.6488M6.6487 53.25H6.6488M6.6488 53.25H6.64891M6.6488 53.25H6.64891M6.64891 53.25H6.64901M6.64891 53.25H6.64901M6.64901 53.25H6.64912M6.64901 53.25H6.64912M6.64912 53.25H6.64922M6.64912 53.25H6.64922M6.64922 53.25H6.64933M6.64922 53.25H6.64933M6.64933 53.25H6.64943M6.64933 53.25H6.64943M6.64943 53.25H6.64954M6.64943 53.25H6.64954M6.64954 53.25H6.64964M6.64954 53.25H6.64964M6.64964 53.25H6.64975M6.64964 53.25H6.64975M6.64975 53.25H6.64985M6.64975 53.25H6.64985M6.64985 53.25H6.64996M6.64985 53.25H6.64996M6.64996 53.25H6.65006M6.64996 53.25H6.65006M6.65006 53.25H6.65017M6.65006 53.25H6.65017M6.65017 53.25H6.65027M6.65017 53.25H6.65027M6.65027 53.25H6.65038M6.65027 53.25H6.65038M6.65038 53.25H6.65048M6.65038 53.25H6.65048M6.65048 53.25H6.65059M6.65048 53.25H6.65059M6.65059 53.25H6.65069M6.65059 53.25H6.65069M6.65069 53.25H6.6508M6.65069 53.25H6.6508M6.6508 53.25H6.6509M6.6508 53.25H6.6509M6.6509 53.25H6.65101M6.6509 53.25H6.65101M6.65101 53.25H6.65111M6.65101 53.25H6.65111M6.65111 53.25H6.65122M6.65111 53.25H6.65122M6.65122 53.25H6.65132M6.65122 53.25H6.65132M6.65132 53.25H6.65143M6.65132 53.25H6.65143M6.65143 53.25H6.65153M6.65143 53.25H6.65153M6.65153 53.25H6.65163M6.65153 53.25H6.65163M6.65163 53.25H6.65174M6.65163 53.25H6.65174M6.65174 53.25H6.65184M6.65174 53.25H6.65184M6.65184 53.25H6.65195M6.65184 53.25H6.65195M6.65195 53.25H6.65205M6.65195 53.25H6.65205M6.65205 53.25H6.65216M6.65205 53.25H6.65216M6.65216 53.25H6.65226M6.65216 53.25H6.65226M6.65226 53.25H6.65237M6.65226 53.25H6.65237M6.65237 53.25H6.65247M6.65237 53.25H6.65247M6.65247 53.25H6.65258M6.65247 53.25H6.65258M6.65258 53.25H6.65268M6.65258 53.25H6.65268M6.65268 53.25H6.65279M6.65268 53.25H6.65279M6.65279 53.25H6.65289M6.65279 53.25H6.65289M6.65289 53.25H6.653M6.65289 53.25H6.653M6.653 53.25H6.6531M6.653 53.25H6.6531M6.6531 53.25H6.65321M6.6531 53.25H6.65321M6.65321 53.25H6.65331M6.65321 53.25H6.65331M6.65331 53.25H6.65342M6.65331 53.25H6.65342M6.65342 53.25H6.65352M6.65342 53.25H6.65352M6.65352 53.25H6.65362M6.65352 53.25H6.65362M6.65362 53.25H6.65373M6.65362 53.25H6.65373M6.65373 53.25H6.65383M6.65373 53.25H6.65383M6.65383 53.25H6.65394M6.65383 53.25H6.65394M6.65394 53.25H6.65404M6.65394 53.25H6.65404M6.65404 53.25H6.65415M6.65404 53.25H6.65415M6.65415 53.25H6.65425M6.65415 53.25H6.65425M6.65425 53.25H6.65436M6.65425 53.25H6.65436M6.65436 53.25H6.65446M6.65436 53.25H6.65446M6.65446 53.25H6.65457M6.65446 53.25H6.65457M6.65457 53.25H6.65467M6.65457 53.25H6.65467M6.65467 53.25H6.65478M6.65467 53.25H6.65478M6.65478 53.25H6.65488M6.65478 53.25H6.65488M6.65488 53.25H6.65499M6.65488 53.25H6.65499M6.65499 53.25H6.65509M6.65499 53.25H6.65509M6.65509 53.25H6.65519M6.65509 53.25H6.65519M6.65519 53.25H6.6553M6.65519 53.25H6.6553M6.6553 53.25H6.6554M6.6553 53.25H6.6554M6.6554 53.25H6.65551M6.6554 53.25H6.65551M6.65551 53.25H6.65561M6.65551 53.25H6.65561M6.65561 53.25H6.65572M6.65561 53.25H6.65572M6.65572 53.25H6.65582M6.65572 53.25H6.65582M6.65582 53.25H6.65593M6.65582 53.25H6.65593M6.65593 53.25H6.65603M6.65593 53.25H6.65603M6.65603 53.25H6.65614M6.65603 53.25H6.65614M6.65614 53.25H6.65624M6.65614 53.25H6.65624M6.65624 53.25H6.65634M6.65624 53.25H6.65634M6.65634 53.25H6.65645M6.65634 53.25H6.65645M6.65645 53.25H6.65655M6.65645 53.25H6.65655M6.65655 53.25H6.65666M6.65655 53.25H6.65666M6.65666 53.25H6.65676M6.65666 53.25H6.65676M6.65676 53.25H6.65687M6.65676 53.25H6.65687M6.65687 53.25H6.65697M6.65687 53.25H6.65697M6.65697 53.25H6.65708M6.65697 53.25H6.65708M6.65708 53.25H6.65718M6.65708 53.25H6.65718M6.65718 53.25H6.65728M6.65718 53.25H6.65728M6.65728 53.25H6.65739M6.65728 53.25H6.65739M6.65739 53.25H6.65749M6.65739 53.25H6.65749M6.65749 53.25H6.6576M6.65749 53.25H6.6576M6.6576 53.25H6.6577M6.6576 53.25H6.6577M6.6577 53.25H6.65781M6.6577 53.25H6.65781M6.65781 53.25H6.65791M6.65781 53.25H6.65791M6.65791 53.25H6.65802M6.65791 53.25H6.65802M6.65802 53.25H6.65812M6.65802 53.25H6.65812M6.65812 53.25H6.65822M6.65812 53.25H6.65822M6.65822 53.25H6.65833M6.65822 53.25H6.65833M6.65833 53.25H6.65843M6.65833 53.25H6.65843M6.65843 53.25H6.65854M6.65843 53.25H6.65854M6.65854 53.25H6.65864M6.65854 53.25H6.65864M6.65864 53.25H6.65875M6.65864 53.25H6.65875M6.65875 53.25H6.65885M6.65875 53.25H6.65885M6.65885 53.25H6.65895M6.65885 53.25H6.65895M6.65895 53.25H6.65906M6.65895 53.25H6.65906M6.65906 53.25H6.65916M6.65906 53.25H6.65916M6.65916 53.25H6.65927M6.65916 53.25H6.65927M6.65927 53.25H6.65937M6.65927 53.25H6.65937M6.65937 53.25H6.65948M6.65937 53.25H6.65948M6.65948 53.25H6.65958M6.65948 53.25H6.65958M6.65958 53.25H6.65968M6.65958 53.25H6.65968M6.65968 53.25H6.65979M6.65968 53.25H6.65979M6.65979 53.25H6.65989M6.65979 53.25H6.65989M6.65989 53.25H6.66M6.65989 53.25H6.66M6.66 53.25H6.6601M6.66 53.25H6.6601M6.6601 53.25H6.66021M6.6601 53.25H6.66021M6.66021 53.25H6.66031M6.66021 53.25H6.66031M6.66031 53.25H6.66041M6.66031 53.25H6.66041M6.66041 53.25H6.66052M6.66041 53.25H6.66052M6.66052 53.25H6.66062M6.66052 53.25H6.66062M6.66062 53.25H6.66073M6.66062 53.25H6.66073M6.66073 53.25H6.66083M6.66073 53.25H6.66083M6.66083 53.25H6.66093M6.66083 53.25H6.66093M6.66093 53.25H6.66104M6.66093 53.25H6.66104M6.66104 53.25H6.66114M6.66104 53.25H6.66114M6.66114 53.25H6.66125M6.66114 53.25H6.66125M6.66125 53.25H6.66135M6.66125 53.25H6.66135M6.66135 53.25H6.66145M6.66135 53.25H6.66145M6.66145 53.25H6.66156M6.66145 53.25H6.66156M6.66156 53.25H6.66166M6.66156 53.25H6.66166M6.66166 53.25H6.66177M6.66166 53.25H6.66177M6.66177 53.25H6.66187M6.66177 53.25H6.66187M6.66187 53.25H6.66197M6.66187 53.25H6.66197M6.66197 53.25H6.66208M6.66197 53.25H6.66208M6.66208 53.25H6.66218M6.66208 53.25H6.66218M6.66218 53.25H6.66229M6.66218 53.25H6.66229M6.66229 53.25H6.66239M6.66229 53.25H6.66239M6.66239 53.25H6.66249M6.66239 53.25H6.66249M6.66249 53.25H6.6626M6.66249 53.25H6.6626M6.6626 53.25H6.6627M6.6626 53.25H6.6627M6.6627 53.25H6.66281M6.6627 53.25H6.66281M6.66281 53.25H6.66291M6.66281 53.25H6.66291M6.66291 53.25H6.66301M6.66291 53.25H6.66301M6.66301 53.25H6.66312M6.66301 53.25H6.66312M6.66312 53.25H6.66322M6.66312 53.25H6.66322M6.66322 53.25H6.66333M6.66322 53.25H6.66333M6.66333 53.25H6.66343M6.66333 53.25H6.66343M6.66343 53.25H6.66353M6.66343 53.25H6.66353M6.66353 53.25H6.66364M6.66353 53.25H6.66364M6.66364 53.25H6.66374M6.66364 53.25H6.66374M6.66374 53.25H6.66384M6.66374 53.25H6.66384M6.66384 53.25H6.66395M6.66384 53.25H6.66395M6.66395 53.25H6.66405M6.66395 53.25H6.66405M6.66405 53.25H6.66416M6.66405 53.25H6.66416M6.66416 53.25H6.66426M6.66416 53.25H6.66426M6.66426 53.25H6.66436M6.66426 53.25H6.66436M6.66436 53.25H6.66447M6.66436 53.25H6.66447M6.66447 53.25H6.66457M6.66447 53.25H6.66457M6.66457 53.25H6.66467M6.66457 53.25H6.66467M6.66467 53.25H6.66478M6.66467 53.25H6.66478M6.66478 53.25H6.66488M6.66478 53.25H6.66488M6.66488 53.25H6.66498M6.66488 53.25H6.66498M6.66498 53.25H6.66509M6.66498 53.25H6.66509M6.66509 53.25H6.66519M6.66509 53.25H6.66519M6.66519 53.25H6.6653M6.66519 53.25H6.6653M6.6653 53.25H6.6654M6.6653 53.25H6.6654M6.6654 53.25H6.6655M6.6654 53.25H6.6655M6.6655 53.25H6.66561M6.6655 53.25H6.66561M6.66561 53.25H6.66571M6.66561 53.25H6.66571M6.66571 53.25H6.66581M6.66571 53.25H6.66581M6.66581 53.25H6.66592M6.66581 53.25H6.66592M6.66592 53.25H6.66602M6.66592 53.25H6.66602M6.66602 53.25H6.66612M6.66602 53.25H6.66612M6.66612 53.25H6.66623M6.66612 53.25H6.66623M6.66623 53.25H6.66633M6.66623 53.25H6.66633M6.66633 53.25H6.66643M6.66633 53.25H6.66643M6.66643 53.25H6.66654M6.66643 53.25H6.66654M6.66654 53.25H6.66664M6.66654 53.25H6.66664M6.66664 53.25H6.66674M6.66664 53.25H6.66674M6.66674 53.25H6.66685M6.66674 53.25H6.66685M6.66685 53.25H6.66695M6.66685 53.25H6.66695M6.66695 53.25H6.66705M6.66695 53.25H6.66705M6.66705 53.25H6.66716M6.66705 53.25H6.66716M6.66716 53.25H6.66726M6.66716 53.25H6.66726M6.66726 53.25H6.66736M6.66726 53.25H6.66736M6.66736 53.25H6.66747M6.66736 53.25H6.66747M6.66747 53.25H6.66757M6.66747 53.25H6.66757M6.66757 53.25H6.66767M6.66757 53.25H6.66767M6.66767 53.25H6.66778M6.66767 53.25H6.66778M6.66778 53.25H6.66788M6.66778 53.25H6.66788M6.66788 53.25H6.66798M6.66788 53.25H6.66798M6.66798 53.25H6.66809M6.66798 53.25H6.66809M6.66809 53.25H6.66819M6.66809 53.25H6.66819M6.66819 53.25H6.66829M6.66819 53.25H6.66829M6.66829 53.25H6.66839M6.66829 53.25H6.66839M6.66839 53.25H6.6685M6.66839 53.25H6.6685M6.6685 53.25H6.6686M6.6685 53.25H6.6686M6.6686 53.25H6.6687M6.6686 53.25H6.6687M6.6687 53.25H6.66881M6.6687 53.25H6.66881M6.66881 53.25H6.66891M6.66881 53.25H6.66891M6.66891 53.25H6.66901M6.66891 53.25H6.66901M6.66901 53.25H6.66912M6.66901 53.25H6.66912M6.66912 53.25H6.66922M6.66912 53.25H6.66922M6.66922 53.25H6.66932M6.66922 53.25H6.66932M6.66932 53.25H6.66942M6.66932 53.25H6.66942M6.66942 53.25H6.66953M6.66942 53.25H6.66953M6.66953 53.25H6.66963M6.66953 53.25H6.66963M6.66963 53.25H6.66973M6.66963 53.25H6.66973M6.66973 53.25H6.66984M6.66973 53.25H6.66984M6.66984 53.25H6.66994M6.66984 53.25H6.66994M6.66994 53.25H6.67004M6.66994 53.25H6.67004M6.67004 53.25H6.67014M6.67004 53.25H6.67014M6.67014 53.25H6.67025M6.67014 53.25H6.67025M6.67025 53.25H6.67035M6.67025 53.25H6.67035M6.67035 53.25H6.67045M6.67035 53.25H6.67045M6.67045 53.25H6.67056M6.67045 53.25H6.67056M6.67056 53.25H6.67066M6.67056 53.25H6.67066M6.67066 53.25H6.67076M6.67066 53.25H6.67076M6.67076 53.25H6.67086M6.67076 53.25H6.67086M6.67086 53.25H6.67097M6.67086 53.25H6.67097M6.67097 53.25H6.67107M6.67097 53.25H6.67107M6.67107 53.25H6.67117M6.67107 53.25H6.67117M6.67117 53.25H6.67127M6.67117 53.25H6.67127M6.67127 53.25H6.67138M6.67127 53.25H6.67138M6.67138 53.25H6.67148M6.67138 53.25H6.67148M6.67148 53.25H6.67158M6.67148 53.25H6.67158M6.67158 53.25H6.67168M6.67158 53.25H6.67168M6.67168 53.25H6.67179M6.67168 53.25H6.67179M6.67179 53.25H6.67189M6.67179 53.25H6.67189M6.67189 53.25H6.67199M6.67189 53.25H6.67199M6.67199 53.25H6.67209M6.67199 53.25H6.67209M6.67209 53.25H6.6722M6.67209 53.25H6.6722M6.6722 53.25H6.6723M6.6722 53.25H6.6723M6.6723 53.25H6.6724M6.6723 53.25H6.6724M6.6724 53.25H6.6725M6.6724 53.25H6.6725M6.6725 53.25H6.67261M6.6725 53.25H6.67261M6.67261 53.25H6.67271M6.67261 53.25H6.67271M6.67271 53.25H6.67281M6.67271 53.25H6.67281M6.67281 53.25H6.67291M6.67281 53.25H6.67291M6.67291 53.25H6.67301M6.67291 53.25H6.67301M6.67301 53.25H6.67312M6.67301 53.25H6.67312M6.67312 53.25H6.67322M6.67312 53.25H6.67322M6.67322 53.25H6.67332M6.67322 53.25H6.67332M6.67332 53.25H6.67342M6.67332 53.25H6.67342M6.67342 53.25H6.67353M6.67342 53.25H6.67353M6.67353 53.25H6.67363M6.67353 53.25H6.67363M6.67363 53.25H6.67373M6.67363 53.25H6.67373M6.67373 53.25H6.67383M6.67373 53.25H6.67383M6.67383 53.25H6.67393M6.67383 53.25H6.67393M6.67393 53.25H6.67404M6.67393 53.25H6.67404M6.67404 53.25H6.67414M6.67404 53.25H6.67414M6.67414 53.25H6.67424M6.67414 53.25H6.67424M6.67424 53.25H6.67434M6.67424 53.25H6.67434M6.67434 53.25H6.67444M6.67434 53.25H6.67444M6.67444 53.25H6.67455M6.67444 53.25H6.67455M6.67455 53.25H6.67465M6.67455 53.25H6.67465M6.67465 53.25H6.67475M6.67465 53.25H6.67475M6.67475 53.25H6.67485M6.67475 53.25H6.67485M6.67485 53.25H6.67495M6.67485 53.25H6.67495M6.67495 53.25H6.67506M6.67495 53.25H6.67506M6.67506 53.25H6.67516M6.67506 53.25H6.67516M6.67516 53.25H6.67526M6.67516 53.25H6.67526M6.67526 53.25H6.67536M6.67526 53.25H6.67536M6.67536 53.25H6.67546M6.67536 53.25H6.67546M6.67546 53.25H6.67556M6.67546 53.25H6.67556M6.67556 53.25H6.67567M6.67556 53.25H6.67567M6.67567 53.25H6.67577M6.67567 53.25H6.67577M6.67577 53.25H6.67587M6.67577 53.25H6.67587M6.67587 53.25H6.67597M6.67587 53.25H6.67597M6.67597 53.25H6.67607M6.67597 53.25H6.67607M6.67607 53.25H6.67617M6.67607 53.25H6.67617M6.67617 53.25H6.67628M6.67617 53.25H6.67628M6.67628 53.25H6.67638M6.67628 53.25H6.67638M6.67638 53.25H6.67648M6.67638 53.25H6.67648M6.67648 53.25H6.67658M6.67648 53.25H6.67658M6.67658 53.25H6.67668M6.67658 53.25H6.67668M6.67668 53.25H6.67678M6.67668 53.25H6.67678M6.67678 53.25H6.67688M6.67678 53.25H6.67688M6.67688 53.25H6.67699M6.67688 53.25H6.67699M6.67699 53.25H6.67709M6.67699 53.25H6.67709M6.67709 53.25H6.67719M6.67709 53.25H6.67719M6.67719 53.25H6.67729M6.67719 53.25H6.67729M6.67729 53.25H6.67739M6.67729 53.25H6.67739M6.67739 53.25H6.67749M6.67739 53.25H6.67749M6.67749 53.25H6.67759M6.67749 53.25H6.67759M6.67759 53.25H6.67769M6.67759 53.25H6.67769M6.67769 53.25H6.6778M6.67769 53.25H6.6778M6.6778 53.25H6.6779M6.6778 53.25H6.6779M6.6779 53.25H6.678M6.6779 53.25H6.678M6.678 53.25H6.6781M6.678 53.25H6.6781M6.6781 53.25H6.6782M6.6781 53.25H6.6782M6.6782 53.25H6.6783M6.6782 53.25H6.6783M6.6783 53.25H6.6784M6.6783 53.25H6.6784M6.6784 53.25H6.6785M6.6784 53.25H6.6785M6.6785 53.25H6.6786M6.6785 53.25H6.6786M6.6786 53.25H6.6787M6.6786 53.25H6.6787M6.6787 53.25H6.67881M6.6787 53.25H6.67881M6.67881 53.25H6.67891M6.67881 53.25H6.67891M6.67891 53.25H6.67901M6.67891 53.25H6.67901M6.67901 53.25H6.67911M6.67901 53.25H6.67911M6.67911 53.25H6.67921M6.67911 53.25H6.67921M6.67921 53.25H6.67931M6.67921 53.25H6.67931M6.67931 53.25H6.67941M6.67931 53.25H6.67941M6.67941 53.25H6.67951M6.67941 53.25H6.67951M6.67951 53.25H6.67961M6.67951 53.25H6.67961M6.67961 53.25H6.67971M6.67961 53.25H6.67971M6.67971 53.25H6.67981M6.67971 53.25H6.67981M6.67981 53.25H6.67991M6.67981 53.25H6.67991M6.67991 53.25H6.68001M6.67991 53.25H6.68001M6.68001 53.25H6.68012M6.68001 53.25H6.68012M6.68012 53.25H6.68022M6.68012 53.25H6.68022M6.68022 53.25H6.68032M6.68022 53.25H6.68032M6.68032 53.25H6.68042M6.68032 53.25H6.68042M6.68042 53.25H6.68052M6.68042 53.25H6.68052M6.68052 53.25H6.68062M6.68052 53.25H6.68062M6.68062 53.25H6.68072M6.68062 53.25H6.68072M6.68072 53.25H6.68082M6.68072 53.25H6.68082M6.68082 53.25H6.68092M6.68082 53.25H6.68092M6.68092 53.25H6.68102M6.68092 53.25H6.68102M6.68102 53.25H6.68112M6.68102 53.25H6.68112M6.68112 53.25H6.68122M6.68112 53.25H6.68122M6.68122 53.25H6.68132M6.68122 53.25H6.68132M6.68132 53.25H6.68142M6.68132 53.25H6.68142M6.68142 53.25H6.68152M6.68142 53.25H6.68152M6.68152 53.25H6.68162M6.68152 53.25H6.68162M6.68162 53.25H6.68172M6.68162 53.25H6.68172M6.68172 53.25H6.68182M6.68172 53.25H6.68182M6.68182 53.25H6.68192M6.68182 53.25H6.68192M6.68192 53.25H6.68202M6.68192 53.25H6.68202M6.68202 53.25H6.68212M6.68202 53.25H6.68212M6.68212 53.25H6.68222M6.68212 53.25H6.68222M6.68222 53.25H6.68232M6.68222 53.25H6.68232M6.68232 53.25H6.68242M6.68232 53.25H6.68242M6.68242 53.25H6.68252M6.68242 53.25H6.68252M6.68252 53.25H6.68262M6.68252 53.25H6.68262M6.68262 53.25H6.68272M6.68262 53.25H6.68272M6.68272 53.25H6.68282M6.68272 53.25H6.68282M6.68282 53.25H6.68292M6.68282 53.25H6.68292M6.68292 53.25H6.68302M6.68292 53.25H6.68302M6.68302 53.25H6.68312M6.68302 53.25H6.68312M6.68312 53.25H6.68322M6.68312 53.25H6.68322M6.68322 53.25H6.68332M6.68322 53.25H6.68332M6.68332 53.25H6.68342M6.68332 53.25H6.68342M6.68342 53.25H6.68352M6.68342 53.25H6.68352M6.68352 53.25H6.68362M6.68352 53.25H6.68362M6.68362 53.25H6.68372M6.68362 53.25H6.68372M6.68372 53.25H6.68382M6.68372 53.25H6.68382M6.68382 53.25H6.68392M6.68382 53.25H6.68392M6.68392 53.25H6.68402M6.68392 53.25H6.68402M6.68402 53.25H6.68412M6.68402 53.25H6.68412M6.68412 53.25H6.68422M6.68412 53.25H6.68422M6.68422 53.25H6.68432M6.68422 53.25H6.68432M6.68432 53.25H6.68442M6.68432 53.25H6.68442M6.68442 53.25H6.68451M6.68442 53.25H6.68451M6.68451 53.25H6.68461M6.68451 53.25H6.68461M6.68461 53.25H6.68471M6.68461 53.25H6.68471M6.68471 53.25H6.68481M6.68471 53.25H6.68481M6.68481 53.25H6.68491M6.68481 53.25H6.68491M6.68491 53.25H6.68501M6.68491 53.25H6.68501M6.68501 53.25H6.68511M6.68501 53.25H6.68511M6.68511 53.25H6.68521M6.68511 53.25H6.68521M6.68521 53.25H6.68531M6.68521 53.25H6.68531M6.68531 53.25H6.68541M6.68531 53.25H6.68541M6.68541 53.25H6.68551M6.68541 53.25H6.68551M6.68551 53.25H6.68561M6.68551 53.25H6.68561M6.68561 53.25H6.6857M6.68561 53.25H6.6857M6.6857 53.25H6.6858M6.6857 53.25H6.6858M6.6858 53.25H6.6859M6.6858 53.25H6.6859M6.6859 53.25H6.686M6.6859 53.25H6.686M6.686 53.25H6.6861M6.686 53.25H6.6861M6.6861 53.25H6.6862M6.6861 53.25H6.6862M6.6862 53.25H6.6863M6.6862 53.25H6.6863M6.6863 53.25H6.6864M6.6863 53.25H6.6864M6.6864 53.25H6.6865M6.6864 53.25H6.6865M6.6865 53.25H6.68659M6.6865 53.25H6.68659M6.68659 53.25H6.68669M6.68659 53.25H6.68669M6.68669 53.25H6.68679M6.68669 53.25H6.68679M6.68679 53.25H6.68689M6.68679 53.25H6.68689M6.68689 53.25H6.68699M6.68689 53.25H6.68699M6.68699 53.25H6.68709M6.68699 53.25H6.68709M6.68709 53.25H6.68719M6.68709 53.25H6.68719M6.68719 53.25H6.68728M6.68719 53.25H6.68728M6.68728 53.25H6.68738M6.68728 53.25H6.68738M6.68738 53.25H6.68748M6.68738 53.25H6.68748M6.68748 53.25H6.68758M6.68748 53.25H6.68758M6.68758 53.25H6.68768M6.68758 53.25H6.68768M6.68768 53.25H6.68778M6.68768 53.25H6.68778M6.68778 53.25H6.68788M6.68778 53.25H6.68788M6.68788 53.25H6.68797M6.68788 53.25H6.68797M6.68797 53.25H6.68807M6.68797 53.25H6.68807M6.68807 53.25H6.68817M6.68807 53.25H6.68817M6.68817 53.25H6.68827M6.68817 53.25H6.68827M6.68827 53.25H6.68837M6.68827 53.25H6.68837M6.68837 53.25H6.68846M6.68837 53.25H6.68846M6.68846 53.25H6.68856M6.68846 53.25H6.68856M6.68856 53.25H6.68866M6.68856 53.25H6.68866M6.68866 53.25H6.68876M6.68866 53.25H6.68876M6.68876 53.25H6.68886M6.68876 53.25H6.68886M6.68886 53.25H6.68895M6.68886 53.25H6.68895M6.68895 53.25H6.68905M6.68895 53.25H6.68905M6.68905 53.25H6.68915M6.68905 53.25H6.68915M6.68915 53.25H6.68925M6.68915 53.25H6.68925M6.68925 53.25H6.68935M6.68925 53.25H6.68935M6.68935 53.25H6.68944M6.68935 53.25H6.68944M6.68944 53.25H6.68954M6.68944 53.25H6.68954M6.68954 53.25H6.68964M6.68954 53.25H6.68964M6.68964 53.25H6.68974M6.68964 53.25H6.68974M6.68974 53.25H6.68983M6.68974 53.25H6.68983M6.68983 53.25H6.68993M6.68983 53.25H6.68993M6.68993 53.25H6.69003M6.68993 53.25H6.69003M6.69003 53.25H6.69013M6.69003 53.25H6.69013M6.69013 53.25H6.69022M6.69013 53.25H6.69022M6.69022 53.25H6.69032M6.69022 53.25H6.69032M6.69032 53.25H6.69042M6.69032 53.25H6.69042M6.69042 53.25H6.69052M6.69042 53.25H6.69052M6.69052 53.25H6.69061M6.69052 53.25H6.69061M6.69061 53.25H6.69071M6.69061 53.25H6.69071M6.69071 53.25H6.69081M6.69071 53.25H6.69081M6.69081 53.25H6.69091M6.69081 53.25H6.69091M6.69091 53.25H6.691M6.69091 53.25H6.691M6.691 53.25H6.6911M6.691 53.25H6.6911M6.6911 53.25H6.6912M6.6911 53.25H6.6912M6.6912 53.25H6.69129M6.6912 53.25H6.69129M6.69129 53.25H6.69139M6.69129 53.25H6.69139M6.69139 53.25H6.69149M6.69139 53.25H6.69149M6.69149 53.25H6.69159M6.69149 53.25H6.69159M6.69159 53.25H6.69168M6.69159 53.25H6.69168M6.69168 53.25H6.69178M6.69168 53.25H6.69178M6.69178 53.25H6.69188M6.69178 53.25H6.69188M6.69188 53.25H6.69197M6.69188 53.25H6.69197M6.69197 53.25H6.69207M6.69197 53.25H6.69207M6.69207 53.25H6.69217M6.69207 53.25H6.69217M6.69217 53.25H6.69226M6.69217 53.25H6.69226M6.69226 53.25H6.69236M6.69226 53.25H6.69236M6.69236 53.25H6.69246M6.69236 53.25H6.69246M6.69246 53.25H6.69255M6.69246 53.25H6.69255M6.69255 53.25H6.69265M6.69255 53.25H6.69265M6.69265 53.25H6.69275M6.69265 53.25H6.69275M6.69275 53.25H6.69284M6.69275 53.25H6.69284M6.69284 53.25H6.69294M6.69284 53.25H6.69294M6.69294 53.25H6.69304M6.69294 53.25H6.69304M6.69304 53.25H6.69313M6.69304 53.25H6.69313M6.69313 53.25H6.69323M6.69313 53.25H6.69323M6.69323 53.25H6.69333M6.69323 53.25H6.69333M6.69333 53.25H6.69342M6.69333 53.25H6.69342M6.69342 53.25H6.69352M6.69342 53.25H6.69352M6.69352 53.25H6.69362M6.69352 53.25H6.69362M6.69362 53.25H6.69371M6.69362 53.25H6.69371M6.69371 53.25H6.69381M6.69371 53.25H6.69381M6.69381 53.25H6.6939M6.69381 53.25H6.6939M6.6939 53.25H6.694M6.6939 53.25H6.694M6.694 53.25H6.6941M6.694 53.25H6.6941M6.6941 53.25H6.69419M6.6941 53.25H6.69419M6.69419 53.25H6.69429M6.69419 53.25H6.69429M6.69429 53.25H6.69438M6.69429 53.25H6.69438M6.69438 53.25H6.69448M6.69438 53.25H6.69448M6.69448 53.25H6.69458M6.69448 53.25H6.69458M6.69458 53.25H6.69467M6.69458 53.25H6.69467M6.69467 53.25H6.69477M6.69467 53.25H6.69477M6.69477 53.25H6.69486M6.69477 53.25H6.69486M6.69486 53.25H6.69496M6.69486 53.25H6.69496M6.69496 53.25H6.69505M6.69496 53.25H6.69505M6.69505 53.25H6.69515M6.69505 53.25H6.69515M6.69515 53.25H6.69525M6.69515 53.25H6.69525M6.69525 53.25H6.69534M6.69525 53.25H6.69534M6.69534 53.25H6.69544M6.69534 53.25H6.69544M6.69544 53.25H6.69553M6.69544 53.25H6.69553M6.69553 53.25H6.69563M6.69553 53.25H6.69563M6.69563 53.25H6.69572M6.69563 53.25H6.69572M6.69572 53.25H6.69582M6.69572 53.25H6.69582M6.69582 53.25H6.69591M6.69582 53.25H6.69591M6.69591 53.25H6.69601M6.69591 53.25H6.69601M6.69601 53.25H6.6961M6.69601 53.25H6.6961M6.6961 53.25H6.6962M6.6961 53.25H6.6962M6.6962 53.25H6.6963M6.6962 53.25H6.6963M6.6963 53.25H6.69631H6.6963Z" fill="#2AA8FF" stroke="#2AA8FF" stroke-width="0.5"></path>
  <path d="M5.49469 38.2175C5.08189 38.1141 4.76275 37.7606 4.7539 37.3147L4.7539 37.3146C4.65363 32.1766 6.49125 27.1504 9.9221 23.1619L9.92213 23.1619C12.3125 20.3841 15.4105 18.1907 18.8813 16.8209L18.8823 16.8205C19.3776 16.6274 19.955 16.8437 20.1709 17.3284L20.1712 17.3293C20.3906 17.8269 20.1358 18.3817 19.6366 18.5798L19.6362 18.5799C16.4642 19.8322 13.6337 21.8361 11.4514 24.3729L11.4514 24.3729C8.31766 28.0147 6.6453 32.5977 6.73547 37.2814L5.49469 38.2175ZM5.49469 38.2175V38.25H5.74469H5.75802V38.25L5.76242 38.25C6.29647 38.2406 6.74601 37.8204 6.73548 37.2815L5.49469 38.2175Z" fill="#2AA8FF" stroke="#2AA8FF" stroke-width="0.5"></path>
  <path d="M16.053 23.25H16.6973L16.5568 23.1217C16.7044 23.0423 16.834 22.9263 16.9275 22.7757L16.9278 22.7751L20.1148 17.6051L20.1156 17.6038C20.2896 17.3178 20.2966 16.967 20.1255 16.6763C19.957 16.3883 19.6481 16.2097 19.3119 16.1866L19.3115 16.1866L12.8338 15.7517L12.8338 15.7517L12.8298 15.7515C12.3008 15.7244 11.7973 16.0836 11.753 16.625C11.7086 17.1678 12.152 17.6044 12.6883 17.641L12.6886 17.6411L17.556 17.9676L15.1765 21.8285C15.1764 21.8286 15.1763 21.8287 15.1763 21.8288C14.8853 22.2982 15.0801 22.8819 15.5638 23.1307C15.7208 23.2128 15.8879 23.25 16.053 23.25Z" fill="#2AA8FF" stroke="#2AA8FF" stroke-width="0.5"></path>
  <path d="M50.25 37.7139C50.25 37.1726 49.7979 36.75 49.2592 36.75C48.7204 36.75 48.2683 37.1726 48.2683 37.7139V37.714C48.2702 42.35 46.595 46.8902 43.5472 50.4961L43.5471 50.4961C41.3645 53.0797 38.5339 55.1202 35.3623 56.3953L35.3619 56.3955C34.8611 56.5978 34.6115 57.1602 34.8281 57.6607L34.8283 57.6611C34.9888 58.0303 35.3593 58.25 35.7412 58.25H35.7431C35.8688 58.25 35.9969 58.2254 36.1184 58.1776L36.1201 58.1769C39.5914 56.7818 42.6893 54.5481 45.0794 51.7199C48.4153 47.7721 50.2519 42.797 50.25 37.7139ZM50.25 37.7139H50M50.25 37.7139H50M50 37.7139C50.0019 42.7368 48.1869 47.6551 44.8884 51.5585C42.525 54.3553 39.4607 56.5649 36.0269 57.9449C35.9336 57.9817 35.8365 58 35.7431 58H35.7412C35.4518 58 35.1756 57.833 35.0575 57.5614C34.8995 57.1962 35.0785 56.7796 35.4556 56.6273C38.6646 55.3372 41.5289 53.2726 43.7381 50.6574C46.8233 47.0073 48.5202 42.4101 48.5183 37.7139C48.5183 37.3193 48.8497 37 49.2592 37C49.6686 37 50 37.3193 50 37.7139Z" fill="#2AA8FF" stroke="#2AA8FF" stroke-width="0.5"></path>
  <path d="M38.0712 52.2249C38.3497 51.7717 38.9598 51.6211 39.4368 51.8688C39.9207 52.1175 40.1155 52.7015 39.8246 53.1709C39.8245 53.1711 39.8245 53.1712 39.8244 53.1713L37.4454 57.0331L42.3116 57.3598L42.3119 57.3598C42.8481 57.3965 43.2912 57.833 43.2471 58.3756C43.247 58.3757 43.247 58.3759 43.247 58.376L42.9979 58.3556L38.0712 52.2249ZM38.0712 52.2249C38.0712 52.2249 38.0712 52.2249 38.0711 52.225L38.0712 52.2249Z" fill="#2AA8FF" stroke="#2AA8FF" stroke-width="0.5"></path>
  <path d="M29.358 45.623L29.3595 45.6227C30.2722 45.4157 31.1359 45.0569 31.931 44.5576C32.231 44.3692 32.6154 44.3828 32.9 44.5953C32.9001 44.5954 32.9002 44.5955 32.9003 44.5956L34.5528 45.8216L35.8222 44.5521L34.5962 42.8996C34.5961 42.8994 34.5959 42.8992 34.5958 42.899C34.3834 42.6143 34.3699 42.2279 34.5584 41.9281L34.5585 41.928C35.0575 41.1351 35.4163 40.2695 35.6233 39.3585C35.7013 39.0108 35.9857 38.7508 36.3364 38.6993L29.358 45.623ZM29.358 45.623C29.0152 45.703 28.7519 45.9854 28.7002 46.3359L28.3986 48.3735M29.358 45.623L28.3986 48.3735M28.7001 28.6619C28.7515 29.0127 29.0116 29.2973 29.3594 29.3753C30.2703 29.5824 31.1359 29.9412 31.9288 30.4402L31.9289 30.4403C32.2287 30.6288 32.6152 30.6153 32.8998 30.4028C32.9 30.4027 32.9002 30.4026 32.9003 30.4025L34.5528 29.1764L35.8222 30.4459L34.5957 32.0992L34.5955 32.0994C34.384 32.3853 34.3695 32.7693 34.5583 33.0698C35.0573 33.8647 35.4143 34.7285 35.6234 35.642L35.6235 35.6426C35.7036 35.9885 35.9868 36.2492 36.3364 36.3008C36.3364 36.3008 36.3364 36.3008 36.3365 36.3008L38.374 36.6024V38.3977L36.3368 38.6992L28.6143 26.3746M28.7001 28.6619L28.9475 28.6257L28.7002 28.6623L28.7001 28.6619ZM28.7001 28.6619L28.3986 26.6246M28.3986 26.6246H28.6143V26.3746M28.3986 26.6246H26.6014M28.3986 26.6246L28.367 26.4112L28.6143 26.3746M28.6143 26.3746L26.6014 26.6246M18.6635 38.6972C18.6635 38.6972 18.6636 38.6972 18.6636 38.6973C19.0132 38.7489 19.2964 39.0096 19.3764 39.3555L19.3767 39.3566C19.5837 40.2694 19.9425 41.133 20.4415 41.926L20.4416 41.9261C20.6305 42.2266 20.616 42.6107 20.4045 42.8966L20.4043 42.8968L19.1777 44.5501L20.4472 45.8196L22.0997 44.5935C22.0998 44.5934 22.1 44.5933 22.1002 44.5931L22.1004 44.593L22.2493 44.7938L18.6635 38.6972ZM18.6635 38.6972L16.626 38.3956V36.6004L18.6632 36.2988C18.6633 36.2988 18.6635 36.2988 18.6636 36.2988M18.6635 38.6972L18.6636 36.2988M26.2998 46.3341C26.2485 45.9833 25.9883 45.6986 25.6405 45.6206C24.7277 45.4136 23.8623 45.0549 23.0696 44.556L26.3857 48.3735H26.6017M26.2998 46.3341L26.0525 46.3703L26.2998 46.3337L26.2998 46.3341ZM26.2998 46.3341L26.6017 48.3735M26.6017 48.3735H28.3986M26.6017 48.3735H28.3986M18.6636 36.2988C19.0143 36.2473 19.2987 35.9872 19.3767 35.6396M18.6636 36.2988L19.3767 35.6396M19.3767 35.6396C19.5837 34.7286 19.9425 33.863 20.4415 33.07L20.4416 33.0699C20.6301 32.77 20.6166 32.3835 20.404 32.0988C20.4039 32.0987 20.4039 32.0986 20.4038 32.0985L19.1777 30.4459L20.4472 29.1764L22.0997 30.4025C22.0998 30.4026 22.0999 30.4027 22.1 30.4027C22.3846 30.6153 22.769 30.6289 23.0689 30.4404L19.3767 35.6396ZM26.6014 26.6246L26.2998 28.6622C26.2481 29.0126 25.9848 29.295 25.642 29.375L25.6405 29.3754C24.7278 29.5824 23.8642 29.9411 23.0691 30.4403L26.6014 26.6246ZM25.0108 49.3591L25.0109 49.3594C25.0738 49.7801 25.4347 50.0925 25.8615 50.0925H28.9859L28.988 50.0965H29.1425C29.5694 50.0965 29.9302 49.7841 29.9932 49.3634L29.9932 49.3632L30.3209 47.1562C31.0204 46.9528 31.6956 46.6739 32.3355 46.3222L34.1274 47.652L34.1285 47.6528C34.4708 47.9038 34.9461 47.8705 35.2475 47.569L37.5676 45.2489C37.8676 44.9488 37.9061 44.4707 37.6501 44.1282C37.65 44.1281 37.65 44.1281 37.6499 44.128L36.3206 42.3365C36.6707 41.6973 36.9511 41.0235 37.1549 40.3221L39.3616 39.9944L39.3619 39.9943C39.7826 39.9313 40.095 39.5705 40.095 39.1437V35.8645C40.095 35.4377 39.7826 35.0768 39.3619 35.0139L39.3616 35.0138L37.1545 34.6861C36.9496 33.985 36.6706 33.3095 36.3187 32.6694L37.6485 30.8774L37.6493 30.8763C37.9003 30.534 37.867 30.0588 37.5656 29.7573L35.2455 27.4371C34.9455 27.1371 34.4675 27.0986 34.125 27.3545C34.1248 27.3546 34.1247 27.3547 34.1246 27.3548L32.3335 28.684C31.6941 28.3322 31.0203 28.0516 30.3189 27.8478L29.9912 25.641L29.9911 25.6407C29.9282 25.22 29.5674 24.9076 29.1405 24.9076H25.8615C25.4347 24.9076 25.0738 25.22 25.0109 25.6407L25.0108 25.641L24.6831 27.8479C23.9836 28.0513 23.3084 28.3302 22.6685 28.682L20.8767 27.3522L20.8763 27.3519C20.5354 27.0998 20.0577 27.1339 19.7565 27.4351L17.4365 29.7553C17.1365 30.0553 17.098 30.5333 17.3539 30.8758C17.3539 30.8759 17.354 30.876 17.3541 30.8761L18.6833 32.6673C18.3315 33.3068 18.0509 33.9806 17.8471 34.6821L15.6404 35.0098L15.6401 35.0098C15.2194 35.0728 14.907 35.4336 14.907 35.8605V39.1396C14.907 39.5664 15.2194 39.9273 15.6401 39.9903L15.6404 39.9903L17.8476 40.3181C18.0525 41.0174 18.3315 41.6927 18.6833 42.3327L17.3536 44.1247L17.3527 44.1258C17.1017 44.4681 17.135 44.9433 17.4365 45.2448L19.7565 47.565C20.0566 47.865 20.5346 47.9035 20.8771 47.6475C20.8772 47.6475 20.8773 47.6474 20.8774 47.6473L22.6685 46.3181C23.3082 46.6698 23.982 46.9488 24.6831 47.1523L25.0108 49.3591Z" fill="#2AA8FF" stroke="#2AA8FF" stroke-width="0.5"></path>
  <path d="M21.0181 37.5001C21.0181 41.0737 23.9255 43.9812 27.499 43.9812C31.0725 43.9812 33.9799 41.0737 33.9799 37.5001C33.9799 33.9264 31.0725 31.0189 27.499 31.0189C23.9255 31.0189 21.0181 33.9264 21.0181 37.5001ZM22.737 37.5001C22.737 34.8751 24.8741 32.7379 27.499 32.7379C30.1238 32.7379 32.2609 34.8751 32.2609 37.5001C32.2609 40.1251 30.1238 42.2622 27.499 42.2622C24.8741 42.2622 22.737 40.1251 22.737 37.5001Z" fill="#2AA8FF" stroke="#2AA8FF" stroke-width="0.5"></path>
</svg>
