<?xml version="1.0" encoding="UTF-8"?>
<svg xmlns="http://www.w3.org/2000/svg" width="100" height="100" viewBox="0 0 100 100" fill="none">
  <path d="M50 100C77.6142 100 100 77.6142 100 50C100 22.3858 77.6142 0 50 0C22.3858 0 0 22.3858 0 50C0 77.6142 22.3858 100 50 100Z" fill="#099A29"></path>
  <g clip-path="url(#clip0_267_72)">
    <path fill-rule="evenodd" clip-rule="evenodd" d="M44.9121 16.1357C44.104 15.8826 43.294 16.04 42.4815 16.1587C41.1963 16.1587 39.9269 16.2148 38.6508 16.3904C37.4142 16.5605 36.3233 16.9046 35.2025 17.4171C34.3875 17.7897 32.887 17.3997 32.1824 16.8233C31.8463 16.5484 31.8378 16.5528 31.3937 17.2282C30.8934 17.9891 30.1909 18.3855 29.4459 18.8507C28.5632 19.4016 27.7391 20.487 27.6066 21.5402C27.4714 22.6167 26.3865 23.3651 25.416 23.6796C24.0898 24.1094 23.0814 25.3941 22.3778 26.5367C21.632 27.7484 20.7838 28.8575 19.9222 29.9879C21.0702 32.0593 20.2319 34.5569 19 36.4302C19.0027 36.5688 19.0052 36.7076 19.008 36.8464C19.3165 37.3484 19.4677 37.7467 19.3953 38.3624C19.2803 39.3429 20.0089 39.5703 20.6447 40.1693C21.4002 40.8813 21.804 42.0371 22.2881 42.9479C23.0537 44.3878 24.9086 45.4024 26.2005 46.3632C27.2174 47.1194 28.3838 46.941 29.5432 46.595C30.4498 46.3242 31.3208 46.184 32.2336 46.4138C33.2771 46.6766 34.6849 45.8742 35.6748 45.5058C37.0996 44.9761 38.8466 45.0882 39.6462 46.4119C40.1038 47.1689 40.9319 47.0917 41.7077 46.9081C43.1033 46.5776 43.7444 48.3046 43.3979 49.4383C43.3069 49.7356 43.2671 50.2224 43.3093 50.5197C43.3601 50.8765 43.3 51.186 43.1329 51.4294C42.4768 52.3872 43.6555 53.5224 44.2148 54.1817L45.393 55.5713L45.6994 56.112C45.87 56.4132 45.9992 56.7144 45.9907 56.7922C45.9824 56.8688 46.1514 57.3207 46.3662 57.7964C46.5813 58.2722 46.7568 58.9396 46.7568 59.2795C46.7568 59.6194 46.8959 60.1369 47.0709 60.4381C47.9692 61.9853 46.42 63.5088 45.9339 64.9796C45.269 66.9913 45.7202 68.128 46.6035 69.9095C46.8218 70.4879 47.1 71.0264 47.4165 71.5582C47.8414 72.2721 47.9407 72.6015 47.9528 73.335C47.9761 74.7462 48.2735 76.6571 49.3068 77.6777C50.0501 78.412 50.2594 79.3593 50.6712 80.2983C51.1109 81.3004 51.2088 81.6863 51.1315 82.1092C50.915 83.2938 52.0323 84.0361 53.0242 83.9993C53.8422 83.5737 54.6226 83.5209 55.5525 83.5209C58.0731 83.5209 59.2545 82.3625 61.032 80.7503C61.444 80.7658 61.9644 79.9388 62.2403 79.6586C63.1601 78.7246 63.8694 77.6993 64.0656 76.3769C64.2071 75.4224 65.1049 75.3289 65.8952 75.0388C67.1828 73.9939 66.2767 72.1842 66.3755 70.825C66.4378 69.9673 67.7125 69.3439 68.2852 68.7664C68.7642 68.2835 69.4392 67.7928 70.1351 67.7184C70.8536 67.6415 71.5105 66.6643 71.984 66.169L72.0117 64.3468C72.027 63.3445 72.1085 62.3158 72.1927 62.0611C72.3162 61.6869 72.2868 61.4933 72.0394 61.0568C71.1161 59.4277 70.8055 57.1351 71.6222 55.4786C72.9545 52.777 75.9814 50.3129 78.1636 48.1865C80.0922 46.3068 81.6703 43.2721 81.9344 40.5557C82.0461 39.4071 82.0403 39.3747 81.7254 39.4311C80.9571 39.5686 80.1816 39.6687 79.4092 39.783C78.8724 39.9633 78.3358 40.1453 77.8004 40.3312C77.3952 40.4719 77.0065 40.6196 76.6184 40.8025C75.8775 41.1509 74.3271 40.345 74.659 39.4226C75.0312 38.3876 72.8821 37.2516 72.1892 36.8368C71.2763 36.2902 70.9493 36.0073 70.8977 35.7188C70.7342 34.8058 70.0273 33.924 69.358 33.3241C68.7315 32.7627 68.6616 32.6282 68.5919 31.8563C68.4589 30.3813 67.7887 29.7578 66.8489 28.6711C66.6953 28.1354 66.4682 27.7667 66.1481 27.2984C65.4119 26.2231 64.8462 25.0534 64.24 23.8995L63.853 23.463C63.6132 23.1922 63.4887 22.9657 63.6121 22.6333L64.1586 23.4323C64.604 24.0842 65.2972 24.8371 65.4105 23.6362C65.4689 23.0183 65.3468 22.4687 65.1595 21.8912C64.4751 21.0177 62.2137 21.2816 61.1757 21.4124C60.321 21.7067 59.6542 21.6262 58.7544 21.4193C57.9628 21.2373 57.2529 21.1297 57.1769 21.1806C56.902 21.3643 55.2408 20.7945 55.1539 20.4726C55.0156 19.9628 53.4507 20.1697 53.1369 20.3921C52.8829 20.5721 52.7669 20.8449 52.7049 21.4074C52.4871 23.3792 49.6444 22.1266 48.8934 21.1037C48.2559 20.2355 46.855 20.36 45.8941 20.061C45.6634 19.9894 45.3877 19.7427 45.2813 19.5125C45.0756 19.0689 44.7607 19.1408 44.3564 19.1978C44.5489 18.8814 44.7678 18.5865 44.9977 18.2964C45.3611 17.8375 45.3787 17.7557 45.1897 17.3942C45.018 17.0653 45.0166 16.9345 45.182 16.6396C45.3683 16.3077 45.3496 16.2729 44.9135 16.1365" fill="white"></path>
    <path fill-rule="evenodd" clip-rule="evenodd" d="M80.3061 63.747L80.1058 63.4351C79.7363 63.4351 79.7267 63.7061 79.5701 64.0416C79.4143 64.3752 79.1765 64.7032 79.0423 64.771C78.7126 64.9372 78.6073 65.4226 78.4912 65.744C78.3733 65.8035 78.2553 65.8629 78.1371 65.9227C78.0502 66.067 77.9632 66.2111 77.8763 66.3558C77.6815 66.4283 77.4862 66.501 77.2912 66.5738C77.2154 66.8528 77.0794 66.9325 76.7672 66.8907C75.0942 66.6672 74.7327 68.2869 74.9552 69.6248C75.131 70.6822 74.8353 71.2436 74.1915 72.0112C73.5606 72.7629 73.4969 74.5649 73.9438 75.4953C74.3805 76.4047 75.171 76.239 76.0077 76.1043C76.9647 75.7567 77.2338 74.4573 77.7004 73.6322C78.0417 73.029 78.5645 72.0183 78.8624 71.3863C79.4502 70.1381 79.6186 68.7828 79.9914 67.4677C80.1066 67.2434 80.2207 67.0235 80.4961 66.9745C80.7246 66.9336 80.7727 66.7718 80.7727 66.0377C80.7727 65.2519 80.7403 64.4244 80.3058 63.7473" fill="white"></path>
  </g>
  <defs>
    <clipPath id="clip0_267_72">
      <rect width="63" height="68" fill="white" transform="translate(19 16)"></rect>
    </clipPath>
  </defs>
</svg>
