<?xml version="1.0" encoding="UTF-8"?>
<svg xmlns="http://www.w3.org/2000/svg" width="74" height="74" viewBox="0 0 74 74" fill="none">
  <circle cx="37" cy="37" r="37" fill="#2AA8FF"></circle>
  <path d="M36.9997 53.9996C36.4042 53.9996 35.8258 53.7577 35.4141 53.3356L27.7971 45.5416C27.4431 45.1798 27.4557 44.6044 27.8245 44.2579C28.1933 43.9107 28.7799 43.923 29.1331 44.2848L36.7508 52.0796C36.816 52.1464 36.9064 52.1842 36.9997 52.1842C37.093 52.1842 37.1841 52.1464 37.2485 52.0796L44.8647 44.2863C45.2188 43.9245 45.8046 43.9121 46.1734 44.2594C46.5422 44.6066 46.5548 45.1812 46.2008 45.543L38.5853 53.3364C38.1735 53.7584 37.5951 54.0003 36.9997 54.0003V53.9996Z" fill="white"></path>
  <path d="M19.1499 35.8522C18.8255 35.8522 18.51 35.6844 18.3404 35.3865C16.64 32.3979 16.5556 28.786 18.1138 25.724C19.626 22.7587 22.5203 20.6716 25.8559 20.1405C29.1915 19.6095 32.6101 20.6919 35 23.0362L36.9995 24.991L39.0014 23.0274C41.3905 20.6839 44.8091 19.6015 48.1447 20.1325C51.4803 20.6636 54.3745 22.7507 55.8861 25.7153C57.4443 28.7766 57.3613 32.3885 55.6654 35.3771C55.4165 35.8151 54.8529 35.9728 54.4064 35.7287C53.9598 35.4846 53.7991 34.9318 54.0479 34.4937C55.4469 32.0289 55.515 29.0504 54.2301 26.5268C52.9844 24.083 50.5983 22.3627 47.8484 21.9247C45.0986 21.4866 42.2807 22.3795 40.31 24.3118L37.655 26.9161C37.2936 27.2706 36.7085 27.2706 36.3471 26.9169L33.6921 24.3205C31.7206 22.3874 28.9027 21.4946 26.1529 21.9327C23.4031 22.37 21.0169 24.091 19.7705 26.5347C18.4863 29.0584 18.5559 32.0361 19.9578 34.5003C20.2067 34.9383 20.0467 35.4911 19.6001 35.7359C19.4572 35.8144 19.3024 35.8515 19.1499 35.8515V35.8522Z" fill="white"></path>
  <path d="M37.1129 44.603C37.0826 44.603 37.0522 44.6023 37.0219 44.6008C36.3724 44.5645 35.8236 44.1482 35.6236 43.5417C35.6214 43.5359 35.6199 43.5293 35.6177 43.5235L32.9745 34.886L30.3743 39.9886C30.1062 40.5116 29.5715 40.8349 28.9768 40.8349H17.9257C17.4147 40.8349 17 40.4281 17 39.9269C17 39.4256 17.4147 39.0188 17.9257 39.0188H28.7983L31.637 33.4484C31.9192 32.8832 32.5368 32.5403 33.1752 32.5948C33.8136 32.6486 34.3617 33.0895 34.5416 33.6932L37.1581 42.2435L39.5013 36.8794C39.7287 36.3622 40.2234 36.0098 40.7929 35.9583C41.3617 35.906 41.9142 36.1631 42.2334 36.628L43.8531 39.0115H56.0735C56.5845 39.0115 56.9993 39.4183 56.9993 39.9196C56.9993 40.4208 56.5845 40.8276 56.0735 40.8276H43.3576C43.048 40.8276 42.7592 40.6758 42.5874 40.423L40.9922 38.0759L38.5408 43.6877C38.5378 43.6942 38.5356 43.7 38.5327 43.7066C38.2764 44.2594 37.7247 44.6052 37.1122 44.6052L37.1129 44.603Z" fill="white"></path>
</svg>
