<?xml version="1.0" encoding="UTF-8"?>
<svg xmlns="http://www.w3.org/2000/svg" width="63" height="68" viewBox="0 0 63 68" fill="none">
  <g clip-path="url(#clip0_456_105)">
    <path fill-rule="evenodd" clip-rule="evenodd" d="M25.9121 0.135703C25.104 -0.117373 24.294 0.0400041 23.4815 0.158659C22.1963 0.158659 20.9269 0.214806 19.6508 0.390438C18.4142 0.560539 17.3233 0.904611 16.2025 1.41712C15.3875 1.78969 13.887 1.3997 13.1824 0.823295C12.8463 0.548369 12.8378 0.552794 12.3937 1.22822C11.8934 1.9891 11.1909 2.38545 10.4459 2.85067C9.56315 3.40163 8.73913 4.48695 8.60664 5.54019C8.47141 6.61666 7.38653 7.3651 6.41603 7.67958C5.08976 8.10939 4.08141 9.39414 3.37781 10.5367C2.63197 11.7484 1.78382 12.8575 0.922219 13.9879C2.07019 16.0593 1.23191 18.5569 0 20.4302C0.00274307 20.5688 0.00521183 20.7076 0.00795489 20.8464C0.31655 21.3484 0.467693 21.7467 0.395276 22.3624C0.280341 23.3429 1.0089 23.5703 1.64474 24.1693C2.40018 24.8813 2.80396 26.0371 3.28811 26.9479C4.0537 28.3878 5.90857 29.4024 7.20055 30.3632C8.2174 31.1194 9.38375 30.941 10.5432 30.595C11.4498 30.3242 12.3208 30.184 13.2336 30.4138C14.2771 30.6766 15.6849 29.8742 16.6748 29.5058C18.0996 28.9761 19.8466 29.0882 20.6462 30.4119C21.1038 31.1689 21.9319 31.0917 22.7077 30.9081C24.1033 30.5776 24.7444 32.3046 24.3979 33.4383C24.3069 33.7356 24.2671 34.2224 24.3093 34.5197C24.3601 34.8765 24.3 35.186 24.1329 35.4294C23.4768 36.3872 24.6555 37.5224 25.2148 38.1817L26.393 39.5713L26.6994 40.112C26.87 40.4132 26.9992 40.7144 26.9907 40.7922C26.9824 40.8688 27.1514 41.3207 27.3662 41.7964C27.5813 42.2722 27.7568 42.9396 27.7568 43.2795C27.7568 43.6194 27.8959 44.1369 28.0709 44.4381C28.9692 45.9853 27.42 47.5088 26.9339 48.9796C26.269 50.9913 26.7202 52.128 27.6035 53.9095C27.8218 54.4879 28.1 55.0264 28.4165 55.5582C28.8414 56.2721 28.9407 56.6015 28.9528 57.335C28.9761 58.7462 29.2735 60.6571 30.3068 61.6777C31.0501 62.412 31.2594 63.3593 31.6712 64.2983C32.1109 65.3004 32.2088 65.6863 32.1315 66.1092C31.915 67.2938 33.0323 68.0361 34.0242 67.9993C34.8422 67.5737 35.6226 67.5209 36.5525 67.5209C39.0731 67.5209 40.2545 66.3625 42.032 64.7503C42.444 64.7658 42.9644 63.9388 43.2403 63.6586C44.1601 62.7246 44.8694 61.6993 45.0656 60.3769C45.2071 59.4224 46.1049 59.3289 46.8952 59.0388C48.1828 57.9939 47.2767 56.1842 47.3755 54.825C47.4378 53.9673 48.7125 53.3439 49.2852 52.7664C49.7642 52.2835 50.4392 51.7928 51.1351 51.7184C51.8536 51.6415 52.5105 50.6643 52.984 50.169L53.0117 48.3468C53.027 47.3445 53.1085 46.3158 53.1927 46.0611C53.3162 45.6869 53.2868 45.4933 53.0394 45.0568C52.1161 43.4277 51.8055 41.1351 52.6222 39.4786C53.9545 36.777 56.9814 34.3129 59.1636 32.1865C61.0922 30.3068 62.6703 27.2721 62.9344 24.5557C63.0461 23.4071 63.0403 23.3747 62.7254 23.4311C61.9571 23.5686 61.1816 23.6687 60.4092 23.783C59.8724 23.9633 59.3358 24.1453 58.8004 24.3312C58.3952 24.4719 58.0065 24.6196 57.6184 24.8025C56.8775 25.1509 55.3271 24.345 55.659 23.4226C56.0312 22.3876 53.8821 21.2516 53.1892 20.8368C52.2763 20.2902 51.9493 20.0073 51.8977 19.7188C51.7342 18.8058 51.0273 17.924 50.358 17.3241C49.7315 16.7627 49.6616 16.6282 49.5919 15.8563C49.4589 14.3813 48.7887 13.7578 47.8489 12.6711C47.6953 12.1354 47.4682 11.7667 47.1481 11.2984C46.4119 10.2231 45.8462 9.05338 45.24 7.89947L44.853 7.46301C44.6132 7.19224 44.4887 6.96571 44.6121 6.63326L45.1586 7.43231C45.604 8.08422 46.2972 8.83709 46.4105 7.63616C46.4689 7.01826 46.3468 6.46869 46.1595 5.89118C45.4751 5.01772 43.2137 5.28158 42.1757 5.41241C41.321 5.70669 40.6542 5.62621 39.7544 5.41932C38.9628 5.23733 38.2529 5.12974 38.1769 5.18063C37.902 5.36428 36.2408 4.79451 36.1539 4.47257C36.0156 3.96282 34.4507 4.16971 34.1369 4.39208C33.8829 4.57214 33.7669 4.84485 33.7049 5.40743C33.4871 7.37921 30.6444 6.12655 29.8934 5.10374C29.2559 4.23553 27.855 4.36 26.8941 4.06101C26.6634 3.98937 26.3877 3.74266 26.2813 3.51254C26.0756 3.06889 25.7607 3.14081 25.3564 3.19778C25.5489 2.88137 25.7678 2.58653 25.9977 2.29639C26.3611 1.83754 26.3787 1.75567 26.1897 1.39417C26.018 1.06531 26.0166 0.934483 26.182 0.639642C26.3683 0.307739 26.3496 0.272889 25.9135 0.136533" fill="white"></path>
    <path fill-rule="evenodd" clip-rule="evenodd" d="M61.3061 47.747L61.1058 47.4351C60.7363 47.4351 60.7267 47.7061 60.5701 48.0416C60.4143 48.3752 60.1765 48.7032 60.0423 48.771C59.7126 48.9372 59.6073 49.4226 59.4912 49.744C59.3733 49.8035 59.2553 49.8629 59.1371 49.9227C59.0502 50.067 58.9632 50.2111 58.8763 50.3558C58.6815 50.4283 58.4862 50.501 58.2912 50.5738C58.2154 50.8528 58.0794 50.9325 57.7672 50.8907C56.0942 50.6672 55.7327 52.2869 55.9552 53.6248C56.131 54.6822 55.8353 55.2436 55.1915 56.0112C54.5606 56.7629 54.4969 58.5649 54.9438 59.4953C55.3805 60.4047 56.171 60.239 57.0077 60.1043C57.9647 59.7567 58.2338 58.4573 58.7004 57.6322C59.0417 57.029 59.5645 56.0183 59.8624 55.3863C60.4502 54.1381 60.6186 52.7828 60.9914 51.4677C61.1066 51.2434 61.2207 51.0235 61.4961 50.9745C61.7246 50.9336 61.7727 50.7718 61.7727 50.0377C61.7727 49.2519 61.7403 48.4244 61.3058 47.7473" fill="white"></path>
  </g>
  <defs>
    <clipPath id="clip0_456_105">
      <rect width="63" height="68" fill="white"></rect>
    </clipPath>
  </defs>
</svg>
