<?xml version="1.0" encoding="UTF-8"?>
<svg xmlns="http://www.w3.org/2000/svg" width="100" height="100" viewBox="0 0 100 100" fill="none">
  <path d="M50 99C77.6142 99 100 77.062 100 50C100 22.938 77.6142 1 50 1C22.3858 1 0 22.938 0 50C0 77.062 22.3858 99 50 99Z" fill="white"></path>
  <path d="M97.1575 33.335H2.84497C9.70997 13.915 28.23 0 50 0C71.77 0 90.29 13.915 97.1575 33.335Z" fill="#218219"></path>
  <path d="M97.1575 66.665C90.2925 86.085 71.77 100 50 100C28.23 100 9.70997 86.085 2.84497 66.665H97.1575Z" fill="black"></path>
  <path d="M33.335 97.3125C13.915 90.4475 -4.11598e-05 71.925 -4.02082e-05 50.155C-3.92566e-05 28.385 13.915 9.865 33.335 3L33.335 97.3125Z" fill="#CE1126"></path>
</svg>
