<?xml version="1.0" encoding="UTF-8"?>
<svg xmlns="http://www.w3.org/2000/svg" width="100" height="100" viewBox="0 0 100 100" fill="none">
  <path d="M97.1588 33.3336H2.84106C2.84106 33.3336 2.84377 33.3255 2.84557 33.321C2.95738 33.0034 3.07279 32.6875 3.19091 32.3726C4.01051 30.1934 4.97799 28.0863 6.08072 26.0641C6.27908 25.7005 6.48195 25.3395 6.68843 24.9813C8.56748 21.73 10.8018 18.7098 13.3381 15.9738C14.22 15.0227 15.1388 14.1059 16.0909 13.2252C24.5484 5.41153 35.7082 0.481867 48.0086 0H51.9922C64.2925 0.481867 75.4514 5.41153 83.909 13.2261C87.6013 16.6379 90.7796 20.5994 93.3115 24.9813C93.5188 25.3395 93.7208 25.7005 93.9192 26.0641C95.0219 28.0863 95.9894 30.1934 96.8099 32.3726C96.928 32.6875 97.0434 33.0034 97.1552 33.321C97.157 33.3255 97.1579 33.33 97.1597 33.3336H97.1588Z" fill="#07723A"></path>
  <path d="M100 50.0005C100 50.1358 100 50.2712 99.9982 50.4065C99.9531 56.1041 98.9559 61.5752 97.1589 66.6673H2.84112C1.04322 61.5743 0.0468861 56.1041 0.00180331 50.4057C0.00180331 50.2703 0 50.1349 0 49.9996C0 49.8642 0 49.7289 0.00180331 49.5935C0.0468861 43.8959 1.04412 38.4249 2.84112 33.3328H97.1589C98.9568 38.4249 99.9531 43.8959 99.9982 49.5935C99.9982 49.7289 100 49.8642 100 49.9996V50.0005Z" fill="white"></path>
  <path d="M97.1588 66.6672C97.1588 66.6672 97.1561 66.6763 97.1543 66.6799C97.0425 66.9975 96.9271 67.3133 96.809 67.6274C95.9894 69.8066 95.0219 71.9136 93.9183 73.9358C93.7199 74.2995 93.517 74.6604 93.3106 75.0187C90.7787 79.4006 87.6004 83.362 83.9081 86.7739C75.4514 94.5884 64.2916 99.5181 51.9912 100H48.0077C35.7073 99.5181 24.5484 94.5884 16.0909 86.7739C15.1379 85.8941 14.22 84.9773 13.3381 84.0262C10.8018 81.2902 8.56748 78.2699 6.68843 75.0187C6.48105 74.6604 6.27908 74.2995 6.08072 73.9358C4.97799 71.9136 4.01051 69.8066 3.19091 67.6274C3.07279 67.3124 2.95738 66.9966 2.84557 66.6799C2.84377 66.6754 2.84287 66.6708 2.84106 66.6672H97.1588Z" fill="#D3112E"></path>
  <path d="M40.7774 33.3336V66.6673L13.3382 84.0262C10.8018 81.2902 8.56754 78.27 6.68849 75.0187C6.48111 74.6605 6.27914 74.2995 6.08077 73.9359C4.97805 71.9137 4.01057 69.8066 3.19096 67.6274C3.07285 67.3125 2.95743 66.9966 2.84563 66.6799C2.84382 66.6754 2.84292 66.6709 2.84112 66.6673C1.04322 61.5743 0.0468861 56.1041 0.00180331 50.4056C0.00180331 50.2703 0 50.1349 0 49.9996C0 49.8642 0 49.7288 0.00180331 49.5935C0.0468861 43.8959 1.04412 38.4248 2.84112 33.3327C2.84292 33.3282 2.84382 33.3246 2.84563 33.3201C2.95743 33.0025 3.07285 32.6866 3.19096 32.3717C4.01057 30.1925 4.97805 28.0854 6.08077 26.0632C6.27914 25.6996 6.48201 25.3386 6.68849 24.9804C8.56754 21.7291 10.8018 18.7089 13.3382 15.9729L40.7774 33.3318V33.3336Z" fill="black"></path>
</svg>
