<?xml version="1.0" encoding="UTF-8"?>
<svg xmlns="http://www.w3.org/2000/svg" width="100" height="100" viewBox="0 0 100 100" fill="none">
  <g clip-path="url(#clip0_478_78)">
    <path d="M50.0042 0C22.3852 0 0 22.3917 0 50C0 50.1333 0 50.2583 0 50.3917C0.208351 77.825 22.5102 100 49.9958 100C77.4815 100 99.775 77.825 99.9833 50.3917C99.9833 50.2583 99.9833 50.1333 99.9833 50C100 22.3917 77.6148 0 50.0042 0Z" fill="#00802A"></path>
    <path d="M77.3147 40.2915C77.1897 40.5332 77.048 40.7582 76.8397 40.9249C76.073 41.5332 75.2312 42.0249 74.3895 42.5332C74.3728 42.5415 74.3478 42.5582 74.3311 42.5665C74.1145 42.6999 73.3227 43.3582 73.0394 43.2415C72.706 43.0999 72.7643 42.6332 72.831 42.3582C72.9394 41.9249 73.1977 41.5749 73.5227 41.2832C73.5227 41.2832 73.5394 41.2749 73.5394 41.2665C73.7978 41.0415 74.0978 40.8499 74.3895 40.6582C74.7145 40.4499 75.0312 40.2415 75.3562 40.0332C75.6563 39.8415 75.9646 39.6749 76.248 39.4665C76.373 39.3749 77.0064 38.7832 77.1564 38.8165C77.3814 38.8582 77.4314 39.2249 77.4481 39.3999C77.4731 39.6665 77.4397 40.0249 77.3064 40.2832L77.3147 40.2915Z" fill="white"></path>
    <path d="M57.1632 51.7998C57.0299 51.8582 56.8632 51.8832 56.7465 51.9248C56.2965 52.0915 55.8464 52.2498 55.4047 52.4165C55.0214 52.5582 54.613 52.7498 54.188 52.6582C53.9129 52.5998 53.7129 52.3248 53.7296 52.0498C53.7463 51.7582 53.9129 51.4748 53.6046 51.2665C53.3962 51.1248 53.0879 51.4498 52.9545 51.3415C52.3962 50.8998 52.8545 50.5582 53.3379 50.1415C53.6213 49.8998 54.1796 49.3998 54.5797 49.7332C55.0297 50.0998 54.2046 50.8915 54.6547 51.3415C55.0297 51.7248 55.7298 51.1832 56.1131 51.0665C56.4548 50.9582 57.0382 50.7915 57.2799 51.1332C57.3632 51.2498 57.4132 51.4748 57.3632 51.6165C57.3382 51.6998 57.2632 51.7582 57.1715 51.7998H57.1632Z" fill="white"></path>
    <path d="M77.6315 44.7499C77.5815 45.1499 77.4815 45.5416 77.3232 45.9082C77.2315 46.1166 77.0815 46.3666 76.9065 46.5082C76.8481 46.5582 76.7565 46.5832 76.6815 46.5499C76.5981 46.5082 76.5648 46.3999 76.5565 46.3082C76.5481 46.0749 76.5231 45.8499 76.5398 45.6082C76.5565 45.3332 76.5981 45.0499 76.5481 44.7749C76.4481 44.1999 75.9814 43.4666 75.8481 42.9082C75.7481 42.4916 75.9397 41.4666 76.6731 41.7582C76.9898 41.8832 77.2482 42.4499 77.3815 42.7416C77.5565 43.1332 77.6565 43.5666 77.6649 43.9916C77.6649 44.2416 77.6649 44.4916 77.6315 44.7416V44.7499Z" fill="white"></path>
    <path d="M82.8737 53.0249C82.832 53.0666 82.782 53.0999 82.732 53.1416C82.1819 53.5499 81.5402 53.7999 80.8735 53.9332C80.7402 53.9582 80.5985 53.9832 80.4651 53.9582C80.3318 53.9416 80.1984 53.8749 80.1151 53.7666C79.7484 53.2582 80.8985 52.8499 81.0068 52.4332C81.2235 51.6332 80.2984 51.8666 80.3234 51.1749C80.3485 50.4499 81.4986 50.5416 81.9153 50.8082C82.0153 50.8666 82.0903 50.9582 82.1486 51.0666C82.2069 51.1916 82.2319 51.3416 82.1986 51.4749C82.1653 51.6249 82.0569 51.6916 81.9903 51.8249C81.9486 51.9082 81.9319 52.0166 81.9736 52.0999C82.0236 52.1999 82.1403 52.2499 82.2569 52.2832C82.4403 52.3416 82.607 52.2666 82.7987 52.2832C83.032 52.3166 83.107 52.6416 83.0237 52.8249C82.9903 52.9082 82.932 52.9749 82.8653 53.0332L82.8737 53.0249Z" fill="white"></path>
    <path d="M89.3826 48.6083C89.3492 50.0916 88.8575 51.625 87.8158 52.7166C86.799 53.775 85.2072 54.3 83.7737 54.4416C83.3404 54.4833 82.4903 54.525 82.457 53.9C82.4153 53.1916 83.7988 52.6166 84.3071 52.375C85.2239 51.9333 86.0489 51.3666 86.6907 50.5666C87.8991 49.0583 87.7407 47.3166 87.6991 45.5166C87.6324 42.1583 87.0907 38.8333 86.7573 35.5C86.6407 34.3166 86.4323 33.1333 86.2656 31.95C86.0906 30.725 85.7572 29.4166 85.9823 28.175C86.0406 27.85 86.2156 26.375 86.824 26.9083C87.5241 27.525 87.9324 28.3583 88.4491 29.125C88.6658 29.4583 89.3825 30.2083 89.1659 30.6416C89.0075 30.9666 88.5742 30.7 88.4075 30.8666C88.1324 31.1416 88.2658 31.45 88.3158 31.825C88.5658 33.9083 88.9492 35.975 89.1409 38.075C89.3409 40.2333 89.4326 42.4083 89.4242 44.575C89.4242 45.9166 89.4242 47.2666 89.3909 48.6083H89.3826Z" fill="white"></path>
    <path d="M85.5071 32.2582C85.4321 32.7915 84.6737 35.3332 84.6071 33.5415C84.5821 32.8249 84.7154 32.2665 84.3404 31.6165C84.0487 31.1165 83.6737 30.6582 83.657 30.0582C83.657 29.8165 83.7403 29.5582 83.9403 29.4165C85.0821 28.6332 85.5821 31.6499 85.4988 32.2582H85.5071Z" fill="white"></path>
    <path d="M87.1073 49.2416C86.2406 47.6916 85.3322 46.1582 84.3904 44.6582C84.3904 45.8666 84.5988 47.1499 83.982 48.2249C83.8987 48.3749 82.7486 50.0249 82.5403 49.8082C82.3486 49.6082 82.4569 49.1749 82.4653 48.9332C82.4819 48.3832 82.5569 47.8166 82.5486 47.2666C82.5403 46.2332 82.4986 45.2082 82.4403 44.1832C82.3819 43.2082 82.4819 42.1999 82.1569 41.2666C81.8152 40.2582 80.9651 39.4832 80.3567 38.6332C80.4818 38.8082 80.3818 39.4999 80.3901 39.7249C80.4068 40.1166 80.4234 40.4999 80.4318 40.8916C80.4651 41.6499 80.4734 42.4082 80.4984 43.1666C80.5484 44.7499 80.5984 46.3332 80.3484 47.8999C80.2317 48.5999 80.0567 49.3082 79.6734 49.8999C79.09 50.8082 77.9815 51.3166 76.9315 50.9916C76.2731 50.7916 75.673 50.4166 75.2063 49.9166C75.0313 49.7249 74.873 49.5166 74.6646 49.3499C74.4563 49.1832 74.1979 49.0749 73.9479 49.1082C73.4812 49.1832 73.2395 49.6916 73.0895 50.1332C72.8645 50.7999 72.6728 51.4666 72.5061 52.1499C72.3811 52.6499 72.2894 53.1416 71.9894 53.5749C71.381 54.4332 70.4059 54.0249 69.6892 53.5249C68.7058 52.8416 68.0641 51.7249 67.8307 50.5582C67.689 49.8332 67.6557 49.0666 67.789 48.3416C67.9307 47.5832 68.4974 47.0582 68.6724 46.3916C68.4224 47.7166 68.5308 49.2249 69.1141 50.4582C69.4308 51.1249 70.0809 51.9832 70.881 51.4499C71.4643 51.0666 71.7644 49.7082 72.0311 49.0916C72.4478 48.1332 73.6812 44.9749 75.148 46.3749C75.7897 46.9916 76.1064 48.5249 77.1648 48.5582C78.4983 48.5999 78.5733 45.8582 78.5733 44.9832C78.5899 42.5749 78.2899 40.0999 78.1482 37.6999C78.0732 36.4416 77.9982 35.4249 77.9982 35.4249C77.2482 34.4416 75.8314 32.5916 75.0563 31.6332C74.7063 31.1999 74.3146 30.8082 74.0562 30.3082C73.6979 29.6166 73.6479 28.8916 73.6479 28.1332C73.6479 27.8166 73.6562 27.4916 73.7062 27.1749C73.7312 27.0249 73.7645 26.7249 73.9312 26.6582C74.2062 26.5416 74.798 27.0832 74.9813 27.2332C75.448 27.5999 75.8897 28.0416 76.2897 28.4749C76.4648 28.6666 76.6398 28.8916 76.7898 29.1082C76.8648 29.2166 77.0148 29.4082 76.9648 29.5582C76.8898 29.8166 76.4814 29.6499 76.4314 29.7916C76.2814 30.2249 76.9648 30.7166 77.2315 31.0499C77.0565 30.1332 76.7314 28.6332 76.9148 27.7082C77.1398 26.5749 77.6982 26.3416 78.2899 27.2416C78.865 28.1166 79.4233 29.1582 79.84 30.1166C79.9317 30.3166 80.3734 30.9499 80.0151 31.1999C79.8067 31.3499 79.2733 30.9499 79.265 31.0582C79.2067 31.7749 79.39 33.7499 79.5734 34.3582C79.74 34.8999 81.0151 36.4499 81.7819 37.5916C81.4735 35.2582 81.0901 32.9332 80.6568 30.6166C80.5401 30.0082 79.3733 26.5916 81.5318 26.5916C82.1319 26.5916 83.057 29.3999 83.2987 30.1832C83.382 30.4666 83.6904 31.1332 83.5487 31.4416C83.307 31.9582 82.9736 31.3749 82.7986 31.9749C82.6486 32.4916 83.032 33.6832 83.132 34.2082C83.3153 35.1582 83.4737 36.1082 83.6237 37.0582C83.882 38.6332 83.7487 40.5416 84.6654 41.8499C85.5488 43.1082 86.849 44.5332 87.2823 46.0249C87.449 46.5916 87.7824 48.9166 87.099 49.2749L87.1073 49.2416Z" fill="white"></path>
    <path d="M76.1064 35.6498C76.1064 35.8915 75.573 35.6332 75.4647 35.6582C74.773 35.8415 75.048 38.8498 74.973 38.8498C74.0313 38.8332 72.9812 37.6832 72.4395 37.0165C72.1811 36.6998 72.0228 36.1415 71.9977 35.7415C71.9811 35.4165 72.0894 35.0665 72.3644 34.8748C72.6645 34.6665 73.1478 34.7332 73.3645 35.0415C73.5395 35.2915 73.5312 35.6415 73.9396 35.4998C74.3813 35.3415 73.7979 34.4082 74.1646 34.0998C75.7397 32.7832 76.0398 34.8415 76.1064 35.6498Z" fill="white"></path>
    <path d="M71.1392 47.3665C71.1309 47.4665 71.1142 47.5582 71.0975 47.6582C70.9809 48.4082 70.5308 50.1332 69.5558 50.1248C69.6474 50.1248 69.5057 46.2332 69.4807 45.8748C69.3974 44.4415 69.2307 42.9998 69.039 41.5748C68.664 38.7248 68.114 35.9082 67.5639 33.0915C67.5639 33.0748 67.5639 33.0665 67.5639 33.0498C67.3722 32.0832 67.1556 31.1332 67.1472 30.1415C67.1472 29.5998 67.1806 29.0498 67.2722 28.5165C67.3556 28.0165 67.4139 27.3915 67.7306 26.9832C67.7973 26.8915 67.9056 26.8082 68.014 26.8165C68.139 26.8332 68.214 26.9498 68.2723 27.0498C69.0224 28.3082 69.7391 29.5832 70.4308 30.8748C70.4892 30.9832 70.5475 31.0915 70.5308 31.2082C70.5058 31.3998 70.2225 31.3915 70.0725 31.3915C69.9141 31.3915 69.7558 31.3915 69.6058 31.4248C69.4891 31.4582 69.4724 31.4915 69.4641 31.5998C69.4557 31.8248 69.4724 32.0665 69.5057 32.2915C69.7724 34.3998 70.2225 36.4498 70.5058 38.5248C70.8142 40.7415 71.0309 42.9748 71.1476 45.2165C71.1809 45.9332 71.2142 46.6498 71.1309 47.3582L71.1392 47.3665Z" fill="white"></path>
    <path d="M66.9389 47.4748C66.8556 48.5332 66.5139 49.5665 65.9972 50.5082C65.0971 52.1332 63.4553 53.8665 61.5302 54.1748C60.8384 54.2832 60.0884 54.1748 59.655 53.5332C59.155 52.7998 59.605 52.8165 60.2801 52.4748C61.9385 51.6582 63.4637 50.4082 64.7304 49.0665C65.0888 48.6915 65.3722 48.1165 65.4472 47.5998C65.4972 47.2665 65.4138 46.8748 65.3888 46.5415C65.3638 46.1832 65.3388 45.8165 65.3138 45.4582C65.1221 42.9082 64.8721 40.3582 64.6388 37.8082C64.5387 36.7332 64.4387 35.6582 64.3221 34.5832C64.2637 34.0748 64.2054 33.5748 64.1804 33.0665C64.1554 32.5415 63.997 31.9998 63.9304 31.4748C63.8887 31.1332 63.8554 30.7915 63.8304 30.4498C63.7887 29.7832 63.772 29.1082 63.9054 28.4582C63.972 28.1332 64.072 27.8082 64.2304 27.5165C64.3387 27.3248 64.5888 26.8248 64.8638 26.9332C64.9971 26.9832 65.0805 27.1165 65.1471 27.2332C65.5138 27.8582 65.8139 28.5248 66.0722 29.1998C66.1972 29.5248 66.3139 29.8498 66.4139 30.1832C66.4639 30.3582 66.5473 30.5748 66.5306 30.7582C66.4889 31.4165 66.0889 31.1165 65.7889 31.5248C65.3805 32.0748 65.9472 33.6332 66.0555 34.2498C66.5556 37.0832 66.8139 39.9498 66.9056 42.8248C66.9556 44.2582 66.9556 45.6998 66.9306 47.1332C66.9306 47.2498 66.9306 47.3665 66.9139 47.4748H66.9389Z" fill="white"></path>
    <path d="M63.397 34.0664C63.4304 34.4748 63.2637 34.8581 62.9386 35.1081C62.622 35.3581 62.1969 35.4831 61.7969 35.4831C61.5885 35.4831 61.3885 35.4498 61.1968 35.3748C61.1052 35.3414 60.9885 35.2998 60.9052 35.2414C60.7885 35.1498 60.6885 35.0414 60.5968 34.9248C60.5301 34.8331 60.4718 34.7248 60.4301 34.6248C60.3218 34.3498 60.2968 34.0498 60.3634 33.7581C60.3968 33.5998 60.4801 33.3164 60.6468 33.2498C60.7801 33.1914 60.9968 33.1831 61.0552 33.3498C61.0718 33.4081 61.0635 33.4748 61.0718 33.5331C61.0802 33.6748 61.1885 33.8914 61.3552 33.8998C61.7052 33.9164 61.4635 33.2414 61.8802 33.2331C62.2636 33.2331 62.0052 34.0331 62.5219 33.9664C62.672 33.9498 62.547 33.4164 62.6803 33.3164C63.2303 32.9164 63.3387 33.4164 63.397 34.0581V34.0664Z" fill="white"></path>
    <path d="M48.6041 38.5166C48.6374 38.925 48.4707 39.3083 48.1457 39.5583C47.829 39.8083 47.404 39.9333 47.0039 39.9333C46.7956 39.9333 46.5956 39.9 46.4039 39.825C46.3122 39.7916 46.1955 39.75 46.1122 39.6916C45.9955 39.6 45.8955 39.4916 45.8038 39.375C45.7371 39.2833 45.6788 39.175 45.6371 39.075C45.5288 38.8 45.5038 38.5 45.5705 38.2083C45.6038 38.05 45.6871 37.7666 45.8538 37.7C45.9872 37.6416 46.2039 37.6333 46.2622 37.8C46.2789 37.8583 46.2705 37.925 46.2789 37.9833C46.2872 38.125 46.3955 38.3416 46.5622 38.35C46.9122 38.3666 46.6706 37.6916 47.0873 37.6833C47.4706 37.6833 47.2123 38.4833 47.729 38.4166C47.879 38.4 47.754 37.8666 47.8873 37.7666C48.4374 37.3666 48.5457 37.8666 48.6041 38.5083V38.5166Z" fill="white"></path>
    <path d="M23.0936 27.7083C23.1269 28.1166 22.9602 28.5 22.6352 28.75C22.3185 29 21.9018 29.125 21.4934 29.125C21.2851 29.125 21.0851 29.0916 20.8934 29.0166C20.8017 28.9833 20.685 28.9416 20.6017 28.8833C20.485 28.7916 20.385 28.6833 20.2933 28.5666C20.2267 28.475 20.1683 28.3666 20.1266 28.2666C20.0183 27.9916 19.9933 27.6916 20.06 27.4C20.0933 27.2416 20.1766 26.9583 20.3433 26.8916C20.4767 26.8333 20.6934 26.825 20.7517 26.9916C20.7684 27.05 20.76 27.1166 20.7684 27.175C20.7767 27.3166 20.885 27.5333 21.0517 27.5416C21.4018 27.5583 21.1601 26.8833 21.5768 26.875C21.9601 26.875 21.7018 27.675 22.2185 27.6083C22.3685 27.5916 22.2435 27.0583 22.3768 26.9583C22.9269 26.5583 23.0352 27.0583 23.0936 27.7V27.7083Z" fill="white"></path>
    <path d="M62.4969 29.7749C62.4219 30.2499 61.7635 32.4249 61.5635 31.1416C61.4801 30.6416 61.7052 30.2166 61.4968 29.6916C61.3135 29.2332 60.9051 28.9166 60.6801 28.4916C60.5717 28.2916 60.4967 28.0499 60.4717 27.8249C60.4467 27.6166 60.4884 27.3916 60.6217 27.2332C60.8051 27.0082 61.0968 27.0332 61.3468 27.0999C62.1969 27.3166 62.6719 29.0249 62.4969 29.7749Z" fill="white"></path>
    <path d="M14.5428 28.8998C14.4761 29.3081 13.9094 31.1998 13.7261 30.0914C13.6594 29.6581 13.8511 29.2914 13.6677 28.8331C13.5094 28.4331 13.1594 28.1581 12.9593 27.7914C12.8677 27.6164 12.801 27.4081 12.776 27.2164C12.7593 27.0331 12.7927 26.8414 12.9093 26.6998C13.0677 26.5081 13.3177 26.5331 13.5427 26.5831C14.2845 26.7664 14.6928 28.2498 14.5428 28.8998Z" fill="white"></path>
    <path d="M32.6195 45.9581C32.5528 46.3414 32.0277 48.0998 31.8611 47.0664C31.7944 46.6581 31.9777 46.3164 31.8111 45.8914C31.6694 45.5248 31.336 45.2664 31.1527 44.9248C31.0693 44.7664 31.0027 44.5664 30.986 44.3831C30.9693 44.2164 31.0027 44.0331 31.111 43.9081C31.261 43.7331 31.4944 43.7498 31.7027 43.7998C32.3944 43.9748 32.7695 45.3581 32.6361 45.9581H32.6195Z" fill="white"></path>
    <path d="M64.6804 44.2083C64.397 43.8167 64.222 43.25 64.0053 42.8167C63.772 42.3417 63.4969 41.875 63.2386 41.4167C62.9052 40.5833 62.3135 39.7833 61.8718 39C61.4384 38.2333 60.9301 37.4917 60.4467 36.75C59.8716 35.8833 59.6716 35.375 59.5633 34.3333C59.5216 33.95 59.4799 33.5583 59.4299 33.175C59.3883 32.8167 59.3966 32.3917 59.2799 32.05C59.2382 31.9333 59.1966 31.8083 59.2133 31.6917C59.2383 31.5667 59.3549 31.4583 59.4716 31.4917C59.5716 31.5167 59.6299 31.6417 59.73 31.6667C59.83 31.6917 59.88 31.5 59.855 31.3917C59.3633 29.5167 58.7215 28.675 57.9215 27.5583C57.5548 27.0417 57.4048 26.4417 56.838 26.7167C56.188 27.0333 56.238 28.4583 56.3297 29.0333C56.313 28.9167 56.0963 28.725 56.0213 28.6333C55.8796 28.4667 55.7463 28.2917 55.5963 28.1417C55.0712 27.625 52.7627 25.225 52.3293 27.0167C52.1127 27.9167 52.4794 28.775 52.9961 29.5C54.0628 31.0083 55.1879 32.475 56.2463 33.9917C56.6547 34.5833 57.2047 35.2 57.5131 35.85C57.8215 36.5083 57.8381 37.3167 57.9131 38.05C58.0298 39.0917 58.6299 51.2083 58.2215 51.1917C61.4634 51.3167 60.0633 41.6083 59.955 39.6833C61.6051 42.375 63.1386 45.1417 64.5554 47.975C65.2638 47.6333 65.0554 44.7417 64.6637 44.2083H64.6804ZM56.188 30.6833C55.3463 29.8083 56.5547 30.0167 56.5547 30.0167C56.5547 30.0167 56.7797 31.0917 56.8881 31.6083C56.663 31.3 56.4463 30.9667 56.188 30.6833Z" fill="white"></path>
    <path d="M44.8953 26.7665C44.8537 27.4998 44.812 28.6665 44.362 29.2581C44.1703 29.5165 43.7869 29.8998 43.5369 29.4665C43.4702 29.3498 43.4535 29.2165 43.4369 29.0831C43.3535 28.2831 43.5286 27.4581 43.9119 26.7498C44.0286 26.5331 44.2036 26.1748 44.5036 26.1748C44.7787 26.1748 44.8537 26.5665 44.8953 26.7665Z" fill="white"></path>
    <path d="M54.988 33.425C54.7797 33.9916 54.5213 34.6166 54.1213 35.0833C53.9379 35.3 53.6629 35.6583 53.3545 35.675C52.4711 35.7333 52.7712 35.35 52.8878 34.875C52.9378 34.6666 53.0962 34.2416 52.3878 34.5083C52.0878 34.6166 51.9628 34.9833 51.8044 35.2333C51.246 36.1166 50.996 36.6333 49.8626 36.725C48.9125 36.8 48.5791 36.4666 48.0124 35.7916C47.8124 35.5583 47.5624 35.2166 47.229 35.1666C46.8957 35.1166 46.5956 35.3666 46.354 35.5666C45.7789 36.0333 45.3039 36.65 44.6038 36.9416C44.1121 37.1416 43.5454 37.15 43.0537 36.9583C41.3119 36.2916 41.4286 34.0416 41.3202 32.5166C41.3119 32.375 41.2535 32.1833 41.1119 32.1916C41.0285 32.1916 40.9702 32.275 40.9202 32.3416C40.6368 32.8 40.5285 33.35 40.4368 33.8833C40.3451 34.4166 40.2368 34.9583 39.9701 35.4333C39.7034 35.9083 39.2117 36.2833 38.67 36.2833C38.3533 36.2833 38.0449 36.1416 37.7949 35.9416C37.2865 35.5416 37.0032 35.0583 36.7865 34.45C36.2531 32.95 36.0781 31.3166 36.3281 29.7416C36.3698 29.4916 36.3698 29.0833 36.5865 28.9166C36.7865 28.7583 37.0449 28.9833 37.1282 29.1583C37.1865 29.2833 37.2115 29.425 37.2365 29.5666C37.3699 30.4583 37.5116 31.3416 37.6449 32.2333C37.7199 32.7166 37.7199 34.1 38.595 33.875C39.0784 33.75 39.095 33.0166 39.2117 32.625C39.5034 31.65 40.6535 27.55 42.287 28.1333C43.012 28.4 43.0287 29.4583 43.0203 30.0916C43.0203 30.9833 42.8287 31.8833 42.8537 32.775C42.8703 33.25 43.0954 33.7166 43.4704 34.0166C43.9371 34.3833 44.6205 34.4583 45.1539 34.2083C45.5956 34 45.9206 33.5916 46.1039 33.1416C46.9457 31.0833 44.9538 28.975 45.9289 26.9583C47.154 24.4166 47.6791 28.45 47.7291 29.5166C47.7791 30.6916 47.4957 33.575 48.8208 34.2166C49.3292 34.4666 50.1126 34.1333 50.3626 33.6333C50.821 32.725 50.0209 31.2333 49.5959 30.45C49.1959 29.725 48.8708 28.9833 48.9375 28.1333C48.9708 27.6416 49.1875 27.1416 49.5876 26.85C50.271 26.3666 51.0794 26.825 51.5294 27.4C52.0044 27.9916 52.7878 29.05 51.9378 29.5583C51.6294 29.7416 51.4377 29.3333 51.246 29.7666C51.171 29.9416 51.271 30.1833 51.346 30.3416C51.4461 30.5583 51.4877 30.7416 51.5294 30.975C51.6294 31.4833 51.7544 31.9916 51.9128 32.4833C52.0294 32.85 52.1961 33.25 52.5461 33.4166C52.8128 33.5416 53.1295 33.5083 53.4045 33.4166C53.6796 33.3166 53.9296 33.1666 54.2046 33.05C54.3463 32.9916 54.4963 32.9416 54.6463 32.9583C54.9297 32.9916 54.988 33.1833 54.9713 33.4333L54.988 33.425Z" fill="white"></path>
    <path d="M39.67 26.4249C39.4199 26.7582 38.7615 27.2999 38.9199 27.8665C39.0449 28.3249 39.5449 27.9415 39.6116 28.0415C39.87 28.4499 38.9699 29.3415 38.3615 29.0749C37.8531 28.8499 37.8865 28.2415 37.9865 27.7749C38.1032 27.1999 38.4199 26.7249 38.8366 26.3249C38.9949 26.1749 39.4699 25.6332 39.6033 26.0415C39.6366 26.1415 39.67 26.3249 39.67 26.4249Z" fill="white"></path>
    <path d="M35.2279 34.9333C35.0112 35.6166 34.7028 36.2333 33.9611 36.3583C33.5944 36.4166 33.1527 36.3583 32.9193 36.0583C32.6527 35.7249 32.5193 35.2916 32.561 34.8666C32.611 34.3416 32.9193 33.8416 33.3694 33.5749C33.4861 33.4999 33.6277 33.4416 33.7694 33.4749C34.0944 33.5499 33.9611 33.9749 33.8944 34.1833C33.8194 34.4416 33.6694 34.7833 33.8361 35.0416C34.3278 35.8166 34.7695 34.5583 35.2279 34.9416V34.9333Z" fill="white"></path>
    <path d="M35.1447 29.0581C36.7198 28.1414 34.703 25.8581 33.3696 27.2248C32.9029 27.7081 32.8362 28.5248 33.2362 29.0581C33.7446 29.7331 34.078 29.4998 33.5112 30.2664C33.1112 30.8081 29.0359 33.5831 29.1692 33.9664C29.2859 34.3081 31.5111 34.1831 31.9778 33.7581C32.4778 33.2998 33.0695 32.8164 33.5446 32.3331C34.3113 31.5581 34.9364 30.7498 35.6531 29.9331C35.4197 29.7331 34.7697 29.4248 35.153 29.0581H35.1447ZM34.553 29.0664C34.0863 29.1831 33.5779 28.1414 34.1113 28.0414C34.5447 27.9581 35.0614 28.9414 34.553 29.0664Z" fill="white"></path>
    <path d="M57.8633 44.0833C57.4799 43.7416 56.9382 43.8583 56.4632 43.8583C55.3548 43.8583 54.2463 43.8499 53.1296 43.8416C52.5379 43.8416 51.9461 43.9166 51.3544 43.9333C51.0711 43.9333 49.8376 44.0666 49.6959 43.6916C49.6126 43.4583 50.1293 43.4249 50.2793 43.3833C50.621 43.2916 51.1377 43.2833 51.4794 43.1833C52.3295 42.8999 53.0712 42.7416 53.788 42.1833C54.788 41.4083 55.3131 40.1666 55.0881 38.9083C54.8297 37.4583 53.2462 36.2166 51.7544 36.8499C51.0127 37.1666 50.5794 37.7416 50.421 38.5166C50.346 38.8833 50.3043 39.2749 50.2793 39.6416C50.246 40.0833 50.2293 40.5583 49.8793 40.8749C49.6043 41.1333 49.2042 41.1916 48.8292 41.2249C47.7124 41.3249 46.5373 41.8916 45.5956 42.4833C45.1372 42.7749 44.5872 43.1416 44.2872 43.6083C44.2372 43.6916 44.0205 44.2583 43.9788 44.2749C43.5038 44.4583 43.1621 41.0666 43.0621 40.6583C42.837 39.7916 42.0536 36.5166 40.9369 36.4916C40.1785 36.4749 39.9201 37.9833 39.9951 38.4833C40.1785 39.6416 40.9285 40.7666 41.3036 41.8666C42.0536 44.0583 42.212 46.1916 40.7952 48.0916C39.8118 49.4166 37.6449 51.8416 35.7698 51.4083C35.3031 51.2999 34.5864 50.8666 34.7364 50.2499C34.828 49.8666 35.4781 49.6333 35.7948 49.4166C37.1782 48.4583 38.3783 47.3166 39.1451 45.7916C39.9618 44.1916 40.0618 41.6833 38.72 40.2916C39.6034 40.4249 39.9868 40.7583 39.5368 39.5999C39.3367 39.0749 39.0617 38.5583 38.6867 38.1416C38.3367 37.7583 37.8616 37.4333 37.3199 37.5666C36.8949 37.6749 36.5532 38.0166 36.3865 38.4166C36.1448 38.9833 36.1948 39.7666 36.4615 40.3166C36.8782 41.1666 37.82 41.5666 38.0866 42.5499C38.4783 43.9916 37.4616 44.8499 36.4948 45.7166C36.1198 46.0499 34.9447 47.0166 34.4697 47.3749C34.4697 46.6666 34.603 45.9416 34.603 45.2416C33.9863 45.2416 33.5113 46.9166 33.3779 47.3416C33.2946 47.6083 33.2612 48.1166 33.1029 48.3583C32.8112 48.7999 32.2445 49.0583 31.7945 49.3083C31.2444 49.6083 30.6944 49.9333 30.1443 50.2583C28.9692 50.9583 27.8275 51.7166 26.7357 52.5333C26.6024 52.6333 26.469 52.7333 26.344 52.8333C26.169 52.9666 25.969 53.1416 25.9773 53.3666C26.0023 54.2499 28.7442 52.9749 29.1692 52.8166C29.9026 52.5499 30.636 52.2583 31.3527 51.9666C31.5611 51.8833 32.5278 51.2999 32.7445 51.3833C32.8612 51.4249 33.0779 52.2083 33.1112 52.2749C33.3613 52.7416 33.7613 53.1333 34.203 53.4166C35.3698 54.1499 36.7199 54.0666 37.92 53.4833C39.0034 52.9583 39.9701 52.1916 40.7869 51.2999C41.1952 50.8583 41.5703 50.3833 41.9036 49.8833C42.1286 49.5499 42.712 48.9083 43.1704 49.1416C43.3704 49.2416 43.7121 50.0583 43.8871 50.2833C44.1955 50.6499 44.5705 50.9583 44.9372 51.2666C46.8624 52.9083 50.5877 53.1583 50.5877 53.1583C50.5877 53.1583 51.1711 52.7916 51.1961 52.0249C51.2211 51.2749 50.3627 51.1333 49.8043 50.8416C48.3625 50.0916 48.4625 48.9999 49.3793 48.5416C50.6544 47.8999 51.8295 48.2083 54.063 47.6749C54.5214 47.5666 56.3882 47.3916 56.6882 46.9999C56.9632 46.6416 56.9632 45.6499 57.1799 45.1749C57.2716 44.9666 57.9133 44.2666 57.8633 44.0999V44.0833ZM51.6294 39.4416C51.7878 38.8499 53.1629 39.5916 52.9462 40.0416C52.6795 40.6083 51.6294 39.9333 51.6294 39.4416ZM48.6125 46.9999C47.9041 47.2416 47.2624 47.4666 47.0624 48.2666C46.9791 48.6083 47.3207 49.5333 46.9874 49.7249C46.5207 49.9916 45.5706 49.0833 45.2539 48.7666C44.5705 48.0833 43.2204 45.4333 44.9706 45.6083C45.5373 45.6666 46.8457 45.8416 47.6541 45.9249C48.0291 45.9666 49.971 46.5166 48.6125 46.9999Z" fill="white"></path>
    <path d="M12.401 53.6499C10.8092 54.1165 10.5509 52.1082 10.5842 51.0665C10.6092 50.4082 10.7092 48.3499 11.9593 47.0332C12.026 47.5499 11.2343 51.4499 12.076 51.5832C12.4844 51.6499 12.9428 50.0415 13.3511 51.2665C13.5761 51.9332 13.0511 53.3665 12.4094 53.6499H12.401Z" fill="white"></path>
    <path d="M18.0349 41.025C15.843 42.1 13.6345 43.1333 11.4343 44.1916C11.4593 44.175 11.5677 43.5583 11.601 43.475C11.7093 43.2166 11.8594 42.975 12.026 42.7416C12.3344 42.325 12.7344 41.9416 13.1345 41.6C13.9679 40.8833 14.968 40.35 16.0264 40.0583C16.4181 39.95 16.8848 39.875 17.2598 40.0416C17.6932 40.2333 17.7849 40.65 18.0265 41.0166L18.0349 41.025Z" fill="white"></path>
    <path d="M34.203 38.5332C33.8613 38.8665 34.1196 39.8915 33.6446 39.8499C33.2696 39.9082 33.0862 38.8249 32.6695 38.6999C32.2528 38.5749 31.9445 38.9165 31.6528 39.2415C31.2777 39.6582 31.086 40.3999 30.5277 40.3915C30.1776 40.3832 30.0693 40.3665 29.9359 40.0499C29.8026 39.7332 29.9109 39.0999 29.6193 38.8999C29.3359 38.6999 28.6275 39.0332 28.4692 39.1332C28.1191 36.6665 27.7691 34.2082 27.4107 31.7415C27.9191 31.8332 28.5275 31.9582 28.6275 31.4499C28.6775 31.1749 28.0525 29.7249 27.8691 29.2499C27.6191 28.6082 27.3357 27.6999 26.819 27.2415C26.4273 26.8999 25.8356 27.1332 25.3522 27.5999C24.9855 27.9582 25.0439 28.6749 25.1439 29.1832C25.7273 32.3582 26.1273 35.4665 26.7107 38.6415C26.8107 39.1999 26.9774 40.1415 26.444 40.3499C26.094 40.4915 25.7189 40.1582 25.4522 39.8915C25.1856 39.6249 24.9939 39.2832 24.6938 39.0415C24.1188 38.5915 23.2687 38.6415 22.6437 39.0249C22.027 39.4082 21.6103 40.0499 21.3436 40.7249C21.0185 41.5499 20.8269 42.6582 21.2352 43.4499C21.6436 44.2415 22.6437 44.2415 23.5187 44.0749C24.1105 43.9582 24.4688 43.1582 24.9022 43.3582C25.1606 43.4749 24.9939 43.8582 24.9189 44.1332C24.8522 44.4082 24.7772 44.7165 24.5855 44.9332C23.8854 45.7415 23.1771 46.5499 22.2686 47.1249C21.3686 47.6915 20.4352 48.1165 19.4184 47.7915C18.4017 47.4665 17.4932 46.3665 17.6933 45.3165C17.7683 44.9499 17.7599 44.5832 17.7599 44.2082C17.7599 43.8332 17.5349 42.9999 17.1599 42.9915C16.9099 42.9915 16.7432 43.1249 16.6098 43.8415C16.3765 45.1165 15.8598 46.7999 16.5765 48.1249C17.2932 49.4415 18.76 50.3249 20.2601 50.3415C21.9269 50.3582 23.4854 49.3665 24.5022 48.0415C25.0605 47.3082 25.4772 46.4749 25.7856 45.6082C25.944 45.1665 26.0856 44.7165 26.2023 44.2665C26.2606 44.0415 26.319 43.8249 26.369 43.5999C26.4107 43.4249 26.4107 43.1749 26.5607 43.0499C26.6857 42.9499 26.8774 43.0082 26.969 43.1249C27.1774 43.3832 27.0524 43.9249 27.0107 44.2165C26.9607 44.5749 26.8774 44.9249 26.8107 45.2749C26.4023 47.3332 25.3439 49.2499 23.5604 50.4165C21.0769 52.0415 16.7015 52.2665 16.1598 48.6332C16.0681 48.0165 16.2348 45.5749 15.1847 46.2332C14.3346 46.7665 14.5597 49.6249 14.7013 50.4749C15.0097 52.2582 16.2515 53.4999 18.0183 53.8499C19.5351 54.1499 21.1352 53.9332 22.577 53.3915C24.0605 52.8332 25.4356 51.9332 26.5023 50.7582C27.0274 50.1832 27.5358 49.5165 27.8358 48.8082C28.2108 47.9165 28.4442 46.9665 28.5358 46.0082C28.5942 45.3665 28.5942 44.7082 28.5192 44.0665C28.4858 43.7499 28.3775 43.4249 28.3692 43.1165C28.3692 42.9249 28.3525 42.5999 28.5358 42.4832C29.0525 43.0665 29.5526 43.0915 30.186 42.9999C30.9777 42.8915 31.3277 42.0665 31.9695 42.0499C32.4195 42.0332 32.5612 42.4832 33.3779 42.4832C34.2863 42.4832 34.9114 42.1665 35.0864 40.9582C35.2447 39.8832 35.5031 38.9582 35.3864 38.0499C34.9864 38.1165 34.4697 38.2665 34.178 38.5499L34.203 38.5332ZM23.8271 41.9665C23.5021 42.2499 21.8436 42.1332 22.9104 41.1249C23.5104 40.5665 24.3938 41.3499 23.8271 41.9665Z" fill="white"></path>
    <path d="M25.5354 35.5664C25.6354 36.8664 23.9936 37.8331 22.9019 37.9748C22.5602 38.0164 22.1935 37.9748 21.8934 37.7914C21.5267 37.5748 21.2767 37.1998 20.8517 37.0831C20.71 37.0414 20.5517 37.0414 20.41 37.1081C20.2516 37.1748 20.135 37.3248 20.06 37.4748C19.7516 38.1414 19.8349 39.0248 19.8766 39.7331C19.9266 40.4331 20.0183 41.1331 20.0933 41.8331C20.11 42.0164 20.135 42.2081 20.135 42.3914C20.1183 42.9664 20.085 46.0831 18.6182 46.1414C18.2765 46.1581 18.3348 40.9164 18.2348 40.0248C18.0765 38.5748 17.3347 39.1664 16.343 38.6331C15.5763 38.2164 15.4346 37.5498 15.4012 36.7498C15.3512 35.7414 15.5513 33.9081 15.4012 33.1331C15.2429 32.3331 14.7429 33.1248 14.6012 33.6164C14.4012 34.3164 14.4178 35.1331 14.4678 35.8498C14.5595 37.1581 13.7011 39.0248 12.1676 37.8164C10.7925 36.7414 10.9842 34.0748 11.0342 32.5414C11.0425 32.2414 10.9259 30.5998 11.4342 30.8248C11.9093 31.0414 11.9926 32.6831 12.076 33.1164C12.1676 33.5831 12.3093 35.3914 12.8177 35.5748C13.6761 35.8831 13.6594 34.2664 13.7678 33.7248C13.9261 32.9248 14.9262 28.6914 16.4347 30.2331C17.4181 31.2331 16.1096 34.7581 17.0764 35.6581C17.8014 36.3331 17.8014 35.3331 17.7931 34.6914C17.7681 33.2998 17.3514 31.8748 17.0847 30.5164C16.9597 29.8664 16.4347 26.5831 17.8348 27.0664C18.6598 27.3498 18.7515 28.9748 18.8349 29.6414C18.9682 30.6498 18.9515 31.6664 19.0682 32.6748C19.1015 32.9831 19.6599 35.8248 20.2183 34.5498C20.335 34.2914 19.7683 33.4831 19.6683 33.2081C19.4599 32.6414 19.3266 32.0664 19.2766 31.4581C19.2016 30.6164 19.3099 28.1998 20.6017 29.4248C21.1517 29.9498 21.4434 30.9498 21.5601 31.6914C21.7268 32.7414 21.1267 33.6164 21.9434 34.3914C22.5018 34.9164 23.8686 36.0748 23.9936 34.7248C24.127 33.3331 22.6352 32.0748 22.4102 30.6998C22.3518 30.3581 22.3518 29.9831 22.4435 29.6498C22.5102 29.4164 22.6268 29.1914 22.8185 29.0331C23.0102 28.8748 23.2602 28.7998 23.5102 28.8248C23.9103 28.8664 24.3103 29.2164 24.577 29.4998C24.8854 29.8331 25.1437 30.2498 25.2354 30.6998C25.3437 31.1914 25.0687 31.9081 24.577 31.1331C24.4603 31.4831 24.977 32.5248 25.077 32.8248C25.3521 33.6998 25.4604 34.6081 25.5271 35.5248L25.5354 35.5664Z" fill="white"></path>
    <path d="M79.7399 71.1249C79.6482 70.0582 79.1648 68.7999 78.0564 68.4499C77.1063 68.1499 76.0896 68.5915 75.1312 68.6165C74.5145 68.6332 73.8977 68.5832 73.2893 68.5249C72.6976 68.4666 72.1059 68.4332 71.5142 68.3832C71.3975 68.3749 71.2808 68.3665 71.1642 68.3499C71.1058 68.3499 71.2225 67.6916 71.2225 67.6332C71.2225 67.4082 71.1725 67.0582 70.9975 66.9082C70.7975 66.7416 70.4974 66.7499 70.2641 66.7832L70.0224 65.9666C68.3889 66.2332 69.0473 68.2915 69.0473 68.2915L21.26 67.6749C21.335 67.7999 21.4017 67.9249 21.4767 68.0332C21.685 68.3582 21.9017 68.6415 22.1351 68.8915C22.1434 68.8999 22.1518 68.9082 22.1601 68.9165C22.8268 69.6082 23.5935 70.0749 24.4603 70.3916C24.4603 70.3916 24.4686 70.3916 24.4769 70.3916C25.5937 70.7749 26.7605 70.8499 27.8272 70.9582C28.0856 70.9666 28.3523 70.9749 28.619 70.9832C34.4861 70.9832 61.6967 70.9082 69.439 70.9082C69.4224 70.9415 69.3974 70.9749 69.3807 71.0166C69.1557 71.5166 69.214 72.1499 69.3307 72.6749C69.439 73.1332 69.8391 74.0582 70.4641 73.7665C70.6808 73.6665 70.8141 73.4582 70.9308 73.2665C70.9308 73.2665 76.873 73.2499 76.8813 73.2499C77.3897 74.0082 78.3064 74.3915 79.1482 73.8249C80.0399 73.2165 79.8399 72.0415 79.7649 71.1165L79.7399 71.1249ZM76.648 72.2249L74.9061 72.1665H74.8061C74.8061 72.1665 74.8061 72.0999 74.7895 72.0749C74.7145 71.8499 74.4061 71.7499 74.0811 71.7499C73.9311 71.7499 73.8144 71.7666 73.7144 71.7916C73.681 71.7999 73.6477 71.8082 73.6144 71.8249C73.5977 71.8249 73.531 71.8582 73.5144 71.8665C73.4977 71.8665 73.481 71.8832 73.4644 71.8915C73.3227 71.9749 73.2727 72.0832 73.256 72.1499C73.256 72.1832 71.6392 72.1749 70.7975 72.1499C70.7975 72.1499 70.2558 71.6249 70.9392 70.8499L76.5563 70.9415C76.5563 70.9415 77.1897 71.6332 76.648 72.2499V72.2249Z" fill="white"></path>
  </g>
  <defs>
    <clipPath id="clip0_478_78">
      <rect width="100" height="100" fill="white"></rect>
    </clipPath>
  </defs>
</svg>
