<svg xmlns="http://www.w3.org/2000/svg" width="432" height="432" viewbox="0 0 432 432" preserveAspectRatio="none"><rect x="0" y="0" width="100%" height="100%" fill="rgb(71, 57, 149)" /><circle cx="36" cy="36" r="30" fill="none" stroke="#222" style="opacity:0.15;stroke-width:12px;" /><circle cx="36" cy="36" r="15" fill="#222" fill-opacity="0.15" /><circle cx="108" cy="36" r="30" fill="none" stroke="#ddd" style="opacity:0.02;stroke-width:12px;" /><circle cx="108" cy="36" r="15" fill="#ddd" fill-opacity="0.089333333333333" /><circle cx="180" cy="36" r="30" fill="none" stroke="#ddd" style="opacity:0.072;stroke-width:12px;" /><circle cx="180" cy="36" r="15" fill="#222" fill-opacity="0.13266666666667" /><circle cx="252" cy="36" r="30" fill="none" stroke="#ddd" style="opacity:0.10666666666667;stroke-width:12px;" /><circle cx="252" cy="36" r="15" fill="#222" fill-opacity="0.046" /><circle cx="324" cy="36" r="30" fill="none" stroke="#ddd" style="opacity:0.072;stroke-width:12px;" /><circle cx="324" cy="36" r="15" fill="#222" fill-opacity="0.13266666666667" /><circle cx="396" cy="36" r="30" fill="none" stroke="#222" style="opacity:0.15;stroke-width:12px;" /><circle cx="396" cy="36" r="15" fill="#222" fill-opacity="0.046" /><circle cx="36" cy="108" r="30" fill="none" stroke="#ddd" style="opacity:0.054666666666667;stroke-width:12px;" /><circle cx="36" cy="108" r="15" fill="#ddd" fill-opacity="0.054666666666667" /><circle cx="108" cy="108" r="30" fill="none" stroke="#ddd" style="opacity:0.02;stroke-width:12px;" /><circle cx="108" cy="108" r="15" fill="#222" fill-opacity="0.13266666666667" /><circle cx="180" cy="108" r="30" fill="none" stroke="#222" style="opacity:0.028666666666667;stroke-width:12px;" /><circle cx="180" cy="108" r="15" fill="#ddd" fill-opacity="0.14133333333333" /><circle cx="252" cy="108" r="30" fill="none" stroke="#ddd" style="opacity:0.124;stroke-width:12px;" /><circle cx="252" cy="108" r="15" fill="#ddd" fill-opacity="0.124" /><circle cx="324" cy="108" r="30" fill="none" stroke="#ddd" style="opacity:0.072;stroke-width:12px;" /><circle cx="324" cy="108" r="15" fill="#222" fill-opacity="0.080666666666667" /><circle cx="396" cy="108" r="30" fill="none" stroke="#ddd" style="opacity:0.072;stroke-width:12px;" /><circle cx="396" cy="108" r="15" fill="#222" fill-opacity="0.098" /><circle cx="36" cy="180" r="30" fill="none" stroke="#222" style="opacity:0.15;stroke-width:12px;" /><circle cx="36" cy="180" r="15" fill="#222" fill-opacity="0.063333333333333" /><circle cx="108" cy="180" r="30" fill="none" stroke="#ddd" style="opacity:0.037333333333333;stroke-width:12px;" /><circle cx="108" cy="180" r="15" fill="#ddd" fill-opacity="0.02" /><circle cx="180" cy="180" r="30" fill="none" stroke="#ddd" style="opacity:0.054666666666667;stroke-width:12px;" /><circle cx="180" cy="180" r="15" fill="#222" fill-opacity="0.13266666666667" /><circle cx="252" cy="180" r="30" fill="none" stroke="#222" style="opacity:0.15;stroke-width:12px;" /><circle cx="252" cy="180" r="15" fill="#222" fill-opacity="0.15" /><circle cx="324" cy="180" r="30" fill="none" stroke="#ddd" style="opacity:0.072;stroke-width:12px;" /><circle cx="324" cy="180" r="15" fill="#222" fill-opacity="0.098" /><circle cx="396" cy="180" r="30" fill="none" stroke="#ddd" style="opacity:0.037333333333333;stroke-width:12px;" /><circle cx="396" cy="180" r="15" fill="#ddd" fill-opacity="0.072" /><circle cx="36" cy="252" r="30" fill="none" stroke="#222" style="opacity:0.11533333333333;stroke-width:12px;" /><circle cx="36" cy="252" r="15" fill="#222" fill-opacity="0.028666666666667" /><circle cx="108" cy="252" r="30" fill="none" stroke="#222" style="opacity:0.063333333333333;stroke-width:12px;" /><circle cx="108" cy="252" r="15" fill="#ddd" fill-opacity="0.10666666666667" /><circle cx="180" cy="252" r="30" fill="none" stroke="#ddd" style="opacity:0.10666666666667;stroke-width:12px;" /><circle cx="180" cy="252" r="15" fill="#222" fill-opacity="0.063333333333333" /><circle cx="252" cy="252" r="30" fill="none" stroke="#222" style="opacity:0.028666666666667;stroke-width:12px;" /><circle cx="252" cy="252" r="15" fill="#222" fill-opacity="0.11533333333333" /><circle cx="324" cy="252" r="30" fill="none" stroke="#ddd" style="opacity:0.072;stroke-width:12px;" /><circle cx="324" cy="252" r="15" fill="#ddd" fill-opacity="0.037333333333333" /><circle cx="396" cy="252" r="30" fill="none" stroke="#222" style="opacity:0.098;stroke-width:12px;" /><circle cx="396" cy="252" r="15" fill="#ddd" fill-opacity="0.072" /><circle cx="36" cy="324" r="30" fill="none" stroke="#222" style="opacity:0.15;stroke-width:12px;" /><circle cx="36" cy="324" r="15" fill="#222" fill-opacity="0.15" /><circle cx="108" cy="324" r="30" fill="none" stroke="#222" style="opacity:0.13266666666667;stroke-width:12px;" /><circle cx="108" cy="324" r="15" fill="#ddd" fill-opacity="0.054666666666667" /><circle cx="180" cy="324" r="30" fill="none" stroke="#ddd" style="opacity:0.02;stroke-width:12px;" /><circle cx="180" cy="324" r="15" fill="#ddd" fill-opacity="0.037333333333333" /><circle cx="252" cy="324" r="30" fill="none" stroke="#222" style="opacity:0.063333333333333;stroke-width:12px;" /><circle cx="252" cy="324" r="15" fill="#222" fill-opacity="0.15" /><circle cx="324" cy="324" r="30" fill="none" stroke="#222" style="opacity:0.098;stroke-width:12px;" /><circle cx="324" cy="324" r="15" fill="#ddd" fill-opacity="0.072" /><circle cx="396" cy="324" r="30" fill="none" stroke="#222" style="opacity:0.080666666666667;stroke-width:12px;" /><circle cx="396" cy="324" r="15" fill="#ddd" fill-opacity="0.072" /><circle cx="36" cy="396" r="30" fill="none" stroke="#ddd" style="opacity:0.124;stroke-width:12px;" /><circle cx="36" cy="396" r="15" fill="#ddd" fill-opacity="0.124" /><circle cx="108" cy="396" r="30" fill="none" stroke="#ddd" style="opacity:0.14133333333333;stroke-width:12px;" /><circle cx="108" cy="396" r="15" fill="#222" fill-opacity="0.028666666666667" /><circle cx="180" cy="396" r="30" fill="none" stroke="#222" style="opacity:0.13266666666667;stroke-width:12px;" /><circle cx="180" cy="396" r="15" fill="#ddd" fill-opacity="0.02" /><circle cx="252" cy="396" r="30" fill="none" stroke="#ddd" style="opacity:0.054666666666667;stroke-width:12px;" /><circle cx="252" cy="396" r="15" fill="#ddd" fill-opacity="0.054666666666667" /><circle cx="324" cy="396" r="30" fill="none" stroke="#222" style="opacity:0.046;stroke-width:12px;" /><circle cx="324" cy="396" r="15" fill="#222" fill-opacity="0.15" /><circle cx="396" cy="396" r="30" fill="none" stroke="#222" style="opacity:0.13266666666667;stroke-width:12px;" /><circle cx="396" cy="396" r="15" fill="#ddd" fill-opacity="0.072" /></svg>